<?xml version="1.0" encoding="UTF-8" standalone="no"?>
<!DOCTYPE svg PUBLIC "-//W3C//DTD SVG 1.1//EN" "http://www.w3.org/Graphics/SVG/1.1/DTD/svg11.dtd">
<svg width="1872px" height="1056px" version="1.1" xmlns="http://www.w3.org/2000/svg" xmlns:xlink="http://www.w3.org/1999/xlink" xml:space="preserve" xmlns:serif="http://www.serif.com/" style="fill-rule:evenodd;clip-rule:evenodd;stroke-linecap:round;stroke-linejoin:round;stroke-miterlimit:2;">
    <g id="_4.5mm-PCB-Wrapper" serif:id="4.5mm PCB Wrapper">
        <g id="Bottom">
            <path d="M1213.23,1049.71c0,0 0.001,-215.211 0.001,-251.29c0,-1.353 -0.538,-2.651 -1.495,-3.608c-0.957,-0.957 -2.254,-1.494 -3.608,-1.494l-4.913,0c-1.353,0 -2.651,-0.538 -3.608,-1.495c-0.957,-0.956 -1.494,-2.254 -1.494,-3.608c0,-50.984 0,-467.944 0,-518.929c0,-1.353 0.537,-2.651 1.494,-3.608c0.957,-0.956 2.255,-1.494 3.608,-1.494c1.584,0 3.329,0 4.913,0c1.354,0 2.651,-0.538 3.608,-1.494c0.957,-0.957 1.495,-2.255 1.495,-3.608c0,-36.079 0,-251.29 0,-251.29" style="fill:none;stroke:#00f;stroke-width:0.38px;"/>
            <path d="M1171.65,36.143l0,985.225" style="fill:none;stroke:#00f;stroke-width:0.38px;"/>
            <path d="M1182.05,7.797l-10.398,0l0,4.864" style="fill:none;stroke:#00f;stroke-width:0.38px;stroke-linecap:butt;"/>
            <path d="M1171.65,12.661l0,23.482c0,0 25.873,0 31.181,0c0.165,0 0.324,-0.065 0.441,-0.182c0.117,-0.117 0.183,-0.276 0.183,-0.441c0,-3.689 0,-17.099 0,-20.788c0,-0.165 -0.066,-0.324 -0.183,-0.441c-0.117,-0.116 -0.276,-0.182 -0.441,-0.182c-2.977,0 -12.141,0 -15.118,0c-0.165,0 -0.324,0.066 -0.441,0.182c-0.117,0.117 -0.183,0.276 -0.183,0.441c0,2.136 0,7.314 0,9.449c0,0.166 0.066,0.324 0.183,0.441c0.117,0.117 0.276,0.183 0.441,0.183c1.049,0 2.731,0 3.779,0c0.345,0 0.624,-0.279 0.624,-0.624c0,-1.048 0,-2.731 0,-3.779c0,-0.7 0.567,-1.266 1.266,-1.266c1.049,0 2.731,0 3.78,0c0.336,0 0.658,0.133 0.895,0.37c0.238,0.238 0.371,0.56 0.371,0.896c0,2.135 0,7.313 0,9.449c0,0.335 -0.133,0.657 -0.371,0.895c-0.237,0.237 -0.559,0.371 -0.895,0.371c-2.977,0 -12.141,0 -15.118,0c-0.336,0 -0.658,-0.134 -0.896,-0.371c-0.237,-0.238 -0.37,-0.56 -0.37,-0.895c0,-3.689 0,-17.099 0,-20.788c0,-0.336 0.133,-0.658 0.37,-0.895c0.238,-0.238 0.56,-0.371 0.896,-0.371c5.308,0 31.181,0 31.181,0" style="fill:none;stroke:#00f;stroke-width:0.38px;stroke-linecap:butt;"/>
            <path d="M1213.23,7.797" style="fill:none;stroke:#00f;stroke-width:0.38px;stroke-linecap:butt;"/>
            <path d="M1182.05,1049.71l-10.398,0l0,-28.347c0,0 25.872,0 31.181,0c0.165,0 0.324,0.066 0.441,0.183c0.117,0.117 0.182,0.276 0.182,0.441c0,3.689 0,17.098 0,20.787c0,0.166 -0.065,0.324 -0.182,0.441c-0.117,0.117 -0.276,0.183 -0.441,0.183c-2.978,0 -12.141,0 -15.118,0c-0.166,0 -0.325,-0.066 -0.441,-0.183c-0.117,-0.117 -0.183,-0.275 -0.183,-0.441c0,-2.135 0,-7.313 0,-9.448c0,-0.166 0.066,-0.324 0.183,-0.441c0.116,-0.117 0.275,-0.183 0.441,-0.183c1.048,0 2.73,0 3.779,0c0.344,0 0.624,0.279 0.624,0.624c0,1.048 0,2.73 0,3.779c0,0.699 0.567,1.266 1.266,1.266c1.048,0 2.731,0 3.779,0c0.336,0 0.658,-0.133 0.896,-0.371c0.237,-0.237 0.371,-0.559 0.371,-0.895c0,-2.135 0,-7.313 0,-9.449c0,-0.336 -0.134,-0.658 -0.371,-0.895c-0.238,-0.237 -0.56,-0.371 -0.896,-0.371c-2.977,0 -12.141,0 -15.118,0c-0.336,0 -0.658,0.134 -0.895,0.371c-0.237,0.237 -0.371,0.559 -0.371,0.895c0,3.689 0,17.099 0,20.788c0,0.335 0.134,0.658 0.371,0.895c0.237,0.237 0.559,0.371 0.895,0.371c5.309,0 31.181,0 31.181,0" style="fill:none;stroke:#00f;stroke-width:0.38px;stroke-linecap:butt;"/>
            <path d="M1213.23,1049.71" style="fill:none;stroke:#00f;stroke-width:0.38px;stroke-linecap:butt;"/>
            <g>
                <path d="M1177.23,827.339c0,-5.264 4.274,-9.538 9.538,-9.538c5.264,0 9.538,4.274 9.538,9.538c0,5.264 -4.274,9.537 -9.538,9.537c-5.264,0 -9.538,-4.273 -9.538,-9.537Z" style="fill:none;stroke:#00f;stroke-width:0.38px;stroke-miterlimit:1.5;"/>
            </g>
            <g>
                <path d="M1177.23,230.173c0,-5.264 4.274,-9.537 9.538,-9.537c5.264,0 9.538,4.273 9.538,9.537c0,5.264 -4.274,9.538 -9.538,9.538c-5.264,0 -9.538,-4.274 -9.538,-9.538Z" style="fill:none;stroke:#00f;stroke-width:0.38px;stroke-miterlimit:1.5;"/>
            </g>
        </g>
        <g id="Left">
            <path d="M1371.01,434.645l6.301,0l0,41.575l-34.647,0c0,0 0,-25.873 0,-31.181c0,-0.165 0.066,-0.324 0.183,-0.441c0.116,-0.117 0.275,-0.183 0.441,-0.183c3.688,0 17.098,0 20.787,0c0.165,0 0.324,0.066 0.441,0.183c0.117,0.117 0.183,0.276 0.183,0.441c0,2.977 0,12.141 0,15.118c0,0.165 -0.066,0.324 -0.183,0.441c-0.117,0.117 -0.276,0.183 -0.441,0.183c-2.136,0 -7.313,0 -9.449,0c-0.165,0 -0.324,-0.066 -0.441,-0.183c-0.117,-0.117 -0.183,-0.276 -0.183,-0.441c0,-1.049 0,-2.731 0,-3.779c0,-0.345 0.28,-0.624 0.624,-0.624c1.049,0 2.731,0 3.78,0c0.699,0 1.266,-0.567 1.266,-1.266c0,-1.049 0,-2.731 0,-3.78c0,-0.336 -0.134,-0.658 -0.371,-0.895c-0.238,-0.238 -0.56,-0.371 -0.895,-0.371c-2.136,0 -7.314,0 -9.449,0c-0.336,0 -0.658,0.133 -0.895,0.371c-0.238,0.237 -0.371,0.559 -0.371,0.895c0,2.977 0,12.141 0,15.118c0,0.336 0.133,0.658 0.37,0.896c0.238,0.237 0.56,0.37 0.896,0.37c3.689,0 17.098,0 20.787,0c0.336,0 0.658,-0.133 0.896,-0.37c0.237,-0.238 0.37,-0.56 0.37,-0.896c0,-5.308 0,-31.181 0,-31.181" style="fill:none;stroke:#00f;stroke-width:0.38px;stroke-linecap:butt;"/>
            <path d="M1342.66,7.559c0,0 -41.84,0 -56.629,0c-1.353,0 -2.651,0.538 -3.608,1.495c-0.956,0.956 -1.494,2.254 -1.494,3.607" style="fill:none;stroke:#00f;stroke-width:0.38px;stroke-miterlimit:1.5;"/>
            <path d="M1280.93,266.515c0,92.677 0,183.061 0,204.603c0,1.353 0.538,2.651 1.494,3.608c0.957,0.957 2.255,1.494 3.608,1.494c14.789,0 56.629,0 56.629,0" style="fill:none;stroke:#00f;stroke-width:0.38px;stroke-miterlimit:1.5;"/>
            <path d="M1371.01,434.646l-78.738,0l0.739,-382.47l0,-0.002c0,-1.679 1.361,-3.04 3.04,-3.04l74.959,0" style="fill:none;stroke:#00f;stroke-width:0.38px;stroke-miterlimit:1.5;"/>
            <path d="M1371.01,49.134l6.301,0l0,-41.575l-34.647,0c0,0 0,25.873 0,31.181c0,0.166 0.066,0.324 0.183,0.441c0.116,0.117 0.275,0.183 0.441,0.183c3.688,0 17.098,0 20.787,0c0.165,0 0.324,-0.066 0.441,-0.183c0.117,-0.117 0.183,-0.275 0.183,-0.441c0,-2.977 0,-12.141 0,-15.118c0,-0.165 -0.066,-0.324 -0.183,-0.441c-0.117,-0.117 -0.276,-0.183 -0.441,-0.183c-2.136,0 -7.313,0 -9.449,0c-0.165,0 -0.324,0.066 -0.441,0.183c-0.117,0.117 -0.183,0.276 -0.183,0.441c0,1.049 0,2.731 0,3.78c0,0.344 0.28,0.623 0.624,0.623c1.049,0 2.731,0 3.78,0c0.699,0 1.266,0.567 1.266,1.266c0,1.049 0,2.731 0,3.78c0,0.336 -0.134,0.658 -0.371,0.895c-0.238,0.238 -0.56,0.371 -0.895,0.371c-2.136,0 -7.314,0 -9.449,0c-0.336,0 -0.658,-0.133 -0.895,-0.371c-0.238,-0.237 -0.371,-0.559 -0.371,-0.895c0,-2.977 0,-12.141 0,-15.118c0,-0.336 0.133,-0.658 0.37,-0.896c0.238,-0.237 0.56,-0.37 0.896,-0.37c3.689,0 17.098,0 20.787,0c0.336,0 0.658,0.133 0.896,0.37c0.237,0.238 0.37,0.56 0.37,0.896c0,5.308 0,31.181 0,31.181" style="fill:none;stroke:#00f;stroke-width:0.38px;stroke-linecap:butt;"/>
        </g>
        <g id="Top-left" serif:id="Top left">
            <path d="M1239.35,42.191l0,249.589l-41.243,205.228" style="fill:none;stroke:#00f;stroke-width:0.38px;"/>
            <path d="M1198.11,512.126l20.634,0l0,-16.837l40.441,0l0,22.506l6.625,0c0,0 0,-212.454 0,-243.732c0,-2.113 1.713,-3.827 3.827,-3.827c2.285,0 5.179,0 7.464,0c1.015,0 1.989,-0.403 2.706,-1.121c0.718,-0.717 1.121,-1.691 1.121,-2.706c0,-31.906 0,-252.565 0,-252.565" style="fill:none;stroke:#00f;stroke-width:0.38px;"/>
            <path d="M1280.93,13.844l0,-6.285l-41.575,0l0,34.632c0,0 25.873,0 31.181,0c0.166,0 0.324,-0.066 0.441,-0.183c0.117,-0.117 0.183,-0.276 0.183,-0.441c0,-3.689 0,-17.098 0,-20.787c0,-0.166 -0.066,-0.324 -0.183,-0.441c-0.117,-0.117 -0.275,-0.183 -0.441,-0.183c-2.977,0 -12.141,0 -15.118,0c-0.165,0 -0.324,0.066 -0.441,0.183c-0.117,0.117 -0.182,0.275 -0.182,0.441c0,2.135 0,7.313 0,9.448c0,0.166 0.065,0.325 0.182,0.441c0.117,0.117 0.276,0.183 0.441,0.183c1.049,0 2.731,0 3.78,0c0.344,0 0.623,-0.279 0.623,-0.623c0,-1.049 0,-2.731 0,-3.78c0,-0.699 0.567,-1.266 1.267,-1.266c1.048,0 2.73,0 3.779,0c0.336,0 0.658,0.133 0.895,0.371c0.238,0.237 0.371,0.559 0.371,0.895c0,2.135 0,7.313 0,9.449c0,0.336 -0.133,0.658 -0.371,0.895c-0.237,0.238 -0.559,0.371 -0.895,0.371c-2.977,0 -12.141,0 -15.118,0c-0.336,0 -0.658,-0.133 -0.895,-0.371c-0.238,-0.237 -0.371,-0.559 -0.371,-0.895c0,-3.689 0,-17.099 0,-20.788c0,-0.335 0.133,-0.657 0.371,-0.895c0.237,-0.237 0.559,-0.371 0.895,-0.371l31.181,0Z" style="fill:none;stroke:#00f;stroke-width:0.38px;stroke-linecap:butt;"/>
            <g>
                <path d="M1264.01,236.22c0,5.264 -4.274,9.538 -9.538,9.538c-5.264,0 -9.537,-4.274 -9.537,-9.538c0,-5.263 4.273,-9.537 9.537,-9.537c5.264,0 9.538,4.274 9.538,9.537Z" style="fill:none;stroke:#00f;stroke-width:0.38px;stroke-miterlimit:1.5;"/>
            </g>
        </g>
        <g id="Top-right" serif:id="Top right">
            <path d="M1280.93,1042.96c0,0 0,-215.21 0,-251.289c0,-1.354 -0.538,-2.651 -1.494,-3.608c-0.957,-0.957 -2.255,-1.495 -3.608,-1.495c-1.584,0 -3.33,0 -4.914,0c-1.353,0 -2.651,-0.537 -3.608,-1.494c-0.957,-0.957 -1.494,-2.255 -1.494,-3.608c0,-35.353 0,-242.457 0,-242.457c0,0 -6.625,0 -6.625,0l0,22.223l-40.441,0l0,-16.551l-20.634,0" style="fill:none;stroke:#00f;stroke-width:0.38px;stroke-miterlimit:1.5;"/>
            <path d="M1198.11,559.793l41.243,205.398l0,249.419" style="fill:none;stroke:#00f;stroke-width:0.38px;stroke-miterlimit:1.5;"/>
            <path d="M1280.93,1042.96l0,6.285l-41.575,0l0,-34.631c0,0 25.873,0 31.181,0c0.166,0 0.324,0.065 0.441,0.182c0.117,0.117 0.183,0.276 0.183,0.441c0,3.689 0,17.099 0,20.788c0,0.165 -0.066,0.324 -0.183,0.441c-0.117,0.117 -0.275,0.182 -0.441,0.182c-2.977,0 -12.141,0 -15.118,0c-0.165,0 -0.324,-0.065 -0.441,-0.182c-0.117,-0.117 -0.182,-0.276 -0.182,-0.441c0,-2.136 0,-7.314 0,-9.449c0,-0.165 0.065,-0.324 0.182,-0.441c0.117,-0.117 0.276,-0.183 0.441,-0.183c1.049,0 2.731,0 3.78,0c0.344,0 0.623,0.279 0.623,0.624c0,1.049 0,2.731 0,3.779c0,0.7 0.567,1.267 1.267,1.267c1.048,0 2.73,0 3.779,0c0.336,0 0.658,-0.134 0.895,-0.371c0.238,-0.238 0.371,-0.56 0.371,-0.896c0,-2.135 0,-7.313 0,-9.448c0,-0.336 -0.133,-0.658 -0.371,-0.896c-0.237,-0.237 -0.559,-0.371 -0.895,-0.371c-2.977,0 -12.141,0 -15.118,0c-0.336,0 -0.658,0.134 -0.895,0.371c-0.238,0.238 -0.371,0.56 -0.371,0.896c0,3.689 0,17.098 0,20.787c0,0.336 0.133,0.658 0.371,0.895c0.237,0.238 0.559,0.371 0.895,0.371l31.181,0Z" style="fill:none;stroke:#00f;stroke-width:0.38px;stroke-linecap:butt;"/>
            <g>
                <path d="M1264.01,820.58c0,5.264 -4.274,9.538 -9.538,9.538c-5.264,0 -9.537,-4.274 -9.537,-9.538c0,-5.264 4.273,-9.538 9.537,-9.538c5.264,0 9.538,4.274 9.538,9.538Z" style="fill:none;stroke:#00f;stroke-width:0.38px;stroke-miterlimit:1.5;"/>
            </g>
        </g>
        <g id="Right">
            <path d="M1301.51,476.22l0,41.575l34.647,0c0,0 0,-25.872 0,-31.181c0,-0.165 -0.065,-0.324 -0.182,-0.441c-0.117,-0.117 -0.276,-0.182 -0.441,-0.182c-3.689,0 -17.099,0 -20.788,0c-0.165,0 -0.324,0.065 -0.441,0.182c-0.116,0.117 -0.182,0.276 -0.182,0.441c0,2.977 0,12.141 0,15.118c0,0.166 0.066,0.324 0.182,0.441c0.117,0.117 0.276,0.183 0.441,0.183c2.136,0 7.314,0 9.449,0c0.166,0 0.324,-0.066 0.441,-0.183c0.117,-0.117 0.183,-0.275 0.183,-0.441c0,-1.048 0,-2.731 0,-3.779c0,-0.345 -0.279,-0.624 -0.624,-0.624c-1.048,0 -2.731,0 -3.779,0c-0.7,0 -1.266,-0.567 -1.266,-1.266c0,-1.049 0,-2.731 0,-3.78c0,-0.335 0.133,-0.657 0.37,-0.895c0.238,-0.237 0.56,-0.371 0.896,-0.371c2.135,0 7.313,0 9.449,0c0.335,0 0.657,0.134 0.895,0.371c0.237,0.238 0.371,0.56 0.371,0.895c0,2.978 0,12.141 0,15.119c0,0.335 -0.134,0.657 -0.371,0.895c-0.238,0.237 -0.56,0.371 -0.895,0.371c-3.689,0 -17.099,0 -20.788,0c-0.336,0 -0.658,-0.134 -0.895,-0.371c-0.238,-0.238 -0.371,-0.56 -0.371,-0.895c0,-5.309 0,-31.182 0,-31.182" style="fill:none;stroke:#00f;stroke-width:0.38px;stroke-linecap:butt;"/>
            <path d="M1377.29,476.22l9.261,0c0,0 0,-347.298 0,-381.732c0,-2.087 -1.692,-3.779 -3.78,-3.779l-74.959,0" style="fill:none;stroke:#00f;stroke-width:0.38px;stroke-linecap:butt;"/>
            <path d="M1307.82,90.709l-6.301,0l0,-41.575" style="fill:none;stroke:#00f;stroke-width:0.38px;stroke-linecap:butt;"/>
            <path d="M1336.16,49.134c0,0 0,25.873 0,31.181c0,0.165 -0.065,0.324 -0.182,0.441c-0.117,0.117 -0.276,0.183 -0.441,0.183c-3.689,0 -17.099,0 -20.788,0c-0.165,0 -0.324,-0.066 -0.441,-0.183c-0.116,-0.117 -0.182,-0.276 -0.182,-0.441c0,-2.977 0,-12.141 0,-15.118c0,-0.166 0.066,-0.324 0.182,-0.441c0.117,-0.117 0.276,-0.183 0.441,-0.183c2.136,0 7.314,0 9.449,0c0.166,0 0.324,0.066 0.441,0.183c0.117,0.117 0.183,0.275 0.183,0.441c0,1.048 0,2.731 0,3.779c0,0.345 -0.279,0.624 -0.624,0.624c-1.048,0 -2.731,0 -3.779,0c-0.7,0 -1.266,0.567 -1.266,1.266c0,1.049 0,2.731 0,3.78c0,0.335 0.133,0.658 0.37,0.895c0.238,0.237 0.56,0.371 0.896,0.371c2.135,0 7.313,0 9.449,0c0.335,0 0.657,-0.134 0.895,-0.371c0.237,-0.237 0.371,-0.56 0.371,-0.895c0,-2.977 0,-12.141 0,-15.118c0,-0.336 -0.134,-0.658 -0.371,-0.896c-0.238,-0.237 -0.56,-0.371 -0.895,-0.371c-3.689,0 -17.099,0 -20.788,0c-0.336,0 -0.658,0.134 -0.895,0.371c-0.238,0.238 -0.371,0.56 -0.371,0.896c0,5.308 0,31.181 0,31.181" style="fill:none;stroke:#00f;stroke-width:0.38px;stroke-linecap:butt;"/>
            <path d="M1377.31,49.134l20.585,0l0,468.661l-61.731,0" style="fill:none;stroke:#00f;stroke-width:0.38px;stroke-linecap:butt;"/>
        </g>
    </g>
    <g id="_4.5mm-Battery-Holder" serif:id="4.5mm Battery Holder">
        <path d="M636.851,759.546l0,133.861l-94.488,0l0,-196.536l24.567,0l0,-177.185l45.356,0l0,177.185l24.565,0l0,19.244l9.609,0l106.139,-96.167l0,-0.221l139.843,0l0,245.669l-139.843,0l0,-105.85l-115.748,0Z" style="fill:none;stroke:#00f;stroke-width:0.38px;"/>
        <g id="Outside-shape" serif:id="Outside shape">
            <path id="Outside-shape1" serif:id="Outside shape" d="M1171.65,481.323c0,-1.353 -0.538,-2.651 -1.495,-3.608c-0.957,-0.957 -2.255,-1.495 -3.608,-1.495" style="fill:none;stroke:#00f;stroke-width:0.38px;stroke-miterlimit:1.5;"/>
            <path id="Outside-shape2" serif:id="Outside shape" d="M859.276,476.22c-1.354,0 -2.651,0.538 -3.608,1.495c-0.957,0.957 -1.495,2.255 -1.495,3.608c0,1.584 0,3.329 0,4.913c0,1.353 -0.537,2.651 -1.494,3.608c-0.957,0.957 -2.255,1.495 -3.608,1.495c-50.984,0 -467.945,0 -518.929,0c-1.353,0 -2.651,-0.538 -3.608,-1.495c-0.957,-0.957 -1.495,-2.255 -1.495,-3.608c0,-1.584 0,-3.329 0,-4.913c0,-1.353 -0.537,-2.651 -1.494,-3.608c-0.957,-0.957 -2.255,-1.495 -3.608,-1.495" style="fill:none;stroke:#00f;stroke-width:0.38px;stroke-miterlimit:1.5;"/>
            <path id="Outside-shape3" serif:id="Outside shape" d="M12.661,476.22c-1.353,0 -2.651,0.538 -3.607,1.495c-0.957,0.957 -1.495,2.255 -1.495,3.608c0,47.456 0,411.001 0,458.457c0,1.353 0.538,2.651 1.495,3.607c0.956,0.957 2.254,1.495 3.607,1.495c37.479,0 269.797,0 307.276,0c1.353,0 2.651,-0.538 3.608,-1.495c0.957,-0.956 1.494,-2.254 1.494,-3.607c0,-1.584 0,-3.33 0,-4.914c0,-1.353 0.538,-2.651 1.495,-3.608c0.957,-0.957 2.255,-1.494 3.608,-1.494c50.984,0 467.945,0 518.929,0c1.353,0 2.651,0.537 3.608,1.494c0.957,0.957 1.494,2.255 1.494,3.608c0,1.584 0,3.33 0,4.914c0,1.353 0.538,2.651 1.495,3.607c0.957,0.957 2.254,1.495 3.608,1.495c37.478,0 269.797,0 307.275,0c1.353,0 2.651,-0.538 3.608,-1.495c0.957,-0.956 1.495,-2.254 1.495,-3.607" style="fill:none;stroke:#00f;stroke-width:0.38px;stroke-miterlimit:1.5;"/>
        </g>
        <g id="Screw-Holes-w-o-countersink" serif:id="Screw Holes w/o countersink">
            <g>
                <circle cx="32.504" cy="857.953" r="9.538" style="fill:none;stroke:#00f;stroke-width:0.38px;stroke-miterlimit:1.5;"/>
            </g>
            <g>
                <circle cx="291.024" cy="918.425" r="9.538" style="fill:none;stroke:#00f;stroke-width:0.38px;stroke-miterlimit:1.5;"/>
            </g>
            <g>
                <circle cx="888.189" cy="918.425" r="9.538" style="fill:none;stroke:#00f;stroke-width:0.38px;stroke-miterlimit:1.5;"/>
            </g>
            <g>
                <circle cx="1146.71" cy="857.953" r="9.538" style="fill:none;stroke:#00f;stroke-width:0.38px;stroke-miterlimit:1.5;"/>
            </g>
            <g>
                <circle cx="1146.71" cy="563.15" r="9.538" style="fill:none;stroke:#00f;stroke-width:0.38px;stroke-miterlimit:1.5;"/>
            </g>
            <g>
                <circle cx="888.189" cy="502.677" r="9.538" style="fill:none;stroke:#00f;stroke-width:0.38px;stroke-miterlimit:1.5;"/>
            </g>
            <g>
                <circle cx="291.024" cy="502.677" r="9.538" style="fill:none;stroke:#00f;stroke-width:0.38px;stroke-miterlimit:1.5;"/>
            </g>
            <g>
                <circle cx="32.504" cy="563.15" r="9.538" style="fill:none;stroke:#00f;stroke-width:0.38px;stroke-miterlimit:1.5;"/>
            </g>
        </g>
    </g>
    <g id="_4.5mm-Switch-Support-SMD-diodes" serif:id="4.5mm Switch Support SMD diodes">
        <g id="Laptreus-v1.2" serif:id="Laptreus v1.2">
            <g id="switch">
                <path d="M99.434,67.031l3.034,0.535l0.643,-3.647l51.254,9.037l-0.644,3.648l3.034,0.535l-2.166,12.282l-3.033,-0.534l-3.42,19.392l3.034,0.535l-2.166,12.283l-3.034,-0.535l-0.643,3.647l-51.253,-9.037l0.643,-3.648l-3.034,-0.535l2.166,-12.282l3.034,0.534l3.419,-19.392l-3.033,-0.535l2.165,-12.283Z" style="fill:none;stroke:#00f;stroke-width:0.38px;stroke-linejoin:miter;stroke-miterlimit:1.5;"/>
            </g>
            <g id="switch1" serif:id="switch">
                <path d="M170.339,79.534l3.034,0.535l0.643,-3.648l51.254,9.037l-0.644,3.648l3.034,0.535l-2.166,12.283l-3.033,-0.535l-3.42,19.392l3.034,0.535l-2.166,12.283l-3.034,-0.535l-0.643,3.648l-51.253,-9.037l0.643,-3.648l-3.034,-0.535l2.166,-12.283l3.034,0.535l3.419,-19.392l-3.033,-0.535l2.165,-12.283Z" style="fill:none;stroke:#00f;stroke-width:0.38px;stroke-linejoin:miter;stroke-miterlimit:1.5;"/>
            </g>
            <g id="switch2" serif:id="switch">
                <path d="M245.412,68.4l3.034,0.535l0.643,-3.648l51.253,9.038l-0.643,3.647l3.034,0.535l-2.166,12.283l-3.034,-0.535l-3.419,19.392l3.033,0.535l-2.165,12.283l-3.034,-0.535l-0.643,3.648l-51.254,-9.037l0.644,-3.648l-3.034,-0.535l2.166,-12.283l3.033,0.535l3.42,-19.392l-3.034,-0.535l2.166,-12.283Z" style="fill:none;stroke:#00f;stroke-width:0.38px;stroke-linejoin:miter;stroke-miterlimit:1.5;"/>
            </g>
            <g id="switch3" serif:id="switch">
                <path d="M320.485,57.267l3.033,0.535l0.643,-3.648l51.254,9.038l-0.643,3.647l3.033,0.535l-2.166,12.283l-3.033,-0.535l-3.42,19.393l3.034,0.534l-2.166,12.283l-3.033,-0.535l-0.644,3.648l-51.253,-9.037l0.643,-3.648l-3.033,-0.535l2.166,-12.283l3.033,0.535l3.419,-19.392l-3.033,-0.535l2.166,-12.283Z" style="fill:none;stroke:#00f;stroke-width:0.38px;stroke-linejoin:miter;stroke-miterlimit:1.5;"/>
            </g>
            <g id="switch4" serif:id="switch">
                <path d="M387.222,93.405l3.034,0.535l0.643,-3.648l51.253,9.038l-0.643,3.647l3.034,0.535l-2.166,12.283l-3.034,-0.535l-3.419,19.392l3.033,0.535l-2.165,12.283l-3.034,-0.535l-0.643,3.648l-51.254,-9.037l0.644,-3.648l-3.034,-0.535l2.166,-12.283l3.033,0.535l3.42,-19.392l-3.034,-0.535l2.166,-12.283Z" style="fill:none;stroke:#00f;stroke-width:0.38px;stroke-linejoin:miter;stroke-miterlimit:1.5;"/>
            </g>
            <g id="switch5" serif:id="switch">
                <path d="M458.127,105.907l3.034,0.535l0.643,-3.647l51.253,9.037l-0.643,3.648l3.034,0.535l-2.166,12.283l-3.034,-0.535l-3.419,19.392l3.033,0.535l-2.165,12.283l-3.034,-0.535l-0.643,3.647l-51.254,-9.037l0.644,-3.648l-3.034,-0.534l2.166,-12.283l3.033,0.534l3.42,-19.392l-3.034,-0.535l2.166,-12.283Z" style="fill:none;stroke:#00f;stroke-width:0.38px;stroke-linejoin:miter;stroke-miterlimit:1.5;"/>
            </g>
            <g id="switch6" serif:id="switch">
                <path d="M86.932,137.937l3.033,0.535l0.644,-3.648l51.253,9.037l-0.643,3.648l3.033,0.535l-2.165,12.283l-3.034,-0.535l-3.419,19.392l3.033,0.535l-2.166,12.283l-3.033,-0.535l-0.643,3.648l-51.254,-9.038l0.643,-3.647l-3.033,-0.535l2.166,-12.283l3.033,0.535l3.42,-19.392l-3.034,-0.535l2.166,-12.283Z" style="fill:none;stroke:#00f;stroke-width:0.38px;stroke-linejoin:miter;stroke-miterlimit:1.5;"/>
            </g>
            <g id="switch7" serif:id="switch">
                <path d="M157.837,150.439l3.033,0.535l0.644,-3.648l51.253,9.038l-0.643,3.647l3.033,0.535l-2.165,12.283l-3.034,-0.535l-3.419,19.393l3.033,0.534l-2.166,12.283l-3.033,-0.535l-0.643,3.648l-51.254,-9.037l0.643,-3.648l-3.033,-0.535l2.166,-12.283l3.033,0.535l3.42,-19.392l-3.034,-0.535l2.166,-12.283Z" style="fill:none;stroke:#00f;stroke-width:0.38px;stroke-linejoin:miter;stroke-miterlimit:1.5;"/>
            </g>
            <g id="switch8" serif:id="switch">
                <path d="M232.91,139.305l3.033,0.535l0.643,-3.647l51.254,9.037l-0.643,3.648l3.033,0.534l-2.166,12.283l-3.033,-0.534l-3.42,19.392l3.034,0.535l-2.166,12.283l-3.033,-0.535l-0.644,3.647l-51.253,-9.037l0.643,-3.648l-3.033,-0.535l2.165,-12.283l3.034,0.535l3.419,-19.392l-3.033,-0.535l2.166,-12.283Z" style="fill:none;stroke:#00f;stroke-width:0.38px;stroke-linejoin:miter;stroke-miterlimit:1.5;"/>
            </g>
            <g id="switch9" serif:id="switch">
                <path d="M307.982,128.172l3.034,0.535l0.643,-3.647l51.253,9.037l-0.643,3.648l3.034,0.535l-2.166,12.283l-3.034,-0.535l-3.419,19.392l3.033,0.535l-2.165,12.283l-3.034,-0.535l-0.643,3.647l-51.253,-9.037l0.643,-3.648l-3.034,-0.534l2.166,-12.283l3.034,0.534l3.419,-19.392l-3.034,-0.535l2.166,-12.283Z" style="fill:none;stroke:#00f;stroke-width:0.38px;stroke-linejoin:miter;stroke-miterlimit:1.5;"/>
            </g>
            <g id="switch10" serif:id="switch">
                <path d="M374.72,164.31l3.033,0.535l0.643,-3.648l51.254,9.038l-0.643,3.648l3.033,0.534l-2.166,12.283l-3.033,-0.535l-3.42,19.393l3.034,0.535l-2.166,12.283l-3.033,-0.535l-0.644,3.647l-51.253,-9.037l0.643,-3.648l-3.033,-0.535l2.165,-12.283l3.034,0.535l3.419,-19.392l-3.033,-0.535l2.166,-12.283Z" style="fill:none;stroke:#00f;stroke-width:0.38px;stroke-linejoin:miter;stroke-miterlimit:1.5;"/>
            </g>
            <g id="switch11" serif:id="switch">
                <path d="M445.625,176.813l3.033,0.535l0.643,-3.648l51.254,9.037l-0.643,3.648l3.033,0.535l-2.166,12.283l-3.033,-0.535l-3.42,19.392l3.034,0.535l-2.166,12.283l-3.033,-0.535l-0.644,3.648l-51.253,-9.038l0.643,-3.647l-3.033,-0.535l2.165,-12.283l3.034,0.535l3.419,-19.392l-3.033,-0.535l2.166,-12.283Z" style="fill:none;stroke:#00f;stroke-width:0.38px;stroke-linejoin:miter;stroke-miterlimit:1.5;"/>
            </g>
            <g id="switch12" serif:id="switch">
                <path d="M74.429,208.842l3.034,0.535l0.643,-3.648l51.254,9.038l-0.644,3.647l3.034,0.535l-2.166,12.283l-3.033,-0.535l-3.42,19.392l3.034,0.535l-2.166,12.283l-3.034,-0.535l-0.643,3.648l-51.253,-9.037l0.643,-3.648l-3.034,-0.535l2.166,-12.283l3.034,0.535l3.419,-19.392l-3.033,-0.535l2.165,-12.283Z" style="fill:none;stroke:#00f;stroke-width:0.38px;stroke-linejoin:miter;stroke-miterlimit:1.5;"/>
            </g>
            <g id="switch13" serif:id="switch">
                <path d="M145.334,221.344l3.034,0.535l0.643,-3.647l51.254,9.037l-0.644,3.648l3.034,0.535l-2.166,12.283l-3.033,-0.535l-3.42,19.392l3.034,0.535l-2.166,12.283l-3.034,-0.535l-0.643,3.647l-51.253,-9.037l0.643,-3.648l-3.034,-0.534l2.166,-12.283l3.034,0.534l3.419,-19.392l-3.033,-0.535l2.165,-12.283Z" style="fill:none;stroke:#00f;stroke-width:0.38px;stroke-linejoin:miter;stroke-miterlimit:1.5;"/>
            </g>
            <g id="switch14" serif:id="switch">
                <path d="M220.407,210.211l3.034,0.535l0.643,-3.648l51.253,9.037l-0.643,3.648l3.034,0.535l-2.166,12.283l-3.034,-0.535l-3.419,19.392l3.033,0.535l-2.165,12.283l-3.034,-0.535l-0.643,3.648l-51.254,-9.038l0.644,-3.647l-3.034,-0.535l2.166,-12.283l3.033,0.535l3.42,-19.393l-3.034,-0.534l2.166,-12.283Z" style="fill:none;stroke:#00f;stroke-width:0.38px;stroke-linejoin:miter;stroke-miterlimit:1.5;"/>
            </g>
            <g id="switch15" serif:id="switch">
                <path d="M295.48,199.078l3.033,0.535l0.643,-3.648l51.254,9.037l-0.643,3.648l3.033,0.535l-2.166,12.283l-3.033,-0.535l-3.42,19.392l3.034,0.535l-2.166,12.283l-3.033,-0.535l-0.644,3.648l-51.253,-9.038l0.643,-3.647l-3.033,-0.535l2.165,-12.283l3.034,0.535l3.419,-19.392l-3.033,-0.535l2.166,-12.283Z" style="fill:none;stroke:#00f;stroke-width:0.38px;stroke-linejoin:miter;stroke-miterlimit:1.5;"/>
            </g>
            <g id="switch16" serif:id="switch">
                <path d="M362.217,235.216l3.034,0.534l0.643,-3.647l51.253,9.037l-0.643,3.648l3.034,0.535l-2.166,12.283l-3.034,-0.535l-3.419,19.392l3.033,0.535l-2.165,12.283l-3.034,-0.535l-0.643,3.648l-51.254,-9.038l0.644,-3.647l-3.034,-0.535l2.166,-12.283l3.033,0.535l3.42,-19.393l-3.034,-0.534l2.166,-12.283Z" style="fill:none;stroke:#00f;stroke-width:0.38px;stroke-linejoin:miter;stroke-miterlimit:1.5;"/>
            </g>
            <g id="switch17" serif:id="switch">
                <path d="M433.122,247.718l3.034,0.535l0.643,-3.648l51.253,9.038l-0.643,3.647l3.034,0.535l-2.166,12.283l-3.034,-0.535l-3.419,19.392l3.033,0.535l-2.165,12.283l-3.034,-0.535l-0.643,3.648l-51.254,-9.037l0.644,-3.648l-3.034,-0.535l2.166,-12.283l3.033,0.535l3.42,-19.392l-3.034,-0.535l2.166,-12.283Z" style="fill:none;stroke:#00f;stroke-width:0.38px;stroke-linejoin:miter;stroke-miterlimit:1.5;"/>
            </g>
            <g id="switch18" serif:id="switch">
                <path d="M61.927,279.747l3.033,0.535l0.644,-3.648l51.253,9.038l-0.643,3.647l3.033,0.535l-2.165,12.283l-3.034,-0.535l-3.419,19.393l3.033,0.535l-2.166,12.282l-3.033,-0.534l-0.643,3.647l-51.254,-9.037l0.643,-3.648l-3.033,-0.535l2.166,-12.283l3.033,0.535l3.42,-19.392l-3.034,-0.535l2.166,-12.283Z" style="fill:none;stroke:#00f;stroke-width:0.38px;stroke-linejoin:miter;stroke-miterlimit:1.5;"/>
            </g>
            <g id="switch19" serif:id="switch">
                <path d="M132.808,292.24l3.033,0.535l0.644,-3.648l51.253,9.038l-0.643,3.647l3.033,0.535l-2.165,12.283l-3.034,-0.535l-3.419,19.393l3.033,0.534l-2.166,12.283l-3.033,-0.535l-0.643,3.648l-51.254,-9.037l0.643,-3.648l-3.033,-0.535l2.166,-12.283l3.033,0.535l3.42,-19.392l-3.034,-0.535l2.166,-12.283Z" style="fill:none;stroke:#00f;stroke-width:0.38px;stroke-linejoin:miter;stroke-miterlimit:1.5;"/>
            </g>
            <g id="switch20" serif:id="switch">
                <path d="M203.737,304.752l3.033,0.535l0.644,-3.648l51.253,9.038l-0.643,3.647l3.033,0.535l-2.165,12.283l-3.034,-0.535l-3.419,19.393l3.033,0.534l-2.166,12.283l-3.033,-0.534l-0.643,3.647l-51.254,-9.037l0.643,-3.648l-3.033,-0.535l2.166,-12.283l3.033,0.535l3.42,-19.392l-3.034,-0.535l2.166,-12.283Z" style="fill:none;stroke:#00f;stroke-width:0.38px;stroke-linejoin:miter;stroke-miterlimit:1.5;"/>
            </g>
            <g id="switch21" serif:id="switch">
                <path d="M274.618,317.245l3.033,0.535l0.644,-3.648l51.253,9.038l-0.643,3.647l3.033,0.535l-2.165,12.283l-3.034,-0.535l-3.419,19.392l3.033,0.535l-2.166,12.283l-3.033,-0.535l-0.643,3.648l-51.254,-9.037l0.643,-3.648l-3.033,-0.535l2.166,-12.283l3.033,0.535l3.42,-19.392l-3.034,-0.535l2.166,-12.283Z" style="fill:none;stroke:#00f;stroke-width:0.38px;stroke-linejoin:miter;stroke-miterlimit:1.5;"/>
            </g>
            <g id="switch22" serif:id="switch">
                <path d="M374.629,311.718l2.895,1.054l1.267,-3.481l48.905,17.8l-1.267,3.481l2.895,1.053l-4.266,11.721l-2.895,-1.054l-6.734,18.504l2.894,1.053l-4.266,11.721l-2.894,-1.054l-1.267,3.481l-48.906,-17.8l1.267,-3.481l-2.894,-1.053l4.266,-11.721l2.894,1.054l6.735,-18.504l-2.895,-1.054l4.266,-11.72Z" style="fill:none;stroke:#00f;stroke-width:0.38px;stroke-linejoin:miter;stroke-miterlimit:1.5;"/>
            </g>
            <g id="switch23" serif:id="switch">
                <path d="M468.386,359.672l1.875,2.444l2.939,-2.255l31.682,41.289l-2.939,2.255l1.876,2.444l-9.895,7.593l-1.876,-2.444l-15.622,11.987l1.875,2.444l-9.895,7.593l-1.875,-2.444l-2.938,2.255l-31.683,-41.29l2.939,-2.255l-1.875,-2.443l9.895,-7.593l1.875,2.444l15.622,-11.988l-1.875,-2.443l9.895,-7.593Z" style="fill:none;stroke:#00f;stroke-width:0.38px;stroke-linejoin:miter;stroke-miterlimit:1.5;"/>
            </g>
        </g>
        <g id="Laptreus-v1.21" serif:id="Laptreus v1.2">
            <g id="switch24" serif:id="switch">
                <path d="M1079.38,66.66l-3.034,0.535l-0.643,-3.648l-51.254,9.038l0.644,3.647l-3.034,0.535l2.166,12.283l3.033,-0.535l3.42,19.392l-3.034,0.535l2.166,12.283l3.034,-0.535l0.643,3.648l51.253,-9.037l-0.643,-3.648l3.034,-0.535l-2.166,-12.283l-3.034,0.535l-3.419,-19.392l3.033,-0.535l-2.165,-12.283Z" style="fill:none;stroke:#00f;stroke-width:0.38px;stroke-linejoin:miter;stroke-miterlimit:1.5;"/>
            </g>
            <g id="switch25" serif:id="switch">
                <path d="M1008.48,79.162l-3.034,0.535l-0.643,-3.647l-51.254,9.037l0.644,3.648l-3.034,0.535l2.166,12.283l3.033,-0.535l3.42,19.392l-3.034,0.535l2.166,12.283l3.034,-0.535l0.643,3.647l51.253,-9.037l-0.643,-3.648l3.034,-0.534l-2.166,-12.283l-3.034,0.534l-3.419,-19.392l3.033,-0.535l-2.165,-12.283Z" style="fill:none;stroke:#00f;stroke-width:0.38px;stroke-linejoin:miter;stroke-miterlimit:1.5;"/>
            </g>
            <g id="switch26" serif:id="switch">
                <path d="M933.407,68.029l-3.034,0.535l-0.643,-3.648l-51.253,9.037l0.643,3.648l-3.034,0.535l2.166,12.283l3.034,-0.535l3.419,19.392l-3.033,0.535l2.165,12.283l3.034,-0.535l0.643,3.648l51.254,-9.038l-0.644,-3.647l3.034,-0.535l-2.166,-12.283l-3.033,0.535l-3.42,-19.393l3.034,-0.534l-2.166,-12.283Z" style="fill:none;stroke:#00f;stroke-width:0.38px;stroke-linejoin:miter;stroke-miterlimit:1.5;"/>
            </g>
            <g id="switch27" serif:id="switch">
                <path d="M858.334,56.896l-3.033,0.535l-0.643,-3.648l-51.254,9.037l0.643,3.648l-3.033,0.535l2.166,12.283l3.033,-0.535l3.42,19.392l-3.034,0.535l2.166,12.283l3.033,-0.535l0.644,3.648l51.253,-9.038l-0.643,-3.647l3.033,-0.535l-2.165,-12.283l-3.034,0.535l-3.419,-19.392l3.033,-0.535l-2.166,-12.283Z" style="fill:none;stroke:#00f;stroke-width:0.38px;stroke-linejoin:miter;stroke-miterlimit:1.5;"/>
            </g>
            <g id="switch28" serif:id="switch">
                <path d="M791.597,93.034l-3.034,0.534l-0.643,-3.647l-51.253,9.037l0.643,3.648l-3.034,0.535l2.166,12.283l3.034,-0.535l3.419,19.392l-3.033,0.535l2.165,12.283l3.034,-0.535l0.643,3.648l51.254,-9.038l-0.644,-3.647l3.034,-0.535l-2.166,-12.283l-3.033,0.535l-3.42,-19.393l3.034,-0.534l-2.166,-12.283Z" style="fill:none;stroke:#00f;stroke-width:0.38px;stroke-linejoin:miter;stroke-miterlimit:1.5;"/>
            </g>
            <g id="switch29" serif:id="switch">
                <path d="M720.692,105.536l-3.034,0.535l-0.643,-3.648l-51.253,9.038l0.643,3.647l-3.034,0.535l2.166,12.283l3.034,-0.535l3.419,19.392l-3.033,0.535l2.165,12.283l3.034,-0.535l0.643,3.648l51.254,-9.037l-0.644,-3.648l3.034,-0.535l-2.166,-12.283l-3.033,0.535l-3.42,-19.392l3.034,-0.535l-2.166,-12.283Z" style="fill:none;stroke:#00f;stroke-width:0.38px;stroke-linejoin:miter;stroke-miterlimit:1.5;"/>
            </g>
            <g id="switch30" serif:id="switch">
                <path d="M1091.89,137.565l-3.033,0.535l-0.644,-3.648l-51.253,9.038l0.643,3.648l-3.033,0.534l2.165,12.283l3.034,-0.535l3.419,19.393l-3.033,0.535l2.166,12.282l3.033,-0.534l0.643,3.647l51.254,-9.037l-0.643,-3.648l3.033,-0.535l-2.166,-12.283l-3.033,0.535l-3.42,-19.392l3.034,-0.535l-2.166,-12.283Z" style="fill:none;stroke:#00f;stroke-width:0.38px;stroke-linejoin:miter;stroke-miterlimit:1.5;"/>
            </g>
            <g id="switch31" serif:id="switch">
                <path d="M1020.98,150.068l-3.033,0.535l-0.644,-3.648l-51.253,9.037l0.643,3.648l-3.033,0.535l2.165,12.283l3.034,-0.535l3.419,19.392l-3.033,0.535l2.166,12.283l3.033,-0.535l0.643,3.648l51.254,-9.038l-0.643,-3.647l3.033,-0.535l-2.166,-12.283l-3.033,0.535l-3.42,-19.392l3.034,-0.535l-2.166,-12.283Z" style="fill:none;stroke:#00f;stroke-width:0.38px;stroke-linejoin:miter;stroke-miterlimit:1.5;"/>
            </g>
            <g id="switch32" serif:id="switch">
                <path d="M945.909,138.934l-3.033,0.535l-0.643,-3.648l-51.254,9.038l0.643,3.647l-3.033,0.535l2.166,12.283l3.033,-0.535l3.42,19.392l-3.034,0.535l2.166,12.283l3.033,-0.535l0.644,3.648l51.253,-9.037l-0.643,-3.648l3.033,-0.535l-2.165,-12.283l-3.034,0.535l-3.419,-19.392l3.033,-0.535l-2.166,-12.283Z" style="fill:none;stroke:#00f;stroke-width:0.38px;stroke-linejoin:miter;stroke-miterlimit:1.5;"/>
            </g>
            <g id="switch33" serif:id="switch">
                <path d="M870.837,127.801l-3.034,0.535l-0.643,-3.648l-51.253,9.038l0.643,3.647l-3.034,0.535l2.166,12.283l3.034,-0.535l3.419,19.392l-3.033,0.535l2.165,12.283l3.034,-0.535l0.643,3.648l51.254,-9.037l-0.644,-3.648l3.034,-0.535l-2.166,-12.283l-3.033,0.535l-3.42,-19.392l3.034,-0.535l-2.166,-12.283Z" style="fill:none;stroke:#00f;stroke-width:0.38px;stroke-linejoin:miter;stroke-miterlimit:1.5;"/>
            </g>
            <g id="switch34" serif:id="switch">
                <path d="M804.099,163.939l-3.033,0.535l-0.643,-3.648l-51.254,9.037l0.643,3.648l-3.033,0.535l2.166,12.283l3.033,-0.535l3.42,19.392l-3.034,0.535l2.166,12.283l3.033,-0.535l0.644,3.648l51.253,-9.038l-0.643,-3.647l3.033,-0.535l-2.165,-12.283l-3.034,0.535l-3.419,-19.392l3.033,-0.535l-2.166,-12.283Z" style="fill:none;stroke:#00f;stroke-width:0.38px;stroke-linejoin:miter;stroke-miterlimit:1.5;"/>
            </g>
            <g id="switch35" serif:id="switch">
                <path d="M733.194,176.441l-3.033,0.535l-0.643,-3.647l-51.254,9.037l0.643,3.648l-3.033,0.534l2.166,12.283l3.033,-0.534l3.42,19.392l-3.034,0.535l2.166,12.283l3.033,-0.535l0.644,3.647l51.253,-9.037l-0.643,-3.648l3.033,-0.535l-2.165,-12.283l-3.034,0.535l-3.419,-19.392l3.033,-0.535l-2.166,-12.283Z" style="fill:none;stroke:#00f;stroke-width:0.38px;stroke-linejoin:miter;stroke-miterlimit:1.5;"/>
            </g>
            <g id="switch36" serif:id="switch">
                <path d="M1104.39,208.471l-3.034,0.534l-0.643,-3.647l-51.254,9.037l0.644,3.648l-3.034,0.535l2.166,12.283l3.033,-0.535l3.42,19.392l-3.034,0.535l2.166,12.283l3.034,-0.535l0.643,3.648l51.253,-9.038l-0.643,-3.647l3.034,-0.535l-2.166,-12.283l-3.034,0.535l-3.419,-19.393l3.033,-0.535l-2.165,-12.282Z" style="fill:none;stroke:#00f;stroke-width:0.38px;stroke-linejoin:miter;stroke-miterlimit:1.5;"/>
            </g>
            <g id="switch37" serif:id="switch">
                <path d="M1033.49,220.973l-3.034,0.535l-0.643,-3.648l-51.254,9.038l0.644,3.647l-3.034,0.535l2.166,12.283l3.033,-0.535l3.42,19.392l-3.034,0.535l2.166,12.283l3.034,-0.535l0.643,3.648l51.253,-9.037l-0.643,-3.648l3.034,-0.535l-2.166,-12.283l-3.034,0.535l-3.419,-19.392l3.033,-0.535l-2.165,-12.283Z" style="fill:none;stroke:#00f;stroke-width:0.38px;stroke-linejoin:miter;stroke-miterlimit:1.5;"/>
            </g>
            <g id="switch38" serif:id="switch">
                <path d="M958.412,209.839l-3.034,0.535l-0.643,-3.648l-51.253,9.038l0.643,3.647l-3.034,0.535l2.166,12.283l3.034,-0.535l3.419,19.393l-3.033,0.534l2.165,12.283l3.034,-0.534l0.643,3.647l51.254,-9.037l-0.644,-3.648l3.034,-0.535l-2.166,-12.283l-3.033,0.535l-3.42,-19.392l3.034,-0.535l-2.166,-12.283Z" style="fill:none;stroke:#00f;stroke-width:0.38px;stroke-linejoin:miter;stroke-miterlimit:1.5;"/>
            </g>
            <g id="switch39" serif:id="switch">
                <path d="M883.339,198.706l-3.033,0.535l-0.643,-3.648l-51.254,9.038l0.643,3.648l-3.033,0.534l2.166,12.283l3.033,-0.535l3.42,19.393l-3.034,0.535l2.166,12.283l3.033,-0.535l0.644,3.647l51.253,-9.037l-0.643,-3.648l3.033,-0.535l-2.165,-12.283l-3.034,0.535l-3.419,-19.392l3.033,-0.535l-2.166,-12.283Z" style="fill:none;stroke:#00f;stroke-width:0.38px;stroke-linejoin:miter;stroke-miterlimit:1.5;"/>
            </g>
            <g id="switch40" serif:id="switch">
                <path d="M816.602,234.844l-3.034,0.535l-0.643,-3.648l-51.253,9.038l0.643,3.647l-3.034,0.535l2.166,12.283l3.034,-0.535l3.419,19.393l-3.033,0.534l2.165,12.283l3.034,-0.535l0.643,3.648l51.254,-9.037l-0.644,-3.648l3.034,-0.535l-2.166,-12.283l-3.033,0.535l-3.42,-19.392l3.034,-0.535l-2.166,-12.283Z" style="fill:none;stroke:#00f;stroke-width:0.38px;stroke-linejoin:miter;stroke-miterlimit:1.5;"/>
            </g>
            <g id="switch41" serif:id="switch">
                <path d="M745.697,247.347l-3.034,0.534l-0.643,-3.647l-51.253,9.037l0.643,3.648l-3.034,0.535l2.166,12.283l3.034,-0.535l3.419,19.392l-3.033,0.535l2.165,12.283l3.034,-0.535l0.643,3.648l51.254,-9.038l-0.644,-3.647l3.034,-0.535l-2.166,-12.283l-3.033,0.535l-3.42,-19.393l3.034,-0.534l-2.166,-12.283Z" style="fill:none;stroke:#00f;stroke-width:0.38px;stroke-linejoin:miter;stroke-miterlimit:1.5;"/>
            </g>
            <g id="switch42" serif:id="switch">
                <path d="M1116.89,279.376l-3.033,0.535l-0.644,-3.648l-51.253,9.037l0.643,3.648l-3.033,0.535l2.165,12.283l3.034,-0.535l3.419,19.392l-3.033,0.535l2.166,12.283l3.033,-0.535l0.643,3.648l51.254,-9.038l-0.643,-3.647l3.033,-0.535l-2.166,-12.283l-3.033,0.535l-3.42,-19.392l3.034,-0.535l-2.166,-12.283Z" style="fill:none;stroke:#00f;stroke-width:0.38px;stroke-linejoin:miter;stroke-miterlimit:1.5;"/>
            </g>
            <g id="switch43" serif:id="switch">
                <path d="M1046.01,291.869l-3.033,0.535l-0.644,-3.648l-51.253,9.037l0.643,3.648l-3.033,0.535l2.165,12.283l3.034,-0.535l3.419,19.392l-3.033,0.535l2.166,12.283l3.033,-0.535l0.643,3.648l51.254,-9.038l-0.643,-3.647l3.033,-0.535l-2.166,-12.283l-3.033,0.535l-3.42,-19.392l3.034,-0.535l-2.166,-12.283Z" style="fill:none;stroke:#00f;stroke-width:0.38px;stroke-linejoin:miter;stroke-miterlimit:1.5;"/>
            </g>
            <g id="switch44" serif:id="switch">
                <path d="M975.082,304.381l-3.033,0.535l-0.644,-3.648l-51.253,9.037l0.643,3.648l-3.033,0.535l2.165,12.283l3.034,-0.535l3.419,19.392l-3.033,0.535l2.166,12.283l3.033,-0.535l0.643,3.648l51.254,-9.038l-0.643,-3.647l3.033,-0.535l-2.166,-12.283l-3.033,0.535l-3.42,-19.392l3.034,-0.535l-2.166,-12.283Z" style="fill:none;stroke:#00f;stroke-width:0.38px;stroke-linejoin:miter;stroke-miterlimit:1.5;"/>
            </g>
            <g id="switch45" serif:id="switch">
                <path d="M904.201,316.874l-3.033,0.535l-0.644,-3.648l-51.253,9.037l0.643,3.648l-3.033,0.535l2.165,12.283l3.034,-0.535l3.419,19.392l-3.033,0.535l2.166,12.283l3.033,-0.535l0.643,3.648l51.254,-9.038l-0.643,-3.647l3.033,-0.535l-2.166,-12.283l-3.033,0.535l-3.42,-19.392l3.034,-0.535l-2.166,-12.283Z" style="fill:none;stroke:#00f;stroke-width:0.38px;stroke-linejoin:miter;stroke-miterlimit:1.5;"/>
            </g>
            <g id="switch46" serif:id="switch">
                <path d="M804.19,311.347l-2.895,1.053l-1.267,-3.48l-48.905,17.8l1.267,3.48l-2.895,1.054l4.266,11.72l2.895,-1.053l6.734,18.504l-2.894,1.053l4.266,11.72l2.894,-1.053l1.267,3.48l48.906,-17.8l-1.267,-3.48l2.894,-1.054l-4.266,-11.72l-2.894,1.053l-6.735,-18.503l2.895,-1.054l-4.266,-11.72Z" style="fill:none;stroke:#00f;stroke-width:0.38px;stroke-linejoin:miter;stroke-miterlimit:1.5;"/>
            </g>
            <g id="switch47" serif:id="switch">
                <path d="M710.433,359.3l-1.875,2.444l-2.939,-2.255l-31.682,41.29l2.939,2.255l-1.876,2.443l9.895,7.593l1.876,-2.444l15.622,11.988l-1.875,2.443l9.895,7.593l1.875,-2.444l2.938,2.255l31.683,-41.289l-2.939,-2.255l1.875,-2.444l-9.895,-7.592l-1.875,2.443l-15.622,-11.987l1.875,-2.444l-9.895,-7.593Z" style="fill:none;stroke:#00f;stroke-width:0.38px;stroke-linejoin:miter;stroke-miterlimit:1.5;"/>
            </g>
        </g>
        <path id="Power-switch" serif:id="Power switch" d="M847.073,270.938l2.757,15.633l44.665,-7.875l-2.756,-15.633l-44.666,7.875Z" style="fill:none;stroke:#00f;stroke-width:0.38px;stroke-miterlimit:1;"/>
        <path id="Power-switch1" serif:id="Power switch" d="M329.383,286.438l2.756,-15.632l-44.665,-7.876l-2.757,15.633l44.666,7.875Z" style="fill:none;stroke:#00f;stroke-width:0.38px;stroke-miterlimit:1;"/>
        <rect id="Reset-button-cutout" serif:id="Reset button cutout" x="627.437" y="129.939" width="11.339" height="19.843" style="fill:none;stroke:#00f;stroke-width:0.38px;stroke-miterlimit:1;"/>
        <path id="Feather-and-inlay-cutout" serif:id="Feather and inlay cutout" d="M542.362,244.106l0,-15.896l24.536,0l0.031,-0.009l0,-63.148l-3.156,0l0,-3.704l-3.08,0l0,-12.095l3.08,0l0,-20.069l-3.08,0l0,-12.095l3.08,0l0,-3.704l3.704,0l0,-3.08l12.095,0l0,3.08l20.069,0l0,-3.08l12.094,0l0,3.08l3.704,0l0,3.704l3.081,0l0,12.095l-3.081,0l0,20.069l3.081,0l0,12.095l-3.081,0l0,3.704l-3.153,0l0,63.157l24.564,0l0,15.832c20.614,14.743 34.06,38.882 34.06,66.136c0,27.255 -13.446,51.393 -34.06,66.136l0,48.431l-94.488,0l0,-48.494c-20.565,-14.751 -33.971,-38.859 -33.971,-66.073c0,-27.214 13.406,-51.321 33.971,-66.072Z" style="fill:none;stroke:#00f;stroke-width:0.38px;stroke-miterlimit:1;"/>
        <g id="Daughterboard-screwholes" serif:id="Daughterboard screwholes">
            <circle cx="618.898" cy="38.74" r="3.969" style="fill:none;stroke:#00f;stroke-width:0.38px;stroke-miterlimit:1;"/>
            <circle cx="560.315" cy="38.74" r="3.969" style="fill:none;stroke:#00f;stroke-width:0.38px;stroke-miterlimit:1;"/>
        </g>
        <g id="Outside-shape4" serif:id="Outside shape">
            <path id="Outside-shape5" serif:id="Outside shape" d="M1171.65,12.661c0,-1.353 -0.538,-2.651 -1.495,-3.607c-0.957,-0.957 -2.255,-1.495 -3.608,-1.495" style="fill:none;stroke:#00f;stroke-width:0.38px;stroke-miterlimit:1.5;"/>
            <path id="Outside-shape6" serif:id="Outside shape" d="M1166.55,7.559c-37.478,0 -269.797,0 -307.275,0" style="fill:none;stroke:#00f;stroke-width:0.38px;stroke-miterlimit:1.5;"/>
            <path id="Outside-shape7" serif:id="Outside shape" d="M859.276,7.559c-1.354,0 -2.651,0.538 -3.608,1.495c-0.957,0.956 -1.495,2.254 -1.495,3.607c0,1.584 0,3.33 0,4.914c0,1.353 -0.537,2.651 -1.494,3.608c-0.957,0.957 -2.255,1.494 -3.608,1.494c-50.984,0 -467.945,0 -518.929,0c-1.353,0 -2.651,-0.537 -3.608,-1.494c-0.957,-0.957 -1.495,-2.255 -1.495,-3.608c0,-1.584 0,-3.33 0,-4.914c0,-1.353 -0.537,-2.651 -1.494,-3.607c-0.957,-0.957 -2.255,-1.495 -3.608,-1.495" style="fill:none;stroke:#00f;stroke-width:0.38px;stroke-miterlimit:1.5;"/>
            <path id="Outside-shape8" serif:id="Outside shape" d="M319.937,7.559c-37.479,0 -269.797,0 -307.276,0" style="fill:none;stroke:#00f;stroke-width:0.38px;stroke-miterlimit:1.5;"/>
            <path id="Outside-shape9" serif:id="Outside shape" d="M12.661,7.559c-1.353,0 -2.651,0.538 -3.607,1.495c-0.957,0.956 -1.495,2.254 -1.495,3.607c0,47.456 0,411.001 0,458.457c0,1.353 0.538,2.651 1.495,3.608c0.956,0.957 2.254,1.494 3.607,1.494c37.479,0 269.797,0 307.276,0c1.353,0 2.651,-0.537 3.608,-1.494c0.957,-0.957 1.494,-2.255 1.494,-3.608c0,-1.584 0,-3.329 0,-4.913c0,-1.354 0.538,-2.651 1.495,-3.608c0.957,-0.957 2.255,-1.495 3.608,-1.495c50.984,0 467.945,0 518.929,0c1.353,0 2.651,0.538 3.608,1.495c0.957,0.957 1.494,2.254 1.494,3.608c0,1.584 0,3.329 0,4.913c0,1.353 0.538,2.651 1.495,3.608c0.957,0.957 2.254,1.494 3.608,1.494c37.478,0 269.797,0 307.275,0c1.353,0 2.651,-0.537 3.608,-1.494c0.957,-0.957 1.495,-2.255 1.495,-3.608" style="fill:none;stroke:#00f;stroke-width:0.38px;stroke-miterlimit:1.5;"/>
        </g>
        <g id="Screw-Holes-w-o-countersink1" serif:id="Screw Holes w/o countersink">
            <g>
                <circle cx="32.504" cy="389.291" r="9.538" style="fill:none;stroke:#00f;stroke-width:0.38px;stroke-miterlimit:1.5;"/>
            </g>
            <g>
                <circle cx="291.024" cy="449.764" r="9.538" style="fill:none;stroke:#00f;stroke-width:0.38px;stroke-miterlimit:1.5;"/>
            </g>
            <g>
                <circle cx="888.189" cy="449.764" r="9.538" style="fill:none;stroke:#00f;stroke-width:0.38px;stroke-miterlimit:1.5;"/>
            </g>
            <g>
                <circle cx="1146.71" cy="389.291" r="9.538" style="fill:none;stroke:#00f;stroke-width:0.38px;stroke-miterlimit:1.5;"/>
            </g>
            <g>
                <circle cx="1146.71" cy="94.488" r="9.538" style="fill:none;stroke:#00f;stroke-width:0.38px;stroke-miterlimit:1.5;"/>
            </g>
            <g>
                <circle cx="888.189" cy="34.016" r="9.538" style="fill:none;stroke:#00f;stroke-width:0.38px;stroke-miterlimit:1.5;"/>
            </g>
            <g>
                <circle cx="291.024" cy="34.016" r="9.538" style="fill:none;stroke:#00f;stroke-width:0.38px;stroke-miterlimit:1.5;"/>
            </g>
            <g>
                <circle cx="32.504" cy="94.488" r="9.538" style="fill:none;stroke:#00f;stroke-width:0.38px;stroke-miterlimit:1.5;"/>
            </g>
        </g>
    </g>
</svg>
