G04 #@! TF.GenerationSoftware,KiCad,Pcbnew,(5.1.5-0-10_14)*
G04 #@! TF.CreationDate,2021-08-15T11:31:23-04:00*
G04 #@! TF.ProjectId,Laptreus-v3,4c617074-7265-4757-932d-76332e6b6963,rev?*
G04 #@! TF.SameCoordinates,Original*
G04 #@! TF.FileFunction,Profile,NP*
%FSLAX46Y46*%
G04 Gerber Fmt 4.6, Leading zero omitted, Abs format (unit mm)*
G04 Created by KiCad (PCBNEW (5.1.5-0-10_14)) date 2021-08-15 11:31:23*
%MOMM*%
%LPD*%
G04 APERTURE LIST*
%ADD10C,0.100000*%
%ADD11C,0.300000*%
G04 APERTURE END LIST*
D10*
X142080000Y-77660000D02*
G75*
G02X141580000Y-77160000I0J500000D01*
G01*
X153580000Y-77160000D02*
G75*
G02X153080000Y-77660000I-500000J0D01*
G01*
X153580000Y-68910000D02*
G75*
G02X154080000Y-68410000I500000J0D01*
G01*
X141080000Y-68410000D02*
G75*
G02X141580000Y-68910000I0J-500000D01*
G01*
X154080000Y-68410000D02*
X166080000Y-68410000D01*
X153580000Y-77160000D02*
X153580000Y-68910000D01*
X142080000Y-77660000D02*
X153080000Y-77660000D01*
X141580000Y-68910000D02*
X141580000Y-77160000D01*
X129080000Y-68410001D02*
X141080000Y-68410000D01*
X166080000Y-44660000D02*
X129080000Y-44660000D01*
X128080000Y-45661357D02*
X128080000Y-67411357D01*
X167080000Y-67411359D02*
X167080000Y-45660000D01*
X128079999Y-45661357D02*
G75*
G02X129080000Y-44661357I1001357J-1357D01*
G01*
X166080000Y-44660000D02*
G75*
G02X167080000Y-45661360I0J-1000001D01*
G01*
X167080000Y-67411359D02*
G75*
G02X166080000Y-68410000I-1000001J1361D01*
G01*
X129080000Y-68410001D02*
G75*
G02X128080000Y-67411357I0J1000001D01*
G01*
D11*
X288326656Y-37011308D02*
X278126656Y-37011308D01*
X286526656Y-94911308D02*
G75*
G02X285126656Y-93511308I0J1400000D01*
G01*
X9126656Y-92111308D02*
X5326656Y-92111308D01*
X9126656Y-94911308D02*
X5326656Y-94911308D01*
X5326656Y-92111308D02*
X5326656Y-39011308D01*
X5326656Y-94911308D02*
X5326656Y-129611308D01*
X9126656Y-94911308D02*
G75*
G03X10526656Y-93511308I0J1400000D01*
G01*
X10526656Y-93511308D02*
G75*
G03X9126656Y-92111308I-1400000J0D01*
G01*
X290326656Y-92111308D02*
X290326656Y-39011308D01*
X286526656Y-92111308D02*
X290326656Y-92111308D01*
X285126656Y-93511308D02*
G75*
G02X286526656Y-92111308I1400000J0D01*
G01*
X290326656Y-94911308D02*
X286526656Y-94911308D01*
X290326656Y-129611308D02*
X290326656Y-94911308D01*
X5326656Y-39011308D02*
G75*
G02X7326656Y-37011308I2000000J0D01*
G01*
X7326656Y-131611308D02*
G75*
G02X5326656Y-129611308I0J2000000D01*
G01*
X290326656Y-129611308D02*
G75*
G02X288326656Y-131611308I-2000000J0D01*
G01*
X288326656Y-37011308D02*
G75*
G02X290326656Y-39011308I0J-2000000D01*
G01*
X7326656Y-37011308D02*
X278126656Y-37011308D01*
X288326656Y-131611308D02*
X7326656Y-131611308D01*
M02*
