%FSLAX45Y45*%
G04 Gerber Fmt 4.5, Leading zero omitted, Abs format (unit mm)*
G04 Created by KiCad (PCBNEW (5.1.5-0-10_14)) date 2021-08-13 19:42:36*
%MOMM*%
%LPD*%
G04 APERTURE LIST*
%TA.AperFunction,Profile*%
%ADD10C,0.100000*%
%TD*%
%ADD11C,0.200000*%
%ADD12C,0.300000*%
G04 APERTURE END LIST*
D10*
X12957618Y-4741136D02*
X12957618Y-6741136D01*
X16557618Y-6741136D02*
X16557618Y-4741136D01*
X16457618Y-4641136D02*
X13057618Y-4641136D01*
X13057618Y-6841136D02*
X16457618Y-6841136D01*
X12957618Y-4741136D02*
G75*
G02X13057618Y-4641136I100000J0D01*
G01*
X16457618Y-4641136D02*
G75*
G02X16557618Y-4741136I0J-100000D01*
G01*
X16557618Y-6741136D02*
G75*
G02X16457618Y-6841136I-100000J0D01*
G01*
X13057618Y-6841136D02*
G75*
G02X12957618Y-6741136I0J100000D01*
G01*
D11*
X1413000Y-9621000D02*
X1453000Y-9661000D01*
X1453000Y-9621000D02*
X1413000Y-9661000D01*
X1813000Y-9571000D02*
X1853000Y-9611000D01*
X1853000Y-9571000D02*
X1813000Y-9611000D01*
X2647600Y-11766400D02*
X2687600Y-11806400D01*
X2687600Y-11766400D02*
X2647600Y-11806400D01*
X2800000Y-6051400D02*
X2840000Y-6091400D01*
X2840000Y-6051400D02*
X2800000Y-6091400D01*
X9531000Y-12477600D02*
X9571000Y-12517600D01*
X9571000Y-12477600D02*
X9531000Y-12517600D01*
X25990200Y-12376000D02*
X26030200Y-12416000D01*
X26030200Y-12376000D02*
X25990200Y-12416000D01*
X26447400Y-6026000D02*
X26487400Y-6066000D01*
X26487400Y-6026000D02*
X26447400Y-6066000D01*
X28123800Y-9531200D02*
X28163800Y-9571200D01*
X28163800Y-9531200D02*
X28123800Y-9571200D01*
X708462Y-9091131D02*
G75*
G03X708462Y-9091131I-25000J0D01*
G01*
X708462Y-9611131D02*
G75*
G03X708462Y-9611131I-25000J0D01*
G01*
X912666Y-9091131D02*
G75*
G03X912666Y-9091131I-25000J0D01*
G01*
X912666Y-9611131D02*
G75*
G03X912666Y-9611131I-25000J0D01*
G01*
X1096513Y-9167283D02*
G75*
G03X1096513Y-9167283I-25000J0D01*
G01*
X1096513Y-9534979D02*
G75*
G03X1096513Y-9534979I-25000J0D01*
G01*
X1172666Y-9351131D02*
G75*
G03X1172666Y-9351131I-25000J0D01*
G01*
X2907666Y-6259431D02*
G75*
G03X2907666Y-6259431I-25000J0D01*
G01*
X2907666Y-6721131D02*
G75*
G03X2907666Y-6721131I-25000J0D01*
G01*
X2907666Y-11991131D02*
G75*
G03X2907666Y-11991131I-25000J0D01*
G01*
X2907666Y-12451131D02*
G75*
G03X2907666Y-12451131I-25000J0D01*
G01*
X3027666Y-6261131D02*
G75*
G03X3027666Y-6261131I-25000J0D01*
G01*
X3027666Y-6721131D02*
G75*
G03X3027666Y-6721131I-25000J0D01*
G01*
X3027666Y-11991131D02*
G75*
G03X3027666Y-11991131I-25000J0D01*
G01*
X3027666Y-12451131D02*
G75*
G03X3027666Y-12451131I-25000J0D01*
G01*
X3147666Y-6261131D02*
G75*
G03X3147666Y-6261131I-25000J0D01*
G01*
X3147666Y-6721131D02*
G75*
G03X3147666Y-6721131I-25000J0D01*
G01*
X3147666Y-11991131D02*
G75*
G03X3147666Y-11991131I-25000J0D01*
G01*
X3147666Y-12451131D02*
G75*
G03X3147666Y-12451131I-25000J0D01*
G01*
X9862666Y-11991131D02*
G75*
G03X9862666Y-11991131I-25000J0D01*
G01*
X9862666Y-12451131D02*
G75*
G03X9862666Y-12451131I-25000J0D01*
G01*
X9982666Y-11991131D02*
G75*
G03X9982666Y-11991131I-25000J0D01*
G01*
X9982666Y-12451131D02*
G75*
G03X9982666Y-12451131I-25000J0D01*
G01*
X10102666Y-11991131D02*
G75*
G03X10102666Y-11991131I-25000J0D01*
G01*
X10102666Y-12451131D02*
G75*
G03X10102666Y-12451131I-25000J0D01*
G01*
X26282666Y-6491131D02*
G75*
G03X26282666Y-6491131I-25000J0D01*
G01*
X26350031Y-6328496D02*
G75*
G03X26350031Y-6328496I-25000J0D01*
G01*
X26350031Y-6653765D02*
G75*
G03X26350031Y-6653765I-25000J0D01*
G01*
X26392666Y-11991131D02*
G75*
G03X26392666Y-11991131I-25000J0D01*
G01*
X26392666Y-12451131D02*
G75*
G03X26392666Y-12451131I-25000J0D01*
G01*
X26512666Y-6261131D02*
G75*
G03X26512666Y-6261131I-25000J0D01*
G01*
X26512666Y-6721131D02*
G75*
G03X26512666Y-6721131I-25000J0D01*
G01*
X26512666Y-11991131D02*
G75*
G03X26512666Y-11991131I-25000J0D01*
G01*
X26512666Y-12451131D02*
G75*
G03X26512666Y-12451131I-25000J0D01*
G01*
X26632666Y-11991131D02*
G75*
G03X26632666Y-11991131I-25000J0D01*
G01*
X26632666Y-12451131D02*
G75*
G03X26632666Y-12451131I-25000J0D01*
G01*
X26675300Y-6328496D02*
G75*
G03X26675300Y-6328496I-25000J0D01*
G01*
X26675300Y-6653765D02*
G75*
G03X26675300Y-6653765I-25000J0D01*
G01*
X26742666Y-6491131D02*
G75*
G03X26742666Y-6491131I-25000J0D01*
G01*
X28392666Y-9351131D02*
G75*
G03X28392666Y-9351131I-25000J0D01*
G01*
X28468818Y-9167283D02*
G75*
G03X28468818Y-9167283I-25000J0D01*
G01*
X28468818Y-9534979D02*
G75*
G03X28468818Y-9534979I-25000J0D01*
G01*
X28652666Y-9091131D02*
G75*
G03X28652666Y-9091131I-25000J0D01*
G01*
X28652666Y-9611131D02*
G75*
G03X28652666Y-9611131I-25000J0D01*
G01*
X28856869Y-9091131D02*
G75*
G03X28856869Y-9091131I-25000J0D01*
G01*
X28856869Y-9611131D02*
G75*
G03X28856869Y-9611131I-25000J0D01*
G01*
X19825506Y-11234487D02*
X19825506Y-11334487D01*
X19775506Y-11284487D02*
X19875506Y-11284487D01*
X19960952Y-12002637D02*
X19960952Y-12102637D01*
X19910952Y-12052637D02*
X20010952Y-12052637D01*
X10549112Y-7979386D02*
X10549112Y-8079386D01*
X10499112Y-8029386D02*
X10599112Y-8029386D01*
X10684557Y-7211236D02*
X10684557Y-7311236D01*
X10634557Y-7261236D02*
X10734557Y-7261236D01*
X6852128Y-7005110D02*
X6852128Y-7105110D01*
X6802128Y-7055110D02*
X6902128Y-7055110D01*
X6987573Y-6236960D02*
X6987573Y-6336960D01*
X6937573Y-6286960D02*
X7037573Y-6286960D01*
X2659895Y-8847711D02*
X2659895Y-8947711D01*
X2609895Y-8897711D02*
X2709895Y-8897711D01*
X2795341Y-8079561D02*
X2795341Y-8179561D01*
X2745341Y-8129561D02*
X2845341Y-8129561D01*
X19108773Y-7169693D02*
X19108773Y-7269693D01*
X19058773Y-7219693D02*
X19158773Y-7219693D01*
X19244219Y-7937843D02*
X19244219Y-8037843D01*
X19194219Y-7987843D02*
X19294219Y-7987843D01*
X24461283Y-4613912D02*
X24461283Y-4713912D01*
X24411283Y-4663912D02*
X24511283Y-4663912D01*
X24596729Y-5382062D02*
X24596729Y-5482062D01*
X24546729Y-5432062D02*
X24646729Y-5432062D01*
X7957395Y-11715211D02*
X7957395Y-11815211D01*
X7907395Y-11765211D02*
X8007395Y-11765211D01*
X8092841Y-10947061D02*
X8092841Y-11047061D01*
X8042841Y-10997061D02*
X8142841Y-10997061D01*
X4204203Y-11051780D02*
X4204203Y-11151780D01*
X4154203Y-11101780D02*
X4254203Y-11101780D01*
X4339648Y-10283630D02*
X4339648Y-10383630D01*
X4289648Y-10333630D02*
X4389648Y-10333630D01*
X2739895Y-7677711D02*
X2739895Y-7777711D01*
X2689895Y-7727711D02*
X2789895Y-7727711D01*
X2875341Y-6909561D02*
X2875341Y-7009561D01*
X2825341Y-6959561D02*
X2925341Y-6959561D01*
X11989138Y-10673674D02*
X11989138Y-10773674D01*
X11939138Y-10723674D02*
X12039138Y-10723674D01*
X12516098Y-10098598D02*
X12516098Y-10198598D01*
X12466098Y-10148598D02*
X12566098Y-10148598D01*
X737395Y-8767675D02*
X737395Y-8867675D01*
X687395Y-8817675D02*
X787395Y-8817675D01*
X872841Y-7999525D02*
X872841Y-8099525D01*
X822841Y-8049525D02*
X922841Y-8049525D01*
X8673053Y-7648586D02*
X8673053Y-7748586D01*
X8623053Y-7698586D02*
X8723053Y-7698586D01*
X8808499Y-6880436D02*
X8808499Y-6980436D01*
X8758499Y-6930436D02*
X8858499Y-6930436D01*
X4920935Y-6986986D02*
X4920935Y-7086986D01*
X4870935Y-7036986D02*
X4970935Y-7036986D01*
X5056381Y-6218836D02*
X5056381Y-6318836D01*
X5006381Y-6268836D02*
X5106381Y-6268836D01*
X27054895Y-8347061D02*
X27054895Y-8447061D01*
X27004895Y-8397061D02*
X27104895Y-8397061D01*
X27190341Y-9115211D02*
X27190341Y-9215211D01*
X27140341Y-9165211D02*
X27240341Y-9165211D01*
X6080261Y-11382580D02*
X6080261Y-11482580D01*
X6030261Y-11432580D02*
X6130261Y-11432580D01*
X6215707Y-10614430D02*
X6215707Y-10714430D01*
X6165707Y-10664430D02*
X6265707Y-10664430D01*
X2328144Y-10720980D02*
X2328144Y-10820980D01*
X2278144Y-10770980D02*
X2378144Y-10770980D01*
X2463590Y-9952830D02*
X2463590Y-10052830D01*
X2413590Y-10002830D02*
X2513590Y-10002830D01*
X16901915Y-5624434D02*
X16901915Y-5724434D01*
X16851915Y-5674434D02*
X16951915Y-5674434D01*
X17037360Y-6392584D02*
X17037360Y-6492584D01*
X16987360Y-6442584D02*
X17087360Y-6442584D01*
X9003853Y-5772527D02*
X9003853Y-5872527D01*
X8953853Y-5822527D02*
X9053853Y-5822527D01*
X9139299Y-5004377D02*
X9139299Y-5104377D01*
X9089299Y-5054377D02*
X9189299Y-5054377D01*
X5251735Y-5110927D02*
X5251735Y-5210927D01*
X5201735Y-5160927D02*
X5301735Y-5160927D01*
X5387181Y-4342777D02*
X5387181Y-4442777D01*
X5337181Y-4392777D02*
X5437181Y-4392777D01*
X25453682Y-10242088D02*
X25453682Y-10342088D01*
X25403682Y-10292088D02*
X25503682Y-10292088D01*
X25589128Y-11010238D02*
X25589128Y-11110238D01*
X25539128Y-11060238D02*
X25639128Y-11060238D01*
X25122883Y-8366029D02*
X25122883Y-8466029D01*
X25072883Y-8416029D02*
X25172883Y-8416029D01*
X25258328Y-9134179D02*
X25258328Y-9234179D01*
X25208328Y-9184179D02*
X25308328Y-9184179D01*
X21260498Y-8402276D02*
X21260498Y-8502276D01*
X21210498Y-8452276D02*
X21310498Y-8452276D01*
X21395944Y-9170426D02*
X21395944Y-9270426D01*
X21345944Y-9220426D02*
X21445944Y-9220426D01*
X17563514Y-9376552D02*
X17563514Y-9476552D01*
X17513514Y-9426552D02*
X17613514Y-9426552D01*
X17698960Y-10144702D02*
X17698960Y-10244702D01*
X17648960Y-10194702D02*
X17748960Y-10194702D01*
X3320543Y-5092805D02*
X3320543Y-5192805D01*
X3270543Y-5142805D02*
X3370543Y-5142805D01*
X3455989Y-4324655D02*
X3455989Y-4424655D01*
X3405989Y-4374655D02*
X3505989Y-4374655D01*
X27211416Y-7484548D02*
X27211416Y-7584548D01*
X27161416Y-7534548D02*
X27261416Y-7534548D01*
X27979566Y-7349102D02*
X27979566Y-7449102D01*
X27929566Y-7399102D02*
X28029566Y-7399102D01*
X22860891Y-6508094D02*
X22860891Y-6608094D01*
X22810891Y-6558094D02*
X22910891Y-6558094D01*
X22996336Y-7276244D02*
X22996336Y-7376244D01*
X22946336Y-7326244D02*
X23046336Y-7326244D01*
X18777974Y-5293635D02*
X18777974Y-5393635D01*
X18727974Y-5343635D02*
X18827974Y-5343635D01*
X18913419Y-6061784D02*
X18913419Y-6161784D01*
X18863419Y-6111784D02*
X18963419Y-6111784D01*
X23577624Y-10572888D02*
X23577624Y-10672888D01*
X23527624Y-10622888D02*
X23627624Y-10622888D01*
X23713069Y-11341038D02*
X23713069Y-11441038D01*
X23663069Y-11391038D02*
X23763069Y-11391038D01*
X10879912Y-6103327D02*
X10879912Y-6203327D01*
X10829912Y-6153327D02*
X10929912Y-6153327D01*
X11015357Y-5335177D02*
X11015357Y-5435177D01*
X10965357Y-5385177D02*
X11065357Y-5385177D01*
X7182927Y-5129051D02*
X7182927Y-5229051D01*
X7132927Y-5179051D02*
X7232927Y-5179051D01*
X7318373Y-4360901D02*
X7318373Y-4460901D01*
X7268373Y-4410901D02*
X7368373Y-4410901D01*
X10218312Y-9855444D02*
X10218312Y-9955444D01*
X10168312Y-9905444D02*
X10268312Y-9905444D01*
X10353758Y-9087294D02*
X10353758Y-9187294D01*
X10303758Y-9137294D02*
X10403758Y-9137294D01*
X6521328Y-8881168D02*
X6521328Y-8981168D01*
X6471328Y-8931168D02*
X6571328Y-8931168D01*
X6656773Y-8113018D02*
X6656773Y-8213018D01*
X6606773Y-8163018D02*
X6706773Y-8163018D01*
X20598899Y-4650158D02*
X20598899Y-4750158D01*
X20548899Y-4700158D02*
X20648899Y-4700158D01*
X20734345Y-5418308D02*
X20734345Y-5518308D01*
X20684345Y-5468308D02*
X20784345Y-5468308D01*
X21701565Y-10903687D02*
X21701565Y-11003687D01*
X21651565Y-10953687D02*
X21751565Y-10953687D01*
X21837011Y-11671837D02*
X21837011Y-11771837D01*
X21787011Y-11721837D02*
X21887011Y-11721837D01*
X17669431Y-12127379D02*
X17669431Y-12227379D01*
X17619431Y-12177379D02*
X17719431Y-12177379D01*
X18170805Y-12724893D02*
X18170805Y-12824893D01*
X18120805Y-12774893D02*
X18220805Y-12774893D01*
X26392475Y-4595788D02*
X26392475Y-4695788D01*
X26342475Y-4645788D02*
X26442475Y-4645788D01*
X26527921Y-5363938D02*
X26527921Y-5463938D01*
X26477921Y-5413938D02*
X26577921Y-5413938D01*
X22530091Y-4632035D02*
X22530091Y-4732035D01*
X22480091Y-4682035D02*
X22580091Y-4682035D01*
X22665536Y-5400185D02*
X22665536Y-5500185D01*
X22615536Y-5450185D02*
X22715536Y-5450185D01*
X23191691Y-8384153D02*
X23191691Y-8484153D01*
X23141691Y-8434153D02*
X23241691Y-8434153D01*
X23327136Y-9152303D02*
X23327136Y-9252303D01*
X23277136Y-9202303D02*
X23377136Y-9202303D01*
X19439573Y-9045752D02*
X19439573Y-9145752D01*
X19389573Y-9095752D02*
X19489573Y-9095752D01*
X19575019Y-9813902D02*
X19575019Y-9913902D01*
X19525019Y-9863902D02*
X19625019Y-9863902D01*
X20929699Y-6526217D02*
X20929699Y-6626217D01*
X20879699Y-6576217D02*
X20979699Y-6576217D01*
X21065144Y-7294367D02*
X21065144Y-7394367D01*
X21015144Y-7344367D02*
X21115144Y-7344367D01*
X3091043Y-7318413D02*
X3091043Y-7418413D01*
X3041043Y-7368413D02*
X3141043Y-7368413D01*
X3859193Y-7453859D02*
X3859193Y-7553859D01*
X3809193Y-7503859D02*
X3909193Y-7503859D01*
X17232714Y-7500493D02*
X17232714Y-7600493D01*
X17182714Y-7550493D02*
X17282714Y-7550493D01*
X17368160Y-8268643D02*
X17368160Y-8368643D01*
X17318160Y-8318643D02*
X17418160Y-8318643D01*
X1389351Y-5074681D02*
X1389351Y-5174681D01*
X1339351Y-5124681D02*
X1439351Y-5124681D01*
X1524797Y-4306531D02*
X1524797Y-4406531D01*
X1474797Y-4356531D02*
X1574797Y-4356531D01*
X4590136Y-8863045D02*
X4590136Y-8963045D01*
X4540136Y-8913045D02*
X4640136Y-8913045D01*
X4725581Y-8094895D02*
X4725581Y-8194895D01*
X4675581Y-8144895D02*
X4775581Y-8144895D01*
X25273543Y-7508859D02*
X25273543Y-7608859D01*
X25223543Y-7558859D02*
X25323543Y-7558859D01*
X26041693Y-7373413D02*
X26041693Y-7473413D01*
X25991693Y-7423413D02*
X26091693Y-7423413D01*
X15756638Y-11131098D02*
X15756638Y-11231097D01*
X15706638Y-11181098D02*
X15806638Y-11181098D01*
X16283598Y-11706174D02*
X16283598Y-11806174D01*
X16233598Y-11756174D02*
X16333598Y-11756174D01*
X10101931Y-11682393D02*
X10101931Y-11782393D01*
X10051931Y-11732393D02*
X10151931Y-11732393D01*
X10603305Y-11084879D02*
X10603305Y-11184879D01*
X10553305Y-11134879D02*
X10653305Y-11134879D01*
X8342253Y-9524645D02*
X8342253Y-9624645D01*
X8292253Y-9574645D02*
X8392254Y-9574645D01*
X8477699Y-8756495D02*
X8477699Y-8856495D01*
X8427699Y-8806495D02*
X8527699Y-8806495D01*
X12793833Y-8227497D02*
X12793833Y-8155654D01*
X12721990Y-8155654D01*
X12721990Y-8227497D01*
X12793833Y-8227497D01*
X12793833Y-8527497D02*
X12793833Y-8455654D01*
X12721990Y-8455654D01*
X12721990Y-8527497D01*
X12793833Y-8527497D01*
X12793833Y-7627497D02*
X12793833Y-7555654D01*
X12721990Y-7555654D01*
X12721990Y-7627497D01*
X12793833Y-7627497D01*
X12793833Y-7927497D02*
X12793833Y-7855654D01*
X12721990Y-7855654D01*
X12721990Y-7927497D01*
X12793833Y-7927497D01*
X13995618Y-7023746D02*
X14050228Y-6969136D01*
X13995618Y-6914526D01*
X13941008Y-6969136D01*
X13995618Y-7023746D01*
X13995618Y-7277746D02*
X14050228Y-7223136D01*
X13995618Y-7168526D01*
X13941008Y-7223136D01*
X13995618Y-7277746D01*
X13995618Y-7531746D02*
X14050228Y-7477136D01*
X13995618Y-7422526D01*
X13941008Y-7477136D01*
X13995618Y-7531746D01*
X13995618Y-7785746D02*
X14050228Y-7731136D01*
X13995618Y-7676526D01*
X13941008Y-7731136D01*
X13995618Y-7785746D01*
X13995618Y-8039746D02*
X14050228Y-7985136D01*
X13995618Y-7930526D01*
X13941008Y-7985136D01*
X13995618Y-8039746D01*
X13995618Y-8293746D02*
X14050228Y-8239136D01*
X13995618Y-8184526D01*
X13941008Y-8239136D01*
X13995618Y-8293746D01*
X13995618Y-8547746D02*
X14050228Y-8493136D01*
X13995618Y-8438526D01*
X13941008Y-8493136D01*
X13995618Y-8547746D01*
X13995618Y-8801746D02*
X14050228Y-8747136D01*
X13995618Y-8692526D01*
X13941008Y-8747136D01*
X13995618Y-8801746D01*
X13995618Y-9055746D02*
X14050228Y-9001136D01*
X13995618Y-8946526D01*
X13941008Y-9001136D01*
X13995618Y-9055746D01*
X13995618Y-9309746D02*
X14050228Y-9255136D01*
X13995618Y-9200526D01*
X13941008Y-9255136D01*
X13995618Y-9309746D01*
X13995618Y-9563746D02*
X14050228Y-9509136D01*
X13995618Y-9454526D01*
X13941008Y-9509136D01*
X13995618Y-9563746D01*
X13995618Y-9817746D02*
X14050228Y-9763136D01*
X13995618Y-9708526D01*
X13941008Y-9763136D01*
X13995618Y-9817746D01*
X14249618Y-9309746D02*
X14304228Y-9255136D01*
X14249618Y-9200526D01*
X14195008Y-9255136D01*
X14249618Y-9309746D01*
X14503618Y-9309746D02*
X14558228Y-9255136D01*
X14503618Y-9200526D01*
X14449008Y-9255136D01*
X14503618Y-9309746D01*
X14757618Y-9309746D02*
X14812228Y-9255136D01*
X14757618Y-9200526D01*
X14703008Y-9255136D01*
X14757618Y-9309746D01*
X15519618Y-7023746D02*
X15574228Y-6969136D01*
X15519618Y-6914526D01*
X15465008Y-6969136D01*
X15519618Y-7023746D01*
X15519618Y-7277746D02*
X15574228Y-7223136D01*
X15519618Y-7168526D01*
X15465008Y-7223136D01*
X15519618Y-7277746D01*
X15519618Y-7531746D02*
X15574228Y-7477136D01*
X15519618Y-7422526D01*
X15465008Y-7477136D01*
X15519618Y-7531746D01*
X15519618Y-7785746D02*
X15574228Y-7731136D01*
X15519618Y-7676526D01*
X15465008Y-7731136D01*
X15519618Y-7785746D01*
X15519618Y-8039746D02*
X15574228Y-7985136D01*
X15519618Y-7930526D01*
X15465008Y-7985136D01*
X15519618Y-8039746D01*
X15519618Y-8293746D02*
X15574228Y-8239136D01*
X15519618Y-8184526D01*
X15465008Y-8239136D01*
X15519618Y-8293746D01*
X15519618Y-8547746D02*
X15574228Y-8493136D01*
X15519618Y-8438526D01*
X15465008Y-8493136D01*
X15519618Y-8547746D01*
X15519618Y-8801746D02*
X15574228Y-8747136D01*
X15519618Y-8692526D01*
X15465008Y-8747136D01*
X15519618Y-8801746D01*
X15519618Y-9055746D02*
X15574228Y-9001136D01*
X15519618Y-8946526D01*
X15465008Y-9001136D01*
X15519618Y-9055746D01*
X15519618Y-9309746D02*
X15574228Y-9255136D01*
X15519618Y-9200526D01*
X15465008Y-9255136D01*
X15519618Y-9309746D01*
X15519618Y-9563746D02*
X15574228Y-9509136D01*
X15519618Y-9454526D01*
X15465008Y-9509136D01*
X15519618Y-9563746D01*
X15519618Y-9817746D02*
X15574228Y-9763136D01*
X15519618Y-9708526D01*
X15465008Y-9763136D01*
X15519618Y-9817746D01*
X6805412Y-11594530D02*
X6925412Y-11714530D01*
X6925412Y-11594530D02*
X6805412Y-11714530D01*
X6925412Y-11654530D02*
G75*
G03X6925412Y-11654530I-60000J0D01*
G01*
X7336018Y-11464696D02*
X7456018Y-11584696D01*
X7456018Y-11464696D02*
X7336018Y-11584696D01*
X7456018Y-11524696D02*
G75*
G03X7456018Y-11524696I-60000J0D01*
G01*
X7246478Y-9093118D02*
X7366478Y-9213118D01*
X7366478Y-9093118D02*
X7246478Y-9213118D01*
X7366478Y-9153118D02*
G75*
G03X7366478Y-9153118I-60000J0D01*
G01*
X7777084Y-8963284D02*
X7897084Y-9083284D01*
X7897084Y-8963284D02*
X7777084Y-9083284D01*
X7897084Y-9023284D02*
G75*
G03X7897084Y-9023284I-60000J0D01*
G01*
X26011178Y-9061129D02*
X26131178Y-9181129D01*
X26131178Y-9061129D02*
X26011178Y-9181129D01*
X26131178Y-9121129D02*
G75*
G03X26131178Y-9121129I-60000J0D01*
G01*
X26465379Y-8757647D02*
X26585379Y-8877647D01*
X26585379Y-8757647D02*
X26465379Y-8877647D01*
X26585379Y-8817647D02*
G75*
G03X26585379Y-8817647I-60000J0D01*
G01*
X23418386Y-5327135D02*
X23538386Y-5447135D01*
X23538386Y-5327135D02*
X23418386Y-5447135D01*
X23538386Y-5387135D02*
G75*
G03X23538386Y-5387135I-60000J0D01*
G01*
X23872587Y-5023653D02*
X23992587Y-5143653D01*
X23992587Y-5023653D02*
X23872587Y-5143653D01*
X23992587Y-5083653D02*
G75*
G03X23992587Y-5083653I-60000J0D01*
G01*
X16883272Y-11248163D02*
X17003272Y-11368163D01*
X17003272Y-11248163D02*
X16883272Y-11368163D01*
X17003272Y-11308163D02*
G75*
G03X17003272Y-11308163I-60000J0D01*
G01*
X17124881Y-10758239D02*
X17244881Y-10878239D01*
X17244881Y-10758239D02*
X17124881Y-10878239D01*
X17244881Y-10818239D02*
G75*
G03X17244881Y-10818239I-60000J0D01*
G01*
X25349578Y-5309011D02*
X25469578Y-5429011D01*
X25469578Y-5309011D02*
X25349578Y-5429011D01*
X25469578Y-5369011D02*
G75*
G03X25469578Y-5369011I-60000J0D01*
G01*
X25803779Y-5005530D02*
X25923779Y-5125530D01*
X25923779Y-5005530D02*
X25803779Y-5125530D01*
X25923779Y-5065530D02*
G75*
G03X25923779Y-5065530I-60000J0D01*
G01*
X1452902Y-9038748D02*
X1572902Y-9158748D01*
X1572902Y-9038748D02*
X1452902Y-9158748D01*
X1572902Y-9098748D02*
G75*
G03X1572902Y-9098748I-60000J0D01*
G01*
X1983508Y-8908914D02*
X2103509Y-9028914D01*
X2103509Y-8908914D02*
X1983508Y-9028914D01*
X2103509Y-8968914D02*
G75*
G03X2103509Y-8968914I-60000J0D01*
G01*
X27932189Y-9041885D02*
X28052189Y-9161885D01*
X28052189Y-9041885D02*
X27932189Y-9161885D01*
X28052189Y-9101885D02*
G75*
G03X28052189Y-9101885I-60000J0D01*
G01*
X28386390Y-8738403D02*
X28506390Y-8858403D01*
X28506390Y-8738403D02*
X28386390Y-8858403D01*
X28506390Y-8798403D02*
G75*
G03X28506390Y-8798403I-60000J0D01*
G01*
X21487194Y-5345258D02*
X21607194Y-5465258D01*
X21607194Y-5345258D02*
X21487194Y-5465258D01*
X21607194Y-5405258D02*
G75*
G03X21607194Y-5405258I-60000J0D01*
G01*
X21941395Y-5041776D02*
X22061395Y-5161776D01*
X22061395Y-5041776D02*
X21941395Y-5161776D01*
X22061395Y-5101776D02*
G75*
G03X22061395Y-5101776I-60000J0D01*
G01*
X19666269Y-5988734D02*
X19786269Y-6108734D01*
X19786269Y-5988734D02*
X19666269Y-6108734D01*
X19786269Y-6048734D02*
G75*
G03X19786269Y-6048734I-60000J0D01*
G01*
X20120470Y-5685252D02*
X20240470Y-5805252D01*
X20240470Y-5685252D02*
X20120470Y-5805252D01*
X20240470Y-5745252D02*
G75*
G03X20240470Y-5745252I-60000J0D01*
G01*
X17790210Y-6319534D02*
X17910210Y-6439534D01*
X17910210Y-6319534D02*
X17790210Y-6439534D01*
X17910210Y-6379534D02*
G75*
G03X17910210Y-6379534I-60000J0D01*
G01*
X18244411Y-6016052D02*
X18364411Y-6136052D01*
X18364411Y-6016052D02*
X18244411Y-6136052D01*
X18364411Y-6076052D02*
G75*
G03X18364411Y-6076052I-60000J0D01*
G01*
X26341977Y-10937188D02*
X26461977Y-11057188D01*
X26461977Y-10937188D02*
X26341977Y-11057188D01*
X26461977Y-10997188D02*
G75*
G03X26461977Y-10997188I-60000J0D01*
G01*
X26796179Y-10633706D02*
X26916179Y-10753706D01*
X26916179Y-10633706D02*
X26796179Y-10753706D01*
X26916179Y-10693706D02*
G75*
G03X26916179Y-10693706I-60000J0D01*
G01*
X23749186Y-7203193D02*
X23869186Y-7323193D01*
X23869186Y-7203193D02*
X23749186Y-7323193D01*
X23869186Y-7263193D02*
G75*
G03X23869186Y-7263193I-60000J0D01*
G01*
X24203387Y-6899711D02*
X24323387Y-7019711D01*
X24323387Y-6899711D02*
X24203387Y-7019711D01*
X24323387Y-6959711D02*
G75*
G03X24323387Y-6959711I-60000J0D01*
G01*
X27280770Y-5290888D02*
X27400770Y-5410888D01*
X27400770Y-5290888D02*
X27280770Y-5410888D01*
X27400770Y-5350888D02*
G75*
G03X27400770Y-5350888I-60000J0D01*
G01*
X27734971Y-4987406D02*
X27854971Y-5107406D01*
X27854971Y-4987406D02*
X27734971Y-5107406D01*
X27854971Y-5047406D02*
G75*
G03X27854971Y-5047406I-60000J0D01*
G01*
X26948991Y-6288659D02*
X27068991Y-6408659D01*
X27068991Y-6288659D02*
X26948991Y-6408659D01*
X27068991Y-6348659D02*
G75*
G03X27068991Y-6348659I-60000J0D01*
G01*
X27403192Y-5985177D02*
X27523192Y-6105177D01*
X27523192Y-5985177D02*
X27403192Y-6105177D01*
X27523192Y-6045177D02*
G75*
G03X27523192Y-6045177I-60000J0D01*
G01*
X10611967Y-12254442D02*
X10731967Y-12374442D01*
X10731967Y-12254442D02*
X10611967Y-12374442D01*
X10731967Y-12314442D02*
G75*
G03X10731967Y-12314442I-60000J0D01*
G01*
X11136402Y-12407306D02*
X11256402Y-12527306D01*
X11256402Y-12407306D02*
X11136402Y-12527306D01*
X11256402Y-12467306D02*
G75*
G03X11256402Y-12467306I-60000J0D01*
G01*
X7577278Y-7217059D02*
X7697278Y-7337059D01*
X7697278Y-7217059D02*
X7577278Y-7337059D01*
X7697278Y-7277059D02*
G75*
G03X7697278Y-7277059I-60000J0D01*
G01*
X8107884Y-7087226D02*
X8227884Y-7207226D01*
X8227884Y-7087226D02*
X8107884Y-7207226D01*
X8227884Y-7147226D02*
G75*
G03X8227884Y-7147226I-60000J0D01*
G01*
X1461473Y-6110753D02*
X1581473Y-6230753D01*
X1581473Y-6110753D02*
X1461473Y-6230753D01*
X1581473Y-6170753D02*
G75*
G03X1581473Y-6170753I-60000J0D01*
G01*
X1992080Y-5980920D02*
X2112080Y-6100920D01*
X2112080Y-5980920D02*
X1992080Y-6100920D01*
X2112080Y-6040920D02*
G75*
G03X2112080Y-6040920I-60000J0D01*
G01*
X5976886Y-5322877D02*
X6096886Y-5442877D01*
X6096886Y-5322877D02*
X5976886Y-5442877D01*
X6096886Y-5382877D02*
G75*
G03X6096886Y-5382877I-60000J0D01*
G01*
X6507492Y-5193043D02*
X6627492Y-5313043D01*
X6627492Y-5193043D02*
X6507492Y-5313043D01*
X6627492Y-5253043D02*
G75*
G03X6627492Y-5253043I-60000J0D01*
G01*
X12511971Y-11257809D02*
X12631971Y-11377809D01*
X12631971Y-11257809D02*
X12511971Y-11377809D01*
X12631971Y-11317809D02*
G75*
G03X12631971Y-11317809I-60000J0D01*
G01*
X13036407Y-11410673D02*
X13156407Y-11530673D01*
X13156407Y-11410673D02*
X13036407Y-11530673D01*
X13156407Y-11470673D02*
G75*
G03X13156407Y-11470673I-60000J0D01*
G01*
X5646086Y-7198935D02*
X5766086Y-7318935D01*
X5766086Y-7198935D02*
X5646086Y-7318935D01*
X5766086Y-7258935D02*
G75*
G03X5766086Y-7258935I-60000J0D01*
G01*
X6176693Y-7069102D02*
X6296693Y-7189102D01*
X6296693Y-7069102D02*
X6176693Y-7189102D01*
X6296693Y-7129102D02*
G75*
G03X6296693Y-7129102I-60000J0D01*
G01*
X4929353Y-11263730D02*
X5049353Y-11383730D01*
X5049353Y-11263730D02*
X4929353Y-11383730D01*
X5049353Y-11323730D02*
G75*
G03X5049353Y-11323730I-60000J0D01*
G01*
X5459959Y-11133896D02*
X5579959Y-11253896D01*
X5579959Y-11133896D02*
X5459959Y-11253896D01*
X5579959Y-11193896D02*
G75*
G03X5579959Y-11193896I-60000J0D01*
G01*
X2113429Y-5282021D02*
X2233429Y-5402021D01*
X2233429Y-5282021D02*
X2113429Y-5402021D01*
X2233429Y-5342021D02*
G75*
G03X2233429Y-5342021I-60000J0D01*
G01*
X2644036Y-5152187D02*
X2764036Y-5272187D01*
X2764036Y-5152187D02*
X2644036Y-5272187D01*
X2764036Y-5212187D02*
G75*
G03X2764036Y-5212187I-60000J0D01*
G01*
X22589860Y-11598787D02*
X22709860Y-11718787D01*
X22709860Y-11598787D02*
X22589860Y-11718787D01*
X22709860Y-11658787D02*
G75*
G03X22709860Y-11658787I-60000J0D01*
G01*
X23044061Y-11295305D02*
X23164061Y-11415305D01*
X23164061Y-11295305D02*
X23044061Y-11415305D01*
X23164061Y-11355305D02*
G75*
G03X23164061Y-11355305I-60000J0D01*
G01*
X25017799Y-6306782D02*
X25137799Y-6426782D01*
X25137799Y-6306782D02*
X25017799Y-6426782D01*
X25137799Y-6366782D02*
G75*
G03X25137799Y-6366782I-60000J0D01*
G01*
X25472000Y-6003300D02*
X25592000Y-6123300D01*
X25592000Y-6003300D02*
X25472000Y-6123300D01*
X25592000Y-6063300D02*
G75*
G03X25592000Y-6063300I-60000J0D01*
G01*
X24465919Y-11267987D02*
X24585919Y-11387987D01*
X24585919Y-11267987D02*
X24465919Y-11387987D01*
X24585919Y-11327987D02*
G75*
G03X24585919Y-11327987I-60000J0D01*
G01*
X24920120Y-10964505D02*
X25040120Y-11084505D01*
X25040120Y-10964505D02*
X24920120Y-11084505D01*
X25040120Y-11024505D02*
G75*
G03X25040120Y-11024505I-60000J0D01*
G01*
X20713801Y-11929587D02*
X20833801Y-12049587D01*
X20833801Y-11929587D02*
X20713801Y-12049587D01*
X20833801Y-11989587D02*
G75*
G03X20833801Y-11989587I-60000J0D01*
G01*
X21168003Y-11626105D02*
X21288003Y-11746105D01*
X21288003Y-11626105D02*
X21168003Y-11746105D01*
X21288003Y-11686105D02*
G75*
G03X21288003Y-11686105I-60000J0D01*
G01*
X19997068Y-7864793D02*
X20117068Y-7984793D01*
X20117068Y-7864793D02*
X19997068Y-7984793D01*
X20117068Y-7924793D02*
G75*
G03X20117068Y-7924793I-60000J0D01*
G01*
X20451270Y-7561311D02*
X20571270Y-7681311D01*
X20571270Y-7561311D02*
X20451270Y-7681311D01*
X20571270Y-7621311D02*
G75*
G03X20571270Y-7621311I-60000J0D01*
G01*
X9067404Y-9736594D02*
X9187404Y-9856594D01*
X9187404Y-9736594D02*
X9067404Y-9856594D01*
X9187404Y-9796594D02*
G75*
G03X9187404Y-9796594I-60000J0D01*
G01*
X9598010Y-9606760D02*
X9718010Y-9726760D01*
X9718010Y-9606760D02*
X9598010Y-9726760D01*
X9718010Y-9666760D02*
G75*
G03X9718010Y-9666760I-60000J0D01*
G01*
X11605062Y-6315276D02*
X11725062Y-6435276D01*
X11725062Y-6315276D02*
X11605062Y-6435276D01*
X11725062Y-6375276D02*
G75*
G03X11725062Y-6375276I-60000J0D01*
G01*
X12135669Y-6185442D02*
X12255669Y-6305442D01*
X12255669Y-6185442D02*
X12135669Y-6305442D01*
X12255669Y-6245442D02*
G75*
G03X12255669Y-6245442I-60000J0D01*
G01*
X9729003Y-5984476D02*
X9849003Y-6104476D01*
X9849003Y-5984476D02*
X9729003Y-6104476D01*
X9849003Y-6044476D02*
G75*
G03X9849003Y-6044476I-60000J0D01*
G01*
X10259610Y-5854643D02*
X10379610Y-5974643D01*
X10379610Y-5854643D02*
X10259610Y-5974643D01*
X10379610Y-5914643D02*
G75*
G03X10379610Y-5914643I-60000J0D01*
G01*
X5315286Y-9074995D02*
X5435286Y-9194995D01*
X5435286Y-9074995D02*
X5315286Y-9194995D01*
X5435286Y-9134995D02*
G75*
G03X5435286Y-9134995I-60000J0D01*
G01*
X5845893Y-8945161D02*
X5965893Y-9065161D01*
X5965893Y-8945161D02*
X5845893Y-9065161D01*
X5965893Y-9005161D02*
G75*
G03X5965893Y-9005161I-60000J0D01*
G01*
X18121010Y-8195592D02*
X18241010Y-8315592D01*
X18241010Y-8195592D02*
X18121010Y-8315592D01*
X18241010Y-8255592D02*
G75*
G03X18241010Y-8255592I-60000J0D01*
G01*
X18575211Y-7892111D02*
X18695211Y-8012111D01*
X18695211Y-7892111D02*
X18575211Y-8012111D01*
X18695211Y-7952111D02*
G75*
G03X18695211Y-7952111I-60000J0D01*
G01*
X18783313Y-12254643D02*
X18903313Y-12374643D01*
X18903313Y-12254643D02*
X18783313Y-12374643D01*
X18903313Y-12314643D02*
G75*
G03X18903313Y-12314643I-60000J0D01*
G01*
X19024922Y-11764720D02*
X19144922Y-11884720D01*
X19144922Y-11764720D02*
X19024922Y-11884720D01*
X19144922Y-11824720D02*
G75*
G03X19144922Y-11824720I-60000J0D01*
G01*
X22148794Y-9097375D02*
X22268794Y-9217375D01*
X22268794Y-9097375D02*
X22148794Y-9217375D01*
X22268794Y-9157375D02*
G75*
G03X22268794Y-9157375I-60000J0D01*
G01*
X22602995Y-8793894D02*
X22722995Y-8913894D01*
X22722995Y-8793894D02*
X22602995Y-8913894D01*
X22722995Y-8853894D02*
G75*
G03X22722995Y-8853894I-60000J0D01*
G01*
X3384094Y-9056871D02*
X3504094Y-9176871D01*
X3504094Y-9056871D02*
X3384094Y-9176871D01*
X3504094Y-9116871D02*
G75*
G03X3504094Y-9116871I-60000J0D01*
G01*
X3914700Y-8927038D02*
X4034700Y-9047038D01*
X4034700Y-8927038D02*
X3914700Y-9047038D01*
X4034700Y-8987038D02*
G75*
G03X4034700Y-8987038I-60000J0D01*
G01*
X4045693Y-5304754D02*
X4165693Y-5424754D01*
X4165693Y-5304754D02*
X4045693Y-5424754D01*
X4165693Y-5364754D02*
G75*
G03X4165693Y-5364754I-60000J0D01*
G01*
X4576300Y-5174920D02*
X4696300Y-5294920D01*
X4696300Y-5174920D02*
X4576300Y-5294920D01*
X4696300Y-5234920D02*
G75*
G03X4696300Y-5234920I-60000J0D01*
G01*
X24079985Y-9079252D02*
X24199985Y-9199252D01*
X24199985Y-9079252D02*
X24079985Y-9199252D01*
X24199985Y-9139252D02*
G75*
G03X24199985Y-9139252I-60000J0D01*
G01*
X24534187Y-8775770D02*
X24654187Y-8895770D01*
X24654187Y-8775770D02*
X24534187Y-8895770D01*
X24654187Y-8835770D02*
G75*
G03X24654187Y-8835770I-60000J0D01*
G01*
X21817994Y-7221316D02*
X21937994Y-7341316D01*
X21937994Y-7221316D02*
X21817994Y-7341316D01*
X21937994Y-7281316D02*
G75*
G03X21937994Y-7281316I-60000J0D01*
G01*
X22272195Y-6917835D02*
X22392195Y-7037835D01*
X22392195Y-6917835D02*
X22272195Y-7037835D01*
X22392195Y-6977835D02*
G75*
G03X22392195Y-6977835I-60000J0D01*
G01*
X3714894Y-7180812D02*
X3834894Y-7300812D01*
X3834894Y-7180812D02*
X3714894Y-7300812D01*
X3834894Y-7240812D02*
G75*
G03X3834894Y-7240812I-60000J0D01*
G01*
X4245500Y-7050979D02*
X4365500Y-7170979D01*
X4365500Y-7050979D02*
X4245500Y-7170979D01*
X4365500Y-7110979D02*
G75*
G03X4365500Y-7110979I-60000J0D01*
G01*
X9398204Y-7860535D02*
X9518204Y-7980535D01*
X9518204Y-7860535D02*
X9398204Y-7980535D01*
X9518204Y-7920535D02*
G75*
G03X9518204Y-7920535I-60000J0D01*
G01*
X9928810Y-7730701D02*
X10048810Y-7850701D01*
X10048810Y-7730701D02*
X9928810Y-7850701D01*
X10048810Y-7790701D02*
G75*
G03X10048810Y-7790701I-60000J0D01*
G01*
X20327868Y-9740851D02*
X20447868Y-9860851D01*
X20447868Y-9740851D02*
X20327868Y-9860851D01*
X20447868Y-9800851D02*
G75*
G03X20447868Y-9800851I-60000J0D01*
G01*
X20782070Y-9437370D02*
X20902070Y-9557370D01*
X20902070Y-9437370D02*
X20782070Y-9557370D01*
X20902070Y-9497370D02*
G75*
G03X20902070Y-9497370I-60000J0D01*
G01*
X8681471Y-11925329D02*
X8801471Y-12045329D01*
X8801471Y-11925329D02*
X8681471Y-12045329D01*
X8801471Y-11985329D02*
G75*
G03X8801471Y-11985329I-60000J0D01*
G01*
X9212077Y-11795496D02*
X9332077Y-11915496D01*
X9332077Y-11795496D02*
X9212077Y-11915496D01*
X9332077Y-11855496D02*
G75*
G03X9332077Y-11855496I-60000J0D01*
G01*
X11274262Y-8191335D02*
X11394262Y-8311335D01*
X11394262Y-8191335D02*
X11274262Y-8311335D01*
X11394262Y-8251335D02*
G75*
G03X11394262Y-8251335I-60000J0D01*
G01*
X11804869Y-8061501D02*
X11924869Y-8181501D01*
X11924869Y-8061501D02*
X11804869Y-8181501D01*
X11924869Y-8121501D02*
G75*
G03X11924869Y-8121501I-60000J0D01*
G01*
X3053294Y-10932930D02*
X3173294Y-11052930D01*
X3173294Y-10932930D02*
X3053294Y-11052930D01*
X3173294Y-10992930D02*
G75*
G03X3173294Y-10992930I-60000J0D01*
G01*
X3583901Y-10803096D02*
X3703901Y-10923096D01*
X3703901Y-10803096D02*
X3583901Y-10923096D01*
X3703901Y-10863096D02*
G75*
G03X3703901Y-10863096I-60000J0D01*
G01*
X18451809Y-10071651D02*
X18571809Y-10191651D01*
X18571809Y-10071651D02*
X18451809Y-10191651D01*
X18571809Y-10131651D02*
G75*
G03X18571809Y-10131651I-60000J0D01*
G01*
X18906011Y-9768170D02*
X19026011Y-9888170D01*
X19026011Y-9768170D02*
X18906011Y-9888170D01*
X19026011Y-9828170D02*
G75*
G03X19026011Y-9828170I-60000J0D01*
G01*
X10943462Y-10067394D02*
X11063462Y-10187394D01*
X11063462Y-10067394D02*
X10943462Y-10187394D01*
X11063462Y-10127394D02*
G75*
G03X11063462Y-10127394I-60000J0D01*
G01*
X11474069Y-9937560D02*
X11594069Y-10057560D01*
X11594069Y-9937560D02*
X11474069Y-10057560D01*
X11594069Y-9997560D02*
G75*
G03X11594069Y-9997560I-60000J0D01*
G01*
X7908078Y-5341000D02*
X8028078Y-5461000D01*
X8028078Y-5341000D02*
X7908078Y-5461000D01*
X8028078Y-5401000D02*
G75*
G03X8028078Y-5401000I-60000J0D01*
G01*
X8438684Y-5211167D02*
X8558684Y-5331167D01*
X8558684Y-5211167D02*
X8438684Y-5331167D01*
X8558684Y-5271167D02*
G75*
G03X8558684Y-5271167I-60000J0D01*
G01*
X27481895Y-8752301D02*
X27631895Y-8902301D01*
X27631895Y-8752301D02*
X27481895Y-8902301D01*
X27556895Y-8752301D02*
X27556895Y-8902301D01*
X27481895Y-8827301D02*
X27631895Y-8827301D01*
X27636257Y-8873335D02*
X27786257Y-9023335D01*
X27786257Y-8873335D02*
X27636257Y-9023335D01*
X27711257Y-8873335D02*
X27711257Y-9023335D01*
X27636257Y-8948335D02*
X27786257Y-8948335D01*
X28144349Y-8863964D02*
X28294349Y-9013964D01*
X28294349Y-8863964D02*
X28144349Y-9013964D01*
X28219349Y-8863964D02*
X28219349Y-9013964D01*
X28144349Y-8938964D02*
X28294349Y-8938964D01*
X28151635Y-8917035D02*
X28157799Y-8974707D01*
X28280899Y-8903221D02*
X28287063Y-8960892D01*
X28157799Y-8974707D02*
G75*
G03X28287063Y-8960892I64632J6907D01*
G01*
X28280899Y-8903221D02*
G75*
G03X28151635Y-8917035I-64632J-6907D01*
G01*
X21036900Y-5055674D02*
X21186900Y-5205674D01*
X21186900Y-5055674D02*
X21036900Y-5205674D01*
X21111900Y-5055674D02*
X21111900Y-5205674D01*
X21036900Y-5130674D02*
X21186900Y-5130674D01*
X21191262Y-5176708D02*
X21341262Y-5326708D01*
X21341262Y-5176708D02*
X21191262Y-5326708D01*
X21266262Y-5176708D02*
X21266262Y-5326708D01*
X21191262Y-5251708D02*
X21341262Y-5251708D01*
X21699354Y-5167337D02*
X21849354Y-5317337D01*
X21849354Y-5167337D02*
X21699354Y-5317337D01*
X21774354Y-5167337D02*
X21774354Y-5317337D01*
X21699354Y-5242337D02*
X21849354Y-5242337D01*
X21706640Y-5220408D02*
X21712804Y-5278080D01*
X21835904Y-5206594D02*
X21842068Y-5264265D01*
X21712804Y-5278080D02*
G75*
G03X21842068Y-5264265I64632J6907D01*
G01*
X21835904Y-5206594D02*
G75*
G03X21706640Y-5220408I-64632J-6907D01*
G01*
X19215975Y-5699150D02*
X19365975Y-5849150D01*
X19365975Y-5699150D02*
X19215975Y-5849150D01*
X19290975Y-5699150D02*
X19290975Y-5849150D01*
X19215975Y-5774150D02*
X19365975Y-5774150D01*
X19370337Y-5820184D02*
X19520337Y-5970184D01*
X19520337Y-5820184D02*
X19370337Y-5970184D01*
X19445337Y-5820184D02*
X19445337Y-5970184D01*
X19370337Y-5895184D02*
X19520337Y-5895184D01*
X19878429Y-5810813D02*
X20028429Y-5960813D01*
X20028429Y-5810813D02*
X19878429Y-5960813D01*
X19953429Y-5810813D02*
X19953429Y-5960813D01*
X19878429Y-5885813D02*
X20028429Y-5885813D01*
X19885715Y-5863884D02*
X19891878Y-5921556D01*
X20014979Y-5850070D02*
X20021142Y-5907741D01*
X19891878Y-5921556D02*
G75*
G03X20021142Y-5907741I64632J6907D01*
G01*
X20014979Y-5850070D02*
G75*
G03X19885715Y-5863884I-64632J-6907D01*
G01*
X17339916Y-6029950D02*
X17489916Y-6179950D01*
X17489916Y-6029950D02*
X17339916Y-6179950D01*
X17414916Y-6029950D02*
X17414916Y-6179950D01*
X17339916Y-6104950D02*
X17489916Y-6104950D01*
X17494278Y-6150984D02*
X17644278Y-6300984D01*
X17644278Y-6150984D02*
X17494278Y-6300984D01*
X17569278Y-6150984D02*
X17569278Y-6300984D01*
X17494278Y-6225984D02*
X17644278Y-6225984D01*
X18002370Y-6141613D02*
X18152370Y-6291613D01*
X18152370Y-6141613D02*
X18002370Y-6291613D01*
X18077370Y-6141613D02*
X18077370Y-6291613D01*
X18002370Y-6216613D02*
X18152370Y-6216613D01*
X18009656Y-6194684D02*
X18015820Y-6252356D01*
X18138920Y-6180870D02*
X18145084Y-6238541D01*
X18015820Y-6252356D02*
G75*
G03X18145084Y-6238541I64632J6907D01*
G01*
X18138920Y-6180870D02*
G75*
G03X18009656Y-6194684I-64632J-6907D01*
G01*
X25891683Y-10647604D02*
X26041683Y-10797604D01*
X26041683Y-10647604D02*
X25891683Y-10797604D01*
X25966683Y-10647604D02*
X25966683Y-10797604D01*
X25891683Y-10722604D02*
X26041683Y-10722604D01*
X26046046Y-10768638D02*
X26196046Y-10918638D01*
X26196046Y-10768638D02*
X26046046Y-10918638D01*
X26121046Y-10768638D02*
X26121046Y-10918638D01*
X26046046Y-10843638D02*
X26196046Y-10843638D01*
X26554138Y-10759267D02*
X26704138Y-10909267D01*
X26704138Y-10759267D02*
X26554138Y-10909267D01*
X26629138Y-10759267D02*
X26629138Y-10909267D01*
X26554138Y-10834267D02*
X26704138Y-10834267D01*
X26561424Y-10812338D02*
X26567587Y-10870010D01*
X26690688Y-10798524D02*
X26696851Y-10856195D01*
X26567587Y-10870010D02*
G75*
G03X26696851Y-10856195I64632J6907D01*
G01*
X26690688Y-10798524D02*
G75*
G03X26561424Y-10812338I-64632J-6907D01*
G01*
X23298892Y-6913610D02*
X23448892Y-7063610D01*
X23448892Y-6913610D02*
X23298892Y-7063610D01*
X23373892Y-6913610D02*
X23373892Y-7063610D01*
X23298892Y-6988610D02*
X23448892Y-6988610D01*
X23453254Y-7034643D02*
X23603254Y-7184643D01*
X23603254Y-7034643D02*
X23453254Y-7184643D01*
X23528254Y-7034643D02*
X23528254Y-7184643D01*
X23453254Y-7109643D02*
X23603254Y-7109643D01*
X23961346Y-7025272D02*
X24111346Y-7175272D01*
X24111346Y-7025272D02*
X23961346Y-7175272D01*
X24036346Y-7025272D02*
X24036346Y-7175272D01*
X23961346Y-7100272D02*
X24111346Y-7100272D01*
X23968632Y-7078343D02*
X23974796Y-7136015D01*
X24097896Y-7064529D02*
X24104060Y-7122201D01*
X23974796Y-7136015D02*
G75*
G03X24104060Y-7122201I64632J6907D01*
G01*
X24097896Y-7064529D02*
G75*
G03X23968632Y-7078343I-64632J-6907D01*
G01*
X26830476Y-5001304D02*
X26980476Y-5151304D01*
X26980476Y-5001304D02*
X26830476Y-5151304D01*
X26905476Y-5001304D02*
X26905476Y-5151304D01*
X26830476Y-5076304D02*
X26980476Y-5076304D01*
X26984838Y-5122338D02*
X27134838Y-5272338D01*
X27134838Y-5122338D02*
X26984838Y-5272338D01*
X27059838Y-5122338D02*
X27059838Y-5272338D01*
X26984838Y-5197338D02*
X27134838Y-5197338D01*
X27492930Y-5112967D02*
X27642930Y-5262967D01*
X27642930Y-5112967D02*
X27492930Y-5262967D01*
X27567930Y-5112967D02*
X27567930Y-5262967D01*
X27492930Y-5187967D02*
X27642930Y-5187967D01*
X27500216Y-5166038D02*
X27506380Y-5223710D01*
X27629480Y-5152224D02*
X27635644Y-5209895D01*
X27506380Y-5223710D02*
G75*
G03X27635644Y-5209895I64632J6907D01*
G01*
X27629480Y-5152224D02*
G75*
G03X27500216Y-5166038I-64632J-6907D01*
G01*
X27161032Y-6133098D02*
X27311032Y-6283098D01*
X27311032Y-6133098D02*
X27161032Y-6283098D01*
X27236032Y-6133098D02*
X27236032Y-6283098D01*
X27161032Y-6208098D02*
X27311032Y-6208098D01*
X27303746Y-6230027D02*
X27297583Y-6172355D01*
X27174482Y-6243841D02*
X27168319Y-6186170D01*
X27297583Y-6172355D02*
G75*
G03X27168319Y-6186170I-64632J-6907D01*
G01*
X27174482Y-6243841D02*
G75*
G03X27303746Y-6230027I64632J6907D01*
G01*
X27669124Y-6123727D02*
X27819124Y-6273727D01*
X27819124Y-6123727D02*
X27669124Y-6273727D01*
X27744124Y-6123727D02*
X27744124Y-6273727D01*
X27669124Y-6198727D02*
X27819124Y-6198727D01*
X27823486Y-6244761D02*
X27973486Y-6394761D01*
X27973486Y-6244761D02*
X27823486Y-6394761D01*
X27898486Y-6244761D02*
X27898486Y-6394761D01*
X27823486Y-6319761D02*
X27973486Y-6319761D01*
X10527508Y-11729488D02*
X10677508Y-11879488D01*
X10677508Y-11729488D02*
X10527508Y-11879488D01*
X10602508Y-11729488D02*
X10602508Y-11879488D01*
X10527508Y-11804488D02*
X10677508Y-11804488D01*
X10534013Y-11925536D02*
X10684013Y-12075536D01*
X10684013Y-11925536D02*
X10534013Y-12075536D01*
X10609013Y-11925536D02*
X10609013Y-12075536D01*
X10534013Y-12000536D02*
X10684013Y-12000536D01*
X10867787Y-12308733D02*
X11017787Y-12458733D01*
X11017787Y-12308733D02*
X10867787Y-12458733D01*
X10942787Y-12308733D02*
X10942787Y-12458733D01*
X10867787Y-12383733D02*
X11017787Y-12383733D01*
X10916060Y-12317766D02*
X10875843Y-12359558D01*
X11009732Y-12407908D02*
X10969514Y-12449700D01*
X10875843Y-12359558D02*
G75*
G03X10969514Y-12449700I46836J-45071D01*
G01*
X11009732Y-12407908D02*
G75*
G03X10916060Y-12317766I-46836J45071D01*
G01*
X7247148Y-6795156D02*
X7397148Y-6945156D01*
X7397148Y-6795156D02*
X7247148Y-6945156D01*
X7322148Y-6795156D02*
X7322148Y-6945156D01*
X7247148Y-6870156D02*
X7397148Y-6870156D01*
X7350806Y-6961685D02*
X7500806Y-7111685D01*
X7500806Y-6961685D02*
X7350806Y-7111685D01*
X7425806Y-6961685D02*
X7425806Y-7111685D01*
X7350806Y-7036685D02*
X7500806Y-7036685D01*
X7831461Y-7126657D02*
X7981461Y-7276657D01*
X7981461Y-7126657D02*
X7831461Y-7276657D01*
X7906461Y-7126657D02*
X7906461Y-7276657D01*
X7831461Y-7201657D02*
X7981461Y-7201657D01*
X7850331Y-7157891D02*
X7836398Y-7214193D01*
X7976524Y-7189121D02*
X7962591Y-7245422D01*
X7836398Y-7214193D02*
G75*
G03X7962591Y-7245422I63097J-15615D01*
G01*
X7976524Y-7189121D02*
G75*
G03X7850331Y-7157891I-63097J15615D01*
G01*
X1707897Y-6041322D02*
X1857897Y-6191322D01*
X1857897Y-6041322D02*
X1707897Y-6191322D01*
X1782897Y-6041322D02*
X1782897Y-6191322D01*
X1707897Y-6116322D02*
X1857897Y-6116322D01*
X1839027Y-6160088D02*
X1852960Y-6103786D01*
X1712833Y-6128858D02*
X1726767Y-6072556D01*
X1852960Y-6103786D02*
G75*
G03X1726767Y-6072556I-63097J15615D01*
G01*
X1712833Y-6128858D02*
G75*
G03X1839027Y-6160088I63097J-15615D01*
G01*
X2188552Y-6206293D02*
X2338552Y-6356293D01*
X2338552Y-6206293D02*
X2188552Y-6356293D01*
X2263552Y-6206293D02*
X2263552Y-6356293D01*
X2188552Y-6281293D02*
X2338552Y-6281293D01*
X2292209Y-6372823D02*
X2442209Y-6522823D01*
X2442209Y-6372823D02*
X2292209Y-6522823D01*
X2367209Y-6372823D02*
X2367209Y-6522823D01*
X2292209Y-6447823D02*
X2442209Y-6447823D01*
X5646756Y-4900973D02*
X5796756Y-5050973D01*
X5796756Y-4900973D02*
X5646756Y-5050973D01*
X5721756Y-4900973D02*
X5721756Y-5050973D01*
X5646756Y-4975973D02*
X5796756Y-4975973D01*
X5750413Y-5067503D02*
X5900413Y-5217503D01*
X5900413Y-5067503D02*
X5750413Y-5217503D01*
X5825413Y-5067503D02*
X5825413Y-5217503D01*
X5750413Y-5142503D02*
X5900413Y-5142503D01*
X6231069Y-5232474D02*
X6381069Y-5382474D01*
X6381069Y-5232474D02*
X6231069Y-5382474D01*
X6306069Y-5232474D02*
X6306069Y-5382474D01*
X6231069Y-5307474D02*
X6381069Y-5307474D01*
X6249939Y-5263709D02*
X6236005Y-5320010D01*
X6376132Y-5294938D02*
X6362199Y-5351240D01*
X6236005Y-5320010D02*
G75*
G03X6362199Y-5351240I63097J-15615D01*
G01*
X6376132Y-5294938D02*
G75*
G03X6249939Y-5263709I-63097J15615D01*
G01*
X12427513Y-10732856D02*
X12577513Y-10882856D01*
X12577513Y-10732856D02*
X12427513Y-10882856D01*
X12502513Y-10732856D02*
X12502513Y-10882856D01*
X12427513Y-10807856D02*
X12577513Y-10807856D01*
X12434018Y-10928903D02*
X12584018Y-11078903D01*
X12584018Y-10928903D02*
X12434018Y-11078903D01*
X12509018Y-10928903D02*
X12509018Y-11078903D01*
X12434018Y-11003903D02*
X12584018Y-11003903D01*
X12767792Y-11312100D02*
X12917792Y-11462100D01*
X12917792Y-11312100D02*
X12767792Y-11462100D01*
X12842792Y-11312100D02*
X12842792Y-11462100D01*
X12767792Y-11387100D02*
X12917792Y-11387100D01*
X12816064Y-11321133D02*
X12775847Y-11362925D01*
X12909736Y-11411275D02*
X12869519Y-11453067D01*
X12775847Y-11362925D02*
G75*
G03X12869519Y-11453067I46836J-45071D01*
G01*
X12909736Y-11411275D02*
G75*
G03X12816064Y-11321133I-46836J45071D01*
G01*
X5315957Y-6777032D02*
X5465957Y-6927032D01*
X5465957Y-6777032D02*
X5315957Y-6927032D01*
X5390957Y-6777032D02*
X5390957Y-6927032D01*
X5315957Y-6852032D02*
X5465957Y-6852032D01*
X5419614Y-6943562D02*
X5569614Y-7093562D01*
X5569614Y-6943562D02*
X5419614Y-7093562D01*
X5494614Y-6943562D02*
X5494614Y-7093562D01*
X5419614Y-7018562D02*
X5569614Y-7018562D01*
X5900269Y-7108533D02*
X6050269Y-7258533D01*
X6050269Y-7108533D02*
X5900269Y-7258533D01*
X5975269Y-7108533D02*
X5975269Y-7258533D01*
X5900269Y-7183533D02*
X6050269Y-7183533D01*
X5919139Y-7139767D02*
X5905206Y-7196069D01*
X6045332Y-7170997D02*
X6031399Y-7227299D01*
X5905206Y-7196069D02*
G75*
G03X6031399Y-7227299I63097J-15615D01*
G01*
X6045332Y-7170997D02*
G75*
G03X5919139Y-7139767I-63097J15615D01*
G01*
X4599223Y-10841826D02*
X4749223Y-10991826D01*
X4749223Y-10841826D02*
X4599223Y-10991826D01*
X4674223Y-10841826D02*
X4674223Y-10991826D01*
X4599223Y-10916826D02*
X4749223Y-10916826D01*
X4702881Y-11008356D02*
X4852881Y-11158356D01*
X4852881Y-11008356D02*
X4702881Y-11158356D01*
X4777881Y-11008356D02*
X4777881Y-11158356D01*
X4702881Y-11083356D02*
X4852881Y-11083356D01*
X5183536Y-11173327D02*
X5333536Y-11323327D01*
X5333536Y-11173327D02*
X5183536Y-11323327D01*
X5258536Y-11173327D02*
X5258536Y-11323327D01*
X5183536Y-11248327D02*
X5333536Y-11248327D01*
X5202406Y-11204562D02*
X5188473Y-11260863D01*
X5328599Y-11235791D02*
X5314666Y-11292093D01*
X5188473Y-11260863D02*
G75*
G03X5314666Y-11292093I63097J-15615D01*
G01*
X5328599Y-11235791D02*
G75*
G03X5202406Y-11204562I-63097J15615D01*
G01*
X1783300Y-4860117D02*
X1933300Y-5010117D01*
X1933300Y-4860117D02*
X1783300Y-5010117D01*
X1858300Y-4860117D02*
X1858300Y-5010117D01*
X1783300Y-4935117D02*
X1933300Y-4935117D01*
X1886957Y-5026647D02*
X2036957Y-5176647D01*
X2036957Y-5026647D02*
X1886957Y-5176647D01*
X1961957Y-5026647D02*
X1961957Y-5176647D01*
X1886957Y-5101647D02*
X2036957Y-5101647D01*
X2367612Y-5191618D02*
X2517612Y-5341618D01*
X2517612Y-5191618D02*
X2367612Y-5341618D01*
X2442612Y-5191618D02*
X2442612Y-5341618D01*
X2367612Y-5266618D02*
X2517612Y-5266618D01*
X2386482Y-5222853D02*
X2372549Y-5279154D01*
X2512675Y-5254082D02*
X2498742Y-5310384D01*
X2372549Y-5279154D02*
G75*
G03X2498742Y-5310384I63097J-15615D01*
G01*
X2512675Y-5254082D02*
G75*
G03X2386482Y-5222853I-63097J15615D01*
G01*
X22139566Y-11309203D02*
X22289566Y-11459203D01*
X22289566Y-11309203D02*
X22139566Y-11459203D01*
X22214566Y-11309203D02*
X22214566Y-11459203D01*
X22139566Y-11384203D02*
X22289566Y-11384203D01*
X22293928Y-11430237D02*
X22443928Y-11580237D01*
X22443928Y-11430237D02*
X22293928Y-11580237D01*
X22368928Y-11430237D02*
X22368928Y-11580237D01*
X22293928Y-11505237D02*
X22443928Y-11505237D01*
X22802020Y-11420866D02*
X22952020Y-11570866D01*
X22952020Y-11420866D02*
X22802020Y-11570866D01*
X22877020Y-11420866D02*
X22877020Y-11570866D01*
X22802020Y-11495866D02*
X22952020Y-11495866D01*
X22809306Y-11473937D02*
X22815470Y-11531609D01*
X22938570Y-11460123D02*
X22944733Y-11517794D01*
X22815470Y-11531609D02*
G75*
G03X22944734Y-11517794I64632J6907D01*
G01*
X22938570Y-11460123D02*
G75*
G03X22809306Y-11473937I-64632J-6907D01*
G01*
X25229840Y-6151221D02*
X25379840Y-6301221D01*
X25379840Y-6151221D02*
X25229840Y-6301221D01*
X25304840Y-6151221D02*
X25304840Y-6301221D01*
X25229840Y-6226221D02*
X25379840Y-6226221D01*
X25372554Y-6248150D02*
X25366390Y-6190478D01*
X25243290Y-6261964D02*
X25237126Y-6204293D01*
X25366390Y-6190478D02*
G75*
G03X25237126Y-6204293I-64632J-6907D01*
G01*
X25243290Y-6261964D02*
G75*
G03X25372554Y-6248150I64632J6907D01*
G01*
X25737932Y-6141850D02*
X25887932Y-6291850D01*
X25887932Y-6141850D02*
X25737932Y-6291850D01*
X25812932Y-6141850D02*
X25812932Y-6291850D01*
X25737932Y-6216850D02*
X25887932Y-6216850D01*
X25892294Y-6262884D02*
X26042294Y-6412884D01*
X26042294Y-6262884D02*
X25892294Y-6412884D01*
X25967294Y-6262884D02*
X25967294Y-6412884D01*
X25892294Y-6337884D02*
X26042294Y-6337884D01*
X24015625Y-10978404D02*
X24165625Y-11128404D01*
X24165625Y-10978404D02*
X24015625Y-11128404D01*
X24090625Y-10978404D02*
X24090625Y-11128404D01*
X24015625Y-11053404D02*
X24165625Y-11053404D01*
X24169987Y-11099437D02*
X24319987Y-11249437D01*
X24319987Y-11099437D02*
X24169987Y-11249437D01*
X24244987Y-11099437D02*
X24244987Y-11249437D01*
X24169987Y-11174437D02*
X24319987Y-11174437D01*
X24678079Y-11090066D02*
X24828079Y-11240066D01*
X24828079Y-11090066D02*
X24678079Y-11240066D01*
X24753079Y-11090066D02*
X24753079Y-11240066D01*
X24678079Y-11165066D02*
X24828079Y-11165066D01*
X24685365Y-11143137D02*
X24691529Y-11200809D01*
X24814629Y-11129323D02*
X24820792Y-11186995D01*
X24691529Y-11200809D02*
G75*
G03X24820793Y-11186995I64632J6907D01*
G01*
X24814629Y-11129323D02*
G75*
G03X24685365Y-11143137I-64632J-6907D01*
G01*
X20263507Y-11640003D02*
X20413507Y-11790003D01*
X20413507Y-11640003D02*
X20263507Y-11790003D01*
X20338507Y-11640003D02*
X20338507Y-11790003D01*
X20263507Y-11715003D02*
X20413507Y-11715003D01*
X20417870Y-11761037D02*
X20567870Y-11911037D01*
X20567870Y-11761037D02*
X20417870Y-11911037D01*
X20492870Y-11761037D02*
X20492870Y-11911037D01*
X20417870Y-11836037D02*
X20567870Y-11836037D01*
X20925962Y-11751666D02*
X21075962Y-11901666D01*
X21075962Y-11751666D02*
X20925962Y-11901666D01*
X21000962Y-11751666D02*
X21000962Y-11901666D01*
X20925962Y-11826666D02*
X21075962Y-11826666D01*
X20933248Y-11804737D02*
X20939411Y-11862409D01*
X21062512Y-11790923D02*
X21068675Y-11848594D01*
X20939411Y-11862409D02*
G75*
G03X21068675Y-11848594I64632J6907D01*
G01*
X21062512Y-11790923D02*
G75*
G03X20933248Y-11804737I-64632J-6907D01*
G01*
X19546774Y-7575209D02*
X19696774Y-7725209D01*
X19696774Y-7575209D02*
X19546774Y-7725209D01*
X19621774Y-7575209D02*
X19621774Y-7725209D01*
X19546774Y-7650209D02*
X19696774Y-7650209D01*
X19701137Y-7696243D02*
X19851137Y-7846243D01*
X19851137Y-7696243D02*
X19701137Y-7846243D01*
X19776137Y-7696243D02*
X19776137Y-7846243D01*
X19701137Y-7771243D02*
X19851137Y-7771243D01*
X20209229Y-7686872D02*
X20359229Y-7836872D01*
X20359229Y-7686872D02*
X20209229Y-7836872D01*
X20284229Y-7686872D02*
X20284229Y-7836872D01*
X20209229Y-7761872D02*
X20359229Y-7761872D01*
X20216515Y-7739943D02*
X20222678Y-7797615D01*
X20345779Y-7726129D02*
X20351942Y-7783800D01*
X20222678Y-7797615D02*
G75*
G03X20351942Y-7783800I64632J6907D01*
G01*
X20345779Y-7726129D02*
G75*
G03X20216515Y-7739943I-64632J-6907D01*
G01*
X8737274Y-9314691D02*
X8887274Y-9464691D01*
X8887274Y-9314691D02*
X8737274Y-9464691D01*
X8812274Y-9314691D02*
X8812274Y-9464691D01*
X8737274Y-9389691D02*
X8887274Y-9389691D01*
X8840932Y-9481220D02*
X8990932Y-9631220D01*
X8990932Y-9481220D02*
X8840932Y-9631220D01*
X8915932Y-9481220D02*
X8915932Y-9631220D01*
X8840932Y-9556220D02*
X8990932Y-9556220D01*
X9321587Y-9646192D02*
X9471587Y-9796192D01*
X9471587Y-9646192D02*
X9321587Y-9796192D01*
X9396587Y-9646192D02*
X9396587Y-9796192D01*
X9321587Y-9721192D02*
X9471587Y-9721192D01*
X9340457Y-9677426D02*
X9326524Y-9733728D01*
X9466650Y-9708656D02*
X9452717Y-9764957D01*
X9326524Y-9733728D02*
G75*
G03X9452717Y-9764957I63097J-15615D01*
G01*
X9466650Y-9708656D02*
G75*
G03X9340457Y-9677426I-63097J15615D01*
G01*
X11274933Y-5893373D02*
X11424933Y-6043373D01*
X11424933Y-5893373D02*
X11274933Y-6043373D01*
X11349933Y-5893373D02*
X11349933Y-6043373D01*
X11274933Y-5968373D02*
X11424933Y-5968373D01*
X11378590Y-6059902D02*
X11528590Y-6209902D01*
X11528590Y-6059902D02*
X11378590Y-6209902D01*
X11453590Y-6059902D02*
X11453590Y-6209902D01*
X11378590Y-6134902D02*
X11528590Y-6134902D01*
X11859245Y-6224874D02*
X12009245Y-6374874D01*
X12009245Y-6224874D02*
X11859245Y-6374874D01*
X11934245Y-6224874D02*
X11934245Y-6374874D01*
X11859245Y-6299874D02*
X12009245Y-6299874D01*
X11878115Y-6256108D02*
X11864182Y-6312410D01*
X12004308Y-6287338D02*
X11990375Y-6343639D01*
X11864182Y-6312410D02*
G75*
G03X11990375Y-6343639I63097J-15615D01*
G01*
X12004308Y-6287338D02*
G75*
G03X11878115Y-6256108I-63097J15615D01*
G01*
X9398874Y-5562573D02*
X9548874Y-5712573D01*
X9548874Y-5562573D02*
X9398874Y-5712573D01*
X9473874Y-5562573D02*
X9473874Y-5712573D01*
X9398874Y-5637573D02*
X9548874Y-5637573D01*
X9502531Y-5729103D02*
X9652531Y-5879103D01*
X9652531Y-5729103D02*
X9502531Y-5879103D01*
X9577531Y-5729103D02*
X9577531Y-5879103D01*
X9502531Y-5804103D02*
X9652531Y-5804103D01*
X9983186Y-5894074D02*
X10133186Y-6044074D01*
X10133186Y-5894074D02*
X9983186Y-6044074D01*
X10058186Y-5894074D02*
X10058186Y-6044074D01*
X9983186Y-5969074D02*
X10133186Y-5969074D01*
X10002056Y-5925308D02*
X9988123Y-5981610D01*
X10128249Y-5956538D02*
X10114316Y-6012840D01*
X9988123Y-5981610D02*
G75*
G03X10114316Y-6012840I63097J-15615D01*
G01*
X10128249Y-5956538D02*
G75*
G03X10002056Y-5925308I-63097J15615D01*
G01*
X4985157Y-8653091D02*
X5135157Y-8803091D01*
X5135157Y-8653091D02*
X4985157Y-8803091D01*
X5060157Y-8653091D02*
X5060157Y-8803091D01*
X4985157Y-8728091D02*
X5135157Y-8728091D01*
X5088814Y-8819621D02*
X5238814Y-8969621D01*
X5238814Y-8819621D02*
X5088814Y-8969621D01*
X5163814Y-8819621D02*
X5163814Y-8969621D01*
X5088814Y-8894621D02*
X5238814Y-8894621D01*
X5569469Y-8984592D02*
X5719469Y-9134592D01*
X5719469Y-8984592D02*
X5569469Y-9134592D01*
X5644469Y-8984592D02*
X5644469Y-9134592D01*
X5569469Y-9059592D02*
X5719469Y-9059592D01*
X5588339Y-9015827D02*
X5574406Y-9072128D01*
X5714532Y-9047056D02*
X5700599Y-9103358D01*
X5574406Y-9072128D02*
G75*
G03X5700599Y-9103358I63097J-15615D01*
G01*
X5714532Y-9047056D02*
G75*
G03X5588339Y-9015827I-63097J15615D01*
G01*
X17670716Y-7906009D02*
X17820716Y-8056009D01*
X17820716Y-7906009D02*
X17670716Y-8056009D01*
X17745716Y-7906009D02*
X17745716Y-8056009D01*
X17670716Y-7981009D02*
X17820716Y-7981009D01*
X17825078Y-8027043D02*
X17975078Y-8177043D01*
X17975078Y-8027043D02*
X17825078Y-8177043D01*
X17900078Y-8027043D02*
X17900078Y-8177043D01*
X17825078Y-8102043D02*
X17975078Y-8102043D01*
X18333170Y-8017671D02*
X18483170Y-8167671D01*
X18483170Y-8017671D02*
X18333170Y-8167671D01*
X18408170Y-8017671D02*
X18408170Y-8167671D01*
X18333170Y-8092671D02*
X18483170Y-8092671D01*
X18340456Y-8070743D02*
X18346620Y-8128414D01*
X18469720Y-8056928D02*
X18475883Y-8114600D01*
X18346620Y-8128414D02*
G75*
G03X18475884Y-8114600I64632J6907D01*
G01*
X18469720Y-8056928D02*
G75*
G03X18340456Y-8070743I-64632J-6907D01*
G01*
X18254045Y-12219494D02*
X18404045Y-12369494D01*
X18404045Y-12219494D02*
X18254045Y-12369494D01*
X18329045Y-12219494D02*
X18329045Y-12369494D01*
X18254045Y-12294494D02*
X18404045Y-12294494D01*
X18448244Y-12247131D02*
X18598244Y-12397131D01*
X18598244Y-12247131D02*
X18448244Y-12397131D01*
X18523244Y-12247131D02*
X18523244Y-12397131D01*
X18448244Y-12322131D02*
X18598244Y-12322131D01*
X18883579Y-11984969D02*
X19033579Y-12134969D01*
X19033579Y-11984969D02*
X18883579Y-12134969D01*
X18958579Y-11984969D02*
X18958579Y-12134969D01*
X18883579Y-12059969D02*
X19033579Y-12059969D01*
X18888973Y-12074835D02*
X18923146Y-12121699D01*
X18994011Y-11998240D02*
X19028185Y-12045103D01*
X18923146Y-12121699D02*
G75*
G03X19028185Y-12045103I52519J38298D01*
G01*
X18994011Y-11998240D02*
G75*
G03X18888973Y-12074835I-52519J-38298D01*
G01*
X21698500Y-8807792D02*
X21848500Y-8957792D01*
X21848500Y-8807792D02*
X21698500Y-8957792D01*
X21773500Y-8807792D02*
X21773500Y-8957792D01*
X21698500Y-8882792D02*
X21848500Y-8882792D01*
X21852862Y-8928826D02*
X22002862Y-9078826D01*
X22002862Y-8928826D02*
X21852862Y-9078826D01*
X21927862Y-8928826D02*
X21927862Y-9078826D01*
X21852862Y-9003826D02*
X22002862Y-9003826D01*
X22360954Y-8919454D02*
X22510954Y-9069454D01*
X22510954Y-8919454D02*
X22360954Y-9069454D01*
X22435954Y-8919454D02*
X22435954Y-9069454D01*
X22360954Y-8994454D02*
X22510954Y-8994454D01*
X22368240Y-8972526D02*
X22374404Y-9030197D01*
X22497504Y-8958711D02*
X22503668Y-9016383D01*
X22374404Y-9030197D02*
G75*
G03X22503668Y-9016383I64632J6907D01*
G01*
X22497504Y-8958711D02*
G75*
G03X22368240Y-8972526I-64632J-6907D01*
G01*
X3053964Y-8634968D02*
X3203964Y-8784968D01*
X3203964Y-8634968D02*
X3053964Y-8784968D01*
X3128964Y-8634968D02*
X3128964Y-8784968D01*
X3053964Y-8709968D02*
X3203964Y-8709968D01*
X3157622Y-8801498D02*
X3307622Y-8951498D01*
X3307622Y-8801498D02*
X3157622Y-8951498D01*
X3232622Y-8801498D02*
X3232622Y-8951498D01*
X3157622Y-8876498D02*
X3307622Y-8876498D01*
X3638277Y-8966469D02*
X3788277Y-9116469D01*
X3788277Y-8966469D02*
X3638277Y-9116469D01*
X3713277Y-8966469D02*
X3713277Y-9116469D01*
X3638277Y-9041469D02*
X3788277Y-9041469D01*
X3657147Y-8997703D02*
X3643214Y-9054005D01*
X3783340Y-9028933D02*
X3769407Y-9085234D01*
X3643214Y-9054005D02*
G75*
G03X3769407Y-9085234I63097J-15615D01*
G01*
X3783340Y-9028933D02*
G75*
G03X3657147Y-8997703I-63097J15615D01*
G01*
X3715564Y-4882850D02*
X3865564Y-5032850D01*
X3865564Y-4882850D02*
X3715564Y-5032850D01*
X3790564Y-4882850D02*
X3790564Y-5032850D01*
X3715564Y-4957850D02*
X3865564Y-4957850D01*
X3819221Y-5049380D02*
X3969221Y-5199380D01*
X3969221Y-5049380D02*
X3819221Y-5199380D01*
X3894221Y-5049380D02*
X3894221Y-5199380D01*
X3819221Y-5124380D02*
X3969221Y-5124380D01*
X4299877Y-5214351D02*
X4449877Y-5364351D01*
X4449877Y-5214351D02*
X4299877Y-5364351D01*
X4374877Y-5214351D02*
X4374877Y-5364351D01*
X4299877Y-5289351D02*
X4449877Y-5289351D01*
X4318747Y-5245586D02*
X4304813Y-5301887D01*
X4444940Y-5276815D02*
X4431007Y-5333117D01*
X4304813Y-5301887D02*
G75*
G03X4431007Y-5333117I63097J-15615D01*
G01*
X4444940Y-5276815D02*
G75*
G03X4318747Y-5245586I-63097J15615D01*
G01*
X23629691Y-8789668D02*
X23779691Y-8939668D01*
X23779691Y-8789668D02*
X23629691Y-8939668D01*
X23704691Y-8789668D02*
X23704691Y-8939668D01*
X23629691Y-8864668D02*
X23779691Y-8864668D01*
X23784054Y-8910702D02*
X23934054Y-9060702D01*
X23934054Y-8910702D02*
X23784054Y-9060702D01*
X23859054Y-8910702D02*
X23859054Y-9060702D01*
X23784054Y-8985702D02*
X23934054Y-8985702D01*
X24292146Y-8901331D02*
X24442146Y-9051331D01*
X24442146Y-8901331D02*
X24292146Y-9051331D01*
X24367146Y-8901331D02*
X24367146Y-9051331D01*
X24292146Y-8976331D02*
X24442146Y-8976331D01*
X24299432Y-8954402D02*
X24305595Y-9012074D01*
X24428696Y-8940588D02*
X24434859Y-8998260D01*
X24305595Y-9012074D02*
G75*
G03X24434859Y-8998260I64632J6907D01*
G01*
X24428696Y-8940588D02*
G75*
G03X24299432Y-8954402I-64632J-6907D01*
G01*
X21367700Y-6931733D02*
X21517700Y-7081733D01*
X21517700Y-6931733D02*
X21367700Y-7081733D01*
X21442700Y-6931733D02*
X21442700Y-7081733D01*
X21367700Y-7006733D02*
X21517700Y-7006733D01*
X21522062Y-7052767D02*
X21672062Y-7202767D01*
X21672062Y-7052767D02*
X21522062Y-7202767D01*
X21597062Y-7052767D02*
X21597062Y-7202767D01*
X21522062Y-7127767D02*
X21672062Y-7127767D01*
X22030154Y-7043395D02*
X22180154Y-7193395D01*
X22180154Y-7043395D02*
X22030154Y-7193395D01*
X22105154Y-7043395D02*
X22105154Y-7193395D01*
X22030154Y-7118395D02*
X22180154Y-7118395D01*
X22037440Y-7096467D02*
X22043604Y-7154138D01*
X22166704Y-7082652D02*
X22172868Y-7140324D01*
X22043604Y-7154138D02*
G75*
G03X22172868Y-7140324I64632J6907D01*
G01*
X22166704Y-7082652D02*
G75*
G03X22037440Y-7096467I-64632J-6907D01*
G01*
X3384764Y-6758909D02*
X3534764Y-6908909D01*
X3534764Y-6758909D02*
X3384764Y-6908909D01*
X3459764Y-6758909D02*
X3459764Y-6908909D01*
X3384764Y-6833909D02*
X3534764Y-6833909D01*
X3488422Y-6925439D02*
X3638422Y-7075439D01*
X3638422Y-6925439D02*
X3488422Y-7075439D01*
X3563422Y-6925439D02*
X3563422Y-7075439D01*
X3488422Y-7000439D02*
X3638422Y-7000439D01*
X3969077Y-7090410D02*
X4119077Y-7240410D01*
X4119077Y-7090410D02*
X3969077Y-7240410D01*
X4044077Y-7090410D02*
X4044077Y-7240410D01*
X3969077Y-7165410D02*
X4119077Y-7165410D01*
X3987947Y-7121644D02*
X3974014Y-7177946D01*
X4114140Y-7152874D02*
X4100207Y-7209176D01*
X3974014Y-7177946D02*
G75*
G03X4100207Y-7209176I63097J-15615D01*
G01*
X4114140Y-7152874D02*
G75*
G03X3987947Y-7121644I-63097J15615D01*
G01*
X9068074Y-7438632D02*
X9218074Y-7588632D01*
X9218074Y-7438632D02*
X9068074Y-7588632D01*
X9143074Y-7438632D02*
X9143074Y-7588632D01*
X9068074Y-7513632D02*
X9218074Y-7513632D01*
X9171731Y-7605161D02*
X9321731Y-7755161D01*
X9321731Y-7605161D02*
X9171731Y-7755161D01*
X9246731Y-7605161D02*
X9246731Y-7755161D01*
X9171731Y-7680161D02*
X9321731Y-7680161D01*
X9652387Y-7770133D02*
X9802387Y-7920133D01*
X9802387Y-7770133D02*
X9652387Y-7920133D01*
X9727387Y-7770133D02*
X9727387Y-7920133D01*
X9652387Y-7845133D02*
X9802387Y-7845133D01*
X9671257Y-7801367D02*
X9657323Y-7857669D01*
X9797450Y-7832597D02*
X9783517Y-7888898D01*
X9657323Y-7857669D02*
G75*
G03X9783517Y-7888898I63097J-15615D01*
G01*
X9797450Y-7832597D02*
G75*
G03X9671257Y-7801367I-63097J15615D01*
G01*
X19877574Y-9451268D02*
X20027574Y-9601268D01*
X20027574Y-9451268D02*
X19877574Y-9601268D01*
X19952574Y-9451268D02*
X19952574Y-9601268D01*
X19877574Y-9526268D02*
X20027574Y-9526268D01*
X20031937Y-9572302D02*
X20181937Y-9722302D01*
X20181937Y-9572302D02*
X20031937Y-9722302D01*
X20106937Y-9572302D02*
X20106937Y-9722302D01*
X20031937Y-9647302D02*
X20181937Y-9647302D01*
X20540028Y-9562930D02*
X20690028Y-9712930D01*
X20690028Y-9562930D02*
X20540028Y-9712930D01*
X20615028Y-9562930D02*
X20615028Y-9712930D01*
X20540028Y-9637930D02*
X20690028Y-9637930D01*
X20547315Y-9616002D02*
X20553478Y-9673673D01*
X20676579Y-9602187D02*
X20682742Y-9659859D01*
X20553478Y-9673673D02*
G75*
G03X20682742Y-9659859I64632J6907D01*
G01*
X20676579Y-9602187D02*
G75*
G03X20547315Y-9616002I-64632J-6907D01*
G01*
X8351341Y-11503426D02*
X8501341Y-11653426D01*
X8501341Y-11503426D02*
X8351341Y-11653426D01*
X8426341Y-11503426D02*
X8426341Y-11653426D01*
X8351341Y-11578426D02*
X8501341Y-11578426D01*
X8454998Y-11669956D02*
X8604998Y-11819956D01*
X8604998Y-11669956D02*
X8454998Y-11819956D01*
X8529998Y-11669956D02*
X8529998Y-11819956D01*
X8454998Y-11744956D02*
X8604998Y-11744956D01*
X8935654Y-11834927D02*
X9085654Y-11984927D01*
X9085654Y-11834927D02*
X8935654Y-11984927D01*
X9010654Y-11834927D02*
X9010654Y-11984927D01*
X8935654Y-11909927D02*
X9085654Y-11909927D01*
X8954524Y-11866161D02*
X8940590Y-11922463D01*
X9080717Y-11897391D02*
X9066784Y-11953693D01*
X8940590Y-11922463D02*
G75*
G03X9066784Y-11953693I63097J-15615D01*
G01*
X9080717Y-11897391D02*
G75*
G03X8954524Y-11866161I-63097J15615D01*
G01*
X10944133Y-7769431D02*
X11094133Y-7919431D01*
X11094133Y-7769431D02*
X10944133Y-7919431D01*
X11019133Y-7769431D02*
X11019133Y-7919431D01*
X10944133Y-7844431D02*
X11094133Y-7844431D01*
X11047790Y-7935961D02*
X11197790Y-8085961D01*
X11197790Y-7935961D02*
X11047790Y-8085961D01*
X11122790Y-7935961D02*
X11122790Y-8085961D01*
X11047790Y-8010961D02*
X11197790Y-8010961D01*
X11528445Y-8100932D02*
X11678445Y-8250932D01*
X11678445Y-8100932D02*
X11528445Y-8250932D01*
X11603445Y-8100932D02*
X11603445Y-8250932D01*
X11528445Y-8175932D02*
X11678445Y-8175932D01*
X11547315Y-8132167D02*
X11533382Y-8188468D01*
X11673508Y-8163396D02*
X11659575Y-8219698D01*
X11533382Y-8188468D02*
G75*
G03X11659575Y-8219698I63097J-15615D01*
G01*
X11673508Y-8163396D02*
G75*
G03X11547315Y-8132167I-63097J15615D01*
G01*
X2723165Y-10511026D02*
X2873165Y-10661026D01*
X2873165Y-10511026D02*
X2723165Y-10661026D01*
X2798165Y-10511026D02*
X2798165Y-10661026D01*
X2723165Y-10586026D02*
X2873165Y-10586026D01*
X2826822Y-10677556D02*
X2976822Y-10827556D01*
X2976822Y-10677556D02*
X2826822Y-10827556D01*
X2901822Y-10677556D02*
X2901822Y-10827556D01*
X2826822Y-10752556D02*
X2976822Y-10752556D01*
X3307477Y-10842528D02*
X3457477Y-10992528D01*
X3457477Y-10842528D02*
X3307477Y-10992528D01*
X3382477Y-10842528D02*
X3382477Y-10992528D01*
X3307477Y-10917528D02*
X3457477Y-10917528D01*
X3326347Y-10873762D02*
X3312414Y-10930064D01*
X3452540Y-10904992D02*
X3438607Y-10961293D01*
X3312414Y-10930064D02*
G75*
G03X3438607Y-10961293I63097J-15615D01*
G01*
X3452540Y-10904992D02*
G75*
G03X3326347Y-10873762I-63097J15615D01*
G01*
X18001515Y-9782068D02*
X18151515Y-9932068D01*
X18151515Y-9782068D02*
X18001515Y-9932068D01*
X18076515Y-9782068D02*
X18076515Y-9932068D01*
X18001515Y-9857068D02*
X18151515Y-9857068D01*
X18155878Y-9903102D02*
X18305878Y-10053102D01*
X18305878Y-9903102D02*
X18155878Y-10053102D01*
X18230878Y-9903102D02*
X18230878Y-10053102D01*
X18155878Y-9978102D02*
X18305878Y-9978102D01*
X18663969Y-9893730D02*
X18813969Y-10043730D01*
X18813969Y-9893730D02*
X18663969Y-10043730D01*
X18738969Y-9893730D02*
X18738969Y-10043730D01*
X18663969Y-9968730D02*
X18813969Y-9968730D01*
X18671256Y-9946802D02*
X18677419Y-10004473D01*
X18800520Y-9932987D02*
X18806683Y-9990659D01*
X18677419Y-10004473D02*
G75*
G03X18806683Y-9990659I64632J6907D01*
G01*
X18800520Y-9932987D02*
G75*
G03X18671256Y-9946802I-64632J-6907D01*
G01*
X10613333Y-9645491D02*
X10763333Y-9795491D01*
X10763333Y-9645491D02*
X10613333Y-9795491D01*
X10688333Y-9645491D02*
X10688333Y-9795491D01*
X10613333Y-9720491D02*
X10763333Y-9720491D01*
X10716990Y-9812020D02*
X10866990Y-9962020D01*
X10866990Y-9812020D02*
X10716990Y-9962020D01*
X10791990Y-9812020D02*
X10791990Y-9962020D01*
X10716990Y-9887020D02*
X10866990Y-9887020D01*
X11197645Y-9976992D02*
X11347645Y-10126992D01*
X11347645Y-9976992D02*
X11197645Y-10126992D01*
X11272645Y-9976992D02*
X11272645Y-10126992D01*
X11197645Y-10051992D02*
X11347645Y-10051992D01*
X11216515Y-10008226D02*
X11202582Y-10064528D01*
X11342709Y-10039456D02*
X11328775Y-10095757D01*
X11202582Y-10064528D02*
G75*
G03X11328775Y-10095757I63097J-15615D01*
G01*
X11342709Y-10039456D02*
G75*
G03X11216515Y-10008226I-63097J15615D01*
G01*
X7577948Y-4919097D02*
X7727948Y-5069097D01*
X7727948Y-4919097D02*
X7577948Y-5069097D01*
X7652948Y-4919097D02*
X7652948Y-5069097D01*
X7577948Y-4994097D02*
X7727948Y-4994097D01*
X7681605Y-5085627D02*
X7831605Y-5235627D01*
X7831605Y-5085627D02*
X7681605Y-5235627D01*
X7756605Y-5085627D02*
X7756605Y-5235627D01*
X7681605Y-5160627D02*
X7831605Y-5160627D01*
X8162261Y-5250598D02*
X8312261Y-5400598D01*
X8312261Y-5250598D02*
X8162261Y-5400598D01*
X8237261Y-5250598D02*
X8237261Y-5400598D01*
X8162261Y-5325598D02*
X8312261Y-5325598D01*
X8181131Y-5281832D02*
X8167197Y-5338134D01*
X8307324Y-5313062D02*
X8293391Y-5369364D01*
X8167197Y-5338134D02*
G75*
G03X8293391Y-5369364I63097J-15615D01*
G01*
X8307324Y-5313062D02*
G75*
G03X8181131Y-5281832I-63097J15615D01*
G01*
X6475282Y-11172626D02*
X6625282Y-11322626D01*
X6625282Y-11172626D02*
X6475282Y-11322626D01*
X6550282Y-11172626D02*
X6550282Y-11322626D01*
X6475282Y-11247626D02*
X6625282Y-11247626D01*
X6578939Y-11339156D02*
X6728939Y-11489156D01*
X6728939Y-11339156D02*
X6578939Y-11489156D01*
X6653939Y-11339156D02*
X6653939Y-11489156D01*
X6578939Y-11414156D02*
X6728939Y-11414156D01*
X7059595Y-11504127D02*
X7209595Y-11654127D01*
X7209595Y-11504127D02*
X7059595Y-11654127D01*
X7134595Y-11504127D02*
X7134595Y-11654127D01*
X7059595Y-11579127D02*
X7209595Y-11579127D01*
X7078465Y-11535362D02*
X7064532Y-11591663D01*
X7204658Y-11566591D02*
X7190725Y-11622893D01*
X7064532Y-11591663D02*
G75*
G03X7190725Y-11622893I63097J-15615D01*
G01*
X7204658Y-11566591D02*
G75*
G03X7078465Y-11535362I-63097J15615D01*
G01*
X6916348Y-8671214D02*
X7066348Y-8821214D01*
X7066348Y-8671214D02*
X6916348Y-8821214D01*
X6991348Y-8671214D02*
X6991348Y-8821214D01*
X6916348Y-8746214D02*
X7066348Y-8746214D01*
X7020006Y-8837744D02*
X7170006Y-8987744D01*
X7170006Y-8837744D02*
X7020006Y-8987744D01*
X7095006Y-8837744D02*
X7095006Y-8987744D01*
X7020006Y-8912744D02*
X7170006Y-8912744D01*
X7500661Y-9002715D02*
X7650661Y-9152715D01*
X7650661Y-9002715D02*
X7500661Y-9152715D01*
X7575661Y-9002715D02*
X7575661Y-9152715D01*
X7500661Y-9077715D02*
X7650661Y-9077715D01*
X7519531Y-9033950D02*
X7505598Y-9090251D01*
X7645724Y-9065179D02*
X7631791Y-9121481D01*
X7505598Y-9090251D02*
G75*
G03X7631791Y-9121481I63097J-15615D01*
G01*
X7645724Y-9065179D02*
G75*
G03X7519531Y-9033950I-63097J15615D01*
G01*
X25560884Y-8771545D02*
X25710884Y-8921545D01*
X25710884Y-8771545D02*
X25560884Y-8921545D01*
X25635884Y-8771545D02*
X25635884Y-8921545D01*
X25560884Y-8846545D02*
X25710884Y-8846545D01*
X25715246Y-8892579D02*
X25865246Y-9042579D01*
X25865246Y-8892579D02*
X25715246Y-9042579D01*
X25790246Y-8892579D02*
X25790246Y-9042579D01*
X25715246Y-8967579D02*
X25865246Y-8967579D01*
X26223338Y-8883208D02*
X26373338Y-9033208D01*
X26373338Y-8883208D02*
X26223338Y-9033208D01*
X26298338Y-8883208D02*
X26298338Y-9033208D01*
X26223338Y-8958208D02*
X26373338Y-8958208D01*
X26230624Y-8936279D02*
X26236787Y-8993951D01*
X26359888Y-8922465D02*
X26366051Y-8980136D01*
X26236787Y-8993951D02*
G75*
G03X26366051Y-8980136I64632J6907D01*
G01*
X26359888Y-8922465D02*
G75*
G03X26230624Y-8936279I-64632J-6907D01*
G01*
X22968092Y-5037551D02*
X23118092Y-5187551D01*
X23118092Y-5037551D02*
X22968092Y-5187551D01*
X23043092Y-5037551D02*
X23043092Y-5187551D01*
X22968092Y-5112551D02*
X23118092Y-5112551D01*
X23122455Y-5158585D02*
X23272455Y-5308585D01*
X23272455Y-5158585D02*
X23122455Y-5308585D01*
X23197455Y-5158585D02*
X23197455Y-5308585D01*
X23122455Y-5233585D02*
X23272455Y-5233585D01*
X23630546Y-5149213D02*
X23780546Y-5299213D01*
X23780546Y-5149213D02*
X23630546Y-5299213D01*
X23705546Y-5149213D02*
X23705546Y-5299213D01*
X23630546Y-5224213D02*
X23780546Y-5224213D01*
X23637833Y-5202285D02*
X23643996Y-5259956D01*
X23767097Y-5188470D02*
X23773260Y-5246142D01*
X23643996Y-5259956D02*
G75*
G03X23773260Y-5246142I64632J6907D01*
G01*
X23767097Y-5188470D02*
G75*
G03X23637833Y-5202285I-64632J-6907D01*
G01*
X16354005Y-11213013D02*
X16504005Y-11363013D01*
X16504005Y-11213013D02*
X16354005Y-11363013D01*
X16429005Y-11213013D02*
X16429005Y-11363013D01*
X16354005Y-11288013D02*
X16504005Y-11288013D01*
X16548203Y-11240651D02*
X16698203Y-11390651D01*
X16698203Y-11240651D02*
X16548203Y-11390651D01*
X16623203Y-11240651D02*
X16623203Y-11390651D01*
X16548203Y-11315651D02*
X16698203Y-11315651D01*
X16983538Y-10978489D02*
X17133538Y-11128489D01*
X17133538Y-10978489D02*
X16983538Y-11128489D01*
X17058538Y-10978489D02*
X17058538Y-11128489D01*
X16983538Y-11053489D02*
X17133538Y-11053489D01*
X16988932Y-11068355D02*
X17023105Y-11115218D01*
X17093971Y-10991759D02*
X17128144Y-11038623D01*
X17023105Y-11115218D02*
G75*
G03X17128144Y-11038623I52519J38298D01*
G01*
X17093971Y-10991759D02*
G75*
G03X16988932Y-11068355I-52519J-38298D01*
G01*
X24899284Y-5019428D02*
X25049284Y-5169428D01*
X25049284Y-5019428D02*
X24899284Y-5169428D01*
X24974284Y-5019428D02*
X24974284Y-5169428D01*
X24899284Y-5094428D02*
X25049284Y-5094428D01*
X25053647Y-5140462D02*
X25203647Y-5290462D01*
X25203647Y-5140462D02*
X25053647Y-5290462D01*
X25128647Y-5140462D02*
X25128647Y-5290462D01*
X25053647Y-5215462D02*
X25203647Y-5215462D01*
X25561738Y-5131090D02*
X25711738Y-5281090D01*
X25711738Y-5131090D02*
X25561738Y-5281090D01*
X25636738Y-5131090D02*
X25636738Y-5281090D01*
X25561738Y-5206090D02*
X25711738Y-5206090D01*
X25569025Y-5184162D02*
X25575188Y-5241833D01*
X25698289Y-5170347D02*
X25704452Y-5228019D01*
X25575188Y-5241833D02*
G75*
G03X25704452Y-5228019I64632J6907D01*
G01*
X25698289Y-5170347D02*
G75*
G03X25569025Y-5184162I-64632J-6907D01*
G01*
X1122773Y-8616844D02*
X1272773Y-8766844D01*
X1272773Y-8616844D02*
X1122773Y-8766844D01*
X1197773Y-8616844D02*
X1197773Y-8766844D01*
X1122773Y-8691844D02*
X1272773Y-8691844D01*
X1226430Y-8783374D02*
X1376430Y-8933374D01*
X1376430Y-8783374D02*
X1226430Y-8933374D01*
X1301430Y-8783374D02*
X1301430Y-8933374D01*
X1226430Y-8858374D02*
X1376430Y-8858374D01*
X1707085Y-8948345D02*
X1857085Y-9098345D01*
X1857085Y-8948345D02*
X1707085Y-9098345D01*
X1782085Y-8948345D02*
X1782085Y-9098345D01*
X1707085Y-9023345D02*
X1857085Y-9023345D01*
X1725955Y-8979580D02*
X1712022Y-9035881D01*
X1852148Y-9010809D02*
X1838215Y-9067111D01*
X1712022Y-9035881D02*
G75*
G03X1838215Y-9067111I63097J-15615D01*
G01*
X1852148Y-9010809D02*
G75*
G03X1725955Y-8979580I-63097J15615D01*
G01*
X2877666Y-6366131D02*
X3127666Y-6616131D01*
X3127666Y-6366131D02*
X2877666Y-6616131D01*
X3091055Y-6579520D02*
X3091055Y-6402742D01*
X2914276Y-6402742D01*
X2914276Y-6579520D01*
X3091055Y-6579520D01*
X3127666Y-6376131D02*
X2877666Y-6376131D01*
X3127666Y-6606131D02*
X2877666Y-6606131D01*
X2877666Y-6376131D02*
G75*
G03X2877666Y-6606131I0J-115000D01*
G01*
X3127666Y-6606131D02*
G75*
G03X3127666Y-6376131I0J115000D01*
G01*
X2877666Y-12096131D02*
X3127666Y-12346131D01*
X3127666Y-12096131D02*
X2877666Y-12346131D01*
X3091055Y-12309520D02*
X3091055Y-12132742D01*
X2914276Y-12132742D01*
X2914276Y-12309520D01*
X3091055Y-12309520D01*
X2877666Y-12336131D02*
X3127666Y-12336131D01*
X2877666Y-12106131D02*
X3127666Y-12106131D01*
X3127666Y-12336131D02*
G75*
G03X3127666Y-12106131I0J115000D01*
G01*
X2877666Y-12106131D02*
G75*
G03X2877666Y-12336131I0J-115000D01*
G01*
X9832666Y-12096131D02*
X10082666Y-12346131D01*
X10082666Y-12096131D02*
X9832666Y-12346131D01*
X10046055Y-12309520D02*
X10046055Y-12132742D01*
X9869276Y-12132742D01*
X9869276Y-12309520D01*
X10046055Y-12309520D01*
X9832666Y-12336131D02*
X10082666Y-12336131D01*
X9832666Y-12106131D02*
X10082666Y-12106131D01*
X10082666Y-12336131D02*
G75*
G03X10082666Y-12106131I0J115000D01*
G01*
X9832666Y-12106131D02*
G75*
G03X9832666Y-12336131I0J-115000D01*
G01*
X26362666Y-6366131D02*
X26612666Y-6616131D01*
X26612666Y-6366131D02*
X26362666Y-6616131D01*
X26576055Y-6579520D02*
X26576055Y-6402742D01*
X26399276Y-6402742D01*
X26399276Y-6579520D01*
X26576055Y-6579520D01*
X26362666Y-12096131D02*
X26612666Y-12346131D01*
X26612666Y-12096131D02*
X26362666Y-12346131D01*
X26576055Y-12309520D02*
X26576055Y-12132742D01*
X26399276Y-12132742D01*
X26399276Y-12309520D01*
X26576055Y-12309520D01*
X26362666Y-12336131D02*
X26612666Y-12336131D01*
X26362666Y-12106131D02*
X26612666Y-12106131D01*
X26612666Y-12336131D02*
G75*
G03X26612666Y-12106131I0J115000D01*
G01*
X26362666Y-12106131D02*
G75*
G03X26362666Y-12336131I0J-115000D01*
G01*
D12*
X779094Y-13641845D02*
X779094Y-13341845D01*
X850523Y-13341845D01*
X893380Y-13356131D01*
X921951Y-13384702D01*
X936237Y-13413274D01*
X950523Y-13470417D01*
X950523Y-13513274D01*
X936237Y-13570417D01*
X921951Y-13598988D01*
X893380Y-13627559D01*
X850523Y-13641845D01*
X779094Y-13641845D01*
X1079094Y-13641845D02*
X1079094Y-13441845D01*
X1079094Y-13498988D02*
X1093380Y-13470417D01*
X1107666Y-13456131D01*
X1136237Y-13441845D01*
X1164808Y-13441845D01*
X1264808Y-13641845D02*
X1264808Y-13441845D01*
X1264808Y-13341845D02*
X1250523Y-13356131D01*
X1264808Y-13370417D01*
X1279094Y-13356131D01*
X1264808Y-13341845D01*
X1264808Y-13370417D01*
X1450523Y-13641845D02*
X1421951Y-13627559D01*
X1407665Y-13598988D01*
X1407665Y-13341845D01*
X1607665Y-13641845D02*
X1579094Y-13627559D01*
X1564808Y-13598988D01*
X1564808Y-13341845D01*
X1950523Y-13641845D02*
X1950523Y-13341845D01*
X2050523Y-13556131D01*
X2150523Y-13341845D01*
X2150523Y-13641845D01*
X2421951Y-13641845D02*
X2421951Y-13484702D01*
X2407666Y-13456131D01*
X2379094Y-13441845D01*
X2321951Y-13441845D01*
X2293380Y-13456131D01*
X2421951Y-13627559D02*
X2393380Y-13641845D01*
X2321951Y-13641845D01*
X2293380Y-13627559D01*
X2279094Y-13598988D01*
X2279094Y-13570417D01*
X2293380Y-13541845D01*
X2321951Y-13527559D01*
X2393380Y-13527559D01*
X2421951Y-13513274D01*
X2564808Y-13441845D02*
X2564808Y-13741845D01*
X2564808Y-13456131D02*
X2593380Y-13441845D01*
X2650523Y-13441845D01*
X2679094Y-13456131D01*
X2693380Y-13470417D01*
X2707665Y-13498988D01*
X2707665Y-13584702D01*
X2693380Y-13613274D01*
X2679094Y-13627559D01*
X2650523Y-13641845D01*
X2593380Y-13641845D01*
X2564808Y-13627559D01*
X2836237Y-13613274D02*
X2850523Y-13627559D01*
X2836237Y-13641845D01*
X2821951Y-13627559D01*
X2836237Y-13613274D01*
X2836237Y-13641845D01*
X2836237Y-13456131D02*
X2850523Y-13470417D01*
X2836237Y-13484702D01*
X2821951Y-13470417D01*
X2836237Y-13456131D01*
X2836237Y-13484702D01*
X452665Y-14116131D02*
X492665Y-14156131D01*
X492665Y-14116131D02*
X452665Y-14156131D01*
X836237Y-13971845D02*
X864808Y-13971845D01*
X893380Y-13986131D01*
X907665Y-14000417D01*
X921951Y-14028988D01*
X936237Y-14086131D01*
X936237Y-14157559D01*
X921951Y-14214702D01*
X907665Y-14243274D01*
X893380Y-14257559D01*
X864808Y-14271845D01*
X836237Y-14271845D01*
X807665Y-14257559D01*
X793380Y-14243274D01*
X779094Y-14214702D01*
X764808Y-14157559D01*
X764808Y-14086131D01*
X779094Y-14028988D01*
X793380Y-14000417D01*
X807665Y-13986131D01*
X836237Y-13971845D01*
X1064808Y-14243274D02*
X1079094Y-14257559D01*
X1064808Y-14271845D01*
X1050523Y-14257559D01*
X1064808Y-14243274D01*
X1064808Y-14271845D01*
X1336237Y-14071845D02*
X1336237Y-14271845D01*
X1264808Y-13957559D02*
X1193380Y-14171845D01*
X1379094Y-14171845D01*
X1550523Y-13971845D02*
X1579094Y-13971845D01*
X1607665Y-13986131D01*
X1621951Y-14000417D01*
X1636237Y-14028988D01*
X1650523Y-14086131D01*
X1650523Y-14157559D01*
X1636237Y-14214702D01*
X1621951Y-14243274D01*
X1607665Y-14257559D01*
X1579094Y-14271845D01*
X1550523Y-14271845D01*
X1521951Y-14257559D01*
X1507665Y-14243274D01*
X1493380Y-14214702D01*
X1479094Y-14157559D01*
X1479094Y-14086131D01*
X1493380Y-14028988D01*
X1507665Y-14000417D01*
X1521951Y-13986131D01*
X1550523Y-13971845D01*
X1779094Y-14271845D02*
X1779094Y-14071845D01*
X1779094Y-14100417D02*
X1793380Y-14086131D01*
X1821951Y-14071845D01*
X1864808Y-14071845D01*
X1893380Y-14086131D01*
X1907665Y-14114702D01*
X1907665Y-14271845D01*
X1907665Y-14114702D02*
X1921951Y-14086131D01*
X1950523Y-14071845D01*
X1993380Y-14071845D01*
X2021951Y-14086131D01*
X2036237Y-14114702D01*
X2036237Y-14271845D01*
X2179094Y-14271845D02*
X2179094Y-14071845D01*
X2179094Y-14100417D02*
X2193380Y-14086131D01*
X2221951Y-14071845D01*
X2264808Y-14071845D01*
X2293380Y-14086131D01*
X2307666Y-14114702D01*
X2307666Y-14271845D01*
X2307666Y-14114702D02*
X2321951Y-14086131D01*
X2350523Y-14071845D01*
X2393380Y-14071845D01*
X2421951Y-14086131D01*
X2436237Y-14114702D01*
X2436237Y-14271845D01*
X3021951Y-13957559D02*
X2764808Y-14343274D01*
X3407665Y-13971845D02*
X3436237Y-13971845D01*
X3464808Y-13986131D01*
X3479094Y-14000417D01*
X3493380Y-14028988D01*
X3507665Y-14086131D01*
X3507665Y-14157559D01*
X3493380Y-14214702D01*
X3479094Y-14243274D01*
X3464808Y-14257559D01*
X3436237Y-14271845D01*
X3407665Y-14271845D01*
X3379094Y-14257559D01*
X3364808Y-14243274D01*
X3350523Y-14214702D01*
X3336237Y-14157559D01*
X3336237Y-14086131D01*
X3350523Y-14028988D01*
X3364808Y-14000417D01*
X3379094Y-13986131D01*
X3407665Y-13971845D01*
X3636237Y-14243274D02*
X3650523Y-14257559D01*
X3636237Y-14271845D01*
X3621951Y-14257559D01*
X3636237Y-14243274D01*
X3636237Y-14271845D01*
X3836237Y-13971845D02*
X3864808Y-13971845D01*
X3893380Y-13986131D01*
X3907665Y-14000417D01*
X3921951Y-14028988D01*
X3936237Y-14086131D01*
X3936237Y-14157559D01*
X3921951Y-14214702D01*
X3907665Y-14243274D01*
X3893380Y-14257559D01*
X3864808Y-14271845D01*
X3836237Y-14271845D01*
X3807665Y-14257559D01*
X3793380Y-14243274D01*
X3779094Y-14214702D01*
X3764808Y-14157559D01*
X3764808Y-14086131D01*
X3779094Y-14028988D01*
X3793380Y-14000417D01*
X3807665Y-13986131D01*
X3836237Y-13971845D01*
X4221951Y-14271845D02*
X4050523Y-14271845D01*
X4136237Y-14271845D02*
X4136237Y-13971845D01*
X4107665Y-14014702D01*
X4079094Y-14043274D01*
X4050523Y-14057559D01*
X4479094Y-13971845D02*
X4421951Y-13971845D01*
X4393380Y-13986131D01*
X4379094Y-14000417D01*
X4350523Y-14043274D01*
X4336237Y-14100417D01*
X4336237Y-14214702D01*
X4350523Y-14243274D01*
X4364808Y-14257559D01*
X4393380Y-14271845D01*
X4450523Y-14271845D01*
X4479094Y-14257559D01*
X4493380Y-14243274D01*
X4507665Y-14214702D01*
X4507665Y-14143274D01*
X4493380Y-14114702D01*
X4479094Y-14100417D01*
X4450523Y-14086131D01*
X4393380Y-14086131D01*
X4364808Y-14100417D01*
X4350523Y-14114702D01*
X4336237Y-14143274D01*
X4621951Y-13971845D02*
X4621951Y-14028988D01*
X4736237Y-13971845D02*
X4736237Y-14028988D01*
X5179094Y-14386131D02*
X5164808Y-14371845D01*
X5136237Y-14328988D01*
X5121951Y-14300417D01*
X5107665Y-14257559D01*
X5093380Y-14186131D01*
X5093380Y-14128988D01*
X5107665Y-14057559D01*
X5121951Y-14014702D01*
X5136237Y-13986131D01*
X5164808Y-13943274D01*
X5179094Y-13928988D01*
X5336237Y-14100417D02*
X5307665Y-14086131D01*
X5293380Y-14071845D01*
X5279094Y-14043274D01*
X5279094Y-14028988D01*
X5293380Y-14000417D01*
X5307665Y-13986131D01*
X5336237Y-13971845D01*
X5393380Y-13971845D01*
X5421951Y-13986131D01*
X5436237Y-14000417D01*
X5450523Y-14028988D01*
X5450523Y-14043274D01*
X5436237Y-14071845D01*
X5421951Y-14086131D01*
X5393380Y-14100417D01*
X5336237Y-14100417D01*
X5307665Y-14114702D01*
X5293380Y-14128988D01*
X5279094Y-14157559D01*
X5279094Y-14214702D01*
X5293380Y-14243274D01*
X5307665Y-14257559D01*
X5336237Y-14271845D01*
X5393380Y-14271845D01*
X5421951Y-14257559D01*
X5436237Y-14243274D01*
X5450523Y-14214702D01*
X5450523Y-14157559D01*
X5436237Y-14128988D01*
X5421951Y-14114702D01*
X5393380Y-14100417D01*
X5807665Y-14271845D02*
X5807665Y-13971845D01*
X5936237Y-14271845D02*
X5936237Y-14114702D01*
X5921951Y-14086131D01*
X5893380Y-14071845D01*
X5850523Y-14071845D01*
X5821951Y-14086131D01*
X5807665Y-14100417D01*
X6121951Y-14271845D02*
X6093380Y-14257559D01*
X6079094Y-14243274D01*
X6064808Y-14214702D01*
X6064808Y-14128988D01*
X6079094Y-14100417D01*
X6093380Y-14086131D01*
X6121951Y-14071845D01*
X6164808Y-14071845D01*
X6193380Y-14086131D01*
X6207665Y-14100417D01*
X6221951Y-14128988D01*
X6221951Y-14214702D01*
X6207665Y-14243274D01*
X6193380Y-14257559D01*
X6164808Y-14271845D01*
X6121951Y-14271845D01*
X6393380Y-14271845D02*
X6364808Y-14257559D01*
X6350523Y-14228988D01*
X6350523Y-13971845D01*
X6621951Y-14257559D02*
X6593380Y-14271845D01*
X6536237Y-14271845D01*
X6507665Y-14257559D01*
X6493380Y-14228988D01*
X6493380Y-14114702D01*
X6507665Y-14086131D01*
X6536237Y-14071845D01*
X6593380Y-14071845D01*
X6621951Y-14086131D01*
X6636237Y-14114702D01*
X6636237Y-14143274D01*
X6493380Y-14171845D01*
X6750523Y-14257559D02*
X6779094Y-14271845D01*
X6836237Y-14271845D01*
X6864808Y-14257559D01*
X6879094Y-14228988D01*
X6879094Y-14214702D01*
X6864808Y-14186131D01*
X6836237Y-14171845D01*
X6793380Y-14171845D01*
X6764808Y-14157559D01*
X6750523Y-14128988D01*
X6750523Y-14114702D01*
X6764808Y-14086131D01*
X6793380Y-14071845D01*
X6836237Y-14071845D01*
X6864808Y-14086131D01*
X6979094Y-14386131D02*
X6993380Y-14371845D01*
X7021951Y-14328988D01*
X7036237Y-14300417D01*
X7050523Y-14257559D01*
X7064808Y-14186131D01*
X7064808Y-14128988D01*
X7050523Y-14057559D01*
X7036237Y-14014702D01*
X7021951Y-13986131D01*
X6993380Y-13943274D01*
X6979094Y-13928988D01*
X492665Y-14532131D02*
G75*
G03X492665Y-14532131I-25000J0D01*
G01*
X836237Y-14367845D02*
X864808Y-14367845D01*
X893380Y-14382131D01*
X907665Y-14396417D01*
X921951Y-14424988D01*
X936237Y-14482131D01*
X936237Y-14553559D01*
X921951Y-14610702D01*
X907665Y-14639274D01*
X893380Y-14653559D01*
X864808Y-14667845D01*
X836237Y-14667845D01*
X807665Y-14653559D01*
X793380Y-14639274D01*
X779094Y-14610702D01*
X764808Y-14553559D01*
X764808Y-14482131D01*
X779094Y-14424988D01*
X793380Y-14396417D01*
X807665Y-14382131D01*
X836237Y-14367845D01*
X1064808Y-14639274D02*
X1079094Y-14653559D01*
X1064808Y-14667845D01*
X1050523Y-14653559D01*
X1064808Y-14639274D01*
X1064808Y-14667845D01*
X1350523Y-14367845D02*
X1207666Y-14367845D01*
X1193380Y-14510702D01*
X1207666Y-14496417D01*
X1236237Y-14482131D01*
X1307666Y-14482131D01*
X1336237Y-14496417D01*
X1350523Y-14510702D01*
X1364808Y-14539274D01*
X1364808Y-14610702D01*
X1350523Y-14639274D01*
X1336237Y-14653559D01*
X1307666Y-14667845D01*
X1236237Y-14667845D01*
X1207666Y-14653559D01*
X1193380Y-14639274D01*
X1550523Y-14367845D02*
X1579094Y-14367845D01*
X1607665Y-14382131D01*
X1621951Y-14396417D01*
X1636237Y-14424988D01*
X1650523Y-14482131D01*
X1650523Y-14553559D01*
X1636237Y-14610702D01*
X1621951Y-14639274D01*
X1607665Y-14653559D01*
X1579094Y-14667845D01*
X1550523Y-14667845D01*
X1521951Y-14653559D01*
X1507665Y-14639274D01*
X1493380Y-14610702D01*
X1479094Y-14553559D01*
X1479094Y-14482131D01*
X1493380Y-14424988D01*
X1507665Y-14396417D01*
X1521951Y-14382131D01*
X1550523Y-14367845D01*
X1779094Y-14667845D02*
X1779094Y-14467845D01*
X1779094Y-14496417D02*
X1793380Y-14482131D01*
X1821951Y-14467845D01*
X1864808Y-14467845D01*
X1893380Y-14482131D01*
X1907665Y-14510702D01*
X1907665Y-14667845D01*
X1907665Y-14510702D02*
X1921951Y-14482131D01*
X1950523Y-14467845D01*
X1993380Y-14467845D01*
X2021951Y-14482131D01*
X2036237Y-14510702D01*
X2036237Y-14667845D01*
X2179094Y-14667845D02*
X2179094Y-14467845D01*
X2179094Y-14496417D02*
X2193380Y-14482131D01*
X2221951Y-14467845D01*
X2264808Y-14467845D01*
X2293380Y-14482131D01*
X2307666Y-14510702D01*
X2307666Y-14667845D01*
X2307666Y-14510702D02*
X2321951Y-14482131D01*
X2350523Y-14467845D01*
X2393380Y-14467845D01*
X2421951Y-14482131D01*
X2436237Y-14510702D01*
X2436237Y-14667845D01*
X3021951Y-14353559D02*
X2764808Y-14739274D01*
X3407665Y-14367845D02*
X3436237Y-14367845D01*
X3464808Y-14382131D01*
X3479094Y-14396417D01*
X3493380Y-14424988D01*
X3507665Y-14482131D01*
X3507665Y-14553559D01*
X3493380Y-14610702D01*
X3479094Y-14639274D01*
X3464808Y-14653559D01*
X3436237Y-14667845D01*
X3407665Y-14667845D01*
X3379094Y-14653559D01*
X3364808Y-14639274D01*
X3350523Y-14610702D01*
X3336237Y-14553559D01*
X3336237Y-14482131D01*
X3350523Y-14424988D01*
X3364808Y-14396417D01*
X3379094Y-14382131D01*
X3407665Y-14367845D01*
X3636237Y-14639274D02*
X3650523Y-14653559D01*
X3636237Y-14667845D01*
X3621951Y-14653559D01*
X3636237Y-14639274D01*
X3636237Y-14667845D01*
X3836237Y-14367845D02*
X3864808Y-14367845D01*
X3893380Y-14382131D01*
X3907665Y-14396417D01*
X3921951Y-14424988D01*
X3936237Y-14482131D01*
X3936237Y-14553559D01*
X3921951Y-14610702D01*
X3907665Y-14639274D01*
X3893380Y-14653559D01*
X3864808Y-14667845D01*
X3836237Y-14667845D01*
X3807665Y-14653559D01*
X3793380Y-14639274D01*
X3779094Y-14610702D01*
X3764808Y-14553559D01*
X3764808Y-14482131D01*
X3779094Y-14424988D01*
X3793380Y-14396417D01*
X3807665Y-14382131D01*
X3836237Y-14367845D01*
X4050523Y-14396417D02*
X4064808Y-14382131D01*
X4093380Y-14367845D01*
X4164808Y-14367845D01*
X4193380Y-14382131D01*
X4207666Y-14396417D01*
X4221951Y-14424988D01*
X4221951Y-14453559D01*
X4207666Y-14496417D01*
X4036237Y-14667845D01*
X4221951Y-14667845D01*
X4407665Y-14367845D02*
X4436237Y-14367845D01*
X4464808Y-14382131D01*
X4479094Y-14396417D01*
X4493380Y-14424988D01*
X4507665Y-14482131D01*
X4507665Y-14553559D01*
X4493380Y-14610702D01*
X4479094Y-14639274D01*
X4464808Y-14653559D01*
X4436237Y-14667845D01*
X4407665Y-14667845D01*
X4379094Y-14653559D01*
X4364808Y-14639274D01*
X4350523Y-14610702D01*
X4336237Y-14553559D01*
X4336237Y-14482131D01*
X4350523Y-14424988D01*
X4364808Y-14396417D01*
X4379094Y-14382131D01*
X4407665Y-14367845D01*
X4621951Y-14367845D02*
X4621951Y-14424988D01*
X4736237Y-14367845D02*
X4736237Y-14424988D01*
X5179094Y-14782131D02*
X5164808Y-14767845D01*
X5136237Y-14724988D01*
X5121951Y-14696417D01*
X5107665Y-14653559D01*
X5093380Y-14582131D01*
X5093380Y-14524988D01*
X5107665Y-14453559D01*
X5121951Y-14410702D01*
X5136237Y-14382131D01*
X5164808Y-14339274D01*
X5179094Y-14324988D01*
X5421951Y-14467845D02*
X5421951Y-14667845D01*
X5350523Y-14353559D02*
X5279094Y-14567845D01*
X5464808Y-14567845D01*
X5707665Y-14367845D02*
X5650523Y-14367845D01*
X5621951Y-14382131D01*
X5607665Y-14396417D01*
X5579094Y-14439274D01*
X5564808Y-14496417D01*
X5564808Y-14610702D01*
X5579094Y-14639274D01*
X5593380Y-14653559D01*
X5621951Y-14667845D01*
X5679094Y-14667845D01*
X5707665Y-14653559D01*
X5721951Y-14639274D01*
X5736237Y-14610702D01*
X5736237Y-14539274D01*
X5721951Y-14510702D01*
X5707665Y-14496417D01*
X5679094Y-14482131D01*
X5621951Y-14482131D01*
X5593380Y-14496417D01*
X5579094Y-14510702D01*
X5564808Y-14539274D01*
X6093380Y-14667845D02*
X6093380Y-14367845D01*
X6221951Y-14667845D02*
X6221951Y-14510702D01*
X6207665Y-14482131D01*
X6179094Y-14467845D01*
X6136237Y-14467845D01*
X6107665Y-14482131D01*
X6093380Y-14496417D01*
X6407665Y-14667845D02*
X6379094Y-14653559D01*
X6364808Y-14639274D01*
X6350523Y-14610702D01*
X6350523Y-14524988D01*
X6364808Y-14496417D01*
X6379094Y-14482131D01*
X6407665Y-14467845D01*
X6450523Y-14467845D01*
X6479094Y-14482131D01*
X6493380Y-14496417D01*
X6507665Y-14524988D01*
X6507665Y-14610702D01*
X6493380Y-14639274D01*
X6479094Y-14653559D01*
X6450523Y-14667845D01*
X6407665Y-14667845D01*
X6679094Y-14667845D02*
X6650523Y-14653559D01*
X6636237Y-14624988D01*
X6636237Y-14367845D01*
X6907665Y-14653559D02*
X6879094Y-14667845D01*
X6821951Y-14667845D01*
X6793380Y-14653559D01*
X6779094Y-14624988D01*
X6779094Y-14510702D01*
X6793380Y-14482131D01*
X6821951Y-14467845D01*
X6879094Y-14467845D01*
X6907665Y-14482131D01*
X6921951Y-14510702D01*
X6921951Y-14539274D01*
X6779094Y-14567845D01*
X7036237Y-14653559D02*
X7064808Y-14667845D01*
X7121951Y-14667845D01*
X7150523Y-14653559D01*
X7164808Y-14624988D01*
X7164808Y-14610702D01*
X7150523Y-14582131D01*
X7121951Y-14567845D01*
X7079094Y-14567845D01*
X7050523Y-14553559D01*
X7036237Y-14524988D01*
X7036237Y-14510702D01*
X7050523Y-14482131D01*
X7079094Y-14467845D01*
X7121951Y-14467845D01*
X7150523Y-14482131D01*
X7264808Y-14782131D02*
X7279094Y-14767845D01*
X7307665Y-14724988D01*
X7321951Y-14696417D01*
X7336237Y-14653559D01*
X7350523Y-14582131D01*
X7350523Y-14524988D01*
X7336237Y-14453559D01*
X7321951Y-14410702D01*
X7307665Y-14382131D01*
X7279094Y-14339274D01*
X7264808Y-14324988D01*
X442665Y-14878131D02*
X442665Y-14978131D01*
X392665Y-14928131D02*
X492665Y-14928131D01*
X936237Y-15063845D02*
X764808Y-15063845D01*
X850523Y-15063845D02*
X850523Y-14763845D01*
X821951Y-14806702D01*
X793380Y-14835274D01*
X764808Y-14849559D01*
X1064808Y-15035274D02*
X1079094Y-15049559D01*
X1064808Y-15063845D01*
X1050523Y-15049559D01*
X1064808Y-15035274D01*
X1064808Y-15063845D01*
X1264808Y-14763845D02*
X1293380Y-14763845D01*
X1321951Y-14778131D01*
X1336237Y-14792417D01*
X1350523Y-14820988D01*
X1364808Y-14878131D01*
X1364808Y-14949559D01*
X1350523Y-15006702D01*
X1336237Y-15035274D01*
X1321951Y-15049559D01*
X1293380Y-15063845D01*
X1264808Y-15063845D01*
X1236237Y-15049559D01*
X1221951Y-15035274D01*
X1207666Y-15006702D01*
X1193380Y-14949559D01*
X1193380Y-14878131D01*
X1207666Y-14820988D01*
X1221951Y-14792417D01*
X1236237Y-14778131D01*
X1264808Y-14763845D01*
X1550523Y-14763845D02*
X1579094Y-14763845D01*
X1607665Y-14778131D01*
X1621951Y-14792417D01*
X1636237Y-14820988D01*
X1650523Y-14878131D01*
X1650523Y-14949559D01*
X1636237Y-15006702D01*
X1621951Y-15035274D01*
X1607665Y-15049559D01*
X1579094Y-15063845D01*
X1550523Y-15063845D01*
X1521951Y-15049559D01*
X1507665Y-15035274D01*
X1493380Y-15006702D01*
X1479094Y-14949559D01*
X1479094Y-14878131D01*
X1493380Y-14820988D01*
X1507665Y-14792417D01*
X1521951Y-14778131D01*
X1550523Y-14763845D01*
X1779094Y-15063845D02*
X1779094Y-14863845D01*
X1779094Y-14892417D02*
X1793380Y-14878131D01*
X1821951Y-14863845D01*
X1864808Y-14863845D01*
X1893380Y-14878131D01*
X1907665Y-14906702D01*
X1907665Y-15063845D01*
X1907665Y-14906702D02*
X1921951Y-14878131D01*
X1950523Y-14863845D01*
X1993380Y-14863845D01*
X2021951Y-14878131D01*
X2036237Y-14906702D01*
X2036237Y-15063845D01*
X2179094Y-15063845D02*
X2179094Y-14863845D01*
X2179094Y-14892417D02*
X2193380Y-14878131D01*
X2221951Y-14863845D01*
X2264808Y-14863845D01*
X2293380Y-14878131D01*
X2307666Y-14906702D01*
X2307666Y-15063845D01*
X2307666Y-14906702D02*
X2321951Y-14878131D01*
X2350523Y-14863845D01*
X2393380Y-14863845D01*
X2421951Y-14878131D01*
X2436237Y-14906702D01*
X2436237Y-15063845D01*
X3021951Y-14749559D02*
X2764808Y-15135274D01*
X3407665Y-14763845D02*
X3436237Y-14763845D01*
X3464808Y-14778131D01*
X3479094Y-14792417D01*
X3493380Y-14820988D01*
X3507665Y-14878131D01*
X3507665Y-14949559D01*
X3493380Y-15006702D01*
X3479094Y-15035274D01*
X3464808Y-15049559D01*
X3436237Y-15063845D01*
X3407665Y-15063845D01*
X3379094Y-15049559D01*
X3364808Y-15035274D01*
X3350523Y-15006702D01*
X3336237Y-14949559D01*
X3336237Y-14878131D01*
X3350523Y-14820988D01*
X3364808Y-14792417D01*
X3379094Y-14778131D01*
X3407665Y-14763845D01*
X3636237Y-15035274D02*
X3650523Y-15049559D01*
X3636237Y-15063845D01*
X3621951Y-15049559D01*
X3636237Y-15035274D01*
X3636237Y-15063845D01*
X3836237Y-14763845D02*
X3864808Y-14763845D01*
X3893380Y-14778131D01*
X3907665Y-14792417D01*
X3921951Y-14820988D01*
X3936237Y-14878131D01*
X3936237Y-14949559D01*
X3921951Y-15006702D01*
X3907665Y-15035274D01*
X3893380Y-15049559D01*
X3864808Y-15063845D01*
X3836237Y-15063845D01*
X3807665Y-15049559D01*
X3793380Y-15035274D01*
X3779094Y-15006702D01*
X3764808Y-14949559D01*
X3764808Y-14878131D01*
X3779094Y-14820988D01*
X3793380Y-14792417D01*
X3807665Y-14778131D01*
X3836237Y-14763845D01*
X4036237Y-14763845D02*
X4221951Y-14763845D01*
X4121951Y-14878131D01*
X4164808Y-14878131D01*
X4193380Y-14892417D01*
X4207666Y-14906702D01*
X4221951Y-14935274D01*
X4221951Y-15006702D01*
X4207666Y-15035274D01*
X4193380Y-15049559D01*
X4164808Y-15063845D01*
X4079094Y-15063845D01*
X4050523Y-15049559D01*
X4036237Y-15035274D01*
X4364808Y-15063845D02*
X4421951Y-15063845D01*
X4450523Y-15049559D01*
X4464808Y-15035274D01*
X4493380Y-14992417D01*
X4507665Y-14935274D01*
X4507665Y-14820988D01*
X4493380Y-14792417D01*
X4479094Y-14778131D01*
X4450523Y-14763845D01*
X4393380Y-14763845D01*
X4364808Y-14778131D01*
X4350523Y-14792417D01*
X4336237Y-14820988D01*
X4336237Y-14892417D01*
X4350523Y-14920988D01*
X4364808Y-14935274D01*
X4393380Y-14949559D01*
X4450523Y-14949559D01*
X4479094Y-14935274D01*
X4493380Y-14920988D01*
X4507665Y-14892417D01*
X4621951Y-14763845D02*
X4621951Y-14820988D01*
X4736237Y-14763845D02*
X4736237Y-14820988D01*
X5179094Y-15178131D02*
X5164808Y-15163845D01*
X5136237Y-15120988D01*
X5121951Y-15092417D01*
X5107665Y-15049559D01*
X5093380Y-14978131D01*
X5093380Y-14920988D01*
X5107665Y-14849559D01*
X5121951Y-14806702D01*
X5136237Y-14778131D01*
X5164808Y-14735274D01*
X5179094Y-14720988D01*
X5307665Y-15063845D02*
X5364808Y-15063845D01*
X5393380Y-15049559D01*
X5407665Y-15035274D01*
X5436237Y-14992417D01*
X5450523Y-14935274D01*
X5450523Y-14820988D01*
X5436237Y-14792417D01*
X5421951Y-14778131D01*
X5393380Y-14763845D01*
X5336237Y-14763845D01*
X5307665Y-14778131D01*
X5293380Y-14792417D01*
X5279094Y-14820988D01*
X5279094Y-14892417D01*
X5293380Y-14920988D01*
X5307665Y-14935274D01*
X5336237Y-14949559D01*
X5393380Y-14949559D01*
X5421951Y-14935274D01*
X5436237Y-14920988D01*
X5450523Y-14892417D01*
X5707665Y-14763845D02*
X5650523Y-14763845D01*
X5621951Y-14778131D01*
X5607665Y-14792417D01*
X5579094Y-14835274D01*
X5564808Y-14892417D01*
X5564808Y-15006702D01*
X5579094Y-15035274D01*
X5593380Y-15049559D01*
X5621951Y-15063845D01*
X5679094Y-15063845D01*
X5707665Y-15049559D01*
X5721951Y-15035274D01*
X5736237Y-15006702D01*
X5736237Y-14935274D01*
X5721951Y-14906702D01*
X5707665Y-14892417D01*
X5679094Y-14878131D01*
X5621951Y-14878131D01*
X5593380Y-14892417D01*
X5579094Y-14906702D01*
X5564808Y-14935274D01*
X6093380Y-15063845D02*
X6093380Y-14763845D01*
X6221951Y-15063845D02*
X6221951Y-14906702D01*
X6207665Y-14878131D01*
X6179094Y-14863845D01*
X6136237Y-14863845D01*
X6107665Y-14878131D01*
X6093380Y-14892417D01*
X6407665Y-15063845D02*
X6379094Y-15049559D01*
X6364808Y-15035274D01*
X6350523Y-15006702D01*
X6350523Y-14920988D01*
X6364808Y-14892417D01*
X6379094Y-14878131D01*
X6407665Y-14863845D01*
X6450523Y-14863845D01*
X6479094Y-14878131D01*
X6493380Y-14892417D01*
X6507665Y-14920988D01*
X6507665Y-15006702D01*
X6493380Y-15035274D01*
X6479094Y-15049559D01*
X6450523Y-15063845D01*
X6407665Y-15063845D01*
X6679094Y-15063845D02*
X6650523Y-15049559D01*
X6636237Y-15020988D01*
X6636237Y-14763845D01*
X6907665Y-15049559D02*
X6879094Y-15063845D01*
X6821951Y-15063845D01*
X6793380Y-15049559D01*
X6779094Y-15020988D01*
X6779094Y-14906702D01*
X6793380Y-14878131D01*
X6821951Y-14863845D01*
X6879094Y-14863845D01*
X6907665Y-14878131D01*
X6921951Y-14906702D01*
X6921951Y-14935274D01*
X6779094Y-14963845D01*
X7036237Y-15049559D02*
X7064808Y-15063845D01*
X7121951Y-15063845D01*
X7150523Y-15049559D01*
X7164808Y-15020988D01*
X7164808Y-15006702D01*
X7150523Y-14978131D01*
X7121951Y-14963845D01*
X7079094Y-14963845D01*
X7050523Y-14949559D01*
X7036237Y-14920988D01*
X7036237Y-14906702D01*
X7050523Y-14878131D01*
X7079094Y-14863845D01*
X7121951Y-14863845D01*
X7150523Y-14878131D01*
X7264808Y-15178131D02*
X7279094Y-15163845D01*
X7307665Y-15120988D01*
X7321951Y-15092417D01*
X7336237Y-15049559D01*
X7350523Y-14978131D01*
X7350523Y-14920988D01*
X7336237Y-14849559D01*
X7321951Y-14806702D01*
X7307665Y-14778131D01*
X7279094Y-14735274D01*
X7264808Y-14720988D01*
X477787Y-15360052D02*
X477787Y-15288209D01*
X405944Y-15288209D01*
X405944Y-15360052D01*
X477787Y-15360052D01*
X936237Y-15459845D02*
X764808Y-15459845D01*
X850523Y-15459845D02*
X850523Y-15159845D01*
X821951Y-15202702D01*
X793380Y-15231274D01*
X764808Y-15245559D01*
X1064808Y-15431274D02*
X1079094Y-15445559D01*
X1064808Y-15459845D01*
X1050523Y-15445559D01*
X1064808Y-15431274D01*
X1064808Y-15459845D01*
X1264808Y-15159845D02*
X1293380Y-15159845D01*
X1321951Y-15174131D01*
X1336237Y-15188417D01*
X1350523Y-15216988D01*
X1364808Y-15274131D01*
X1364808Y-15345559D01*
X1350523Y-15402702D01*
X1336237Y-15431274D01*
X1321951Y-15445559D01*
X1293380Y-15459845D01*
X1264808Y-15459845D01*
X1236237Y-15445559D01*
X1221951Y-15431274D01*
X1207666Y-15402702D01*
X1193380Y-15345559D01*
X1193380Y-15274131D01*
X1207666Y-15216988D01*
X1221951Y-15188417D01*
X1236237Y-15174131D01*
X1264808Y-15159845D01*
X1479094Y-15188417D02*
X1493380Y-15174131D01*
X1521951Y-15159845D01*
X1593380Y-15159845D01*
X1621951Y-15174131D01*
X1636237Y-15188417D01*
X1650523Y-15216988D01*
X1650523Y-15245559D01*
X1636237Y-15288417D01*
X1464808Y-15459845D01*
X1650523Y-15459845D01*
X1779094Y-15459845D02*
X1779094Y-15259845D01*
X1779094Y-15288417D02*
X1793380Y-15274131D01*
X1821951Y-15259845D01*
X1864808Y-15259845D01*
X1893380Y-15274131D01*
X1907665Y-15302702D01*
X1907665Y-15459845D01*
X1907665Y-15302702D02*
X1921951Y-15274131D01*
X1950523Y-15259845D01*
X1993380Y-15259845D01*
X2021951Y-15274131D01*
X2036237Y-15302702D01*
X2036237Y-15459845D01*
X2179094Y-15459845D02*
X2179094Y-15259845D01*
X2179094Y-15288417D02*
X2193380Y-15274131D01*
X2221951Y-15259845D01*
X2264808Y-15259845D01*
X2293380Y-15274131D01*
X2307666Y-15302702D01*
X2307666Y-15459845D01*
X2307666Y-15302702D02*
X2321951Y-15274131D01*
X2350523Y-15259845D01*
X2393380Y-15259845D01*
X2421951Y-15274131D01*
X2436237Y-15302702D01*
X2436237Y-15459845D01*
X3021951Y-15145559D02*
X2764808Y-15531274D01*
X3407665Y-15159845D02*
X3436237Y-15159845D01*
X3464808Y-15174131D01*
X3479094Y-15188417D01*
X3493380Y-15216988D01*
X3507665Y-15274131D01*
X3507665Y-15345559D01*
X3493380Y-15402702D01*
X3479094Y-15431274D01*
X3464808Y-15445559D01*
X3436237Y-15459845D01*
X3407665Y-15459845D01*
X3379094Y-15445559D01*
X3364808Y-15431274D01*
X3350523Y-15402702D01*
X3336237Y-15345559D01*
X3336237Y-15274131D01*
X3350523Y-15216988D01*
X3364808Y-15188417D01*
X3379094Y-15174131D01*
X3407665Y-15159845D01*
X3636237Y-15431274D02*
X3650523Y-15445559D01*
X3636237Y-15459845D01*
X3621951Y-15445559D01*
X3636237Y-15431274D01*
X3636237Y-15459845D01*
X3836237Y-15159845D02*
X3864808Y-15159845D01*
X3893380Y-15174131D01*
X3907665Y-15188417D01*
X3921951Y-15216988D01*
X3936237Y-15274131D01*
X3936237Y-15345559D01*
X3921951Y-15402702D01*
X3907665Y-15431274D01*
X3893380Y-15445559D01*
X3864808Y-15459845D01*
X3836237Y-15459845D01*
X3807665Y-15445559D01*
X3793380Y-15431274D01*
X3779094Y-15402702D01*
X3764808Y-15345559D01*
X3764808Y-15274131D01*
X3779094Y-15216988D01*
X3793380Y-15188417D01*
X3807665Y-15174131D01*
X3836237Y-15159845D01*
X4193380Y-15259845D02*
X4193380Y-15459845D01*
X4121951Y-15145559D02*
X4050523Y-15359845D01*
X4236237Y-15359845D01*
X4407665Y-15159845D02*
X4436237Y-15159845D01*
X4464808Y-15174131D01*
X4479094Y-15188417D01*
X4493380Y-15216988D01*
X4507665Y-15274131D01*
X4507665Y-15345559D01*
X4493380Y-15402702D01*
X4479094Y-15431274D01*
X4464808Y-15445559D01*
X4436237Y-15459845D01*
X4407665Y-15459845D01*
X4379094Y-15445559D01*
X4364808Y-15431274D01*
X4350523Y-15402702D01*
X4336237Y-15345559D01*
X4336237Y-15274131D01*
X4350523Y-15216988D01*
X4364808Y-15188417D01*
X4379094Y-15174131D01*
X4407665Y-15159845D01*
X4621951Y-15159845D02*
X4621951Y-15216988D01*
X4736237Y-15159845D02*
X4736237Y-15216988D01*
X5179094Y-15574131D02*
X5164808Y-15559845D01*
X5136237Y-15516988D01*
X5121951Y-15488417D01*
X5107665Y-15445559D01*
X5093380Y-15374131D01*
X5093380Y-15316988D01*
X5107665Y-15245559D01*
X5121951Y-15202702D01*
X5136237Y-15174131D01*
X5164808Y-15131274D01*
X5179094Y-15116988D01*
X5421951Y-15259845D02*
X5421951Y-15459845D01*
X5350523Y-15145559D02*
X5279094Y-15359845D01*
X5464808Y-15359845D01*
X5807665Y-15459845D02*
X5807665Y-15159845D01*
X5936237Y-15459845D02*
X5936237Y-15302702D01*
X5921951Y-15274131D01*
X5893380Y-15259845D01*
X5850523Y-15259845D01*
X5821951Y-15274131D01*
X5807665Y-15288417D01*
X6121951Y-15459845D02*
X6093380Y-15445559D01*
X6079094Y-15431274D01*
X6064808Y-15402702D01*
X6064808Y-15316988D01*
X6079094Y-15288417D01*
X6093380Y-15274131D01*
X6121951Y-15259845D01*
X6164808Y-15259845D01*
X6193380Y-15274131D01*
X6207665Y-15288417D01*
X6221951Y-15316988D01*
X6221951Y-15402702D01*
X6207665Y-15431274D01*
X6193380Y-15445559D01*
X6164808Y-15459845D01*
X6121951Y-15459845D01*
X6393380Y-15459845D02*
X6364808Y-15445559D01*
X6350523Y-15416988D01*
X6350523Y-15159845D01*
X6621951Y-15445559D02*
X6593380Y-15459845D01*
X6536237Y-15459845D01*
X6507665Y-15445559D01*
X6493380Y-15416988D01*
X6493380Y-15302702D01*
X6507665Y-15274131D01*
X6536237Y-15259845D01*
X6593380Y-15259845D01*
X6621951Y-15274131D01*
X6636237Y-15302702D01*
X6636237Y-15331274D01*
X6493380Y-15359845D01*
X6750523Y-15445559D02*
X6779094Y-15459845D01*
X6836237Y-15459845D01*
X6864808Y-15445559D01*
X6879094Y-15416988D01*
X6879094Y-15402702D01*
X6864808Y-15374131D01*
X6836237Y-15359845D01*
X6793380Y-15359845D01*
X6764808Y-15345559D01*
X6750523Y-15316988D01*
X6750523Y-15302702D01*
X6764808Y-15274131D01*
X6793380Y-15259845D01*
X6836237Y-15259845D01*
X6864808Y-15274131D01*
X6979094Y-15574131D02*
X6993380Y-15559845D01*
X7021951Y-15516988D01*
X7036237Y-15488417D01*
X7050523Y-15445559D01*
X7064808Y-15374131D01*
X7064808Y-15316988D01*
X7050523Y-15245559D01*
X7036237Y-15202702D01*
X7021951Y-15174131D01*
X6993380Y-15131274D01*
X6979094Y-15116988D01*
X438055Y-15774741D02*
X492665Y-15720131D01*
X438055Y-15665521D01*
X383445Y-15720131D01*
X438055Y-15774741D01*
X936237Y-15855845D02*
X764808Y-15855845D01*
X850523Y-15855845D02*
X850523Y-15555845D01*
X821951Y-15598702D01*
X793380Y-15627274D01*
X764808Y-15641559D01*
X1064808Y-15827274D02*
X1079094Y-15841559D01*
X1064808Y-15855845D01*
X1050523Y-15841559D01*
X1064808Y-15827274D01*
X1064808Y-15855845D01*
X1264808Y-15555845D02*
X1293380Y-15555845D01*
X1321951Y-15570131D01*
X1336237Y-15584417D01*
X1350523Y-15612988D01*
X1364808Y-15670131D01*
X1364808Y-15741559D01*
X1350523Y-15798702D01*
X1336237Y-15827274D01*
X1321951Y-15841559D01*
X1293380Y-15855845D01*
X1264808Y-15855845D01*
X1236237Y-15841559D01*
X1221951Y-15827274D01*
X1207666Y-15798702D01*
X1193380Y-15741559D01*
X1193380Y-15670131D01*
X1207666Y-15612988D01*
X1221951Y-15584417D01*
X1236237Y-15570131D01*
X1264808Y-15555845D01*
X1507665Y-15855845D02*
X1564808Y-15855845D01*
X1593380Y-15841559D01*
X1607665Y-15827274D01*
X1636237Y-15784417D01*
X1650523Y-15727274D01*
X1650523Y-15612988D01*
X1636237Y-15584417D01*
X1621951Y-15570131D01*
X1593380Y-15555845D01*
X1536237Y-15555845D01*
X1507665Y-15570131D01*
X1493380Y-15584417D01*
X1479094Y-15612988D01*
X1479094Y-15684417D01*
X1493380Y-15712988D01*
X1507665Y-15727274D01*
X1536237Y-15741559D01*
X1593380Y-15741559D01*
X1621951Y-15727274D01*
X1636237Y-15712988D01*
X1650523Y-15684417D01*
X1779094Y-15855845D02*
X1779094Y-15655845D01*
X1779094Y-15684417D02*
X1793380Y-15670131D01*
X1821951Y-15655845D01*
X1864808Y-15655845D01*
X1893380Y-15670131D01*
X1907665Y-15698702D01*
X1907665Y-15855845D01*
X1907665Y-15698702D02*
X1921951Y-15670131D01*
X1950523Y-15655845D01*
X1993380Y-15655845D01*
X2021951Y-15670131D01*
X2036237Y-15698702D01*
X2036237Y-15855845D01*
X2179094Y-15855845D02*
X2179094Y-15655845D01*
X2179094Y-15684417D02*
X2193380Y-15670131D01*
X2221951Y-15655845D01*
X2264808Y-15655845D01*
X2293380Y-15670131D01*
X2307666Y-15698702D01*
X2307666Y-15855845D01*
X2307666Y-15698702D02*
X2321951Y-15670131D01*
X2350523Y-15655845D01*
X2393380Y-15655845D01*
X2421951Y-15670131D01*
X2436237Y-15698702D01*
X2436237Y-15855845D01*
X3021951Y-15541559D02*
X2764808Y-15927274D01*
X3407665Y-15555845D02*
X3436237Y-15555845D01*
X3464808Y-15570131D01*
X3479094Y-15584417D01*
X3493380Y-15612988D01*
X3507665Y-15670131D01*
X3507665Y-15741559D01*
X3493380Y-15798702D01*
X3479094Y-15827274D01*
X3464808Y-15841559D01*
X3436237Y-15855845D01*
X3407665Y-15855845D01*
X3379094Y-15841559D01*
X3364808Y-15827274D01*
X3350523Y-15798702D01*
X3336237Y-15741559D01*
X3336237Y-15670131D01*
X3350523Y-15612988D01*
X3364808Y-15584417D01*
X3379094Y-15570131D01*
X3407665Y-15555845D01*
X3636237Y-15827274D02*
X3650523Y-15841559D01*
X3636237Y-15855845D01*
X3621951Y-15841559D01*
X3636237Y-15827274D01*
X3636237Y-15855845D01*
X3836237Y-15555845D02*
X3864808Y-15555845D01*
X3893380Y-15570131D01*
X3907665Y-15584417D01*
X3921951Y-15612988D01*
X3936237Y-15670131D01*
X3936237Y-15741559D01*
X3921951Y-15798702D01*
X3907665Y-15827274D01*
X3893380Y-15841559D01*
X3864808Y-15855845D01*
X3836237Y-15855845D01*
X3807665Y-15841559D01*
X3793380Y-15827274D01*
X3779094Y-15798702D01*
X3764808Y-15741559D01*
X3764808Y-15670131D01*
X3779094Y-15612988D01*
X3793380Y-15584417D01*
X3807665Y-15570131D01*
X3836237Y-15555845D01*
X4193380Y-15655845D02*
X4193380Y-15855845D01*
X4121951Y-15541559D02*
X4050523Y-15755845D01*
X4236237Y-15755845D01*
X4321951Y-15555845D02*
X4507665Y-15555845D01*
X4407665Y-15670131D01*
X4450523Y-15670131D01*
X4479094Y-15684417D01*
X4493380Y-15698702D01*
X4507665Y-15727274D01*
X4507665Y-15798702D01*
X4493380Y-15827274D01*
X4479094Y-15841559D01*
X4450523Y-15855845D01*
X4364808Y-15855845D01*
X4336237Y-15841559D01*
X4321951Y-15827274D01*
X4621951Y-15555845D02*
X4621951Y-15612988D01*
X4736237Y-15555845D02*
X4736237Y-15612988D01*
X5179094Y-15970131D02*
X5164808Y-15955845D01*
X5136237Y-15912988D01*
X5121951Y-15884417D01*
X5107665Y-15841559D01*
X5093380Y-15770131D01*
X5093380Y-15712988D01*
X5107665Y-15641559D01*
X5121951Y-15598702D01*
X5136237Y-15570131D01*
X5164808Y-15527274D01*
X5179094Y-15512988D01*
X5279094Y-15584417D02*
X5293380Y-15570131D01*
X5321951Y-15555845D01*
X5393380Y-15555845D01*
X5421951Y-15570131D01*
X5436237Y-15584417D01*
X5450523Y-15612988D01*
X5450523Y-15641559D01*
X5436237Y-15684417D01*
X5264808Y-15855845D01*
X5450523Y-15855845D01*
X5550523Y-15555845D02*
X5750523Y-15555845D01*
X5621951Y-15855845D01*
X6093380Y-15855845D02*
X6093380Y-15555845D01*
X6221951Y-15855845D02*
X6221951Y-15698702D01*
X6207665Y-15670131D01*
X6179094Y-15655845D01*
X6136237Y-15655845D01*
X6107665Y-15670131D01*
X6093380Y-15684417D01*
X6407665Y-15855845D02*
X6379094Y-15841559D01*
X6364808Y-15827274D01*
X6350523Y-15798702D01*
X6350523Y-15712988D01*
X6364808Y-15684417D01*
X6379094Y-15670131D01*
X6407665Y-15655845D01*
X6450523Y-15655845D01*
X6479094Y-15670131D01*
X6493380Y-15684417D01*
X6507665Y-15712988D01*
X6507665Y-15798702D01*
X6493380Y-15827274D01*
X6479094Y-15841559D01*
X6450523Y-15855845D01*
X6407665Y-15855845D01*
X6679094Y-15855845D02*
X6650523Y-15841559D01*
X6636237Y-15812988D01*
X6636237Y-15555845D01*
X6907665Y-15841559D02*
X6879094Y-15855845D01*
X6821951Y-15855845D01*
X6793380Y-15841559D01*
X6779094Y-15812988D01*
X6779094Y-15698702D01*
X6793380Y-15670131D01*
X6821951Y-15655845D01*
X6879094Y-15655845D01*
X6907665Y-15670131D01*
X6921951Y-15698702D01*
X6921951Y-15727274D01*
X6779094Y-15755845D01*
X7036237Y-15841559D02*
X7064808Y-15855845D01*
X7121951Y-15855845D01*
X7150523Y-15841559D01*
X7164808Y-15812988D01*
X7164808Y-15798702D01*
X7150523Y-15770131D01*
X7121951Y-15755845D01*
X7079094Y-15755845D01*
X7050523Y-15741559D01*
X7036237Y-15712988D01*
X7036237Y-15698702D01*
X7050523Y-15670131D01*
X7079094Y-15655845D01*
X7121951Y-15655845D01*
X7150523Y-15670131D01*
X7264808Y-15970131D02*
X7279094Y-15955845D01*
X7307665Y-15912988D01*
X7321951Y-15884417D01*
X7336237Y-15841559D01*
X7350523Y-15770131D01*
X7350523Y-15712988D01*
X7336237Y-15641559D01*
X7321951Y-15598702D01*
X7307665Y-15570131D01*
X7279094Y-15527274D01*
X7264808Y-15512988D01*
X372665Y-16056131D02*
X492665Y-16176131D01*
X492665Y-16056131D02*
X372665Y-16176131D01*
X492665Y-16116131D02*
G75*
G03X492665Y-16116131I-60000J0D01*
G01*
X936237Y-16251845D02*
X764808Y-16251845D01*
X850523Y-16251845D02*
X850523Y-15951845D01*
X821951Y-15994702D01*
X793380Y-16023274D01*
X764808Y-16037559D01*
X1064808Y-16223274D02*
X1079094Y-16237559D01*
X1064808Y-16251845D01*
X1050523Y-16237559D01*
X1064808Y-16223274D01*
X1064808Y-16251845D01*
X1193380Y-15980417D02*
X1207666Y-15966131D01*
X1236237Y-15951845D01*
X1307666Y-15951845D01*
X1336237Y-15966131D01*
X1350523Y-15980417D01*
X1364808Y-16008988D01*
X1364808Y-16037559D01*
X1350523Y-16080417D01*
X1179094Y-16251845D01*
X1364808Y-16251845D01*
X1550523Y-15951845D02*
X1579094Y-15951845D01*
X1607665Y-15966131D01*
X1621951Y-15980417D01*
X1636237Y-16008988D01*
X1650523Y-16066131D01*
X1650523Y-16137559D01*
X1636237Y-16194702D01*
X1621951Y-16223274D01*
X1607665Y-16237559D01*
X1579094Y-16251845D01*
X1550523Y-16251845D01*
X1521951Y-16237559D01*
X1507665Y-16223274D01*
X1493380Y-16194702D01*
X1479094Y-16137559D01*
X1479094Y-16066131D01*
X1493380Y-16008988D01*
X1507665Y-15980417D01*
X1521951Y-15966131D01*
X1550523Y-15951845D01*
X1779094Y-16251845D02*
X1779094Y-16051845D01*
X1779094Y-16080417D02*
X1793380Y-16066131D01*
X1821951Y-16051845D01*
X1864808Y-16051845D01*
X1893380Y-16066131D01*
X1907665Y-16094702D01*
X1907665Y-16251845D01*
X1907665Y-16094702D02*
X1921951Y-16066131D01*
X1950523Y-16051845D01*
X1993380Y-16051845D01*
X2021951Y-16066131D01*
X2036237Y-16094702D01*
X2036237Y-16251845D01*
X2179094Y-16251845D02*
X2179094Y-16051845D01*
X2179094Y-16080417D02*
X2193380Y-16066131D01*
X2221951Y-16051845D01*
X2264808Y-16051845D01*
X2293380Y-16066131D01*
X2307666Y-16094702D01*
X2307666Y-16251845D01*
X2307666Y-16094702D02*
X2321951Y-16066131D01*
X2350523Y-16051845D01*
X2393380Y-16051845D01*
X2421951Y-16066131D01*
X2436237Y-16094702D01*
X2436237Y-16251845D01*
X3021951Y-15937559D02*
X2764808Y-16323274D01*
X3407665Y-15951845D02*
X3436237Y-15951845D01*
X3464808Y-15966131D01*
X3479094Y-15980417D01*
X3493380Y-16008988D01*
X3507665Y-16066131D01*
X3507665Y-16137559D01*
X3493380Y-16194702D01*
X3479094Y-16223274D01*
X3464808Y-16237559D01*
X3436237Y-16251845D01*
X3407665Y-16251845D01*
X3379094Y-16237559D01*
X3364808Y-16223274D01*
X3350523Y-16194702D01*
X3336237Y-16137559D01*
X3336237Y-16066131D01*
X3350523Y-16008988D01*
X3364808Y-15980417D01*
X3379094Y-15966131D01*
X3407665Y-15951845D01*
X3636237Y-16223274D02*
X3650523Y-16237559D01*
X3636237Y-16251845D01*
X3621951Y-16237559D01*
X3636237Y-16223274D01*
X3636237Y-16251845D01*
X3836237Y-15951845D02*
X3864808Y-15951845D01*
X3893380Y-15966131D01*
X3907665Y-15980417D01*
X3921951Y-16008988D01*
X3936237Y-16066131D01*
X3936237Y-16137559D01*
X3921951Y-16194702D01*
X3907665Y-16223274D01*
X3893380Y-16237559D01*
X3864808Y-16251845D01*
X3836237Y-16251845D01*
X3807665Y-16237559D01*
X3793380Y-16223274D01*
X3779094Y-16194702D01*
X3764808Y-16137559D01*
X3764808Y-16066131D01*
X3779094Y-16008988D01*
X3793380Y-15980417D01*
X3807665Y-15966131D01*
X3836237Y-15951845D01*
X4193380Y-16051845D02*
X4193380Y-16251845D01*
X4121951Y-15937559D02*
X4050523Y-16151845D01*
X4236237Y-16151845D01*
X4321951Y-15951845D02*
X4521951Y-15951845D01*
X4393380Y-16251845D01*
X4621951Y-15951845D02*
X4621951Y-16008988D01*
X4736237Y-15951845D02*
X4736237Y-16008988D01*
X5179094Y-16366131D02*
X5164808Y-16351845D01*
X5136237Y-16308988D01*
X5121951Y-16280417D01*
X5107665Y-16237559D01*
X5093380Y-16166131D01*
X5093380Y-16108988D01*
X5107665Y-16037559D01*
X5121951Y-15994702D01*
X5136237Y-15966131D01*
X5164808Y-15923274D01*
X5179094Y-15908988D01*
X5307665Y-16251845D02*
X5364808Y-16251845D01*
X5393380Y-16237559D01*
X5407665Y-16223274D01*
X5436237Y-16180417D01*
X5450523Y-16123274D01*
X5450523Y-16008988D01*
X5436237Y-15980417D01*
X5421951Y-15966131D01*
X5393380Y-15951845D01*
X5336237Y-15951845D01*
X5307665Y-15966131D01*
X5293380Y-15980417D01*
X5279094Y-16008988D01*
X5279094Y-16080417D01*
X5293380Y-16108988D01*
X5307665Y-16123274D01*
X5336237Y-16137559D01*
X5393380Y-16137559D01*
X5421951Y-16123274D01*
X5436237Y-16108988D01*
X5450523Y-16080417D01*
X5707665Y-15951845D02*
X5650523Y-15951845D01*
X5621951Y-15966131D01*
X5607665Y-15980417D01*
X5579094Y-16023274D01*
X5564808Y-16080417D01*
X5564808Y-16194702D01*
X5579094Y-16223274D01*
X5593380Y-16237559D01*
X5621951Y-16251845D01*
X5679094Y-16251845D01*
X5707665Y-16237559D01*
X5721951Y-16223274D01*
X5736237Y-16194702D01*
X5736237Y-16123274D01*
X5721951Y-16094702D01*
X5707665Y-16080417D01*
X5679094Y-16066131D01*
X5621951Y-16066131D01*
X5593380Y-16080417D01*
X5579094Y-16094702D01*
X5564808Y-16123274D01*
X6093380Y-16251845D02*
X6093380Y-15951845D01*
X6221951Y-16251845D02*
X6221951Y-16094702D01*
X6207665Y-16066131D01*
X6179094Y-16051845D01*
X6136237Y-16051845D01*
X6107665Y-16066131D01*
X6093380Y-16080417D01*
X6407665Y-16251845D02*
X6379094Y-16237559D01*
X6364808Y-16223274D01*
X6350523Y-16194702D01*
X6350523Y-16108988D01*
X6364808Y-16080417D01*
X6379094Y-16066131D01*
X6407665Y-16051845D01*
X6450523Y-16051845D01*
X6479094Y-16066131D01*
X6493380Y-16080417D01*
X6507665Y-16108988D01*
X6507665Y-16194702D01*
X6493380Y-16223274D01*
X6479094Y-16237559D01*
X6450523Y-16251845D01*
X6407665Y-16251845D01*
X6679094Y-16251845D02*
X6650523Y-16237559D01*
X6636237Y-16208988D01*
X6636237Y-15951845D01*
X6907665Y-16237559D02*
X6879094Y-16251845D01*
X6821951Y-16251845D01*
X6793380Y-16237559D01*
X6779094Y-16208988D01*
X6779094Y-16094702D01*
X6793380Y-16066131D01*
X6821951Y-16051845D01*
X6879094Y-16051845D01*
X6907665Y-16066131D01*
X6921951Y-16094702D01*
X6921951Y-16123274D01*
X6779094Y-16151845D01*
X7036237Y-16237559D02*
X7064808Y-16251845D01*
X7121951Y-16251845D01*
X7150523Y-16237559D01*
X7164808Y-16208988D01*
X7164808Y-16194702D01*
X7150523Y-16166131D01*
X7121951Y-16151845D01*
X7079094Y-16151845D01*
X7050523Y-16137559D01*
X7036237Y-16108988D01*
X7036237Y-16094702D01*
X7050523Y-16066131D01*
X7079094Y-16051845D01*
X7121951Y-16051845D01*
X7150523Y-16066131D01*
X7264808Y-16366131D02*
X7279094Y-16351845D01*
X7307665Y-16308988D01*
X7321951Y-16280417D01*
X7336237Y-16237559D01*
X7350523Y-16166131D01*
X7350523Y-16108988D01*
X7336237Y-16037559D01*
X7321951Y-15994702D01*
X7307665Y-15966131D01*
X7279094Y-15923274D01*
X7264808Y-15908988D01*
X342666Y-16437131D02*
X492665Y-16587131D01*
X492665Y-16437131D02*
X342666Y-16587131D01*
X417665Y-16437131D02*
X417665Y-16587131D01*
X342666Y-16512131D02*
X492665Y-16512131D01*
X936237Y-16647845D02*
X764808Y-16647845D01*
X850523Y-16647845D02*
X850523Y-16347845D01*
X821951Y-16390702D01*
X793380Y-16419274D01*
X764808Y-16433559D01*
X1064808Y-16619274D02*
X1079094Y-16633559D01*
X1064808Y-16647845D01*
X1050523Y-16633559D01*
X1064808Y-16619274D01*
X1064808Y-16647845D01*
X1350523Y-16347845D02*
X1207666Y-16347845D01*
X1193380Y-16490702D01*
X1207666Y-16476417D01*
X1236237Y-16462131D01*
X1307666Y-16462131D01*
X1336237Y-16476417D01*
X1350523Y-16490702D01*
X1364808Y-16519274D01*
X1364808Y-16590702D01*
X1350523Y-16619274D01*
X1336237Y-16633559D01*
X1307666Y-16647845D01*
X1236237Y-16647845D01*
X1207666Y-16633559D01*
X1193380Y-16619274D01*
X1550523Y-16347845D02*
X1579094Y-16347845D01*
X1607665Y-16362131D01*
X1621951Y-16376417D01*
X1636237Y-16404988D01*
X1650523Y-16462131D01*
X1650523Y-16533559D01*
X1636237Y-16590702D01*
X1621951Y-16619274D01*
X1607665Y-16633559D01*
X1579094Y-16647845D01*
X1550523Y-16647845D01*
X1521951Y-16633559D01*
X1507665Y-16619274D01*
X1493380Y-16590702D01*
X1479094Y-16533559D01*
X1479094Y-16462131D01*
X1493380Y-16404988D01*
X1507665Y-16376417D01*
X1521951Y-16362131D01*
X1550523Y-16347845D01*
X1779094Y-16647845D02*
X1779094Y-16447845D01*
X1779094Y-16476417D02*
X1793380Y-16462131D01*
X1821951Y-16447845D01*
X1864808Y-16447845D01*
X1893380Y-16462131D01*
X1907665Y-16490702D01*
X1907665Y-16647845D01*
X1907665Y-16490702D02*
X1921951Y-16462131D01*
X1950523Y-16447845D01*
X1993380Y-16447845D01*
X2021951Y-16462131D01*
X2036237Y-16490702D01*
X2036237Y-16647845D01*
X2179094Y-16647845D02*
X2179094Y-16447845D01*
X2179094Y-16476417D02*
X2193380Y-16462131D01*
X2221951Y-16447845D01*
X2264808Y-16447845D01*
X2293380Y-16462131D01*
X2307666Y-16490702D01*
X2307666Y-16647845D01*
X2307666Y-16490702D02*
X2321951Y-16462131D01*
X2350523Y-16447845D01*
X2393380Y-16447845D01*
X2421951Y-16462131D01*
X2436237Y-16490702D01*
X2436237Y-16647845D01*
X3021951Y-16333559D02*
X2764808Y-16719274D01*
X3407665Y-16347845D02*
X3436237Y-16347845D01*
X3464808Y-16362131D01*
X3479094Y-16376417D01*
X3493380Y-16404988D01*
X3507665Y-16462131D01*
X3507665Y-16533559D01*
X3493380Y-16590702D01*
X3479094Y-16619274D01*
X3464808Y-16633559D01*
X3436237Y-16647845D01*
X3407665Y-16647845D01*
X3379094Y-16633559D01*
X3364808Y-16619274D01*
X3350523Y-16590702D01*
X3336237Y-16533559D01*
X3336237Y-16462131D01*
X3350523Y-16404988D01*
X3364808Y-16376417D01*
X3379094Y-16362131D01*
X3407665Y-16347845D01*
X3636237Y-16619274D02*
X3650523Y-16633559D01*
X3636237Y-16647845D01*
X3621951Y-16633559D01*
X3636237Y-16619274D01*
X3636237Y-16647845D01*
X3836237Y-16347845D02*
X3864808Y-16347845D01*
X3893380Y-16362131D01*
X3907665Y-16376417D01*
X3921951Y-16404988D01*
X3936237Y-16462131D01*
X3936237Y-16533559D01*
X3921951Y-16590702D01*
X3907665Y-16619274D01*
X3893380Y-16633559D01*
X3864808Y-16647845D01*
X3836237Y-16647845D01*
X3807665Y-16633559D01*
X3793380Y-16619274D01*
X3779094Y-16590702D01*
X3764808Y-16533559D01*
X3764808Y-16462131D01*
X3779094Y-16404988D01*
X3793380Y-16376417D01*
X3807665Y-16362131D01*
X3836237Y-16347845D01*
X4207666Y-16347845D02*
X4064808Y-16347845D01*
X4050523Y-16490702D01*
X4064808Y-16476417D01*
X4093380Y-16462131D01*
X4164808Y-16462131D01*
X4193380Y-16476417D01*
X4207666Y-16490702D01*
X4221951Y-16519274D01*
X4221951Y-16590702D01*
X4207666Y-16619274D01*
X4193380Y-16633559D01*
X4164808Y-16647845D01*
X4093380Y-16647845D01*
X4064808Y-16633559D01*
X4050523Y-16619274D01*
X4364808Y-16647845D02*
X4421951Y-16647845D01*
X4450523Y-16633559D01*
X4464808Y-16619274D01*
X4493380Y-16576417D01*
X4507665Y-16519274D01*
X4507665Y-16404988D01*
X4493380Y-16376417D01*
X4479094Y-16362131D01*
X4450523Y-16347845D01*
X4393380Y-16347845D01*
X4364808Y-16362131D01*
X4350523Y-16376417D01*
X4336237Y-16404988D01*
X4336237Y-16476417D01*
X4350523Y-16504988D01*
X4364808Y-16519274D01*
X4393380Y-16533559D01*
X4450523Y-16533559D01*
X4479094Y-16519274D01*
X4493380Y-16504988D01*
X4507665Y-16476417D01*
X4621951Y-16347845D02*
X4621951Y-16404988D01*
X4736237Y-16347845D02*
X4736237Y-16404988D01*
X5179094Y-16762131D02*
X5164808Y-16747845D01*
X5136237Y-16704988D01*
X5121951Y-16676417D01*
X5107665Y-16633559D01*
X5093380Y-16562131D01*
X5093380Y-16504988D01*
X5107665Y-16433559D01*
X5121951Y-16390702D01*
X5136237Y-16362131D01*
X5164808Y-16319274D01*
X5179094Y-16304988D01*
X5307665Y-16647845D02*
X5364808Y-16647845D01*
X5393380Y-16633559D01*
X5407665Y-16619274D01*
X5436237Y-16576417D01*
X5450523Y-16519274D01*
X5450523Y-16404988D01*
X5436237Y-16376417D01*
X5421951Y-16362131D01*
X5393380Y-16347845D01*
X5336237Y-16347845D01*
X5307665Y-16362131D01*
X5293380Y-16376417D01*
X5279094Y-16404988D01*
X5279094Y-16476417D01*
X5293380Y-16504988D01*
X5307665Y-16519274D01*
X5336237Y-16533559D01*
X5393380Y-16533559D01*
X5421951Y-16519274D01*
X5436237Y-16504988D01*
X5450523Y-16476417D01*
X5707665Y-16347845D02*
X5650523Y-16347845D01*
X5621951Y-16362131D01*
X5607665Y-16376417D01*
X5579094Y-16419274D01*
X5564808Y-16476417D01*
X5564808Y-16590702D01*
X5579094Y-16619274D01*
X5593380Y-16633559D01*
X5621951Y-16647845D01*
X5679094Y-16647845D01*
X5707665Y-16633559D01*
X5721951Y-16619274D01*
X5736237Y-16590702D01*
X5736237Y-16519274D01*
X5721951Y-16490702D01*
X5707665Y-16476417D01*
X5679094Y-16462131D01*
X5621951Y-16462131D01*
X5593380Y-16476417D01*
X5579094Y-16490702D01*
X5564808Y-16519274D01*
X6093380Y-16647845D02*
X6093380Y-16347845D01*
X6221951Y-16647845D02*
X6221951Y-16490702D01*
X6207665Y-16462131D01*
X6179094Y-16447845D01*
X6136237Y-16447845D01*
X6107665Y-16462131D01*
X6093380Y-16476417D01*
X6407665Y-16647845D02*
X6379094Y-16633559D01*
X6364808Y-16619274D01*
X6350523Y-16590702D01*
X6350523Y-16504988D01*
X6364808Y-16476417D01*
X6379094Y-16462131D01*
X6407665Y-16447845D01*
X6450523Y-16447845D01*
X6479094Y-16462131D01*
X6493380Y-16476417D01*
X6507665Y-16504988D01*
X6507665Y-16590702D01*
X6493380Y-16619274D01*
X6479094Y-16633559D01*
X6450523Y-16647845D01*
X6407665Y-16647845D01*
X6679094Y-16647845D02*
X6650523Y-16633559D01*
X6636237Y-16604988D01*
X6636237Y-16347845D01*
X6907665Y-16633559D02*
X6879094Y-16647845D01*
X6821951Y-16647845D01*
X6793380Y-16633559D01*
X6779094Y-16604988D01*
X6779094Y-16490702D01*
X6793380Y-16462131D01*
X6821951Y-16447845D01*
X6879094Y-16447845D01*
X6907665Y-16462131D01*
X6921951Y-16490702D01*
X6921951Y-16519274D01*
X6779094Y-16547845D01*
X7036237Y-16633559D02*
X7064808Y-16647845D01*
X7121951Y-16647845D01*
X7150523Y-16633559D01*
X7164808Y-16604988D01*
X7164808Y-16590702D01*
X7150523Y-16562131D01*
X7121951Y-16547845D01*
X7079094Y-16547845D01*
X7050523Y-16533559D01*
X7036237Y-16504988D01*
X7036237Y-16490702D01*
X7050523Y-16462131D01*
X7079094Y-16447845D01*
X7121951Y-16447845D01*
X7150523Y-16462131D01*
X7521951Y-16533559D02*
X7750523Y-16533559D01*
X7636237Y-16647845D02*
X7636237Y-16419274D01*
X8250523Y-16447845D02*
X8250523Y-16647845D01*
X8179094Y-16333559D02*
X8107665Y-16547845D01*
X8293380Y-16547845D01*
X8450523Y-16476417D02*
X8421951Y-16462131D01*
X8407666Y-16447845D01*
X8393380Y-16419274D01*
X8393380Y-16404988D01*
X8407666Y-16376417D01*
X8421951Y-16362131D01*
X8450523Y-16347845D01*
X8507666Y-16347845D01*
X8536237Y-16362131D01*
X8550523Y-16376417D01*
X8564808Y-16404988D01*
X8564808Y-16419274D01*
X8550523Y-16447845D01*
X8536237Y-16462131D01*
X8507666Y-16476417D01*
X8450523Y-16476417D01*
X8421951Y-16490702D01*
X8407666Y-16504988D01*
X8393380Y-16533559D01*
X8393380Y-16590702D01*
X8407666Y-16619274D01*
X8421951Y-16633559D01*
X8450523Y-16647845D01*
X8507666Y-16647845D01*
X8536237Y-16633559D01*
X8550523Y-16619274D01*
X8564808Y-16590702D01*
X8564808Y-16533559D01*
X8550523Y-16504988D01*
X8536237Y-16490702D01*
X8507666Y-16476417D01*
X8907665Y-16633559D02*
X8936237Y-16647845D01*
X8993380Y-16647845D01*
X9021951Y-16633559D01*
X9036237Y-16604988D01*
X9036237Y-16590702D01*
X9021951Y-16562131D01*
X8993380Y-16547845D01*
X8950523Y-16547845D01*
X8921951Y-16533559D01*
X8907665Y-16504988D01*
X8907665Y-16490702D01*
X8921951Y-16462131D01*
X8950523Y-16447845D01*
X8993380Y-16447845D01*
X9021951Y-16462131D01*
X9207666Y-16647845D02*
X9179094Y-16633559D01*
X9164808Y-16604988D01*
X9164808Y-16347845D01*
X9364808Y-16647845D02*
X9336237Y-16633559D01*
X9321951Y-16619274D01*
X9307665Y-16590702D01*
X9307665Y-16504988D01*
X9321951Y-16476417D01*
X9336237Y-16462131D01*
X9364808Y-16447845D01*
X9407665Y-16447845D01*
X9436237Y-16462131D01*
X9450523Y-16476417D01*
X9464808Y-16504988D01*
X9464808Y-16590702D01*
X9450523Y-16619274D01*
X9436237Y-16633559D01*
X9407665Y-16647845D01*
X9364808Y-16647845D01*
X9550523Y-16447845D02*
X9664808Y-16447845D01*
X9593380Y-16347845D02*
X9593380Y-16604988D01*
X9607665Y-16633559D01*
X9636237Y-16647845D01*
X9664808Y-16647845D01*
X9750523Y-16633559D02*
X9779094Y-16647845D01*
X9836237Y-16647845D01*
X9864808Y-16633559D01*
X9879094Y-16604988D01*
X9879094Y-16590702D01*
X9864808Y-16562131D01*
X9836237Y-16547845D01*
X9793380Y-16547845D01*
X9764808Y-16533559D01*
X9750523Y-16504988D01*
X9750523Y-16490702D01*
X9764808Y-16462131D01*
X9793380Y-16447845D01*
X9836237Y-16447845D01*
X9864808Y-16462131D01*
X9979094Y-16762131D02*
X9993380Y-16747845D01*
X10021951Y-16704988D01*
X10036237Y-16676417D01*
X10050523Y-16633559D01*
X10064808Y-16562131D01*
X10064808Y-16504988D01*
X10050523Y-16433559D01*
X10036237Y-16390702D01*
X10021951Y-16362131D01*
X9993380Y-16319274D01*
X9979094Y-16304988D01*
X242665Y-16783131D02*
X492665Y-17033131D01*
X492665Y-16783131D02*
X242665Y-17033131D01*
X456055Y-16996520D02*
X456055Y-16819742D01*
X279276Y-16819742D01*
X279276Y-16996520D01*
X456055Y-16996520D01*
X764808Y-16772417D02*
X779094Y-16758131D01*
X807665Y-16743845D01*
X879094Y-16743845D01*
X907665Y-16758131D01*
X921951Y-16772417D01*
X936237Y-16800988D01*
X936237Y-16829559D01*
X921951Y-16872417D01*
X750523Y-17043845D01*
X936237Y-17043845D01*
X1064808Y-17015274D02*
X1079094Y-17029559D01*
X1064808Y-17043845D01*
X1050523Y-17029559D01*
X1064808Y-17015274D01*
X1064808Y-17043845D01*
X1350523Y-16743845D02*
X1207666Y-16743845D01*
X1193380Y-16886702D01*
X1207666Y-16872417D01*
X1236237Y-16858131D01*
X1307666Y-16858131D01*
X1336237Y-16872417D01*
X1350523Y-16886702D01*
X1364808Y-16915274D01*
X1364808Y-16986702D01*
X1350523Y-17015274D01*
X1336237Y-17029559D01*
X1307666Y-17043845D01*
X1236237Y-17043845D01*
X1207666Y-17029559D01*
X1193380Y-17015274D01*
X1550523Y-16743845D02*
X1579094Y-16743845D01*
X1607665Y-16758131D01*
X1621951Y-16772417D01*
X1636237Y-16800988D01*
X1650523Y-16858131D01*
X1650523Y-16929559D01*
X1636237Y-16986702D01*
X1621951Y-17015274D01*
X1607665Y-17029559D01*
X1579094Y-17043845D01*
X1550523Y-17043845D01*
X1521951Y-17029559D01*
X1507665Y-17015274D01*
X1493380Y-16986702D01*
X1479094Y-16929559D01*
X1479094Y-16858131D01*
X1493380Y-16800988D01*
X1507665Y-16772417D01*
X1521951Y-16758131D01*
X1550523Y-16743845D01*
X1779094Y-17043845D02*
X1779094Y-16843845D01*
X1779094Y-16872417D02*
X1793380Y-16858131D01*
X1821951Y-16843845D01*
X1864808Y-16843845D01*
X1893380Y-16858131D01*
X1907665Y-16886702D01*
X1907665Y-17043845D01*
X1907665Y-16886702D02*
X1921951Y-16858131D01*
X1950523Y-16843845D01*
X1993380Y-16843845D01*
X2021951Y-16858131D01*
X2036237Y-16886702D01*
X2036237Y-17043845D01*
X2179094Y-17043845D02*
X2179094Y-16843845D01*
X2179094Y-16872417D02*
X2193380Y-16858131D01*
X2221951Y-16843845D01*
X2264808Y-16843845D01*
X2293380Y-16858131D01*
X2307666Y-16886702D01*
X2307666Y-17043845D01*
X2307666Y-16886702D02*
X2321951Y-16858131D01*
X2350523Y-16843845D01*
X2393380Y-16843845D01*
X2421951Y-16858131D01*
X2436237Y-16886702D01*
X2436237Y-17043845D01*
X3021951Y-16729559D02*
X2764808Y-17115274D01*
X3407665Y-16743845D02*
X3436237Y-16743845D01*
X3464808Y-16758131D01*
X3479094Y-16772417D01*
X3493380Y-16800988D01*
X3507665Y-16858131D01*
X3507665Y-16929559D01*
X3493380Y-16986702D01*
X3479094Y-17015274D01*
X3464808Y-17029559D01*
X3436237Y-17043845D01*
X3407665Y-17043845D01*
X3379094Y-17029559D01*
X3364808Y-17015274D01*
X3350523Y-16986702D01*
X3336237Y-16929559D01*
X3336237Y-16858131D01*
X3350523Y-16800988D01*
X3364808Y-16772417D01*
X3379094Y-16758131D01*
X3407665Y-16743845D01*
X3636237Y-17015274D02*
X3650523Y-17029559D01*
X3636237Y-17043845D01*
X3621951Y-17029559D01*
X3636237Y-17015274D01*
X3636237Y-17043845D01*
X3836237Y-16743845D02*
X3864808Y-16743845D01*
X3893380Y-16758131D01*
X3907665Y-16772417D01*
X3921951Y-16800988D01*
X3936237Y-16858131D01*
X3936237Y-16929559D01*
X3921951Y-16986702D01*
X3907665Y-17015274D01*
X3893380Y-17029559D01*
X3864808Y-17043845D01*
X3836237Y-17043845D01*
X3807665Y-17029559D01*
X3793380Y-17015274D01*
X3779094Y-16986702D01*
X3764808Y-16929559D01*
X3764808Y-16858131D01*
X3779094Y-16800988D01*
X3793380Y-16772417D01*
X3807665Y-16758131D01*
X3836237Y-16743845D01*
X4079094Y-17043845D02*
X4136237Y-17043845D01*
X4164808Y-17029559D01*
X4179094Y-17015274D01*
X4207666Y-16972417D01*
X4221951Y-16915274D01*
X4221951Y-16800988D01*
X4207666Y-16772417D01*
X4193380Y-16758131D01*
X4164808Y-16743845D01*
X4107665Y-16743845D01*
X4079094Y-16758131D01*
X4064808Y-16772417D01*
X4050523Y-16800988D01*
X4050523Y-16872417D01*
X4064808Y-16900988D01*
X4079094Y-16915274D01*
X4107665Y-16929559D01*
X4164808Y-16929559D01*
X4193380Y-16915274D01*
X4207666Y-16900988D01*
X4221951Y-16872417D01*
X4393380Y-16872417D02*
X4364808Y-16858131D01*
X4350523Y-16843845D01*
X4336237Y-16815274D01*
X4336237Y-16800988D01*
X4350523Y-16772417D01*
X4364808Y-16758131D01*
X4393380Y-16743845D01*
X4450523Y-16743845D01*
X4479094Y-16758131D01*
X4493380Y-16772417D01*
X4507665Y-16800988D01*
X4507665Y-16815274D01*
X4493380Y-16843845D01*
X4479094Y-16858131D01*
X4450523Y-16872417D01*
X4393380Y-16872417D01*
X4364808Y-16886702D01*
X4350523Y-16900988D01*
X4336237Y-16929559D01*
X4336237Y-16986702D01*
X4350523Y-17015274D01*
X4364808Y-17029559D01*
X4393380Y-17043845D01*
X4450523Y-17043845D01*
X4479094Y-17029559D01*
X4493380Y-17015274D01*
X4507665Y-16986702D01*
X4507665Y-16929559D01*
X4493380Y-16900988D01*
X4479094Y-16886702D01*
X4450523Y-16872417D01*
X4621951Y-16743845D02*
X4621951Y-16800988D01*
X4736237Y-16743845D02*
X4736237Y-16800988D01*
X5179094Y-17158131D02*
X5164808Y-17143845D01*
X5136237Y-17100988D01*
X5121951Y-17072417D01*
X5107665Y-17029559D01*
X5093380Y-16958131D01*
X5093380Y-16900988D01*
X5107665Y-16829559D01*
X5121951Y-16786702D01*
X5136237Y-16758131D01*
X5164808Y-16715274D01*
X5179094Y-16700988D01*
X5450523Y-17043845D02*
X5279094Y-17043845D01*
X5364808Y-17043845D02*
X5364808Y-16743845D01*
X5336237Y-16786702D01*
X5307665Y-16815274D01*
X5279094Y-16829559D01*
X5807665Y-17043845D02*
X5807665Y-16743845D01*
X5936237Y-17043845D02*
X5936237Y-16886702D01*
X5921951Y-16858131D01*
X5893380Y-16843845D01*
X5850523Y-16843845D01*
X5821951Y-16858131D01*
X5807665Y-16872417D01*
X6121951Y-17043845D02*
X6093380Y-17029559D01*
X6079094Y-17015274D01*
X6064808Y-16986702D01*
X6064808Y-16900988D01*
X6079094Y-16872417D01*
X6093380Y-16858131D01*
X6121951Y-16843845D01*
X6164808Y-16843845D01*
X6193380Y-16858131D01*
X6207665Y-16872417D01*
X6221951Y-16900988D01*
X6221951Y-16986702D01*
X6207665Y-17015274D01*
X6193380Y-17029559D01*
X6164808Y-17043845D01*
X6121951Y-17043845D01*
X6393380Y-17043845D02*
X6364808Y-17029559D01*
X6350523Y-17000988D01*
X6350523Y-16743845D01*
X6621951Y-17029559D02*
X6593380Y-17043845D01*
X6536237Y-17043845D01*
X6507665Y-17029559D01*
X6493380Y-17000988D01*
X6493380Y-16886702D01*
X6507665Y-16858131D01*
X6536237Y-16843845D01*
X6593380Y-16843845D01*
X6621951Y-16858131D01*
X6636237Y-16886702D01*
X6636237Y-16915274D01*
X6493380Y-16943845D01*
X6750523Y-17029559D02*
X6779094Y-17043845D01*
X6836237Y-17043845D01*
X6864808Y-17029559D01*
X6879094Y-17000988D01*
X6879094Y-16986702D01*
X6864808Y-16958131D01*
X6836237Y-16943845D01*
X6793380Y-16943845D01*
X6764808Y-16929559D01*
X6750523Y-16900988D01*
X6750523Y-16886702D01*
X6764808Y-16858131D01*
X6793380Y-16843845D01*
X6836237Y-16843845D01*
X6864808Y-16858131D01*
X7236237Y-16929559D02*
X7464808Y-16929559D01*
X7350523Y-17043845D02*
X7350523Y-16815274D01*
X7964808Y-16843845D02*
X7964808Y-17043845D01*
X7893380Y-16729559D02*
X7821951Y-16943845D01*
X8007665Y-16943845D01*
X8336237Y-17029559D02*
X8364808Y-17043845D01*
X8421951Y-17043845D01*
X8450523Y-17029559D01*
X8464808Y-17000988D01*
X8464808Y-16986702D01*
X8450523Y-16958131D01*
X8421951Y-16943845D01*
X8379094Y-16943845D01*
X8350523Y-16929559D01*
X8336237Y-16900988D01*
X8336237Y-16886702D01*
X8350523Y-16858131D01*
X8379094Y-16843845D01*
X8421951Y-16843845D01*
X8450523Y-16858131D01*
X8636237Y-17043845D02*
X8607665Y-17029559D01*
X8593380Y-17000988D01*
X8593380Y-16743845D01*
X8793380Y-17043845D02*
X8764808Y-17029559D01*
X8750523Y-17015274D01*
X8736237Y-16986702D01*
X8736237Y-16900988D01*
X8750523Y-16872417D01*
X8764808Y-16858131D01*
X8793380Y-16843845D01*
X8836237Y-16843845D01*
X8864808Y-16858131D01*
X8879094Y-16872417D01*
X8893380Y-16900988D01*
X8893380Y-16986702D01*
X8879094Y-17015274D01*
X8864808Y-17029559D01*
X8836237Y-17043845D01*
X8793380Y-17043845D01*
X8979094Y-16843845D02*
X9093380Y-16843845D01*
X9021951Y-16743845D02*
X9021951Y-17000988D01*
X9036237Y-17029559D01*
X9064808Y-17043845D01*
X9093380Y-17043845D01*
X9179094Y-17029559D02*
X9207665Y-17043845D01*
X9264808Y-17043845D01*
X9293380Y-17029559D01*
X9307665Y-17000988D01*
X9307665Y-16986702D01*
X9293380Y-16958131D01*
X9264808Y-16943845D01*
X9221951Y-16943845D01*
X9193380Y-16929559D01*
X9179094Y-16900988D01*
X9179094Y-16886702D01*
X9193380Y-16858131D01*
X9221951Y-16843845D01*
X9264808Y-16843845D01*
X9293380Y-16858131D01*
X9407666Y-17158131D02*
X9421951Y-17143845D01*
X9450523Y-17100988D01*
X9464808Y-17072417D01*
X9479094Y-17029559D01*
X9493380Y-16958131D01*
X9493380Y-16900988D01*
X9479094Y-16829559D01*
X9464808Y-16786702D01*
X9450523Y-16758131D01*
X9421951Y-16715274D01*
X9407666Y-16700988D01*
M02*
