G04 #@! TF.GenerationSoftware,KiCad,Pcbnew,(5.1.5-0-10_14)*
G04 #@! TF.CreationDate,2021-08-24T10:05:46-04:00*
G04 #@! TF.ProjectId,Laptreus-v3,4c617074-7265-4757-932d-76332e6b6963,rev?*
G04 #@! TF.SameCoordinates,Original*
G04 #@! TF.FileFunction,Paste,Top*
G04 #@! TF.FilePolarity,Positive*
%FSLAX46Y46*%
G04 Gerber Fmt 4.6, Leading zero omitted, Abs format (unit mm)*
G04 Created by KiCad (PCBNEW (5.1.5-0-10_14)) date 2021-08-24 10:05:46*
%MOMM*%
%LPD*%
G04 APERTURE LIST*
%ADD10C,0.100000*%
G04 APERTURE END LIST*
D10*
G36*
X270961818Y-82617105D02*
G01*
X270527698Y-80155086D01*
X273038958Y-79712283D01*
X273473078Y-82174302D01*
X270961818Y-82617105D01*
G37*
G36*
X284638701Y-82784685D02*
G01*
X284204581Y-80322666D01*
X286715841Y-79879863D01*
X287149961Y-82341882D01*
X284638701Y-82784685D01*
G37*
G36*
X9582873Y-80027898D02*
G01*
X10016993Y-77565879D01*
X12528253Y-78008682D01*
X12094133Y-80470701D01*
X9582873Y-80027898D01*
G37*
G36*
X22377622Y-84863141D02*
G01*
X22811742Y-82401122D01*
X25323002Y-82843925D01*
X24888882Y-85305944D01*
X22377622Y-84863141D01*
G37*
G36*
X283591995Y-68853515D02*
G01*
X284026115Y-71315534D01*
X281514855Y-71758337D01*
X281080735Y-69296318D01*
X283591995Y-68853515D01*
G37*
G36*
X269915112Y-68685935D02*
G01*
X270349232Y-71147954D01*
X267837972Y-71590757D01*
X267403852Y-69128738D01*
X269915112Y-68685935D01*
G37*
G36*
X32480414Y-74570217D02*
G01*
X32688792Y-73388448D01*
X34264484Y-73666285D01*
X34056106Y-74848054D01*
X32480414Y-74570217D01*
G37*
G36*
X35237876Y-75056431D02*
G01*
X35446254Y-73874662D01*
X37021946Y-74152499D01*
X36813568Y-75334268D01*
X35237876Y-75056431D01*
G37*
G36*
X218665787Y-115440012D02*
G01*
X217484018Y-115648390D01*
X217206181Y-114072698D01*
X218387950Y-113864320D01*
X218665787Y-115440012D01*
G37*
G36*
X218179573Y-112682550D02*
G01*
X216997804Y-112890928D01*
X216719967Y-111315236D01*
X217901736Y-111106858D01*
X218179573Y-112682550D01*
G37*
G36*
X199905199Y-118748010D02*
G01*
X198723430Y-118956388D01*
X198445593Y-117380696D01*
X199627362Y-117172318D01*
X199905199Y-118748010D01*
G37*
G36*
X199418985Y-115990548D02*
G01*
X198237216Y-116198926D01*
X197959379Y-114623234D01*
X199141148Y-114414856D01*
X199418985Y-115990548D01*
G37*
G36*
X181074941Y-126060984D02*
G01*
X180155687Y-126832329D01*
X179127227Y-125606658D01*
X180046481Y-124835313D01*
X181074941Y-126060984D01*
G37*
G36*
X179275135Y-123916060D02*
G01*
X178355881Y-124687405D01*
X177327421Y-123461734D01*
X178246675Y-122690389D01*
X179275135Y-123916060D01*
G37*
G36*
X162129845Y-115903013D02*
G01*
X161245112Y-116713721D01*
X160164167Y-115534077D01*
X161048900Y-114723369D01*
X162129845Y-115903013D01*
G37*
G36*
X160238193Y-113838637D02*
G01*
X159353460Y-114649345D01*
X158272515Y-113469701D01*
X159157248Y-112658993D01*
X160238193Y-113838637D01*
G37*
G36*
X121482248Y-106388721D02*
G01*
X120597515Y-105578013D01*
X121678460Y-104398369D01*
X122563193Y-105209077D01*
X121482248Y-106388721D01*
G37*
G36*
X123373900Y-104324345D02*
G01*
X122489167Y-103513637D01*
X123570112Y-102333993D01*
X124454845Y-103144701D01*
X123373900Y-104324345D01*
G37*
G36*
X102571673Y-116407329D02*
G01*
X101652419Y-115635984D01*
X102680879Y-114410313D01*
X103600133Y-115181658D01*
X102571673Y-116407329D01*
G37*
G36*
X104371479Y-114262405D02*
G01*
X103452225Y-113491060D01*
X104480685Y-112265389D01*
X105399939Y-113036734D01*
X104371479Y-114262405D01*
G37*
G36*
X80460039Y-116082125D02*
G01*
X79278270Y-115873747D01*
X79556107Y-114298055D01*
X80737876Y-114506433D01*
X80460039Y-116082125D01*
G37*
G36*
X80946253Y-113324663D02*
G01*
X79764484Y-113116285D01*
X80042321Y-111540593D01*
X81224090Y-111748971D01*
X80946253Y-113324663D01*
G37*
G36*
X61688702Y-112755818D02*
G01*
X60506933Y-112547440D01*
X60784770Y-110971748D01*
X61966539Y-111180126D01*
X61688702Y-112755818D01*
G37*
G36*
X62174916Y-109998356D02*
G01*
X60993147Y-109789978D01*
X61270984Y-108214286D01*
X62452753Y-108422664D01*
X62174916Y-109998356D01*
G37*
G36*
X42928113Y-109447820D02*
G01*
X41746344Y-109239442D01*
X42024181Y-107663750D01*
X43205950Y-107872128D01*
X42928113Y-109447820D01*
G37*
G36*
X43414327Y-106690358D02*
G01*
X42232558Y-106481980D01*
X42510395Y-104906288D01*
X43692164Y-105114666D01*
X43414327Y-106690358D01*
G37*
G36*
X24167528Y-106139820D02*
G01*
X22985759Y-105931442D01*
X23263596Y-104355750D01*
X24445365Y-104564128D01*
X24167528Y-106139820D01*
G37*
G36*
X24653742Y-103382358D02*
G01*
X23471973Y-103173980D01*
X23749810Y-101598288D01*
X24931579Y-101806666D01*
X24653742Y-103382358D01*
G37*
G36*
X28285041Y-75707124D02*
G01*
X27103272Y-75498746D01*
X27381109Y-73923054D01*
X28562878Y-74131432D01*
X28285041Y-75707124D01*
G37*
G36*
X28771255Y-72949662D02*
G01*
X27589486Y-72741284D01*
X27867323Y-71165592D01*
X29049092Y-71373970D01*
X28771255Y-72949662D01*
G37*
G36*
X272199088Y-89873747D02*
G01*
X271017319Y-90082125D01*
X270739482Y-88506433D01*
X271921251Y-88298055D01*
X272199088Y-89873747D01*
G37*
G36*
X271712874Y-87116285D02*
G01*
X270531105Y-87324663D01*
X270253268Y-85748971D01*
X271435037Y-85540593D01*
X271712874Y-87116285D01*
G37*
G36*
X252878965Y-90063430D02*
G01*
X251697196Y-90271808D01*
X251419359Y-88696116D01*
X252601128Y-88487738D01*
X252878965Y-90063430D01*
G37*
G36*
X252392751Y-87305968D02*
G01*
X251210982Y-87514346D01*
X250933145Y-85938654D01*
X252114914Y-85730276D01*
X252392751Y-87305968D01*
G37*
G36*
X233567046Y-90244665D02*
G01*
X232385277Y-90453043D01*
X232107440Y-88877351D01*
X233289209Y-88668973D01*
X233567046Y-90244665D01*
G37*
G36*
X233080832Y-87487203D02*
G01*
X231899063Y-87695581D01*
X231621226Y-86119889D01*
X232802995Y-85911511D01*
X233080832Y-87487203D01*
G37*
G36*
X214255121Y-90425897D02*
G01*
X213073352Y-90634275D01*
X212795515Y-89058583D01*
X213977284Y-88850205D01*
X214255121Y-90425897D01*
G37*
G36*
X213768907Y-87668435D02*
G01*
X212587138Y-87876813D01*
X212309301Y-86301121D01*
X213491070Y-86092743D01*
X213768907Y-87668435D01*
G37*
G36*
X196045870Y-96860659D02*
G01*
X194864101Y-97069037D01*
X194586264Y-95493345D01*
X195768033Y-95284967D01*
X196045870Y-96860659D01*
G37*
G36*
X195559656Y-94103197D02*
G01*
X194377887Y-94311575D01*
X194100050Y-92735883D01*
X195281819Y-92527505D01*
X195559656Y-94103197D01*
G37*
G36*
X177285282Y-100168658D02*
G01*
X176103513Y-100377036D01*
X175825676Y-98801344D01*
X177007445Y-98592966D01*
X177285282Y-100168658D01*
G37*
G36*
X176799068Y-97411196D02*
G01*
X175617299Y-97619574D01*
X175339462Y-96043882D01*
X176521231Y-95835504D01*
X176799068Y-97411196D01*
G37*
G36*
X103069209Y-97484459D02*
G01*
X101887440Y-97276081D01*
X102165277Y-95700389D01*
X103347046Y-95908767D01*
X103069209Y-97484459D01*
G37*
G36*
X103555423Y-94726997D02*
G01*
X102373654Y-94518619D01*
X102651491Y-92942927D01*
X103833260Y-93151305D01*
X103555423Y-94726997D01*
G37*
G36*
X84308622Y-94176461D02*
G01*
X83126853Y-93968083D01*
X83404690Y-92392391D01*
X84586459Y-92600769D01*
X84308622Y-94176461D01*
G37*
G36*
X84794836Y-91418999D02*
G01*
X83613067Y-91210621D01*
X83890904Y-89634929D01*
X85072673Y-89843307D01*
X84794836Y-91418999D01*
G37*
G36*
X66099363Y-87741698D02*
G01*
X64917594Y-87533320D01*
X65195431Y-85957628D01*
X66377200Y-86166006D01*
X66099363Y-87741698D01*
G37*
G36*
X66585577Y-84984236D02*
G01*
X65403808Y-84775858D01*
X65681645Y-83200166D01*
X66863414Y-83408544D01*
X66585577Y-84984236D01*
G37*
G36*
X46787442Y-87560467D02*
G01*
X45605673Y-87352089D01*
X45883510Y-85776397D01*
X47065279Y-85984775D01*
X46787442Y-87560467D01*
G37*
G36*
X47273656Y-84803005D02*
G01*
X46091887Y-84594627D01*
X46369724Y-83018935D01*
X47551493Y-83227313D01*
X47273656Y-84803005D01*
G37*
G36*
X27485041Y-87407125D02*
G01*
X26303272Y-87198747D01*
X26581109Y-85623055D01*
X27762878Y-85831433D01*
X27485041Y-87407125D01*
G37*
G36*
X27971255Y-84649663D02*
G01*
X26789486Y-84441285D01*
X27067323Y-82865593D01*
X28249092Y-83073971D01*
X27971255Y-84649663D01*
G37*
G36*
X8260039Y-86606766D02*
G01*
X7078270Y-86398388D01*
X7356107Y-84822696D01*
X8537876Y-85031074D01*
X8260039Y-86606766D01*
G37*
G36*
X8746253Y-83849304D02*
G01*
X7564484Y-83640926D01*
X7842321Y-82065234D01*
X9024090Y-82273612D01*
X8746253Y-83849304D01*
G37*
G36*
X256186962Y-108824018D02*
G01*
X255005193Y-109032396D01*
X254727356Y-107456704D01*
X255909125Y-107248326D01*
X256186962Y-108824018D01*
G37*
G36*
X255700748Y-106066556D02*
G01*
X254518979Y-106274934D01*
X254241142Y-104699242D01*
X255422911Y-104490864D01*
X255700748Y-106066556D01*
G37*
G36*
X237426375Y-112132016D02*
G01*
X236244606Y-112340394D01*
X235966769Y-110764702D01*
X237148538Y-110556324D01*
X237426375Y-112132016D01*
G37*
G36*
X236940161Y-109374554D02*
G01*
X235758392Y-109582932D01*
X235480555Y-108007240D01*
X236662324Y-107798862D01*
X236940161Y-109374554D01*
G37*
G36*
X265574891Y-52361021D02*
G01*
X264393122Y-52569399D01*
X264115285Y-50993707D01*
X265297054Y-50785329D01*
X265574891Y-52361021D01*
G37*
G36*
X265088677Y-49603559D02*
G01*
X263906908Y-49811937D01*
X263629071Y-48236245D01*
X264810840Y-48027867D01*
X265088677Y-49603559D01*
G37*
G36*
X246262969Y-52542254D02*
G01*
X245081200Y-52750632D01*
X244803363Y-51174940D01*
X245985132Y-50966562D01*
X246262969Y-52542254D01*
G37*
G36*
X245776755Y-49784792D02*
G01*
X244594986Y-49993170D01*
X244317149Y-48417478D01*
X245498918Y-48209100D01*
X245776755Y-49784792D01*
G37*
G36*
X226951047Y-52723487D02*
G01*
X225769278Y-52931865D01*
X225491441Y-51356173D01*
X226673210Y-51147795D01*
X226951047Y-52723487D01*
G37*
G36*
X226464833Y-49966025D02*
G01*
X225283064Y-50174403D01*
X225005227Y-48598711D01*
X226186996Y-48390333D01*
X226464833Y-49966025D01*
G37*
G36*
X207639127Y-52904721D02*
G01*
X206457358Y-53113099D01*
X206179521Y-51537407D01*
X207361290Y-51329029D01*
X207639127Y-52904721D01*
G37*
G36*
X207152913Y-50147259D02*
G01*
X205971144Y-50355637D01*
X205693307Y-48779945D01*
X206875076Y-48571567D01*
X207152913Y-50147259D01*
G37*
G36*
X189429875Y-59339483D02*
G01*
X188248106Y-59547861D01*
X187970269Y-57972169D01*
X189152038Y-57763791D01*
X189429875Y-59339483D01*
G37*
G36*
X188943661Y-56582021D02*
G01*
X187761892Y-56790399D01*
X187484055Y-55214707D01*
X188665824Y-55006329D01*
X188943661Y-56582021D01*
G37*
G36*
X170669285Y-62647483D02*
G01*
X169487516Y-62855861D01*
X169209679Y-61280169D01*
X170391448Y-61071791D01*
X170669285Y-62647483D01*
G37*
G36*
X170183071Y-59890021D02*
G01*
X169001302Y-60098399D01*
X168723465Y-58522707D01*
X169905234Y-58314329D01*
X170183071Y-59890021D01*
G37*
G36*
X109685203Y-59963285D02*
G01*
X108503434Y-59754907D01*
X108781271Y-58179215D01*
X109963040Y-58387593D01*
X109685203Y-59963285D01*
G37*
G36*
X110171417Y-57205823D02*
G01*
X108989648Y-56997445D01*
X109267485Y-55421753D01*
X110449254Y-55630131D01*
X110171417Y-57205823D01*
G37*
G36*
X90924616Y-56655285D02*
G01*
X89742847Y-56446907D01*
X90020684Y-54871215D01*
X91202453Y-55079593D01*
X90924616Y-56655285D01*
G37*
G36*
X91410830Y-53897823D02*
G01*
X90229061Y-53689445D01*
X90506898Y-52113753D01*
X91688667Y-52322131D01*
X91410830Y-53897823D01*
G37*
G36*
X72715361Y-50220525D02*
G01*
X71533592Y-50012147D01*
X71811429Y-48436455D01*
X72993198Y-48644833D01*
X72715361Y-50220525D01*
G37*
G36*
X73201575Y-47463063D02*
G01*
X72019806Y-47254685D01*
X72297643Y-45678993D01*
X73479412Y-45887371D01*
X73201575Y-47463063D01*
G37*
G36*
X53403440Y-50039289D02*
G01*
X52221671Y-49830911D01*
X52499508Y-48255219D01*
X53681277Y-48463597D01*
X53403440Y-50039289D01*
G37*
G36*
X53889654Y-47281827D02*
G01*
X52707885Y-47073449D01*
X52985722Y-45497757D01*
X54167491Y-45706135D01*
X53889654Y-47281827D01*
G37*
G36*
X34091518Y-49858061D02*
G01*
X32909749Y-49649683D01*
X33187586Y-48073991D01*
X34369355Y-48282369D01*
X34091518Y-49858061D01*
G37*
G36*
X34577732Y-47100599D02*
G01*
X33395963Y-46892221D01*
X33673800Y-45316529D01*
X34855569Y-45524907D01*
X34577732Y-47100599D01*
G37*
G36*
X14779597Y-49676824D02*
G01*
X13597828Y-49468446D01*
X13875665Y-47892754D01*
X15057434Y-48101132D01*
X14779597Y-49676824D01*
G37*
G36*
X15265811Y-46919362D02*
G01*
X14084042Y-46710984D01*
X14361879Y-45135292D01*
X15543648Y-45343670D01*
X15265811Y-46919362D01*
G37*
G36*
X273892523Y-75641161D02*
G01*
X273684145Y-74459392D01*
X275259837Y-74181555D01*
X275468215Y-75363324D01*
X273892523Y-75641161D01*
G37*
G36*
X276649985Y-75154947D02*
G01*
X276441607Y-73973178D01*
X278017299Y-73695341D01*
X278225677Y-74877110D01*
X276649985Y-75154947D01*
G37*
G36*
X254513793Y-75884268D02*
G01*
X254305415Y-74702499D01*
X255881107Y-74424662D01*
X256089485Y-75606431D01*
X254513793Y-75884268D01*
G37*
G36*
X257271255Y-75398054D02*
G01*
X257062877Y-74216285D01*
X258638569Y-73938448D01*
X258846947Y-75120217D01*
X257271255Y-75398054D01*
G37*
G36*
X230259045Y-71484075D02*
G01*
X229077276Y-71692453D01*
X228799439Y-70116761D01*
X229981208Y-69908383D01*
X230259045Y-71484075D01*
G37*
G36*
X229772831Y-68726613D02*
G01*
X228591062Y-68934991D01*
X228313225Y-67359299D01*
X229494994Y-67150921D01*
X229772831Y-68726613D01*
G37*
G36*
X210947123Y-71665309D02*
G01*
X209765354Y-71873687D01*
X209487517Y-70297995D01*
X210669286Y-70089617D01*
X210947123Y-71665309D01*
G37*
G36*
X210460909Y-68907847D02*
G01*
X209279140Y-69116225D01*
X209001303Y-67540533D01*
X210183072Y-67332155D01*
X210460909Y-68907847D01*
G37*
G36*
X192737871Y-78100069D02*
G01*
X191556102Y-78308447D01*
X191278265Y-76732755D01*
X192460034Y-76524377D01*
X192737871Y-78100069D01*
G37*
G36*
X192251657Y-75342607D02*
G01*
X191069888Y-75550985D01*
X190792051Y-73975293D01*
X191973820Y-73766915D01*
X192251657Y-75342607D01*
G37*
G36*
X173977281Y-81408069D02*
G01*
X172795512Y-81616447D01*
X172517675Y-80040755D01*
X173699444Y-79832377D01*
X173977281Y-81408069D01*
G37*
G36*
X173491067Y-78650607D02*
G01*
X172309298Y-78858985D01*
X172031461Y-77283293D01*
X173213230Y-77074915D01*
X173491067Y-78650607D01*
G37*
G36*
X106377205Y-78723873D02*
G01*
X105195436Y-78515495D01*
X105473273Y-76939803D01*
X106655042Y-77148181D01*
X106377205Y-78723873D01*
G37*
G36*
X106863419Y-75966411D02*
G01*
X105681650Y-75758033D01*
X105959487Y-74182341D01*
X107141256Y-74390719D01*
X106863419Y-75966411D01*
G37*
G36*
X87616617Y-75415872D02*
G01*
X86434848Y-75207494D01*
X86712685Y-73631802D01*
X87894454Y-73840180D01*
X87616617Y-75415872D01*
G37*
G36*
X88102831Y-72658410D02*
G01*
X86921062Y-72450032D01*
X87198899Y-70874340D01*
X88380668Y-71082718D01*
X88102831Y-72658410D01*
G37*
G36*
X69407363Y-68981113D02*
G01*
X68225594Y-68772735D01*
X68503431Y-67197043D01*
X69685200Y-67405421D01*
X69407363Y-68981113D01*
G37*
G36*
X69893577Y-66223651D02*
G01*
X68711808Y-66015273D01*
X68989645Y-64439581D01*
X70171414Y-64647959D01*
X69893577Y-66223651D01*
G37*
G36*
X50095441Y-68799879D02*
G01*
X48913672Y-68591501D01*
X49191509Y-67015809D01*
X50373278Y-67224187D01*
X50095441Y-68799879D01*
G37*
G36*
X50581655Y-66042417D02*
G01*
X49399886Y-65834039D01*
X49677723Y-64258347D01*
X50859492Y-64466725D01*
X50581655Y-66042417D01*
G37*
G36*
X44997541Y-66283788D02*
G01*
X45431661Y-63821769D01*
X47942921Y-64264572D01*
X47508801Y-66726591D01*
X44997541Y-66283788D01*
G37*
G36*
X32202792Y-61448545D02*
G01*
X32636912Y-58986526D01*
X35148172Y-59429329D01*
X34714052Y-61891348D01*
X32202792Y-61448545D01*
G37*
G36*
X13272194Y-66533534D02*
G01*
X12838074Y-68995553D01*
X10326814Y-68552750D01*
X10760934Y-66090731D01*
X13272194Y-66533534D01*
G37*
G36*
X26066943Y-71368777D02*
G01*
X25632823Y-73830796D01*
X23121563Y-73387993D01*
X23555683Y-70925974D01*
X26066943Y-71368777D01*
G37*
G36*
X250603190Y-68867166D02*
G01*
X251037310Y-71329185D01*
X248526050Y-71771988D01*
X248091930Y-69309969D01*
X250603190Y-68867166D01*
G37*
G36*
X264280073Y-69034746D02*
G01*
X264714193Y-71496765D01*
X262202933Y-71939568D01*
X261768813Y-69477549D01*
X264280073Y-69034746D01*
G37*
G36*
X111104474Y-52793181D02*
G01*
X111538594Y-50331162D01*
X114049854Y-50773965D01*
X113615734Y-53235984D01*
X111104474Y-52793181D01*
G37*
G36*
X123899223Y-57628424D02*
G01*
X124333343Y-55166405D01*
X126844603Y-55609208D01*
X126410483Y-58071227D01*
X123899223Y-57628424D01*
G37*
G36*
X35510788Y-42687958D02*
G01*
X35944908Y-40225939D01*
X38456168Y-40668742D01*
X38022048Y-43130761D01*
X35510788Y-42687958D01*
G37*
G36*
X48305537Y-47523201D02*
G01*
X48739657Y-45061182D01*
X51250917Y-45503985D01*
X50816797Y-47966004D01*
X48305537Y-47523201D01*
G37*
G36*
X264447629Y-45107135D02*
G01*
X264013509Y-42645116D01*
X266524769Y-42202313D01*
X266958889Y-44664332D01*
X264447629Y-45107135D01*
G37*
G36*
X278124512Y-45274715D02*
G01*
X277690392Y-42812696D01*
X280201652Y-42369893D01*
X280635772Y-44831912D01*
X278124512Y-45274715D01*
G37*
G36*
X25586796Y-98969719D02*
G01*
X26020916Y-96507700D01*
X28532176Y-96950503D01*
X28098056Y-99412522D01*
X25586796Y-98969719D01*
G37*
G36*
X38381545Y-103804962D02*
G01*
X38815665Y-101342943D01*
X41326925Y-101785746D01*
X40892805Y-104247765D01*
X38381545Y-103804962D01*
G37*
G36*
X44347382Y-102277718D02*
G01*
X44781502Y-99815699D01*
X47292762Y-100258502D01*
X46858642Y-102720521D01*
X44347382Y-102277718D01*
G37*
G36*
X57142131Y-107112961D02*
G01*
X57576251Y-104650942D01*
X60087511Y-105093745D01*
X59653391Y-107555764D01*
X57142131Y-107112961D01*
G37*
G36*
X63107971Y-105585717D02*
G01*
X63542091Y-103123698D01*
X66053351Y-103566501D01*
X65619231Y-106028520D01*
X63107971Y-105585717D01*
G37*
G36*
X75902720Y-110420960D02*
G01*
X76336840Y-107958941D01*
X78848100Y-108401744D01*
X78413980Y-110863763D01*
X75902720Y-110420960D01*
G37*
G36*
X81868559Y-108893714D02*
G01*
X82302679Y-106431695D01*
X84813939Y-106874498D01*
X84379819Y-109336517D01*
X81868559Y-108893714D01*
G37*
G36*
X94663308Y-113728957D02*
G01*
X95097428Y-111266938D01*
X97608688Y-111709741D01*
X97174568Y-114171760D01*
X94663308Y-113728957D01*
G37*
G36*
X107396351Y-110880070D02*
G01*
X109003320Y-108964959D01*
X110956733Y-110604068D01*
X109349764Y-112519179D01*
X107396351Y-110880070D01*
G37*
G36*
X116059308Y-121464888D02*
G01*
X117666277Y-119549777D01*
X119619690Y-121188886D01*
X118012721Y-123103997D01*
X116059308Y-121464888D01*
G37*
G36*
X126396396Y-100913742D02*
G01*
X128003365Y-98998631D01*
X129956778Y-100637740D01*
X128349809Y-102552851D01*
X126396396Y-100913742D01*
G37*
G36*
X135059353Y-111498560D02*
G01*
X136666322Y-109583449D01*
X138619735Y-111222558D01*
X137012766Y-113137669D01*
X135059353Y-111498560D01*
G37*
G36*
X157472201Y-110285541D02*
G01*
X155865232Y-108370430D01*
X157818645Y-106731321D01*
X159425614Y-108646432D01*
X157472201Y-110285541D01*
G37*
G36*
X169400519Y-103592228D02*
G01*
X167793550Y-101677117D01*
X169746963Y-100038008D01*
X171353932Y-101953119D01*
X169400519Y-103592228D01*
G37*
G36*
X176472608Y-120350347D02*
G01*
X174865639Y-118435236D01*
X176819052Y-116796127D01*
X178426021Y-118711238D01*
X176472608Y-120350347D01*
G37*
G36*
X188400926Y-113657034D02*
G01*
X186793957Y-111741923D01*
X188747370Y-110102814D01*
X190354339Y-112017925D01*
X188400926Y-113657034D01*
G37*
G36*
X198777943Y-111494125D02*
G01*
X198343823Y-109032106D01*
X200855083Y-108589303D01*
X201289203Y-111051322D01*
X198777943Y-111494125D01*
G37*
G36*
X212454826Y-111661705D02*
G01*
X212020706Y-109199686D01*
X214531966Y-108756883D01*
X214966086Y-111218902D01*
X212454826Y-111661705D01*
G37*
G36*
X217538527Y-108186127D02*
G01*
X217104407Y-105724108D01*
X219615667Y-105281305D01*
X220049787Y-107743324D01*
X217538527Y-108186127D01*
G37*
G36*
X231215410Y-108353707D02*
G01*
X230781290Y-105891688D01*
X233292550Y-105448885D01*
X233726670Y-107910904D01*
X231215410Y-108353707D01*
G37*
G36*
X236299117Y-104878129D02*
G01*
X235864997Y-102416110D01*
X238376257Y-101973307D01*
X238810377Y-104435326D01*
X236299117Y-104878129D01*
G37*
G36*
X249976000Y-105045709D02*
G01*
X249541880Y-102583690D01*
X252053140Y-102140887D01*
X252487260Y-104602906D01*
X249976000Y-105045709D01*
G37*
G36*
X255059704Y-101570134D02*
G01*
X254625584Y-99108115D01*
X257136844Y-98665312D01*
X257570964Y-101127331D01*
X255059704Y-101570134D01*
G37*
G36*
X268736587Y-101737714D02*
G01*
X268302467Y-99275695D01*
X270813727Y-98832892D01*
X271247847Y-101294911D01*
X268736587Y-101737714D01*
G37*
G36*
X28894793Y-80209132D02*
G01*
X29328913Y-77747113D01*
X31840173Y-78189916D01*
X31406053Y-80651935D01*
X28894793Y-80209132D01*
G37*
G36*
X41689542Y-85044375D02*
G01*
X42123662Y-82582356D01*
X44634922Y-83025159D01*
X44200802Y-85487178D01*
X41689542Y-85044375D01*
G37*
G36*
X48206714Y-80390366D02*
G01*
X48640834Y-77928347D01*
X51152094Y-78371150D01*
X50717974Y-80833169D01*
X48206714Y-80390366D01*
G37*
G36*
X61001463Y-85225609D02*
G01*
X61435583Y-82763590D01*
X63946843Y-83206393D01*
X63512723Y-85668412D01*
X61001463Y-85225609D01*
G37*
G36*
X67518633Y-80571598D02*
G01*
X67952753Y-78109579D01*
X70464013Y-78552382D01*
X70029893Y-81014401D01*
X67518633Y-80571598D01*
G37*
G36*
X80313382Y-85406841D02*
G01*
X80747502Y-82944822D01*
X83258762Y-83387625D01*
X82824642Y-85849644D01*
X80313382Y-85406841D01*
G37*
G36*
X85727891Y-87006360D02*
G01*
X86162011Y-84544341D01*
X88673271Y-84987144D01*
X88239151Y-87449163D01*
X85727891Y-87006360D01*
G37*
G36*
X98522640Y-91841603D02*
G01*
X98956760Y-89379584D01*
X101468020Y-89822387D01*
X101033900Y-92284406D01*
X98522640Y-91841603D01*
G37*
G36*
X104488477Y-90314360D02*
G01*
X104922597Y-87852341D01*
X107433857Y-88295144D01*
X106999737Y-90757163D01*
X104488477Y-90314360D01*
G37*
G36*
X117283226Y-95149603D02*
G01*
X117717346Y-92687584D01*
X120228606Y-93130387D01*
X119794486Y-95592406D01*
X117283226Y-95149603D01*
G37*
G36*
X176158021Y-92914771D02*
G01*
X175723901Y-90452752D01*
X178235161Y-90009949D01*
X178669281Y-92471968D01*
X176158021Y-92914771D01*
G37*
G36*
X189834904Y-93082351D02*
G01*
X189400784Y-90620332D01*
X191912044Y-90177529D01*
X192346164Y-92639548D01*
X189834904Y-93082351D01*
G37*
G36*
X194918612Y-89606772D02*
G01*
X194484492Y-87144753D01*
X196995752Y-86701950D01*
X197429872Y-89163969D01*
X194918612Y-89606772D01*
G37*
G36*
X208595495Y-89774352D02*
G01*
X208161375Y-87312333D01*
X210672635Y-86869530D01*
X211106755Y-89331549D01*
X208595495Y-89774352D01*
G37*
G36*
X213127868Y-83172011D02*
G01*
X212693748Y-80709992D01*
X215205008Y-80267189D01*
X215639128Y-82729208D01*
X213127868Y-83172011D01*
G37*
G36*
X226804751Y-83339591D02*
G01*
X226370631Y-80877572D01*
X228881891Y-80434769D01*
X229316011Y-82896788D01*
X226804751Y-83339591D01*
G37*
G36*
X232439784Y-82990778D02*
G01*
X232005664Y-80528759D01*
X234516924Y-80085956D01*
X234951044Y-82547975D01*
X232439784Y-82990778D01*
G37*
G36*
X246116667Y-83158358D02*
G01*
X245682547Y-80696339D01*
X248193807Y-80253536D01*
X248627927Y-82715555D01*
X246116667Y-83158358D01*
G37*
G36*
X251751705Y-82809546D02*
G01*
X251317585Y-80347527D01*
X253828845Y-79904724D01*
X254262965Y-82366743D01*
X251751705Y-82809546D01*
G37*
G36*
X265428588Y-82977126D02*
G01*
X264994468Y-80515107D01*
X267505728Y-80072304D01*
X267939848Y-82534323D01*
X265428588Y-82977126D01*
G37*
G36*
X51514714Y-61629775D02*
G01*
X51948834Y-59167756D01*
X54460094Y-59610559D01*
X54025974Y-62072578D01*
X51514714Y-61629775D01*
G37*
G36*
X64309463Y-66465018D02*
G01*
X64743583Y-64002999D01*
X67254843Y-64445802D01*
X66820723Y-66907821D01*
X64309463Y-66465018D01*
G37*
G36*
X70826633Y-61811012D02*
G01*
X71260753Y-59348993D01*
X73772013Y-59791796D01*
X73337893Y-62253815D01*
X70826633Y-61811012D01*
G37*
G36*
X83621382Y-66646255D02*
G01*
X84055502Y-64184236D01*
X86566762Y-64627039D01*
X86132642Y-67089058D01*
X83621382Y-66646255D01*
G37*
G36*
X89035888Y-68245771D02*
G01*
X89470008Y-65783752D01*
X91981268Y-66226555D01*
X91547148Y-68688574D01*
X89035888Y-68245771D01*
G37*
G36*
X101830637Y-73081014D02*
G01*
X102264757Y-70618995D01*
X104776017Y-71061798D01*
X104341897Y-73523817D01*
X101830637Y-73081014D01*
G37*
G36*
X107796476Y-71553769D02*
G01*
X108230596Y-69091750D01*
X110741856Y-69534553D01*
X110307736Y-71996572D01*
X107796476Y-71553769D01*
G37*
G36*
X120591225Y-76389012D02*
G01*
X121025345Y-73926993D01*
X123536605Y-74369796D01*
X123102485Y-76831815D01*
X120591225Y-76389012D01*
G37*
G36*
X172850026Y-74154182D02*
G01*
X172415906Y-71692163D01*
X174927166Y-71249360D01*
X175361286Y-73711379D01*
X172850026Y-74154182D01*
G37*
G36*
X186526909Y-74321762D02*
G01*
X186092789Y-71859743D01*
X188604049Y-71416940D01*
X189038169Y-73878959D01*
X186526909Y-74321762D01*
G37*
G36*
X191610613Y-70846188D02*
G01*
X191176493Y-68384169D01*
X193687753Y-67941366D01*
X194121873Y-70403385D01*
X191610613Y-70846188D01*
G37*
G36*
X205287496Y-71013768D02*
G01*
X204853376Y-68551749D01*
X207364636Y-68108946D01*
X207798756Y-70570965D01*
X205287496Y-71013768D01*
G37*
G36*
X209819868Y-64411423D02*
G01*
X209385748Y-61949404D01*
X211897008Y-61506601D01*
X212331128Y-63968620D01*
X209819868Y-64411423D01*
G37*
G36*
X223496751Y-64579003D02*
G01*
X223062631Y-62116984D01*
X225573891Y-61674181D01*
X226008011Y-64136200D01*
X223496751Y-64579003D01*
G37*
G36*
X229131788Y-64230190D02*
G01*
X228697668Y-61768171D01*
X231208928Y-61325368D01*
X231643048Y-63787387D01*
X229131788Y-64230190D01*
G37*
G36*
X242808671Y-64397770D02*
G01*
X242374551Y-61935751D01*
X244885811Y-61492948D01*
X245319931Y-63954967D01*
X242808671Y-64397770D01*
G37*
G36*
X16188145Y-42460625D02*
G01*
X16622265Y-39998606D01*
X19133525Y-40441409D01*
X18699405Y-42903428D01*
X16188145Y-42460625D01*
G37*
G36*
X28982894Y-47295868D02*
G01*
X29417014Y-44833849D01*
X31928274Y-45276652D01*
X31494154Y-47738671D01*
X28982894Y-47295868D01*
G37*
G36*
X54822710Y-42869188D02*
G01*
X55256830Y-40407169D01*
X57768090Y-40849972D01*
X57333970Y-43311991D01*
X54822710Y-42869188D01*
G37*
G36*
X67617459Y-47704431D02*
G01*
X68051579Y-45242412D01*
X70562839Y-45685215D01*
X70128719Y-48147234D01*
X67617459Y-47704431D01*
G37*
G36*
X74134629Y-43050423D02*
G01*
X74568749Y-40588404D01*
X77080009Y-41031207D01*
X76645889Y-43493226D01*
X74134629Y-43050423D01*
G37*
G36*
X86929378Y-47885666D02*
G01*
X87363498Y-45423647D01*
X89874758Y-45866450D01*
X89440638Y-48328469D01*
X86929378Y-47885666D01*
G37*
G36*
X92343885Y-49485184D02*
G01*
X92778005Y-47023165D01*
X95289265Y-47465968D01*
X94855145Y-49927987D01*
X92343885Y-49485184D01*
G37*
G36*
X105138634Y-54320427D02*
G01*
X105572754Y-51858408D01*
X108084014Y-52301211D01*
X107649894Y-54763230D01*
X105138634Y-54320427D01*
G37*
G36*
X169542027Y-55393596D02*
G01*
X169107907Y-52931577D01*
X171619167Y-52488774D01*
X172053287Y-54950793D01*
X169542027Y-55393596D01*
G37*
G36*
X183218910Y-55561176D02*
G01*
X182784790Y-53099157D01*
X185296050Y-52656354D01*
X185730170Y-55118373D01*
X183218910Y-55561176D01*
G37*
G36*
X188302615Y-52085598D02*
G01*
X187868495Y-49623579D01*
X190379755Y-49180776D01*
X190813875Y-51642795D01*
X188302615Y-52085598D01*
G37*
G36*
X201979498Y-52253178D02*
G01*
X201545378Y-49791159D01*
X204056638Y-49348356D01*
X204490758Y-51810375D01*
X201979498Y-52253178D01*
G37*
G36*
X206511867Y-45650837D02*
G01*
X206077747Y-43188818D01*
X208589007Y-42746015D01*
X209023127Y-45208034D01*
X206511867Y-45650837D01*
G37*
G36*
X220188750Y-45818417D02*
G01*
X219754630Y-43356398D01*
X222265890Y-42913595D01*
X222700010Y-45375614D01*
X220188750Y-45818417D01*
G37*
G36*
X245135711Y-45288370D02*
G01*
X244701591Y-42826351D01*
X247212851Y-42383548D01*
X247646971Y-44845567D01*
X245135711Y-45288370D01*
G37*
G36*
X258812594Y-45455950D02*
G01*
X258378474Y-42993931D01*
X260889734Y-42551128D01*
X261323854Y-45013147D01*
X258812594Y-45455950D01*
G37*
G36*
X225823791Y-45469603D02*
G01*
X225389671Y-43007584D01*
X227900931Y-42564781D01*
X228335051Y-45026800D01*
X225823791Y-45469603D01*
G37*
G36*
X239500674Y-45637183D02*
G01*
X239066554Y-43175164D01*
X241577814Y-42732361D01*
X242011934Y-45194380D01*
X239500674Y-45637183D01*
G37*
M02*
