G04 #@! TF.GenerationSoftware,KiCad,Pcbnew,(5.1.5-0-10_14)*
G04 #@! TF.CreationDate,2021-08-13T14:32:23-04:00*
G04 #@! TF.ProjectId,Laptreus-v3,4c617074-7265-4757-932d-76332e6b6963,rev?*
G04 #@! TF.SameCoordinates,Original*
G04 #@! TF.FileFunction,Legend,Bot*
G04 #@! TF.FilePolarity,Positive*
%FSLAX46Y46*%
G04 Gerber Fmt 4.6, Leading zero omitted, Abs format (unit mm)*
G04 Created by KiCad (PCBNEW (5.1.5-0-10_14)) date 2021-08-13 14:32:23*
%MOMM*%
%LPD*%
G04 APERTURE LIST*
%ADD10C,0.150000*%
%ADD11C,2.602000*%
%ADD12C,4.082180*%
%ADD13C,3.102000*%
%ADD14C,1.772000*%
%ADD15C,2.602000*%
%ADD16C,2.102000*%
%ADD17C,7.102000*%
%ADD18C,1.102000*%
%ADD19C,0.100000*%
%ADD20C,1.702000*%
%ADD21R,1.002000X1.802000*%
%ADD22C,2.000000*%
%ADD23C,1.981200*%
%ADD24C,0.902000*%
G04 APERTURE END LIST*
D10*
X149226181Y-44311358D02*
X149226181Y-44011358D01*
X145926181Y-44311358D02*
X149226181Y-44311358D01*
X145926181Y-44011358D02*
X145926181Y-44311358D01*
X149226181Y-41511358D02*
X149226181Y-41811358D01*
X145926181Y-41511358D02*
X149226181Y-41511358D01*
X145926181Y-41811358D02*
X145926181Y-41511358D01*
X146123800Y-40863738D02*
X145790466Y-40387548D01*
X145552371Y-40863738D02*
X145552371Y-39863738D01*
X145933323Y-39863738D01*
X146028561Y-39911358D01*
X146076181Y-39958977D01*
X146123800Y-40054215D01*
X146123800Y-40197072D01*
X146076181Y-40292310D01*
X146028561Y-40339929D01*
X145933323Y-40387548D01*
X145552371Y-40387548D01*
X146552371Y-40339929D02*
X146885704Y-40339929D01*
X147028561Y-40863738D02*
X146552371Y-40863738D01*
X146552371Y-39863738D01*
X147028561Y-39863738D01*
X147409514Y-40816119D02*
X147552371Y-40863738D01*
X147790466Y-40863738D01*
X147885704Y-40816119D01*
X147933323Y-40768500D01*
X147980942Y-40673262D01*
X147980942Y-40578024D01*
X147933323Y-40482786D01*
X147885704Y-40435167D01*
X147790466Y-40387548D01*
X147599990Y-40339929D01*
X147504752Y-40292310D01*
X147457133Y-40244691D01*
X147409514Y-40149453D01*
X147409514Y-40054215D01*
X147457133Y-39958977D01*
X147504752Y-39911358D01*
X147599990Y-39863738D01*
X147838085Y-39863738D01*
X147980942Y-39911358D01*
X148409514Y-40339929D02*
X148742847Y-40339929D01*
X148885704Y-40863738D02*
X148409514Y-40863738D01*
X148409514Y-39863738D01*
X148885704Y-39863738D01*
X149171419Y-39863738D02*
X149742847Y-39863738D01*
X149457133Y-40863738D02*
X149457133Y-39863738D01*
%LPC*%
D11*
X277112573Y-89483350D03*
X275568949Y-88273011D03*
D12*
X278880000Y-85110000D03*
D13*
X275496456Y-80548243D03*
X282191051Y-81946989D03*
D14*
X273877177Y-85992133D03*
X283882823Y-84227867D03*
D15*
X282162673Y-89101278D02*
X282224307Y-89677994D01*
D16*
X279921889Y-91018847D03*
X284463902Y-87984030D03*
D11*
X13014297Y-88583741D03*
X11977725Y-86918443D03*
D12*
X16170909Y-85078631D03*
D13*
X14551630Y-79634741D03*
X20364093Y-83238819D03*
D14*
X11168086Y-84196498D03*
X21173732Y-85960764D03*
D15*
X17890516Y-89951946D02*
X17751184Y-90514962D01*
D16*
X15129020Y-90987478D03*
X20435085Y-89689142D03*
D17*
X264876656Y-122211308D03*
D18*
X266076656Y-119911308D03*
X263676656Y-119911308D03*
X263676656Y-124511308D03*
X266076656Y-124511308D03*
X264876656Y-124511308D03*
X264876656Y-119911308D03*
D17*
X30026656Y-122211308D03*
D18*
X31226656Y-119911308D03*
X28826656Y-119911308D03*
X28826656Y-124511308D03*
X31226656Y-124511308D03*
X30026656Y-124511308D03*
X30026656Y-119911308D03*
D17*
X264876656Y-64911308D03*
X99576656Y-122211308D03*
X30026656Y-64911308D03*
D18*
X264876656Y-62611308D03*
X267176656Y-64911308D03*
X262576656Y-64911308D03*
X264876656Y-67211308D03*
X266503002Y-63284962D03*
X263250310Y-63284962D03*
X266503002Y-66537654D03*
X263250310Y-66537654D03*
X30026656Y-62611308D03*
X30026656Y-67211308D03*
X28826656Y-67211308D03*
X31226656Y-67211308D03*
X31226656Y-62611308D03*
X28826656Y-62594308D03*
X99576656Y-119911308D03*
X99576656Y-124511308D03*
X98376656Y-119911308D03*
X100776656Y-119911308D03*
X100776656Y-124511308D03*
X98376656Y-124511308D03*
X286276656Y-90911308D03*
X286276656Y-96111308D03*
X284438178Y-91672830D03*
X284438178Y-95349786D03*
X288318691Y-90911308D03*
X288318691Y-96111308D03*
X10715134Y-91672830D03*
X8876656Y-90911308D03*
X6834621Y-90911308D03*
X6834621Y-96111308D03*
X8876656Y-96111308D03*
X10715134Y-95349786D03*
D19*
G36*
X8877012Y-89558409D02*
G01*
X8894478Y-89558531D01*
X8897324Y-89558631D01*
X8917511Y-89559901D01*
X8937765Y-89559901D01*
X8940256Y-89559962D01*
X9198943Y-89572614D01*
X9199302Y-89572633D01*
X9216741Y-89573609D01*
X9219576Y-89573847D01*
X9271217Y-89579640D01*
X9323062Y-89584723D01*
X9325535Y-89585027D01*
X9581750Y-89622861D01*
X9581927Y-89622889D01*
X9582116Y-89622917D01*
X9599367Y-89625588D01*
X9602167Y-89626101D01*
X9653063Y-89636919D01*
X9704101Y-89647025D01*
X9706533Y-89647569D01*
X9957812Y-89710220D01*
X9957804Y-89710252D01*
X9958200Y-89710349D01*
X9958208Y-89710320D01*
X9975097Y-89714656D01*
X9977836Y-89715441D01*
X10027446Y-89731179D01*
X10077239Y-89746212D01*
X10079606Y-89746990D01*
X10323596Y-89833871D01*
X10323930Y-89833991D01*
X10340344Y-89839965D01*
X10342993Y-89841014D01*
X10390819Y-89861513D01*
X10438917Y-89881337D01*
X10441197Y-89882343D01*
X10675544Y-89992618D01*
X10675865Y-89992770D01*
X10691617Y-90000317D01*
X10694150Y-90001619D01*
X10739780Y-90026704D01*
X10785685Y-90051112D01*
X10787856Y-90052335D01*
X11010323Y-90184952D01*
X11010628Y-90185135D01*
X11025568Y-90194183D01*
X11027962Y-90195726D01*
X11070906Y-90225130D01*
X11114230Y-90253915D01*
X11116271Y-90255344D01*
X11324727Y-90409031D01*
X11324693Y-90409077D01*
X11324974Y-90409315D01*
X11325022Y-90409251D01*
X11339008Y-90419714D01*
X11341240Y-90421482D01*
X11381121Y-90454946D01*
X11421415Y-90487809D01*
X11423306Y-90489430D01*
X11615775Y-90662728D01*
X11615753Y-90662752D01*
X11616030Y-90663009D01*
X11616055Y-90662982D01*
X11628941Y-90674749D01*
X11630989Y-90676728D01*
X11667348Y-90713857D01*
X11704314Y-90750566D01*
X11706039Y-90752365D01*
X11880671Y-90943612D01*
X11880633Y-90943647D01*
X11880893Y-90943932D01*
X11880931Y-90943898D01*
X11892608Y-90956867D01*
X11894454Y-90959036D01*
X11927019Y-90999539D01*
X11960220Y-91039672D01*
X11961761Y-91041631D01*
X12116906Y-91249019D01*
X12117118Y-91249304D01*
X12127483Y-91263362D01*
X12129109Y-91265701D01*
X12157621Y-91309272D01*
X12186692Y-91352372D01*
X12188035Y-91354471D01*
X12322202Y-91576007D01*
X12322386Y-91576313D01*
X12331329Y-91591316D01*
X12332717Y-91593801D01*
X12356804Y-91639874D01*
X12381569Y-91685677D01*
X12382700Y-91687898D01*
X12494601Y-91921454D01*
X12494502Y-91921501D01*
X12494672Y-91921856D01*
X12494770Y-91921810D01*
X12502198Y-91937594D01*
X12503340Y-91940205D01*
X12522843Y-91988479D01*
X12542992Y-92036411D01*
X12543901Y-92038731D01*
X12632483Y-92282107D01*
X12632604Y-92282443D01*
X12638463Y-92298898D01*
X12639343Y-92301606D01*
X12654018Y-92351469D01*
X12669419Y-92401219D01*
X12670098Y-92403618D01*
X12734508Y-92654477D01*
X12734595Y-92654823D01*
X12738820Y-92671770D01*
X12739432Y-92674550D01*
X12749195Y-92725727D01*
X12759643Y-92776627D01*
X12760085Y-92779080D01*
X12799708Y-93035028D01*
X12799761Y-93035378D01*
X12802313Y-93052657D01*
X12802650Y-93055487D01*
X12807362Y-93107265D01*
X12812805Y-93159050D01*
X12813004Y-93161534D01*
X12827461Y-93420127D01*
X12827480Y-93420483D01*
X12828333Y-93437929D01*
X12828393Y-93440777D01*
X12828236Y-93463279D01*
X12829413Y-93485737D01*
X12829483Y-93488228D01*
X12829548Y-93506735D01*
X12829548Y-93507089D01*
X12829488Y-93524556D01*
X12829398Y-93527405D01*
X12828063Y-93549883D01*
X12828063Y-93572417D01*
X12828002Y-93574908D01*
X12815350Y-93833595D01*
X12815331Y-93833954D01*
X12814355Y-93851393D01*
X12814117Y-93854227D01*
X12808326Y-93905858D01*
X12803241Y-93957714D01*
X12802937Y-93960187D01*
X12765102Y-94216406D01*
X12765049Y-94216758D01*
X12762377Y-94234019D01*
X12761862Y-94236821D01*
X12751054Y-94287669D01*
X12740939Y-94338753D01*
X12740395Y-94341185D01*
X12677743Y-94592469D01*
X12677686Y-94592455D01*
X12677585Y-94592838D01*
X12677645Y-94592853D01*
X12673308Y-94609748D01*
X12672523Y-94612487D01*
X12656790Y-94662086D01*
X12641752Y-94711891D01*
X12640974Y-94714258D01*
X12554093Y-94958248D01*
X12553972Y-94958583D01*
X12547998Y-94974996D01*
X12546950Y-94977644D01*
X12526453Y-95025467D01*
X12506627Y-95073569D01*
X12505621Y-95075850D01*
X12395346Y-95310196D01*
X12395194Y-95310517D01*
X12387647Y-95326269D01*
X12386345Y-95328802D01*
X12361260Y-95374432D01*
X12336852Y-95420337D01*
X12335629Y-95422508D01*
X12203012Y-95644975D01*
X12202829Y-95645280D01*
X12193781Y-95660220D01*
X12192238Y-95662614D01*
X12162856Y-95705525D01*
X12134049Y-95748883D01*
X12132620Y-95750924D01*
X11978933Y-95959379D01*
X11978887Y-95959345D01*
X11978649Y-95959626D01*
X11978713Y-95959674D01*
X11968250Y-95973660D01*
X11966482Y-95975892D01*
X11933035Y-96015753D01*
X11900155Y-96056068D01*
X11898533Y-96057960D01*
X11725244Y-96250416D01*
X11725210Y-96250386D01*
X11724943Y-96250694D01*
X11724971Y-96250719D01*
X11713216Y-96263593D01*
X11711237Y-96265642D01*
X11674072Y-96302037D01*
X11637398Y-96338967D01*
X11635599Y-96340691D01*
X11444352Y-96515323D01*
X11444317Y-96515285D01*
X11444032Y-96515545D01*
X11444066Y-96515583D01*
X11431097Y-96527260D01*
X11428929Y-96529105D01*
X11388416Y-96561678D01*
X11348291Y-96594872D01*
X11346333Y-96596412D01*
X11138946Y-96751558D01*
X11138658Y-96751772D01*
X11124599Y-96762136D01*
X11122263Y-96763760D01*
X11078739Y-96792241D01*
X11035593Y-96821344D01*
X11033493Y-96822687D01*
X10811957Y-96956854D01*
X10811651Y-96957038D01*
X10796648Y-96965981D01*
X10794163Y-96967369D01*
X10748090Y-96991456D01*
X10702287Y-97016221D01*
X10700066Y-97017353D01*
X10466501Y-97129258D01*
X10466381Y-97129007D01*
X10466046Y-97129170D01*
X10466163Y-97129418D01*
X10450371Y-97136850D01*
X10447760Y-97137991D01*
X10399520Y-97157482D01*
X10351553Y-97177645D01*
X10349233Y-97178554D01*
X10105863Y-97267132D01*
X10105759Y-97266847D01*
X10105417Y-97266974D01*
X10105518Y-97267257D01*
X10089071Y-97273115D01*
X10086358Y-97273996D01*
X10036418Y-97288694D01*
X9986744Y-97304071D01*
X9984346Y-97304750D01*
X9733487Y-97369160D01*
X9733141Y-97369247D01*
X9716194Y-97373472D01*
X9713414Y-97374084D01*
X9662245Y-97383846D01*
X9611338Y-97394295D01*
X9608885Y-97394737D01*
X9352944Y-97434359D01*
X9352936Y-97434308D01*
X9352562Y-97434356D01*
X9352571Y-97434415D01*
X9335308Y-97436965D01*
X9332478Y-97437302D01*
X9280695Y-97442015D01*
X9228914Y-97447457D01*
X9226430Y-97447656D01*
X8967837Y-97462113D01*
X8967481Y-97462132D01*
X8950035Y-97462985D01*
X8947187Y-97463045D01*
X8924684Y-97462888D01*
X8902226Y-97464065D01*
X8899735Y-97464135D01*
X8881229Y-97464200D01*
X8880869Y-97464200D01*
X8877465Y-97464188D01*
X8876656Y-97464208D01*
X5026656Y-97464208D01*
X5026300Y-97464207D01*
X5008834Y-97464085D01*
X5005988Y-97463985D01*
X4884012Y-97456311D01*
X4879060Y-97455756D01*
X4758415Y-97436216D01*
X4753541Y-97435180D01*
X4635378Y-97403960D01*
X4630629Y-97402453D01*
X4516077Y-97359851D01*
X4511497Y-97357889D01*
X4401649Y-97304313D01*
X4397283Y-97301912D01*
X4293188Y-97237872D01*
X4289076Y-97235057D01*
X4191726Y-97161164D01*
X4187910Y-97157961D01*
X4098235Y-97074922D01*
X4094748Y-97071362D01*
X4013605Y-96979968D01*
X4010483Y-96976085D01*
X3938646Y-96877209D01*
X3935918Y-96873040D01*
X3874072Y-96767626D01*
X3871763Y-96763210D01*
X3820498Y-96652264D01*
X3818632Y-96647644D01*
X3778439Y-96532225D01*
X3777032Y-96527445D01*
X3748294Y-96408655D01*
X3747360Y-96403761D01*
X3730350Y-96282733D01*
X3729899Y-96277771D01*
X3724781Y-96155661D01*
X3724816Y-96150678D01*
X3731639Y-96028651D01*
X3732159Y-96023696D01*
X3750856Y-95902918D01*
X3751858Y-95898037D01*
X3782253Y-95779659D01*
X3783727Y-95774899D01*
X3825527Y-95660052D01*
X3827458Y-95655458D01*
X3880267Y-95545239D01*
X3882636Y-95540857D01*
X3945947Y-95436317D01*
X3948734Y-95432186D01*
X4021945Y-95334322D01*
X4025121Y-95330482D01*
X4107533Y-95240230D01*
X4111068Y-95236720D01*
X4201893Y-95154941D01*
X4205755Y-95151791D01*
X4304127Y-95079265D01*
X4308277Y-95076508D01*
X4413257Y-95013928D01*
X4417656Y-95011589D01*
X4528241Y-94959551D01*
X4532848Y-94957652D01*
X4647984Y-94916654D01*
X4652754Y-94915214D01*
X4771341Y-94885647D01*
X4776229Y-94884679D01*
X4897135Y-94866825D01*
X4902094Y-94866339D01*
X5024165Y-94860369D01*
X5026656Y-94860308D01*
X8857637Y-94860308D01*
X9017502Y-94851371D01*
X9147593Y-94831231D01*
X9275116Y-94798489D01*
X9398814Y-94753466D01*
X9517524Y-94696590D01*
X9630140Y-94628388D01*
X9735553Y-94549529D01*
X9832763Y-94460764D01*
X9920851Y-94362931D01*
X9998970Y-94256973D01*
X10066379Y-94143893D01*
X10122427Y-94024784D01*
X10166592Y-93900756D01*
X10198437Y-93773031D01*
X10217668Y-93642801D01*
X10224330Y-93506602D01*
X10216719Y-93370463D01*
X10196579Y-93240371D01*
X10163838Y-93112854D01*
X10118817Y-92989160D01*
X10061933Y-92870432D01*
X9993733Y-92757821D01*
X9914875Y-92652409D01*
X9826115Y-92555204D01*
X9728284Y-92467117D01*
X9622321Y-92388994D01*
X9509244Y-92321586D01*
X9390131Y-92265536D01*
X9266104Y-92221372D01*
X9138377Y-92189526D01*
X9008149Y-92170296D01*
X8844829Y-92162308D01*
X5076656Y-92162308D01*
X5076300Y-92162307D01*
X5058834Y-92162185D01*
X5055988Y-92162085D01*
X4934012Y-92154411D01*
X4929060Y-92153856D01*
X4808415Y-92134316D01*
X4803541Y-92133280D01*
X4685378Y-92102060D01*
X4680629Y-92100553D01*
X4566077Y-92057951D01*
X4561497Y-92055989D01*
X4451649Y-92002413D01*
X4447283Y-92000012D01*
X4343188Y-91935972D01*
X4339076Y-91933157D01*
X4241726Y-91859264D01*
X4237910Y-91856061D01*
X4148235Y-91773022D01*
X4144748Y-91769462D01*
X4063605Y-91678068D01*
X4060483Y-91674185D01*
X3988646Y-91575309D01*
X3985918Y-91571140D01*
X3924072Y-91465726D01*
X3921763Y-91461310D01*
X3870498Y-91350364D01*
X3868632Y-91345744D01*
X3828439Y-91230325D01*
X3827032Y-91225545D01*
X3798294Y-91106755D01*
X3797360Y-91101861D01*
X3780350Y-90980833D01*
X3779899Y-90975871D01*
X3774781Y-90853761D01*
X3774816Y-90848778D01*
X3781639Y-90726751D01*
X3782159Y-90721796D01*
X3800856Y-90601018D01*
X3801858Y-90596137D01*
X3832253Y-90477759D01*
X3833727Y-90472999D01*
X3875527Y-90358152D01*
X3877458Y-90353558D01*
X3930267Y-90243339D01*
X3932636Y-90238957D01*
X3995947Y-90134417D01*
X3998734Y-90130286D01*
X4071945Y-90032422D01*
X4075121Y-90028582D01*
X4157533Y-89938330D01*
X4161068Y-89934820D01*
X4251893Y-89853041D01*
X4255755Y-89849891D01*
X4354127Y-89777365D01*
X4358277Y-89774608D01*
X4463257Y-89712028D01*
X4467656Y-89709689D01*
X4578241Y-89657651D01*
X4582848Y-89655752D01*
X4697984Y-89614754D01*
X4702754Y-89613314D01*
X4821341Y-89583747D01*
X4826229Y-89582779D01*
X4947135Y-89564925D01*
X4952094Y-89564439D01*
X5074165Y-89558469D01*
X5076656Y-89558408D01*
X8876656Y-89558408D01*
X8877012Y-89558409D01*
G37*
G36*
X290077012Y-89558409D02*
G01*
X290094478Y-89558531D01*
X290097324Y-89558631D01*
X290219300Y-89566305D01*
X290224252Y-89566860D01*
X290344897Y-89586400D01*
X290349771Y-89587436D01*
X290467934Y-89618656D01*
X290472683Y-89620163D01*
X290587235Y-89662765D01*
X290591815Y-89664727D01*
X290701663Y-89718303D01*
X290706029Y-89720704D01*
X290810124Y-89784744D01*
X290814236Y-89787559D01*
X290911586Y-89861452D01*
X290915402Y-89864655D01*
X291005077Y-89947694D01*
X291008564Y-89951254D01*
X291089707Y-90042648D01*
X291092829Y-90046531D01*
X291164666Y-90145407D01*
X291167394Y-90149576D01*
X291229240Y-90254990D01*
X291231549Y-90259406D01*
X291282814Y-90370352D01*
X291284680Y-90374972D01*
X291324873Y-90490391D01*
X291326280Y-90495171D01*
X291355018Y-90613961D01*
X291355952Y-90618855D01*
X291372962Y-90739883D01*
X291373413Y-90744845D01*
X291378531Y-90866955D01*
X291378496Y-90871938D01*
X291371673Y-90993965D01*
X291371153Y-90998920D01*
X291352456Y-91119698D01*
X291351454Y-91124579D01*
X291321059Y-91242957D01*
X291319585Y-91247717D01*
X291277785Y-91362564D01*
X291275854Y-91367158D01*
X291223045Y-91477377D01*
X291220676Y-91481759D01*
X291157365Y-91586299D01*
X291154578Y-91590430D01*
X291081367Y-91688294D01*
X291078191Y-91692134D01*
X290995779Y-91782386D01*
X290992244Y-91785896D01*
X290901419Y-91867675D01*
X290897557Y-91870825D01*
X290799185Y-91943351D01*
X290795035Y-91946108D01*
X290690055Y-92008688D01*
X290685656Y-92011027D01*
X290575071Y-92063065D01*
X290570464Y-92064964D01*
X290455328Y-92105962D01*
X290450558Y-92107402D01*
X290331971Y-92136969D01*
X290327083Y-92137937D01*
X290206177Y-92155791D01*
X290201218Y-92156277D01*
X290079147Y-92162247D01*
X290076656Y-92162308D01*
X286295675Y-92162308D01*
X286135811Y-92171245D01*
X286005719Y-92191385D01*
X285878202Y-92224126D01*
X285754508Y-92269147D01*
X285635780Y-92326031D01*
X285523169Y-92394231D01*
X285417757Y-92473089D01*
X285320552Y-92561849D01*
X285232465Y-92659680D01*
X285154342Y-92765643D01*
X285086934Y-92878720D01*
X285030884Y-92997833D01*
X284986720Y-93121860D01*
X284954874Y-93249587D01*
X284935644Y-93379815D01*
X284928982Y-93516014D01*
X284936593Y-93652154D01*
X284956733Y-93782245D01*
X284989475Y-93909768D01*
X285034498Y-94033466D01*
X285091374Y-94152176D01*
X285159576Y-94264792D01*
X285238435Y-94370205D01*
X285327200Y-94467415D01*
X285425033Y-94555503D01*
X285530991Y-94633622D01*
X285644071Y-94701031D01*
X285763180Y-94757079D01*
X285887208Y-94801244D01*
X286014933Y-94833089D01*
X286145163Y-94852320D01*
X286308483Y-94860308D01*
X290076656Y-94860308D01*
X290077012Y-94860309D01*
X290094478Y-94860431D01*
X290097324Y-94860531D01*
X290219300Y-94868205D01*
X290224252Y-94868760D01*
X290344897Y-94888300D01*
X290349771Y-94889336D01*
X290467934Y-94920556D01*
X290472683Y-94922063D01*
X290587235Y-94964665D01*
X290591815Y-94966627D01*
X290701663Y-95020203D01*
X290706029Y-95022604D01*
X290810124Y-95086644D01*
X290814236Y-95089459D01*
X290911586Y-95163352D01*
X290915402Y-95166555D01*
X291005077Y-95249594D01*
X291008564Y-95253154D01*
X291089707Y-95344548D01*
X291092829Y-95348431D01*
X291164666Y-95447307D01*
X291167394Y-95451476D01*
X291229240Y-95556890D01*
X291231549Y-95561306D01*
X291282814Y-95672252D01*
X291284680Y-95676872D01*
X291324873Y-95792291D01*
X291326280Y-95797071D01*
X291355018Y-95915861D01*
X291355952Y-95920755D01*
X291372962Y-96041783D01*
X291373413Y-96046745D01*
X291378531Y-96168855D01*
X291378496Y-96173838D01*
X291371673Y-96295865D01*
X291371153Y-96300820D01*
X291352456Y-96421598D01*
X291351454Y-96426479D01*
X291321059Y-96544857D01*
X291319585Y-96549617D01*
X291277785Y-96664464D01*
X291275854Y-96669058D01*
X291223045Y-96779277D01*
X291220676Y-96783659D01*
X291157365Y-96888199D01*
X291154578Y-96892330D01*
X291081367Y-96990194D01*
X291078191Y-96994034D01*
X290995779Y-97084286D01*
X290992244Y-97087796D01*
X290901419Y-97169575D01*
X290897557Y-97172725D01*
X290799185Y-97245251D01*
X290795035Y-97248008D01*
X290690055Y-97310588D01*
X290685656Y-97312927D01*
X290575071Y-97364965D01*
X290570464Y-97366864D01*
X290455328Y-97407862D01*
X290450558Y-97409302D01*
X290331971Y-97438869D01*
X290327083Y-97439837D01*
X290206177Y-97457691D01*
X290201218Y-97458177D01*
X290079147Y-97464147D01*
X290076656Y-97464208D01*
X286276656Y-97464208D01*
X286276300Y-97464207D01*
X286258834Y-97464085D01*
X286255988Y-97463985D01*
X286235801Y-97462715D01*
X286215547Y-97462715D01*
X286213056Y-97462654D01*
X285954369Y-97450002D01*
X285954010Y-97449983D01*
X285936571Y-97449007D01*
X285933737Y-97448769D01*
X285882106Y-97442978D01*
X285830250Y-97437893D01*
X285827777Y-97437589D01*
X285571562Y-97399755D01*
X285571452Y-97399738D01*
X285571196Y-97399700D01*
X285553944Y-97397029D01*
X285551143Y-97396514D01*
X285500295Y-97385706D01*
X285449211Y-97375591D01*
X285446779Y-97375047D01*
X285195495Y-97312395D01*
X285195509Y-97312338D01*
X285195126Y-97312237D01*
X285195111Y-97312297D01*
X285178216Y-97307960D01*
X285175477Y-97307175D01*
X285125878Y-97291442D01*
X285076073Y-97276404D01*
X285073706Y-97275626D01*
X284829716Y-97188745D01*
X284829381Y-97188624D01*
X284812968Y-97182650D01*
X284810320Y-97181602D01*
X284762497Y-97161105D01*
X284714395Y-97141279D01*
X284712114Y-97140273D01*
X284477768Y-97029998D01*
X284477447Y-97029846D01*
X284461695Y-97022299D01*
X284459162Y-97020997D01*
X284413532Y-96995912D01*
X284367627Y-96971504D01*
X284365456Y-96970281D01*
X284142989Y-96837664D01*
X284142684Y-96837481D01*
X284127744Y-96828433D01*
X284125350Y-96826890D01*
X284082439Y-96797508D01*
X284039081Y-96768701D01*
X284037040Y-96767272D01*
X283828585Y-96613585D01*
X283828602Y-96613562D01*
X283828307Y-96613331D01*
X283828285Y-96613361D01*
X283814304Y-96602902D01*
X283812072Y-96601134D01*
X283772211Y-96567687D01*
X283731896Y-96534807D01*
X283730004Y-96533185D01*
X283537548Y-96359896D01*
X283537578Y-96359862D01*
X283537270Y-96359595D01*
X283537245Y-96359623D01*
X283524371Y-96347868D01*
X283522322Y-96345889D01*
X283485927Y-96308724D01*
X283448997Y-96272050D01*
X283447273Y-96270251D01*
X283272641Y-96079004D01*
X283272679Y-96078969D01*
X283272419Y-96078684D01*
X283272381Y-96078718D01*
X283260704Y-96065749D01*
X283258859Y-96063581D01*
X283226286Y-96023068D01*
X283193092Y-95982943D01*
X283191552Y-95980985D01*
X283036406Y-95773598D01*
X283036192Y-95773310D01*
X283025828Y-95759251D01*
X283024204Y-95756915D01*
X282995723Y-95713391D01*
X282966620Y-95670245D01*
X282965277Y-95668145D01*
X282831110Y-95446609D01*
X282830926Y-95446303D01*
X282821983Y-95431300D01*
X282820595Y-95428815D01*
X282796508Y-95382742D01*
X282771743Y-95336939D01*
X282770612Y-95334718D01*
X282658703Y-95101146D01*
X282659023Y-95100993D01*
X282658858Y-95100668D01*
X282658546Y-95100815D01*
X282651114Y-95085023D01*
X282649973Y-95082412D01*
X282630482Y-95034172D01*
X282610319Y-94986205D01*
X282609410Y-94983885D01*
X282520829Y-94740508D01*
X282520709Y-94740176D01*
X282514849Y-94723722D01*
X282513968Y-94721010D01*
X282499270Y-94671070D01*
X282483893Y-94621396D01*
X282483214Y-94618998D01*
X282418804Y-94368139D01*
X282418717Y-94367793D01*
X282414492Y-94350846D01*
X282413880Y-94348066D01*
X282404118Y-94296897D01*
X282393669Y-94245990D01*
X282393227Y-94243537D01*
X282353604Y-93987588D01*
X282353929Y-93987538D01*
X282353856Y-93987178D01*
X282353549Y-93987223D01*
X282350999Y-93969960D01*
X282350662Y-93967130D01*
X282345949Y-93915347D01*
X282340507Y-93863566D01*
X282340308Y-93861082D01*
X282325851Y-93602489D01*
X282325832Y-93602133D01*
X282324979Y-93584687D01*
X282324919Y-93581839D01*
X282325076Y-93559336D01*
X282323899Y-93536878D01*
X282323829Y-93534387D01*
X282323764Y-93515881D01*
X282323764Y-93515527D01*
X282323824Y-93498060D01*
X282323914Y-93495211D01*
X282325249Y-93472733D01*
X282325249Y-93450199D01*
X282325310Y-93447708D01*
X282337962Y-93189021D01*
X282337981Y-93188662D01*
X282338957Y-93171223D01*
X282339195Y-93168388D01*
X282344988Y-93116747D01*
X282350071Y-93064902D01*
X282350375Y-93062429D01*
X282388210Y-92806210D01*
X282388263Y-92805858D01*
X282390935Y-92788598D01*
X282391449Y-92785797D01*
X282402267Y-92734901D01*
X282412373Y-92683863D01*
X282412917Y-92681431D01*
X282475568Y-92430152D01*
X282475600Y-92430160D01*
X282475697Y-92429764D01*
X282475668Y-92429756D01*
X282480004Y-92412867D01*
X282480789Y-92410128D01*
X282496527Y-92360518D01*
X282511560Y-92310725D01*
X282512338Y-92308358D01*
X282599219Y-92064368D01*
X282599339Y-92064034D01*
X282605313Y-92047620D01*
X282606362Y-92044971D01*
X282626861Y-91997145D01*
X282646685Y-91949047D01*
X282647691Y-91946767D01*
X282757966Y-91712420D01*
X282758118Y-91712099D01*
X282765665Y-91696347D01*
X282766967Y-91693814D01*
X282792052Y-91648184D01*
X282816460Y-91602279D01*
X282817683Y-91600108D01*
X282950300Y-91377641D01*
X282950483Y-91377336D01*
X282959531Y-91362396D01*
X282961074Y-91360002D01*
X282990478Y-91317058D01*
X283019263Y-91273734D01*
X283020692Y-91271693D01*
X283174379Y-91063237D01*
X283174402Y-91063254D01*
X283174633Y-91062959D01*
X283174603Y-91062937D01*
X283185062Y-91048956D01*
X283186830Y-91046724D01*
X283220294Y-91006843D01*
X283253157Y-90966549D01*
X283254778Y-90964658D01*
X283428079Y-90772186D01*
X283428168Y-90772266D01*
X283428412Y-90771984D01*
X283428330Y-90771909D01*
X283440097Y-90759023D01*
X283442076Y-90756975D01*
X283479205Y-90720616D01*
X283515914Y-90683650D01*
X283517713Y-90681925D01*
X283708960Y-90507293D01*
X283708995Y-90507331D01*
X283709280Y-90507071D01*
X283709246Y-90507033D01*
X283722215Y-90495356D01*
X283724384Y-90493510D01*
X283764887Y-90460945D01*
X283805020Y-90427744D01*
X283806979Y-90426203D01*
X284014364Y-90271060D01*
X284014547Y-90271304D01*
X284014830Y-90271078D01*
X284014657Y-90270843D01*
X284028709Y-90260482D01*
X284031049Y-90258855D01*
X284074620Y-90230343D01*
X284117720Y-90201272D01*
X284119819Y-90199929D01*
X284341355Y-90065762D01*
X284341661Y-90065578D01*
X284356664Y-90056635D01*
X284359149Y-90055247D01*
X284405222Y-90031160D01*
X284451025Y-90006395D01*
X284453246Y-90005264D01*
X284686802Y-89893363D01*
X284686849Y-89893462D01*
X284687204Y-89893292D01*
X284687158Y-89893194D01*
X284702942Y-89885766D01*
X284705553Y-89884624D01*
X284753827Y-89865121D01*
X284801759Y-89844972D01*
X284804079Y-89844063D01*
X285047455Y-89755481D01*
X285047791Y-89755360D01*
X285064246Y-89749501D01*
X285066954Y-89748621D01*
X285116817Y-89733946D01*
X285166567Y-89718545D01*
X285168966Y-89717866D01*
X285419825Y-89653456D01*
X285420171Y-89653369D01*
X285437118Y-89649144D01*
X285439898Y-89648532D01*
X285491075Y-89638769D01*
X285541975Y-89628321D01*
X285544428Y-89627879D01*
X285800372Y-89588257D01*
X285800391Y-89588381D01*
X285800757Y-89588317D01*
X285800740Y-89588201D01*
X285818005Y-89585651D01*
X285820835Y-89585314D01*
X285872613Y-89580602D01*
X285924398Y-89575159D01*
X285926882Y-89574960D01*
X286185475Y-89560503D01*
X286185831Y-89560484D01*
X286203277Y-89559631D01*
X286206125Y-89559571D01*
X286228627Y-89559728D01*
X286251085Y-89558551D01*
X286253576Y-89558481D01*
X286272083Y-89558416D01*
X286272443Y-89558416D01*
X286275847Y-89558428D01*
X286276656Y-89558408D01*
X290076656Y-89558408D01*
X290077012Y-89558409D01*
G37*
D11*
X277441240Y-61987270D03*
X278984864Y-63197609D03*
D12*
X275673813Y-66360620D03*
D13*
X279057357Y-70922377D03*
X272362762Y-69523631D03*
D14*
X280676636Y-65478487D03*
X270670990Y-67242753D03*
D15*
X272391140Y-62369342D02*
X272329506Y-61792626D01*
D16*
X274631924Y-60451773D03*
X270089911Y-63486590D03*
D20*
X38591930Y-75038586D03*
D19*
G36*
X29924584Y-74374427D02*
G01*
X30220133Y-72698284D01*
X31896276Y-72993833D01*
X31600727Y-74669976D01*
X29924584Y-74374427D01*
G37*
D20*
X217015649Y-109536874D03*
D19*
G36*
X219355951Y-117908671D02*
G01*
X217679808Y-118204220D01*
X217384259Y-116528077D01*
X219060402Y-116232528D01*
X219355951Y-117908671D01*
G37*
D20*
X198255061Y-112844872D03*
D19*
G36*
X200595363Y-121216669D02*
G01*
X198919220Y-121512218D01*
X198623671Y-119836075D01*
X200299814Y-119540526D01*
X200595363Y-121216669D01*
G37*
D20*
X176694309Y-121773786D03*
D19*
G36*
X182906969Y-127853824D02*
G01*
X181603161Y-128947848D01*
X180509137Y-127644040D01*
X181812945Y-126550016D01*
X182906969Y-127853824D01*
G37*
D20*
X157566378Y-111810975D03*
D19*
G36*
X164038332Y-117614235D02*
G01*
X162783486Y-118764089D01*
X161633632Y-117509243D01*
X162888478Y-116359389D01*
X164038332Y-117614235D01*
G37*
D20*
X125160982Y-101485975D03*
D19*
G36*
X119943874Y-108439089D02*
G01*
X118689028Y-107289235D01*
X119838882Y-106034389D01*
X121093728Y-107184243D01*
X119943874Y-108439089D01*
G37*
D20*
X106033051Y-111348786D03*
D19*
G36*
X101124199Y-118522848D02*
G01*
X99820391Y-117428824D01*
X100914415Y-116125016D01*
X102218223Y-117219040D01*
X101124199Y-118522848D01*
G37*
D20*
X80928408Y-109970609D03*
D19*
G36*
X80264249Y-118637955D02*
G01*
X78588106Y-118342406D01*
X78883655Y-116666263D01*
X80559798Y-116961812D01*
X80264249Y-118637955D01*
G37*
D20*
X62157071Y-106644302D03*
D19*
G36*
X61492912Y-115311648D02*
G01*
X59816769Y-115016099D01*
X60112318Y-113339956D01*
X61788461Y-113635505D01*
X61492912Y-115311648D01*
G37*
D20*
X43396482Y-103336304D03*
D19*
G36*
X42732323Y-112003650D02*
G01*
X41056180Y-111708101D01*
X41351729Y-110031958D01*
X43027872Y-110327507D01*
X42732323Y-112003650D01*
G37*
D20*
X24635897Y-100028304D03*
D19*
G36*
X23971738Y-108695650D02*
G01*
X22295595Y-108400101D01*
X22591144Y-106723958D01*
X24267287Y-107019507D01*
X23971738Y-108695650D01*
G37*
D20*
X28753410Y-69595608D03*
D19*
G36*
X28089251Y-78262954D02*
G01*
X26413108Y-77967405D01*
X26708657Y-76291262D01*
X28384800Y-76586811D01*
X28089251Y-78262954D01*
G37*
D20*
X270548950Y-83970609D03*
D19*
G36*
X272889252Y-92342406D02*
G01*
X271213109Y-92637955D01*
X270917560Y-90961812D01*
X272593703Y-90666263D01*
X272889252Y-92342406D01*
G37*
D20*
X251228827Y-84160292D03*
D19*
G36*
X253569129Y-92532089D02*
G01*
X251892986Y-92827638D01*
X251597437Y-91151495D01*
X253273580Y-90855946D01*
X253569129Y-92532089D01*
G37*
D20*
X231916908Y-84341527D03*
D19*
G36*
X234257210Y-92713324D02*
G01*
X232581067Y-93008873D01*
X232285518Y-91332730D01*
X233961661Y-91037181D01*
X234257210Y-92713324D01*
G37*
D20*
X212604983Y-84522759D03*
D19*
G36*
X214945285Y-92894556D02*
G01*
X213269142Y-93190105D01*
X212973593Y-91513962D01*
X214649736Y-91218413D01*
X214945285Y-92894556D01*
G37*
D20*
X194395732Y-90957521D03*
D19*
G36*
X196736034Y-99329318D02*
G01*
X195059891Y-99624867D01*
X194764342Y-97948724D01*
X196440485Y-97653175D01*
X196736034Y-99329318D01*
G37*
D20*
X175635144Y-94265520D03*
D19*
G36*
X177975446Y-102637317D02*
G01*
X176299303Y-102932866D01*
X176003754Y-101256723D01*
X177679897Y-100961174D01*
X177975446Y-102637317D01*
G37*
D20*
X103537578Y-91372943D03*
D19*
G36*
X102873419Y-100040289D02*
G01*
X101197276Y-99744740D01*
X101492825Y-98068597D01*
X103168968Y-98364146D01*
X102873419Y-100040289D01*
G37*
D20*
X84776991Y-88064945D03*
D19*
G36*
X84112832Y-96732291D02*
G01*
X82436689Y-96436742D01*
X82732238Y-94760599D01*
X84408381Y-95056148D01*
X84112832Y-96732291D01*
G37*
D20*
X66567732Y-81630182D03*
D19*
G36*
X65903573Y-90297528D02*
G01*
X64227430Y-90001979D01*
X64522979Y-88325836D01*
X66199122Y-88621385D01*
X65903573Y-90297528D01*
G37*
D20*
X47255811Y-81448951D03*
D19*
G36*
X46591652Y-90116297D02*
G01*
X44915509Y-89820748D01*
X45211058Y-88144605D01*
X46887201Y-88440154D01*
X46591652Y-90116297D01*
G37*
D20*
X27953410Y-81295609D03*
D19*
G36*
X27289251Y-89962955D02*
G01*
X25613108Y-89667406D01*
X25908657Y-87991263D01*
X27584800Y-88286812D01*
X27289251Y-89962955D01*
G37*
D20*
X8728408Y-80495250D03*
D19*
G36*
X8064249Y-89162596D02*
G01*
X6388106Y-88867047D01*
X6683655Y-87190904D01*
X8359798Y-87486453D01*
X8064249Y-89162596D01*
G37*
D20*
X254536824Y-102920880D03*
D19*
G36*
X256877126Y-111292677D02*
G01*
X255200983Y-111588226D01*
X254905434Y-109912083D01*
X256581577Y-109616534D01*
X256877126Y-111292677D01*
G37*
D20*
X235776237Y-106228878D03*
D19*
G36*
X238116539Y-114600675D02*
G01*
X236440396Y-114896224D01*
X236144847Y-113220081D01*
X237820990Y-112924532D01*
X238116539Y-114600675D01*
G37*
D20*
X263924753Y-46457883D03*
D19*
G36*
X266265055Y-54829680D02*
G01*
X264588912Y-55125229D01*
X264293363Y-53449086D01*
X265969506Y-53153537D01*
X266265055Y-54829680D01*
G37*
D20*
X244612831Y-46639116D03*
D19*
G36*
X246953133Y-55010913D02*
G01*
X245276990Y-55306462D01*
X244981441Y-53630319D01*
X246657584Y-53334770D01*
X246953133Y-55010913D01*
G37*
D20*
X225300909Y-46820349D03*
D19*
G36*
X227641211Y-55192146D02*
G01*
X225965068Y-55487695D01*
X225669519Y-53811552D01*
X227345662Y-53516003D01*
X227641211Y-55192146D01*
G37*
D20*
X205988989Y-47001583D03*
D19*
G36*
X208329291Y-55373380D02*
G01*
X206653148Y-55668929D01*
X206357599Y-53992786D01*
X208033742Y-53697237D01*
X208329291Y-55373380D01*
G37*
D20*
X187779737Y-53436345D03*
D19*
G36*
X190120039Y-61808142D02*
G01*
X188443896Y-62103691D01*
X188148347Y-60427548D01*
X189824490Y-60131999D01*
X190120039Y-61808142D01*
G37*
D20*
X169019147Y-56744345D03*
D19*
G36*
X171359449Y-65116142D02*
G01*
X169683306Y-65411691D01*
X169387757Y-63735548D01*
X171063900Y-63439999D01*
X171359449Y-65116142D01*
G37*
D20*
X110153572Y-53851769D03*
D19*
G36*
X109489413Y-62519115D02*
G01*
X107813270Y-62223566D01*
X108108819Y-60547423D01*
X109784962Y-60842972D01*
X109489413Y-62519115D01*
G37*
D20*
X91392985Y-50543769D03*
D19*
G36*
X90728826Y-59211115D02*
G01*
X89052683Y-58915566D01*
X89348232Y-57239423D01*
X91024375Y-57534972D01*
X90728826Y-59211115D01*
G37*
D20*
X73183730Y-44109009D03*
D19*
G36*
X72519571Y-52776355D02*
G01*
X70843428Y-52480806D01*
X71138977Y-50804663D01*
X72815120Y-51100212D01*
X72519571Y-52776355D01*
G37*
D20*
X53871809Y-43927773D03*
D19*
G36*
X53207650Y-52595119D02*
G01*
X51531507Y-52299570D01*
X51827056Y-50623427D01*
X53503199Y-50918976D01*
X53207650Y-52595119D01*
G37*
D20*
X34559887Y-43746545D03*
D19*
G36*
X33895728Y-52413891D02*
G01*
X32219585Y-52118342D01*
X32515134Y-50442199D01*
X34191277Y-50737748D01*
X33895728Y-52413891D01*
G37*
D20*
X15247966Y-43565308D03*
D19*
G36*
X14583807Y-52232654D02*
G01*
X12907664Y-51937105D01*
X13203213Y-50260962D01*
X14879356Y-50556511D01*
X14583807Y-52232654D01*
G37*
D20*
X279795661Y-73991023D03*
D19*
G36*
X271423864Y-76331325D02*
G01*
X271128315Y-74655182D01*
X272804458Y-74359633D01*
X273100007Y-76035776D01*
X271423864Y-76331325D01*
G37*
D20*
X260416931Y-74234130D03*
D19*
G36*
X252045134Y-76574432D02*
G01*
X251749585Y-74898289D01*
X253425728Y-74602740D01*
X253721277Y-76278883D01*
X252045134Y-76574432D01*
G37*
D20*
X228608907Y-65580937D03*
D19*
G36*
X230949209Y-73952734D02*
G01*
X229273066Y-74248283D01*
X228977517Y-72572140D01*
X230653660Y-72276591D01*
X230949209Y-73952734D01*
G37*
D20*
X209296985Y-65762171D03*
D19*
G36*
X211637287Y-74133968D02*
G01*
X209961144Y-74429517D01*
X209665595Y-72753374D01*
X211341738Y-72457825D01*
X211637287Y-74133968D01*
G37*
D20*
X191087733Y-72196931D03*
D19*
G36*
X193428035Y-80568728D02*
G01*
X191751892Y-80864277D01*
X191456343Y-79188134D01*
X193132486Y-78892585D01*
X193428035Y-80568728D01*
G37*
D20*
X172327143Y-75504931D03*
D19*
G36*
X174667445Y-83876728D02*
G01*
X172991302Y-84172277D01*
X172695753Y-82496134D01*
X174371896Y-82200585D01*
X174667445Y-83876728D01*
G37*
D20*
X106845574Y-72612357D03*
D19*
G36*
X106181415Y-81279703D02*
G01*
X104505272Y-80984154D01*
X104800821Y-79308011D01*
X106476964Y-79603560D01*
X106181415Y-81279703D01*
G37*
D20*
X88084986Y-69304356D03*
D19*
G36*
X87420827Y-77971702D02*
G01*
X85744684Y-77676153D01*
X86040233Y-76000010D01*
X87716376Y-76295559D01*
X87420827Y-77971702D01*
G37*
D20*
X69875732Y-62869597D03*
D19*
G36*
X69211573Y-71536943D02*
G01*
X67535430Y-71241394D01*
X67830979Y-69565251D01*
X69507122Y-69860800D01*
X69211573Y-71536943D01*
G37*
D20*
X50563810Y-62688363D03*
D19*
G36*
X49899651Y-71355709D02*
G01*
X48223508Y-71060160D01*
X48519057Y-69384017D01*
X50195200Y-69679566D01*
X49899651Y-71355709D01*
G37*
D16*
X43055004Y-71109789D03*
X37748939Y-72408125D03*
D15*
X40510435Y-71372593D02*
X40371103Y-71935609D01*
D14*
X43793651Y-67381411D03*
X33788005Y-65617145D03*
D13*
X42984012Y-64659466D03*
X37171549Y-61055388D03*
D12*
X38790828Y-66499278D03*
D11*
X34597644Y-68339090D03*
X35634216Y-70004388D03*
D16*
X15214731Y-61707533D03*
X20520796Y-60409197D03*
D15*
X17759300Y-61444729D02*
X17898632Y-60881713D01*
D14*
X14476084Y-65435911D03*
X24481730Y-67200177D03*
D13*
X15285723Y-68157856D03*
X21098186Y-71761934D03*
D12*
X19478907Y-66318044D03*
D11*
X23672091Y-64478232D03*
X22635519Y-62812934D03*
D16*
X250777989Y-63667821D03*
X255320002Y-60633004D03*
D15*
X253079218Y-62550573D02*
X253017584Y-61973857D01*
D14*
X251359068Y-67423984D03*
X261364714Y-65659718D03*
D13*
X253050840Y-69704862D03*
X259745435Y-71103608D03*
D12*
X256361891Y-66541851D03*
D11*
X259672942Y-63378840D03*
X258129318Y-62168501D03*
X114535898Y-61349024D03*
X113499326Y-59683726D03*
D12*
X117692510Y-57843914D03*
D13*
X116073231Y-52400024D03*
X121885694Y-56004102D03*
D14*
X112689687Y-56961781D03*
X122695333Y-58726047D03*
D15*
X119412117Y-62717229D02*
X119272785Y-63280245D01*
D16*
X116650621Y-63752761D03*
X121956686Y-62454425D03*
D11*
X38942212Y-51243801D03*
X37905640Y-49578503D03*
D12*
X42098824Y-47738691D03*
D13*
X40479545Y-42294801D03*
X46292008Y-45898879D03*
D14*
X37096001Y-46856558D03*
X47101647Y-48620824D03*
D15*
X43818431Y-52612006D02*
X43679099Y-53175022D01*
D16*
X41056935Y-53647538D03*
X46363000Y-52349202D03*
D11*
X270598384Y-51973380D03*
X269054760Y-50763041D03*
D12*
X272365811Y-47600030D03*
D13*
X268982267Y-43038273D03*
X275676862Y-44437019D03*
D14*
X267362988Y-48482163D03*
X277368634Y-46717897D03*
D15*
X275648484Y-51591308D02*
X275710118Y-52168024D01*
D16*
X273407700Y-53508877D03*
X277949713Y-50474060D03*
D11*
X29018220Y-107525562D03*
X27981648Y-105860264D03*
D12*
X32174832Y-104020452D03*
D13*
X30555553Y-98576562D03*
X36368016Y-102180640D03*
D14*
X27172009Y-103138319D03*
X37177655Y-104902585D03*
D15*
X33894439Y-108893767D02*
X33755107Y-109456783D01*
D16*
X31132943Y-109929299D03*
X36439008Y-108630963D03*
D11*
X47778806Y-110833561D03*
X46742234Y-109168263D03*
D12*
X50935418Y-107328451D03*
D13*
X49316139Y-101884561D03*
X55128602Y-105488639D03*
D14*
X45932595Y-106446318D03*
X55938241Y-108210584D03*
D15*
X52655025Y-112201766D02*
X52515693Y-112764782D01*
D16*
X49893529Y-113237298D03*
X55199594Y-111938962D03*
D11*
X66539395Y-114141560D03*
X65502823Y-112476262D03*
D12*
X69696007Y-110636450D03*
D13*
X68076728Y-105192560D03*
X73889191Y-108796638D03*
D14*
X64693184Y-109754317D03*
X74698830Y-111518583D03*
D15*
X71415614Y-115509765D02*
X71276282Y-116072781D01*
D16*
X68654118Y-116545297D03*
X73960183Y-115246961D03*
D11*
X85299983Y-117449557D03*
X84263411Y-115784259D03*
D12*
X88456595Y-113944447D03*
D13*
X86837316Y-108500557D03*
X92649779Y-112104635D03*
D14*
X83453772Y-113062314D03*
X93459418Y-114826580D03*
D15*
X90176202Y-118817762D02*
X90036870Y-119380778D01*
D16*
X87414706Y-119853294D03*
X92720771Y-118554958D03*
D11*
X106090131Y-120005359D03*
X106025082Y-118044883D03*
D12*
X110576392Y-118548151D03*
D13*
X111896000Y-113023965D03*
X115127702Y-119051419D03*
D14*
X106684886Y-115282790D03*
X114467898Y-121813512D03*
D15*
X109628958Y-123628369D02*
X109226784Y-124046289D01*
D16*
X106719666Y-123144418D03*
X111964021Y-124673059D03*
D11*
X125090176Y-110039031D03*
X125025127Y-108078555D03*
D12*
X129576437Y-108581823D03*
D13*
X130896045Y-103057637D03*
X134127747Y-109085091D03*
D14*
X125684931Y-105316462D03*
X133467943Y-111847184D03*
D15*
X128629003Y-113662041D02*
X128226829Y-114079961D01*
D16*
X125719711Y-113178090D03*
X130964066Y-114706731D03*
D11*
X166232034Y-113156506D03*
X164290046Y-112880134D03*
D12*
X165575995Y-108485360D03*
D13*
X160364881Y-106226535D03*
X166861944Y-104090586D03*
D14*
X161684489Y-111750721D03*
X169467501Y-105219999D03*
D15*
X170414513Y-110300571D02*
X170756247Y-110769205D01*
D16*
X169432721Y-113081627D03*
X171848811Y-108182392D03*
D11*
X185232441Y-123221312D03*
X183290453Y-122944940D03*
D12*
X184576402Y-118550166D03*
D13*
X179365288Y-116291341D03*
X185862351Y-114155392D03*
D14*
X180684896Y-121815527D03*
X188467908Y-115284805D03*
D15*
X189414920Y-120365377D02*
X189756654Y-120834011D01*
D16*
X188433128Y-123146433D03*
X190849218Y-118247198D03*
D11*
X204928698Y-118360370D03*
X203385074Y-117150031D03*
D12*
X206696125Y-113987020D03*
D13*
X203312581Y-109425263D03*
X210007176Y-110824009D03*
D14*
X201693302Y-114869153D03*
X211698948Y-113104887D03*
D15*
X209978798Y-117978298D02*
X210040432Y-118555014D01*
D16*
X207738014Y-119895867D03*
X212280027Y-116861050D03*
D11*
X223689282Y-115052372D03*
X222145658Y-113842033D03*
D12*
X225456709Y-110679022D03*
D13*
X222073165Y-106117265D03*
X228767760Y-107516011D03*
D14*
X220453886Y-111561155D03*
X230459532Y-109796889D03*
D15*
X228739382Y-114670300D02*
X228801016Y-115247016D01*
D16*
X226498598Y-116587869D03*
X231040611Y-113553052D03*
D11*
X242449872Y-111744374D03*
X240906248Y-110534035D03*
D12*
X244217299Y-107371024D03*
D13*
X240833755Y-102809267D03*
X247528350Y-104208013D03*
D14*
X239214476Y-108253157D03*
X249220122Y-106488891D03*
D15*
X247499972Y-111362302D02*
X247561606Y-111939018D01*
D16*
X245259188Y-113279871D03*
X249801201Y-110245054D03*
D11*
X261210459Y-108436379D03*
X259666835Y-107226040D03*
D12*
X262977886Y-104063029D03*
D13*
X259594342Y-99501272D03*
X266288937Y-100900018D03*
D14*
X257975063Y-104945162D03*
X267980709Y-103180896D03*
D15*
X266260559Y-108054307D02*
X266322193Y-108631023D01*
D16*
X264019775Y-109971876D03*
X268561788Y-106937059D03*
D11*
X32326217Y-88764975D03*
X31289645Y-87099677D03*
D12*
X35482829Y-85259865D03*
D13*
X33863550Y-79815975D03*
X39676013Y-83420053D03*
D14*
X30480006Y-84377732D03*
X40485652Y-86141998D03*
D15*
X37202436Y-90133180D02*
X37063104Y-90696196D01*
D16*
X34440940Y-91168712D03*
X39747005Y-89870376D03*
D11*
X51638138Y-88946209D03*
X50601566Y-87280911D03*
D12*
X54794750Y-85441099D03*
D13*
X53175471Y-79997209D03*
X58987934Y-83601287D03*
D14*
X49791927Y-84558966D03*
X59797573Y-86323232D03*
D15*
X56514357Y-90314414D02*
X56375025Y-90877430D01*
D16*
X53752861Y-91349946D03*
X59058926Y-90051610D03*
D11*
X70950057Y-89127441D03*
X69913485Y-87462143D03*
D12*
X74106669Y-85622331D03*
D13*
X72487390Y-80178441D03*
X78299853Y-83782519D03*
D14*
X69103846Y-84740198D03*
X79109492Y-86504464D03*
D15*
X75826276Y-90495646D02*
X75686944Y-91058662D01*
D16*
X73064780Y-91531178D03*
X78370845Y-90232842D03*
D11*
X89159315Y-95562203D03*
X88122743Y-93896905D03*
D12*
X92315927Y-92057093D03*
D13*
X90696648Y-86613203D03*
X96509111Y-90217281D03*
D14*
X87313104Y-91174960D03*
X97318750Y-92939226D03*
D15*
X94035534Y-96930408D02*
X93896202Y-97493424D01*
D16*
X91274038Y-97965940D03*
X96580103Y-96667604D03*
D11*
X107919901Y-98870203D03*
X106883329Y-97204905D03*
D12*
X111076513Y-95365093D03*
D13*
X109457234Y-89921203D03*
X115269697Y-93525281D03*
D14*
X106073690Y-94482960D03*
X116079336Y-96247226D03*
D15*
X112796120Y-100238408D02*
X112656788Y-100801424D01*
D16*
X110034624Y-101273940D03*
X115340689Y-99975604D03*
D11*
X182308776Y-99781016D03*
X180765152Y-98570677D03*
D12*
X184076203Y-95407666D03*
D13*
X180692659Y-90845909D03*
X187387254Y-92244655D03*
D14*
X179073380Y-96289799D03*
X189079026Y-94525533D03*
D15*
X187358876Y-99398944D02*
X187420510Y-99975660D01*
D16*
X185118092Y-101316513D03*
X189660105Y-98281696D03*
D11*
X201069367Y-96473017D03*
X199525743Y-95262678D03*
D12*
X202836794Y-92099667D03*
D13*
X199453250Y-87537910D03*
X206147845Y-88936656D03*
D14*
X197833971Y-92981800D03*
X207839617Y-91217534D03*
D15*
X206119467Y-96090945D02*
X206181101Y-96667661D01*
D16*
X203878683Y-98008514D03*
X208420696Y-94973697D03*
D11*
X219278623Y-90038256D03*
X217734999Y-88827917D03*
D12*
X221046050Y-85664906D03*
D13*
X217662506Y-81103149D03*
X224357101Y-82501895D03*
D14*
X216043227Y-86547039D03*
X226048873Y-84782773D03*
D15*
X224328723Y-89656184D02*
X224390357Y-90232900D01*
D16*
X222087939Y-91573753D03*
X226629952Y-88538936D03*
D11*
X238590539Y-89857023D03*
X237046915Y-88646684D03*
D12*
X240357966Y-85483673D03*
D13*
X236974422Y-80921916D03*
X243669017Y-82320662D03*
D14*
X235355143Y-86365806D03*
X245360789Y-84601540D03*
D15*
X243640639Y-89474951D02*
X243702273Y-90051667D01*
D16*
X241399855Y-91392520D03*
X245941868Y-88357703D03*
D11*
X257902460Y-89675791D03*
X256358836Y-88465452D03*
D12*
X259669887Y-85302441D03*
D13*
X256286343Y-80740684D03*
X262980938Y-82139430D03*
D14*
X254667064Y-86184574D03*
X264672710Y-84420308D03*
D15*
X262952560Y-89293719D02*
X263014194Y-89870435D01*
D16*
X260711776Y-91211288D03*
X265253789Y-88176471D03*
D11*
X54946138Y-70185618D03*
X53909566Y-68520320D03*
D12*
X58102750Y-66680508D03*
D13*
X56483471Y-61236618D03*
X62295934Y-64840696D03*
D14*
X53099927Y-65798375D03*
X63105573Y-67562641D03*
D15*
X59822357Y-71553823D02*
X59683025Y-72116839D01*
D16*
X57060861Y-72589355D03*
X62366926Y-71291019D03*
D11*
X74258057Y-70366855D03*
X73221485Y-68701557D03*
D12*
X77414669Y-66861745D03*
D13*
X75795390Y-61417855D03*
X81607853Y-65021933D03*
D14*
X72411846Y-65979612D03*
X82417492Y-67743878D03*
D15*
X79134276Y-71735060D02*
X78994944Y-72298076D01*
D16*
X76372780Y-72770592D03*
X81678845Y-71472256D03*
D11*
X92467312Y-76801614D03*
X91430740Y-75136316D03*
D12*
X95623924Y-73296504D03*
D13*
X94004645Y-67852614D03*
X99817108Y-71456692D03*
D14*
X90621101Y-72414371D03*
X100626747Y-74178637D03*
D15*
X97343531Y-78169819D02*
X97204199Y-78732835D01*
D16*
X94582035Y-79205351D03*
X99888100Y-77907015D03*
D11*
X111227900Y-80109612D03*
X110191328Y-78444314D03*
D12*
X114384512Y-76604502D03*
D13*
X112765233Y-71160612D03*
X118577696Y-74764690D03*
D14*
X109381689Y-75722369D03*
X119387335Y-77486635D03*
D15*
X116104119Y-81477817D02*
X115964787Y-82040833D01*
D16*
X113342623Y-82513349D03*
X118648688Y-81215013D03*
D11*
X179000781Y-81020427D03*
X177457157Y-79810088D03*
D12*
X180768208Y-76647077D03*
D13*
X177384664Y-72085320D03*
X184079259Y-73484066D03*
D14*
X175765385Y-77529210D03*
X185771031Y-75764944D03*
D15*
X184050881Y-80638355D02*
X184112515Y-81215071D01*
D16*
X181810097Y-82555924D03*
X186352110Y-79521107D03*
D11*
X197761368Y-77712433D03*
X196217744Y-76502094D03*
D12*
X199528795Y-73339083D03*
D13*
X196145251Y-68777326D03*
X202839846Y-70176072D03*
D14*
X194525972Y-74221216D03*
X204531618Y-72456950D03*
D15*
X202811468Y-77330361D02*
X202873102Y-77907077D01*
D16*
X200570684Y-79247930D03*
X205112697Y-76213113D03*
D11*
X215970623Y-71277668D03*
X214426999Y-70067329D03*
D12*
X217738050Y-66904318D03*
D13*
X214354506Y-62342561D03*
X221049101Y-63741307D03*
D14*
X212735227Y-67786451D03*
X222740873Y-66022185D03*
D15*
X221020723Y-70895596D02*
X221082357Y-71472312D01*
D16*
X218779939Y-72813165D03*
X223321952Y-69778348D03*
D11*
X235282543Y-71096435D03*
X233738919Y-69886096D03*
D12*
X237049970Y-66723085D03*
D13*
X233666426Y-62161328D03*
X240361021Y-63560074D03*
D14*
X232047147Y-67605218D03*
X242052793Y-65840952D03*
D15*
X240332643Y-70714363D02*
X240394277Y-71291079D01*
D16*
X238091859Y-72631932D03*
X242633872Y-69597115D03*
D11*
X19619569Y-51016468D03*
X18582997Y-49351170D03*
D12*
X22776181Y-47511358D03*
D13*
X21156902Y-42067468D03*
X26969365Y-45671546D03*
D14*
X17773358Y-46629225D03*
X27779004Y-48393491D03*
D15*
X24495788Y-52384673D02*
X24356456Y-52947689D01*
D16*
X21734292Y-53420205D03*
X27040357Y-52121869D03*
D11*
X58254134Y-51425031D03*
X57217562Y-49759733D03*
D12*
X61410746Y-47919921D03*
D13*
X59791467Y-42476031D03*
X65603930Y-46080109D03*
D14*
X56407923Y-47037788D03*
X66413569Y-48802054D03*
D15*
X63130353Y-52793236D02*
X62991021Y-53356252D01*
D16*
X60368857Y-53828768D03*
X65674922Y-52530432D03*
D11*
X77566053Y-51606266D03*
X76529481Y-49940968D03*
D12*
X80722665Y-48101156D03*
D13*
X79103386Y-42657266D03*
X84915849Y-46261344D03*
D14*
X75719842Y-47219023D03*
X85725488Y-48983289D03*
D15*
X82442272Y-52974471D02*
X82302940Y-53537487D01*
D16*
X79680776Y-54010003D03*
X84986841Y-52711667D03*
D11*
X95775309Y-58041027D03*
X94738737Y-56375729D03*
D12*
X98931921Y-54535917D03*
D13*
X97312642Y-49092027D03*
X103125105Y-52696105D03*
D14*
X93929098Y-53653784D03*
X103934744Y-55418050D03*
D15*
X100651528Y-59409232D02*
X100512196Y-59972248D01*
D16*
X97890032Y-60444764D03*
X103196097Y-59146428D03*
D11*
X175692782Y-62259841D03*
X174149158Y-61049502D03*
D12*
X177460209Y-57886491D03*
D13*
X174076665Y-53324734D03*
X180771260Y-54723480D03*
D14*
X172457386Y-58768624D03*
X182463032Y-57004358D03*
D15*
X180742882Y-61877769D02*
X180804516Y-62454485D01*
D16*
X178502098Y-63795338D03*
X183044111Y-60760521D03*
D11*
X194453370Y-58951843D03*
X192909746Y-57741504D03*
D12*
X196220797Y-54578493D03*
D13*
X192837253Y-50016736D03*
X199531848Y-51415482D03*
D14*
X191217974Y-55460626D03*
X201223620Y-53696360D03*
D15*
X199503470Y-58569771D02*
X199565104Y-59146487D01*
D16*
X197262686Y-60487340D03*
X201804699Y-57452523D03*
D11*
X212662622Y-52517082D03*
X211118998Y-51306743D03*
D12*
X214430049Y-48143732D03*
D13*
X211046505Y-43581975D03*
X217741100Y-44980721D03*
D14*
X209427226Y-49025865D03*
X219432872Y-47261599D03*
D15*
X217712722Y-52135010D02*
X217774356Y-52711726D01*
D16*
X215471938Y-54052579D03*
X220013951Y-51017762D03*
D11*
X251286466Y-52154615D03*
X249742842Y-50944276D03*
D12*
X253053893Y-47781265D03*
D13*
X249670349Y-43219508D03*
X256364944Y-44618254D03*
D14*
X248051070Y-48663398D03*
X258056716Y-46899132D03*
D15*
X256336566Y-51772543D02*
X256398200Y-52349259D01*
D16*
X254095782Y-53690112D03*
X258637795Y-50655295D03*
D11*
X231974546Y-52335848D03*
X230430922Y-51125509D03*
D12*
X233741973Y-47962498D03*
D13*
X230358429Y-43400741D03*
X237053024Y-44799487D03*
D14*
X228739150Y-48844631D03*
X238744796Y-47080365D03*
D15*
X237024646Y-51953776D02*
X237086280Y-52530492D01*
D16*
X234783862Y-53871345D03*
X239325875Y-50836528D03*
D21*
X149276181Y-42911358D03*
X145876181Y-42911358D03*
D22*
X287292082Y-74408560D03*
D23*
X127579118Y-75915757D03*
D22*
X147592082Y-128764560D03*
X7382082Y-39424557D03*
D23*
X127579118Y-78915757D03*
X127579118Y-81915758D03*
X127579118Y-84915757D03*
D24*
X26676000Y-117864000D03*
X95510000Y-124976000D03*
X260102000Y-123960000D03*
X281438000Y-95512000D03*
X264674000Y-60460000D03*
X28200000Y-60714000D03*
X18330000Y-95910000D03*
X14330000Y-96410000D03*
M02*
