M48
; DRILL file {KiCad (5.1.5-0-10_14)} date Friday, August 13, 2021 at 02:32:26 PM
; FORMAT={-:-/ absolute / metric / decimal}
; #@! TF.CreationDate,2021-08-13T14:32:26-04:00
; #@! TF.GenerationSoftware,Kicad,Pcbnew,(5.1.5-0-10_14)
; #@! TF.FileFunction,Plated,1,2,PTH
FMAT,2
METRIC
T1C0.400
T2C0.500
T3C1.000
T4C1.016
T5C1.092
T6C1.200
T7C1.500
T8C2.500
%
G90
G05
T1
X14.33Y-96.41
X18.33Y-95.91
X26.676Y-117.864
X28.2Y-60.714
X95.51Y-124.976
X260.102Y-123.96
X264.674Y-60.46
X281.438Y-95.512
T2
X6.835Y-90.911
X6.835Y-96.111
X8.877Y-90.911
X8.877Y-96.111
X10.715Y-91.673
X10.715Y-95.35
X11.477Y-93.511
X28.827Y-62.594
X28.827Y-67.211
X28.827Y-119.911
X28.827Y-124.511
X30.027Y-62.611
X30.027Y-67.211
X30.027Y-119.911
X30.027Y-124.511
X31.227Y-62.611
X31.227Y-67.211
X31.227Y-119.911
X31.227Y-124.511
X98.377Y-119.911
X98.377Y-124.511
X99.577Y-119.911
X99.577Y-124.511
X100.777Y-119.911
X100.777Y-124.511
X262.577Y-64.911
X263.25Y-63.285
X263.25Y-66.538
X263.677Y-119.911
X263.677Y-124.511
X264.877Y-62.611
X264.877Y-67.211
X264.877Y-119.911
X264.877Y-124.511
X266.077Y-119.911
X266.077Y-124.511
X266.503Y-63.285
X266.503Y-66.538
X267.177Y-64.911
X283.677Y-93.511
X284.438Y-91.673
X284.438Y-95.35
X286.277Y-90.911
X286.277Y-96.111
X288.319Y-90.911
X288.319Y-96.111
T3
X52.517Y-51.609
X53.872Y-43.928
X30.91Y-73.684
X38.592Y-75.039
X71.829Y-51.791
X73.184Y-44.109
X191.088Y-72.197
X192.442Y-79.878
X90.039Y-58.225
X91.393Y-50.544
X209.297Y-65.762
X210.651Y-73.444
X108.799Y-61.533
X110.154Y-53.852
X228.609Y-65.581
X229.963Y-73.262
X169.019Y-56.744
X170.374Y-64.426
X252.735Y-75.589
X260.417Y-74.234
X272.114Y-75.345
X279.796Y-73.991
X68.521Y-70.551
X69.876Y-62.87
X49.209Y-70.37
X50.564Y-62.688
X205.989Y-47.002
X207.343Y-54.683
X60.803Y-114.326
X62.157Y-106.644
X225.301Y-46.82
X226.655Y-54.502
X79.574Y-117.652
X80.928Y-109.971
X244.613Y-46.639
X245.967Y-54.321
X101.019Y-117.324
X106.033Y-111.349
X119.891Y-107.237
X125.161Y-101.486
X172.327Y-75.505
X173.682Y-83.186
X263.925Y-46.458
X265.279Y-54.139
X105.491Y-80.294
X106.846Y-72.612
X86.731Y-76.986
X88.085Y-69.304
X235.776Y-106.229
X237.131Y-113.91
X254.537Y-102.921
X255.891Y-110.602
X7.374Y-88.177
X8.728Y-80.495
X26.599Y-88.977
X27.953Y-81.296
X187.78Y-53.436
X189.134Y-61.118
X42.042Y-111.018
X43.396Y-103.336
X157.566Y-111.811
X162.836Y-117.562
X45.901Y-89.13
X47.256Y-81.449
X270.549Y-83.971
X271.903Y-91.652
X65.213Y-89.312
X66.568Y-81.63
X27.399Y-77.277
X28.753Y-69.596
X176.694Y-121.774
X181.708Y-127.749
X83.423Y-95.746
X84.777Y-88.065
X102.183Y-99.054
X103.538Y-91.373
X198.255Y-112.845
X199.61Y-120.526
X217.016Y-109.537
X218.37Y-117.218
X175.635Y-94.266
X176.99Y-101.947
X194.396Y-90.958
X195.75Y-98.639
X212.605Y-84.523
X213.959Y-92.204
X231.917Y-84.342
X233.271Y-92.023
X251.229Y-84.16
X252.583Y-91.842
X13.894Y-51.247
X15.248Y-43.565
X23.281Y-107.71
X24.636Y-100.028
X33.205Y-51.428
X34.56Y-43.747
T4
X127.579Y-81.916
X127.579Y-84.916
X127.579Y-75.916
X127.579Y-78.916
T5
X139.956Y-69.691
X139.956Y-72.231
X139.956Y-74.771
X139.956Y-77.311
X139.956Y-79.851
X139.956Y-82.391
X139.956Y-84.931
X139.956Y-87.471
X139.956Y-90.011
X139.956Y-92.551
X139.956Y-95.091
X139.956Y-97.631
X142.496Y-92.551
X145.036Y-92.551
X147.576Y-92.551
X155.196Y-69.691
X155.196Y-72.231
X155.196Y-74.771
X155.196Y-77.311
X155.196Y-79.851
X155.196Y-82.391
X155.196Y-84.931
X155.196Y-87.471
X155.196Y-90.011
X155.196Y-92.551
X155.196Y-95.091
X155.196Y-97.631
T6
X73.065Y-91.531
X78.371Y-90.233
X60.369Y-53.829
X65.675Y-52.53
X207.738Y-119.896
X212.28Y-116.861
X245.259Y-113.28
X249.801Y-110.245
X270.09Y-63.487
X274.632Y-60.452
X254.096Y-53.69
X258.638Y-50.655
X57.061Y-72.589
X62.367Y-71.291
X87.415Y-119.853
X92.721Y-118.555
X234.784Y-53.871
X239.326Y-50.837
X94.582Y-79.205
X99.888Y-77.907
X79.681Y-54.01
X84.987Y-52.712
X264.02Y-109.972
X268.562Y-106.937
X181.81Y-82.556
X186.352Y-79.521
X97.89Y-60.445
X103.196Y-59.146
X273.408Y-53.509
X277.95Y-50.474
X53.753Y-91.35
X59.059Y-90.052
X241.4Y-91.393
X245.942Y-88.358
X218.78Y-72.813
X223.322Y-69.778
X188.433Y-123.146
X190.849Y-118.247
X49.894Y-113.237
X55.2Y-111.939
X37.749Y-72.408
X43.055Y-71.11
X116.651Y-63.753
X121.957Y-62.454
X21.734Y-53.42
X27.04Y-52.122
X226.499Y-116.588
X231.041Y-113.553
X125.72Y-113.178
X130.964Y-114.707
X68.654Y-116.545
X73.96Y-115.247
X15.215Y-61.708
X20.521Y-60.409
X222.088Y-91.574
X226.63Y-88.539
X178.502Y-63.795
X183.044Y-60.761
X41.057Y-53.648
X46.363Y-52.349
X34.441Y-91.169
X39.747Y-89.87
X169.433Y-113.082
X171.849Y-108.182
X197.263Y-60.487
X201.805Y-57.453
X15.129Y-90.987
X20.435Y-89.689
X238.092Y-72.632
X242.634Y-69.597
X185.118Y-101.317
X189.66Y-98.282
X203.879Y-98.009
X208.421Y-94.974
X110.035Y-101.274
X115.341Y-99.976
X200.571Y-79.248
X205.113Y-76.213
X31.133Y-109.929
X36.439Y-108.631
X250.778Y-63.668
X255.32Y-60.633
X260.712Y-91.211
X265.254Y-88.176
X91.274Y-97.966
X96.58Y-96.668
X215.472Y-54.053
X220.014Y-51.018
X76.373Y-72.771
X81.679Y-71.472
X106.72Y-123.144
X111.964Y-124.673
X279.922Y-91.019
X284.464Y-87.984
X113.343Y-82.513
X118.649Y-81.215
T7
X88.123Y-93.897
X89.159Y-95.562
X211.119Y-51.307
X212.663Y-52.517
X73.221Y-68.702
X74.258Y-70.367
X106.025Y-118.045
X106.09Y-120.005
X275.569Y-88.273
X277.113Y-89.483
X110.191Y-78.444
X111.228Y-80.11
X69.913Y-87.462
X70.95Y-89.127
X57.218Y-49.76
X58.254Y-51.425
X203.385Y-117.15
X204.929Y-118.36
X240.906Y-110.534
X242.45Y-111.744
X277.441Y-61.987
X278.985Y-63.198
X249.743Y-50.944
X251.286Y-52.155
X53.91Y-68.52
X54.946Y-70.186
X84.263Y-115.784
X85.3Y-117.45
X230.431Y-51.126
X231.975Y-52.336
X91.431Y-75.136
X92.467Y-76.802
X76.529Y-49.941
X77.566Y-51.606
X259.667Y-107.226
X261.21Y-108.436
X177.457Y-79.81
X179.001Y-81.02
X94.739Y-56.376
X95.775Y-58.041
X269.055Y-50.763
X270.598Y-51.973
X50.602Y-87.281
X51.638Y-88.946
X237.047Y-88.647
X238.591Y-89.857
X214.427Y-70.067
X215.971Y-71.278
X183.29Y-122.945
X185.232Y-123.221
X46.742Y-109.168
X47.779Y-110.834
X34.598Y-68.339
X35.634Y-70.004
X113.499Y-59.684
X114.536Y-61.349
X18.583Y-49.351
X19.62Y-51.016
X222.146Y-113.842
X223.689Y-115.052
X125.025Y-108.079
X125.09Y-110.039
X65.503Y-112.476
X66.539Y-114.142
X22.636Y-62.813
X23.672Y-64.478
X217.735Y-88.828
X219.279Y-90.038
X174.149Y-61.05
X175.693Y-62.26
X37.906Y-49.579
X38.942Y-51.244
X31.29Y-87.1
X32.326Y-88.765
X164.29Y-112.88
X166.232Y-113.157
X192.91Y-57.742
X194.453Y-58.952
X11.978Y-86.918
X13.014Y-88.584
X233.739Y-69.886
X235.283Y-71.096
X180.765Y-98.571
X182.309Y-99.781
X199.526Y-95.263
X201.069Y-96.473
X106.883Y-97.205
X107.92Y-98.87
X196.218Y-76.502
X197.761Y-77.712
X27.982Y-105.86
X29.018Y-107.526
X258.129Y-62.169
X259.673Y-63.379
X256.359Y-88.465
X257.902Y-89.676
T8
X264.877Y-64.911
T7
G00X94.036Y-96.93
M15
G01X93.896Y-97.493
M16
G05
G00X217.713Y-52.135
M15
G01X217.774Y-52.712
M16
G05
G00X79.134Y-71.735
M15
G01X78.995Y-72.298
M16
G05
G00X109.629Y-123.628
M15
G01X109.227Y-124.046
M16
G05
G00X282.163Y-89.101
M15
G01X282.224Y-89.678
M16
G05
G00X116.104Y-81.478
M15
G01X115.965Y-82.041
M16
G05
G00X75.826Y-90.496
M15
G01X75.687Y-91.059
M16
G05
G00X63.13Y-52.793
M15
G01X62.991Y-53.356
M16
G05
G00X209.979Y-117.978
M15
G01X210.04Y-118.555
M16
G05
G00X247.5Y-111.362
M15
G01X247.562Y-111.939
M16
G05
G00X272.391Y-62.369
M15
G01X272.33Y-61.793
M16
G05
G00X256.337Y-51.773
M15
G01X256.398Y-52.349
M16
G05
G00X59.822Y-71.554
M15
G01X59.683Y-72.117
M16
G05
G00X90.176Y-118.818
M15
G01X90.037Y-119.381
M16
G05
G00X237.025Y-51.954
M15
G01X237.086Y-52.53
M16
G05
G00X97.344Y-78.17
M15
G01X97.204Y-78.733
M16
G05
G00X82.442Y-52.974
M15
G01X82.303Y-53.537
M16
G05
G00X266.261Y-108.054
M15
G01X266.322Y-108.631
M16
G05
G00X184.051Y-80.638
M15
G01X184.113Y-81.215
M16
G05
G00X100.652Y-59.409
M15
G01X100.512Y-59.972
M16
G05
G00X275.648Y-51.591
M15
G01X275.71Y-52.168
M16
G05
G00X56.514Y-90.314
M15
G01X56.375Y-90.877
M16
G05
G00X243.641Y-89.475
M15
G01X243.702Y-90.052
M16
G05
G00X221.021Y-70.896
M15
G01X221.082Y-71.472
M16
G05
G00X189.415Y-120.365
M15
G01X189.757Y-120.834
M16
G05
G00X52.655Y-112.202
M15
G01X52.516Y-112.765
M16
G05
G00X40.51Y-71.373
M15
G01X40.371Y-71.936
M16
G05
G00X119.412Y-62.717
M15
G01X119.273Y-63.28
M16
G05
G00X24.496Y-52.385
M15
G01X24.356Y-52.948
M16
G05
G00X228.739Y-114.67
M15
G01X228.801Y-115.247
M16
G05
G00X128.629Y-113.662
M15
G01X128.227Y-114.08
M16
G05
G00X71.416Y-115.51
M15
G01X71.276Y-116.073
M16
G05
G00X17.759Y-61.445
M15
G01X17.899Y-60.882
M16
G05
G00X224.329Y-89.656
M15
G01X224.39Y-90.233
M16
G05
G00X180.743Y-61.878
M15
G01X180.805Y-62.454
M16
G05
G00X43.818Y-52.612
M15
G01X43.679Y-53.175
M16
G05
G00X37.202Y-90.133
M15
G01X37.063Y-90.696
M16
G05
G00X170.415Y-110.301
M15
G01X170.756Y-110.769
M16
G05
G00X199.503Y-58.57
M15
G01X199.565Y-59.146
M16
G05
G00X17.891Y-89.952
M15
G01X17.751Y-90.515
M16
G05
G00X240.333Y-70.714
M15
G01X240.394Y-71.291
M16
G05
G00X187.359Y-99.399
M15
G01X187.421Y-99.976
M16
G05
G00X206.119Y-96.091
M15
G01X206.181Y-96.668
M16
G05
G00X112.796Y-100.238
M15
G01X112.657Y-100.801
M16
G05
G00X202.811Y-77.33
M15
G01X202.873Y-77.907
M16
G05
G00X33.894Y-108.894
M15
G01X33.755Y-109.457
M16
G05
G00X253.079Y-62.551
M15
G01X253.018Y-61.974
M16
G05
G00X262.953Y-89.294
M15
G01X263.014Y-89.87
M16
G05
T8
G00X31.277Y-64.911
M15
G01X28.777Y-64.911
M16
G05
G00X28.777Y-122.211
M15
G01X31.277Y-122.211
M16
G05
G00X98.327Y-122.211
M15
G01X100.827Y-122.211
M16
G05
G00X263.627Y-122.211
M15
G01X266.127Y-122.211
M16
G05
T0
M30
