G04 #@! TF.GenerationSoftware,KiCad,Pcbnew,(5.1.5-0-10_14)*
G04 #@! TF.CreationDate,2021-08-24T10:05:46-04:00*
G04 #@! TF.ProjectId,Laptreus-v3,4c617074-7265-4757-932d-76332e6b6963,rev?*
G04 #@! TF.SameCoordinates,Original*
G04 #@! TF.FileFunction,Legend,Bot*
G04 #@! TF.FilePolarity,Positive*
%FSLAX46Y46*%
G04 Gerber Fmt 4.6, Leading zero omitted, Abs format (unit mm)*
G04 Created by KiCad (PCBNEW (5.1.5-0-10_14)) date 2021-08-24 10:05:46*
%MOMM*%
%LPD*%
G04 APERTURE LIST*
%ADD10C,0.150000*%
%ADD11C,7.102000*%
%ADD12C,1.102000*%
%ADD13C,0.100000*%
%ADD14C,1.981200*%
%ADD15C,2.102000*%
%ADD16C,2.602000*%
%ADD17C,1.772000*%
%ADD18C,3.102000*%
%ADD19C,4.082180*%
%ADD20C,2.602000*%
%ADD21C,1.702000*%
%ADD22R,1.002000X1.802000*%
%ADD23C,2.000000*%
%ADD24C,0.902000*%
G04 APERTURE END LIST*
D10*
X149226181Y-42311358D02*
X149226181Y-42011358D01*
X145926181Y-42311358D02*
X149226181Y-42311358D01*
X145926181Y-42011358D02*
X145926181Y-42311358D01*
X149226181Y-39511358D02*
X149226181Y-39811358D01*
X145926181Y-39511358D02*
X149226181Y-39511358D01*
X145926181Y-39811358D02*
X145926181Y-39511358D01*
X146123800Y-38863738D02*
X145790466Y-38387548D01*
X145552371Y-38863738D02*
X145552371Y-37863738D01*
X145933323Y-37863738D01*
X146028561Y-37911358D01*
X146076181Y-37958977D01*
X146123800Y-38054215D01*
X146123800Y-38197072D01*
X146076181Y-38292310D01*
X146028561Y-38339929D01*
X145933323Y-38387548D01*
X145552371Y-38387548D01*
X146552371Y-38339929D02*
X146885704Y-38339929D01*
X147028561Y-38863738D02*
X146552371Y-38863738D01*
X146552371Y-37863738D01*
X147028561Y-37863738D01*
X147409514Y-38816119D02*
X147552371Y-38863738D01*
X147790466Y-38863738D01*
X147885704Y-38816119D01*
X147933323Y-38768500D01*
X147980942Y-38673262D01*
X147980942Y-38578024D01*
X147933323Y-38482786D01*
X147885704Y-38435167D01*
X147790466Y-38387548D01*
X147599990Y-38339929D01*
X147504752Y-38292310D01*
X147457133Y-38244691D01*
X147409514Y-38149453D01*
X147409514Y-38054215D01*
X147457133Y-37958977D01*
X147504752Y-37911358D01*
X147599990Y-37863738D01*
X147838085Y-37863738D01*
X147980942Y-37911358D01*
X148409514Y-38339929D02*
X148742847Y-38339929D01*
X148885704Y-38863738D02*
X148409514Y-38863738D01*
X148409514Y-37863738D01*
X148885704Y-37863738D01*
X149171419Y-37863738D02*
X149742847Y-37863738D01*
X149457133Y-38863738D02*
X149457133Y-37863738D01*
%LPC*%
D11*
X264880000Y-122310000D03*
D12*
X266080000Y-120010000D03*
X263680000Y-120010000D03*
X263680000Y-124610000D03*
X266080000Y-124610000D03*
X264880000Y-124610000D03*
X264880000Y-120010000D03*
D11*
X30030000Y-122310000D03*
D12*
X31230000Y-120010000D03*
X28830000Y-120010000D03*
X28830000Y-124610000D03*
X31230000Y-124610000D03*
X30030000Y-124610000D03*
X30030000Y-120010000D03*
D11*
X264880000Y-65010000D03*
X99580000Y-122310000D03*
X30030000Y-65010000D03*
D12*
X264880000Y-62710000D03*
X267180000Y-65010000D03*
X262580000Y-65010000D03*
X264880000Y-67310000D03*
X266506346Y-63383654D03*
X263253654Y-63383654D03*
X266506346Y-66636346D03*
X263253654Y-66636346D03*
X30030000Y-62710000D03*
X30030000Y-67310000D03*
X28830000Y-67310000D03*
X31230000Y-67310000D03*
X31230000Y-62710000D03*
X28830000Y-62693000D03*
X99580000Y-120010000D03*
X99580000Y-124610000D03*
X98380000Y-120010000D03*
X100780000Y-120010000D03*
X100780000Y-124610000D03*
X98380000Y-124610000D03*
X286280000Y-91010000D03*
X286280000Y-96210000D03*
X284441522Y-91771522D03*
X284441522Y-95448478D03*
X288322035Y-91010000D03*
X288322035Y-96210000D03*
X10718478Y-91771522D03*
X8880000Y-91010000D03*
X6837965Y-91010000D03*
X6837965Y-96210000D03*
X8880000Y-96210000D03*
X10718478Y-95448478D03*
D13*
G36*
X8880356Y-89657101D02*
G01*
X8897822Y-89657223D01*
X8900668Y-89657323D01*
X8920855Y-89658593D01*
X8941109Y-89658593D01*
X8943600Y-89658654D01*
X9202287Y-89671306D01*
X9202646Y-89671325D01*
X9220085Y-89672301D01*
X9222920Y-89672539D01*
X9274561Y-89678332D01*
X9326406Y-89683415D01*
X9328879Y-89683719D01*
X9585094Y-89721553D01*
X9585271Y-89721581D01*
X9585460Y-89721609D01*
X9602711Y-89724280D01*
X9605511Y-89724793D01*
X9656407Y-89735611D01*
X9707445Y-89745717D01*
X9709877Y-89746261D01*
X9961156Y-89808912D01*
X9961148Y-89808944D01*
X9961544Y-89809041D01*
X9961552Y-89809012D01*
X9978441Y-89813348D01*
X9981180Y-89814133D01*
X10030790Y-89829871D01*
X10080583Y-89844904D01*
X10082950Y-89845682D01*
X10326940Y-89932563D01*
X10327274Y-89932683D01*
X10343688Y-89938657D01*
X10346337Y-89939706D01*
X10394163Y-89960205D01*
X10442261Y-89980029D01*
X10444541Y-89981035D01*
X10678888Y-90091310D01*
X10679209Y-90091462D01*
X10694961Y-90099009D01*
X10697494Y-90100311D01*
X10743124Y-90125396D01*
X10789029Y-90149804D01*
X10791200Y-90151027D01*
X11013667Y-90283644D01*
X11013972Y-90283827D01*
X11028912Y-90292875D01*
X11031306Y-90294418D01*
X11074250Y-90323822D01*
X11117574Y-90352607D01*
X11119615Y-90354036D01*
X11328071Y-90507723D01*
X11328037Y-90507769D01*
X11328318Y-90508007D01*
X11328366Y-90507943D01*
X11342352Y-90518406D01*
X11344584Y-90520174D01*
X11384465Y-90553638D01*
X11424759Y-90586501D01*
X11426650Y-90588122D01*
X11619119Y-90761420D01*
X11619097Y-90761444D01*
X11619374Y-90761701D01*
X11619399Y-90761674D01*
X11632285Y-90773441D01*
X11634333Y-90775420D01*
X11670692Y-90812549D01*
X11707658Y-90849258D01*
X11709383Y-90851057D01*
X11884015Y-91042304D01*
X11883977Y-91042339D01*
X11884237Y-91042624D01*
X11884275Y-91042590D01*
X11895952Y-91055559D01*
X11897798Y-91057728D01*
X11930363Y-91098231D01*
X11963564Y-91138364D01*
X11965105Y-91140323D01*
X12120250Y-91347711D01*
X12120462Y-91347996D01*
X12130827Y-91362054D01*
X12132453Y-91364393D01*
X12160965Y-91407964D01*
X12190036Y-91451064D01*
X12191379Y-91453163D01*
X12325546Y-91674699D01*
X12325730Y-91675005D01*
X12334673Y-91690008D01*
X12336061Y-91692493D01*
X12360148Y-91738566D01*
X12384913Y-91784369D01*
X12386044Y-91786590D01*
X12497945Y-92020146D01*
X12497846Y-92020193D01*
X12498016Y-92020548D01*
X12498114Y-92020502D01*
X12505542Y-92036286D01*
X12506684Y-92038897D01*
X12526187Y-92087171D01*
X12546336Y-92135103D01*
X12547245Y-92137423D01*
X12635827Y-92380799D01*
X12635948Y-92381135D01*
X12641807Y-92397590D01*
X12642687Y-92400298D01*
X12657362Y-92450161D01*
X12672763Y-92499911D01*
X12673442Y-92502310D01*
X12737852Y-92753169D01*
X12737939Y-92753515D01*
X12742164Y-92770462D01*
X12742776Y-92773242D01*
X12752539Y-92824419D01*
X12762987Y-92875319D01*
X12763429Y-92877772D01*
X12803052Y-93133720D01*
X12803105Y-93134070D01*
X12805657Y-93151349D01*
X12805994Y-93154179D01*
X12810706Y-93205957D01*
X12816149Y-93257742D01*
X12816348Y-93260226D01*
X12830805Y-93518819D01*
X12830824Y-93519175D01*
X12831677Y-93536621D01*
X12831737Y-93539469D01*
X12831580Y-93561971D01*
X12832757Y-93584429D01*
X12832827Y-93586920D01*
X12832892Y-93605427D01*
X12832892Y-93605781D01*
X12832832Y-93623248D01*
X12832742Y-93626097D01*
X12831407Y-93648575D01*
X12831407Y-93671109D01*
X12831346Y-93673600D01*
X12818694Y-93932287D01*
X12818675Y-93932646D01*
X12817699Y-93950085D01*
X12817461Y-93952919D01*
X12811670Y-94004550D01*
X12806585Y-94056406D01*
X12806281Y-94058879D01*
X12768446Y-94315098D01*
X12768393Y-94315450D01*
X12765721Y-94332711D01*
X12765206Y-94335513D01*
X12754398Y-94386361D01*
X12744283Y-94437445D01*
X12743739Y-94439877D01*
X12681087Y-94691161D01*
X12681030Y-94691147D01*
X12680929Y-94691530D01*
X12680989Y-94691545D01*
X12676652Y-94708440D01*
X12675867Y-94711179D01*
X12660134Y-94760778D01*
X12645096Y-94810583D01*
X12644318Y-94812950D01*
X12557437Y-95056940D01*
X12557316Y-95057275D01*
X12551342Y-95073688D01*
X12550294Y-95076336D01*
X12529797Y-95124159D01*
X12509971Y-95172261D01*
X12508965Y-95174542D01*
X12398690Y-95408888D01*
X12398538Y-95409209D01*
X12390991Y-95424961D01*
X12389689Y-95427494D01*
X12364604Y-95473124D01*
X12340196Y-95519029D01*
X12338973Y-95521200D01*
X12206356Y-95743667D01*
X12206173Y-95743972D01*
X12197125Y-95758912D01*
X12195582Y-95761306D01*
X12166200Y-95804217D01*
X12137393Y-95847575D01*
X12135964Y-95849616D01*
X11982277Y-96058071D01*
X11982231Y-96058037D01*
X11981993Y-96058318D01*
X11982057Y-96058366D01*
X11971594Y-96072352D01*
X11969826Y-96074584D01*
X11936379Y-96114445D01*
X11903499Y-96154760D01*
X11901877Y-96156652D01*
X11728588Y-96349108D01*
X11728554Y-96349078D01*
X11728287Y-96349386D01*
X11728315Y-96349411D01*
X11716560Y-96362285D01*
X11714581Y-96364334D01*
X11677416Y-96400729D01*
X11640742Y-96437659D01*
X11638943Y-96439383D01*
X11447696Y-96614015D01*
X11447661Y-96613977D01*
X11447376Y-96614237D01*
X11447410Y-96614275D01*
X11434441Y-96625952D01*
X11432273Y-96627797D01*
X11391760Y-96660370D01*
X11351635Y-96693564D01*
X11349677Y-96695104D01*
X11142290Y-96850250D01*
X11142002Y-96850464D01*
X11127943Y-96860828D01*
X11125607Y-96862452D01*
X11082083Y-96890933D01*
X11038937Y-96920036D01*
X11036837Y-96921379D01*
X10815301Y-97055546D01*
X10814995Y-97055730D01*
X10799992Y-97064673D01*
X10797507Y-97066061D01*
X10751434Y-97090148D01*
X10705631Y-97114913D01*
X10703410Y-97116045D01*
X10469845Y-97227950D01*
X10469725Y-97227699D01*
X10469390Y-97227862D01*
X10469507Y-97228110D01*
X10453715Y-97235542D01*
X10451104Y-97236683D01*
X10402864Y-97256174D01*
X10354897Y-97276337D01*
X10352577Y-97277246D01*
X10109207Y-97365824D01*
X10109103Y-97365539D01*
X10108761Y-97365666D01*
X10108862Y-97365949D01*
X10092415Y-97371807D01*
X10089702Y-97372688D01*
X10039762Y-97387386D01*
X9990088Y-97402763D01*
X9987690Y-97403442D01*
X9736831Y-97467852D01*
X9736485Y-97467939D01*
X9719538Y-97472164D01*
X9716758Y-97472776D01*
X9665589Y-97482538D01*
X9614682Y-97492987D01*
X9612229Y-97493429D01*
X9356288Y-97533051D01*
X9356280Y-97533000D01*
X9355906Y-97533048D01*
X9355915Y-97533107D01*
X9338652Y-97535657D01*
X9335822Y-97535994D01*
X9284039Y-97540707D01*
X9232258Y-97546149D01*
X9229774Y-97546348D01*
X8971181Y-97560805D01*
X8970825Y-97560824D01*
X8953379Y-97561677D01*
X8950531Y-97561737D01*
X8928028Y-97561580D01*
X8905570Y-97562757D01*
X8903079Y-97562827D01*
X8884573Y-97562892D01*
X8884213Y-97562892D01*
X8880809Y-97562880D01*
X8880000Y-97562900D01*
X5030000Y-97562900D01*
X5029644Y-97562899D01*
X5012178Y-97562777D01*
X5009332Y-97562677D01*
X4887356Y-97555003D01*
X4882404Y-97554448D01*
X4761759Y-97534908D01*
X4756885Y-97533872D01*
X4638722Y-97502652D01*
X4633973Y-97501145D01*
X4519421Y-97458543D01*
X4514841Y-97456581D01*
X4404993Y-97403005D01*
X4400627Y-97400604D01*
X4296532Y-97336564D01*
X4292420Y-97333749D01*
X4195070Y-97259856D01*
X4191254Y-97256653D01*
X4101579Y-97173614D01*
X4098092Y-97170054D01*
X4016949Y-97078660D01*
X4013827Y-97074777D01*
X3941990Y-96975901D01*
X3939262Y-96971732D01*
X3877416Y-96866318D01*
X3875107Y-96861902D01*
X3823842Y-96750956D01*
X3821976Y-96746336D01*
X3781783Y-96630917D01*
X3780376Y-96626137D01*
X3751638Y-96507347D01*
X3750704Y-96502453D01*
X3733694Y-96381425D01*
X3733243Y-96376463D01*
X3728125Y-96254353D01*
X3728160Y-96249370D01*
X3734983Y-96127343D01*
X3735503Y-96122388D01*
X3754200Y-96001610D01*
X3755202Y-95996729D01*
X3785597Y-95878351D01*
X3787071Y-95873591D01*
X3828871Y-95758744D01*
X3830802Y-95754150D01*
X3883611Y-95643931D01*
X3885980Y-95639549D01*
X3949291Y-95535009D01*
X3952078Y-95530878D01*
X4025289Y-95433014D01*
X4028465Y-95429174D01*
X4110877Y-95338922D01*
X4114412Y-95335412D01*
X4205237Y-95253633D01*
X4209099Y-95250483D01*
X4307471Y-95177957D01*
X4311621Y-95175200D01*
X4416601Y-95112620D01*
X4421000Y-95110281D01*
X4531585Y-95058243D01*
X4536192Y-95056344D01*
X4651328Y-95015346D01*
X4656098Y-95013906D01*
X4774685Y-94984339D01*
X4779573Y-94983371D01*
X4900479Y-94965517D01*
X4905438Y-94965031D01*
X5027509Y-94959061D01*
X5030000Y-94959000D01*
X8860981Y-94959000D01*
X9020846Y-94950063D01*
X9150937Y-94929923D01*
X9278460Y-94897181D01*
X9402158Y-94852158D01*
X9520868Y-94795282D01*
X9633484Y-94727080D01*
X9738897Y-94648221D01*
X9836107Y-94559456D01*
X9924195Y-94461623D01*
X10002314Y-94355665D01*
X10069723Y-94242585D01*
X10125771Y-94123476D01*
X10169936Y-93999448D01*
X10201781Y-93871723D01*
X10221012Y-93741493D01*
X10227674Y-93605294D01*
X10220063Y-93469155D01*
X10199923Y-93339063D01*
X10167182Y-93211546D01*
X10122161Y-93087852D01*
X10065277Y-92969124D01*
X9997077Y-92856513D01*
X9918219Y-92751101D01*
X9829459Y-92653896D01*
X9731628Y-92565809D01*
X9625665Y-92487686D01*
X9512588Y-92420278D01*
X9393475Y-92364228D01*
X9269448Y-92320064D01*
X9141721Y-92288218D01*
X9011493Y-92268988D01*
X8848173Y-92261000D01*
X5080000Y-92261000D01*
X5079644Y-92260999D01*
X5062178Y-92260877D01*
X5059332Y-92260777D01*
X4937356Y-92253103D01*
X4932404Y-92252548D01*
X4811759Y-92233008D01*
X4806885Y-92231972D01*
X4688722Y-92200752D01*
X4683973Y-92199245D01*
X4569421Y-92156643D01*
X4564841Y-92154681D01*
X4454993Y-92101105D01*
X4450627Y-92098704D01*
X4346532Y-92034664D01*
X4342420Y-92031849D01*
X4245070Y-91957956D01*
X4241254Y-91954753D01*
X4151579Y-91871714D01*
X4148092Y-91868154D01*
X4066949Y-91776760D01*
X4063827Y-91772877D01*
X3991990Y-91674001D01*
X3989262Y-91669832D01*
X3927416Y-91564418D01*
X3925107Y-91560002D01*
X3873842Y-91449056D01*
X3871976Y-91444436D01*
X3831783Y-91329017D01*
X3830376Y-91324237D01*
X3801638Y-91205447D01*
X3800704Y-91200553D01*
X3783694Y-91079525D01*
X3783243Y-91074563D01*
X3778125Y-90952453D01*
X3778160Y-90947470D01*
X3784983Y-90825443D01*
X3785503Y-90820488D01*
X3804200Y-90699710D01*
X3805202Y-90694829D01*
X3835597Y-90576451D01*
X3837071Y-90571691D01*
X3878871Y-90456844D01*
X3880802Y-90452250D01*
X3933611Y-90342031D01*
X3935980Y-90337649D01*
X3999291Y-90233109D01*
X4002078Y-90228978D01*
X4075289Y-90131114D01*
X4078465Y-90127274D01*
X4160877Y-90037022D01*
X4164412Y-90033512D01*
X4255237Y-89951733D01*
X4259099Y-89948583D01*
X4357471Y-89876057D01*
X4361621Y-89873300D01*
X4466601Y-89810720D01*
X4471000Y-89808381D01*
X4581585Y-89756343D01*
X4586192Y-89754444D01*
X4701328Y-89713446D01*
X4706098Y-89712006D01*
X4824685Y-89682439D01*
X4829573Y-89681471D01*
X4950479Y-89663617D01*
X4955438Y-89663131D01*
X5077509Y-89657161D01*
X5080000Y-89657100D01*
X8880000Y-89657100D01*
X8880356Y-89657101D01*
G37*
G36*
X290080356Y-89657101D02*
G01*
X290097822Y-89657223D01*
X290100668Y-89657323D01*
X290222644Y-89664997D01*
X290227596Y-89665552D01*
X290348241Y-89685092D01*
X290353115Y-89686128D01*
X290471278Y-89717348D01*
X290476027Y-89718855D01*
X290590579Y-89761457D01*
X290595159Y-89763419D01*
X290705007Y-89816995D01*
X290709373Y-89819396D01*
X290813468Y-89883436D01*
X290817580Y-89886251D01*
X290914930Y-89960144D01*
X290918746Y-89963347D01*
X291008421Y-90046386D01*
X291011908Y-90049946D01*
X291093051Y-90141340D01*
X291096173Y-90145223D01*
X291168010Y-90244099D01*
X291170738Y-90248268D01*
X291232584Y-90353682D01*
X291234893Y-90358098D01*
X291286158Y-90469044D01*
X291288024Y-90473664D01*
X291328217Y-90589083D01*
X291329624Y-90593863D01*
X291358362Y-90712653D01*
X291359296Y-90717547D01*
X291376306Y-90838575D01*
X291376757Y-90843537D01*
X291381875Y-90965647D01*
X291381840Y-90970630D01*
X291375017Y-91092657D01*
X291374497Y-91097612D01*
X291355800Y-91218390D01*
X291354798Y-91223271D01*
X291324403Y-91341649D01*
X291322929Y-91346409D01*
X291281129Y-91461256D01*
X291279198Y-91465850D01*
X291226389Y-91576069D01*
X291224020Y-91580451D01*
X291160709Y-91684991D01*
X291157922Y-91689122D01*
X291084711Y-91786986D01*
X291081535Y-91790826D01*
X290999123Y-91881078D01*
X290995588Y-91884588D01*
X290904763Y-91966367D01*
X290900901Y-91969517D01*
X290802529Y-92042043D01*
X290798379Y-92044800D01*
X290693399Y-92107380D01*
X290689000Y-92109719D01*
X290578415Y-92161757D01*
X290573808Y-92163656D01*
X290458672Y-92204654D01*
X290453902Y-92206094D01*
X290335315Y-92235661D01*
X290330427Y-92236629D01*
X290209521Y-92254483D01*
X290204562Y-92254969D01*
X290082491Y-92260939D01*
X290080000Y-92261000D01*
X286299019Y-92261000D01*
X286139155Y-92269937D01*
X286009063Y-92290077D01*
X285881546Y-92322818D01*
X285757852Y-92367839D01*
X285639124Y-92424723D01*
X285526513Y-92492923D01*
X285421101Y-92571781D01*
X285323896Y-92660541D01*
X285235809Y-92758372D01*
X285157686Y-92864335D01*
X285090278Y-92977412D01*
X285034228Y-93096525D01*
X284990064Y-93220552D01*
X284958218Y-93348279D01*
X284938988Y-93478507D01*
X284932326Y-93614706D01*
X284939937Y-93750846D01*
X284960077Y-93880937D01*
X284992819Y-94008460D01*
X285037842Y-94132158D01*
X285094718Y-94250868D01*
X285162920Y-94363484D01*
X285241779Y-94468897D01*
X285330544Y-94566107D01*
X285428377Y-94654195D01*
X285534335Y-94732314D01*
X285647415Y-94799723D01*
X285766524Y-94855771D01*
X285890552Y-94899936D01*
X286018277Y-94931781D01*
X286148507Y-94951012D01*
X286311827Y-94959000D01*
X290080000Y-94959000D01*
X290080356Y-94959001D01*
X290097822Y-94959123D01*
X290100668Y-94959223D01*
X290222644Y-94966897D01*
X290227596Y-94967452D01*
X290348241Y-94986992D01*
X290353115Y-94988028D01*
X290471278Y-95019248D01*
X290476027Y-95020755D01*
X290590579Y-95063357D01*
X290595159Y-95065319D01*
X290705007Y-95118895D01*
X290709373Y-95121296D01*
X290813468Y-95185336D01*
X290817580Y-95188151D01*
X290914930Y-95262044D01*
X290918746Y-95265247D01*
X291008421Y-95348286D01*
X291011908Y-95351846D01*
X291093051Y-95443240D01*
X291096173Y-95447123D01*
X291168010Y-95545999D01*
X291170738Y-95550168D01*
X291232584Y-95655582D01*
X291234893Y-95659998D01*
X291286158Y-95770944D01*
X291288024Y-95775564D01*
X291328217Y-95890983D01*
X291329624Y-95895763D01*
X291358362Y-96014553D01*
X291359296Y-96019447D01*
X291376306Y-96140475D01*
X291376757Y-96145437D01*
X291381875Y-96267547D01*
X291381840Y-96272530D01*
X291375017Y-96394557D01*
X291374497Y-96399512D01*
X291355800Y-96520290D01*
X291354798Y-96525171D01*
X291324403Y-96643549D01*
X291322929Y-96648309D01*
X291281129Y-96763156D01*
X291279198Y-96767750D01*
X291226389Y-96877969D01*
X291224020Y-96882351D01*
X291160709Y-96986891D01*
X291157922Y-96991022D01*
X291084711Y-97088886D01*
X291081535Y-97092726D01*
X290999123Y-97182978D01*
X290995588Y-97186488D01*
X290904763Y-97268267D01*
X290900901Y-97271417D01*
X290802529Y-97343943D01*
X290798379Y-97346700D01*
X290693399Y-97409280D01*
X290689000Y-97411619D01*
X290578415Y-97463657D01*
X290573808Y-97465556D01*
X290458672Y-97506554D01*
X290453902Y-97507994D01*
X290335315Y-97537561D01*
X290330427Y-97538529D01*
X290209521Y-97556383D01*
X290204562Y-97556869D01*
X290082491Y-97562839D01*
X290080000Y-97562900D01*
X286280000Y-97562900D01*
X286279644Y-97562899D01*
X286262178Y-97562777D01*
X286259332Y-97562677D01*
X286239145Y-97561407D01*
X286218891Y-97561407D01*
X286216400Y-97561346D01*
X285957713Y-97548694D01*
X285957354Y-97548675D01*
X285939915Y-97547699D01*
X285937081Y-97547461D01*
X285885450Y-97541670D01*
X285833594Y-97536585D01*
X285831121Y-97536281D01*
X285574906Y-97498447D01*
X285574796Y-97498430D01*
X285574540Y-97498392D01*
X285557288Y-97495721D01*
X285554487Y-97495206D01*
X285503639Y-97484398D01*
X285452555Y-97474283D01*
X285450123Y-97473739D01*
X285198839Y-97411087D01*
X285198853Y-97411030D01*
X285198470Y-97410929D01*
X285198455Y-97410989D01*
X285181560Y-97406652D01*
X285178821Y-97405867D01*
X285129222Y-97390134D01*
X285079417Y-97375096D01*
X285077050Y-97374318D01*
X284833060Y-97287437D01*
X284832725Y-97287316D01*
X284816312Y-97281342D01*
X284813664Y-97280294D01*
X284765841Y-97259797D01*
X284717739Y-97239971D01*
X284715458Y-97238965D01*
X284481112Y-97128690D01*
X284480791Y-97128538D01*
X284465039Y-97120991D01*
X284462506Y-97119689D01*
X284416876Y-97094604D01*
X284370971Y-97070196D01*
X284368800Y-97068973D01*
X284146333Y-96936356D01*
X284146028Y-96936173D01*
X284131088Y-96927125D01*
X284128694Y-96925582D01*
X284085783Y-96896200D01*
X284042425Y-96867393D01*
X284040384Y-96865964D01*
X283831929Y-96712277D01*
X283831946Y-96712254D01*
X283831651Y-96712023D01*
X283831629Y-96712053D01*
X283817648Y-96701594D01*
X283815416Y-96699826D01*
X283775555Y-96666379D01*
X283735240Y-96633499D01*
X283733348Y-96631877D01*
X283540892Y-96458588D01*
X283540922Y-96458554D01*
X283540614Y-96458287D01*
X283540589Y-96458315D01*
X283527715Y-96446560D01*
X283525666Y-96444581D01*
X283489271Y-96407416D01*
X283452341Y-96370742D01*
X283450617Y-96368943D01*
X283275985Y-96177696D01*
X283276023Y-96177661D01*
X283275763Y-96177376D01*
X283275725Y-96177410D01*
X283264048Y-96164441D01*
X283262203Y-96162273D01*
X283229630Y-96121760D01*
X283196436Y-96081635D01*
X283194896Y-96079677D01*
X283039750Y-95872290D01*
X283039536Y-95872002D01*
X283029172Y-95857943D01*
X283027548Y-95855607D01*
X282999067Y-95812083D01*
X282969964Y-95768937D01*
X282968621Y-95766837D01*
X282834454Y-95545301D01*
X282834270Y-95544995D01*
X282825327Y-95529992D01*
X282823939Y-95527507D01*
X282799852Y-95481434D01*
X282775087Y-95435631D01*
X282773956Y-95433410D01*
X282662047Y-95199838D01*
X282662367Y-95199685D01*
X282662202Y-95199360D01*
X282661890Y-95199507D01*
X282654458Y-95183715D01*
X282653317Y-95181104D01*
X282633826Y-95132864D01*
X282613663Y-95084897D01*
X282612754Y-95082577D01*
X282524173Y-94839200D01*
X282524053Y-94838868D01*
X282518193Y-94822414D01*
X282517312Y-94819702D01*
X282502614Y-94769762D01*
X282487237Y-94720088D01*
X282486558Y-94717690D01*
X282422148Y-94466831D01*
X282422061Y-94466485D01*
X282417836Y-94449538D01*
X282417224Y-94446758D01*
X282407462Y-94395589D01*
X282397013Y-94344682D01*
X282396571Y-94342229D01*
X282356948Y-94086280D01*
X282357273Y-94086230D01*
X282357200Y-94085870D01*
X282356893Y-94085915D01*
X282354343Y-94068652D01*
X282354006Y-94065822D01*
X282349293Y-94014039D01*
X282343851Y-93962258D01*
X282343652Y-93959774D01*
X282329195Y-93701181D01*
X282329176Y-93700825D01*
X282328323Y-93683379D01*
X282328263Y-93680531D01*
X282328420Y-93658028D01*
X282327243Y-93635570D01*
X282327173Y-93633079D01*
X282327108Y-93614573D01*
X282327108Y-93614219D01*
X282327168Y-93596752D01*
X282327258Y-93593903D01*
X282328593Y-93571425D01*
X282328593Y-93548891D01*
X282328654Y-93546400D01*
X282341306Y-93287713D01*
X282341325Y-93287354D01*
X282342301Y-93269915D01*
X282342539Y-93267080D01*
X282348332Y-93215439D01*
X282353415Y-93163594D01*
X282353719Y-93161121D01*
X282391554Y-92904902D01*
X282391607Y-92904550D01*
X282394279Y-92887290D01*
X282394793Y-92884489D01*
X282405611Y-92833593D01*
X282415717Y-92782555D01*
X282416261Y-92780123D01*
X282478912Y-92528844D01*
X282478944Y-92528852D01*
X282479041Y-92528456D01*
X282479012Y-92528448D01*
X282483348Y-92511559D01*
X282484133Y-92508820D01*
X282499871Y-92459210D01*
X282514904Y-92409417D01*
X282515682Y-92407050D01*
X282602563Y-92163060D01*
X282602683Y-92162726D01*
X282608657Y-92146312D01*
X282609706Y-92143663D01*
X282630205Y-92095837D01*
X282650029Y-92047739D01*
X282651035Y-92045459D01*
X282761310Y-91811112D01*
X282761462Y-91810791D01*
X282769009Y-91795039D01*
X282770311Y-91792506D01*
X282795396Y-91746876D01*
X282819804Y-91700971D01*
X282821027Y-91698800D01*
X282953644Y-91476333D01*
X282953827Y-91476028D01*
X282962875Y-91461088D01*
X282964418Y-91458694D01*
X282993822Y-91415750D01*
X283022607Y-91372426D01*
X283024036Y-91370385D01*
X283177723Y-91161929D01*
X283177746Y-91161946D01*
X283177977Y-91161651D01*
X283177947Y-91161629D01*
X283188406Y-91147648D01*
X283190174Y-91145416D01*
X283223638Y-91105535D01*
X283256501Y-91065241D01*
X283258122Y-91063350D01*
X283431423Y-90870878D01*
X283431512Y-90870958D01*
X283431756Y-90870676D01*
X283431674Y-90870601D01*
X283443441Y-90857715D01*
X283445420Y-90855667D01*
X283482549Y-90819308D01*
X283519258Y-90782342D01*
X283521057Y-90780617D01*
X283712304Y-90605985D01*
X283712339Y-90606023D01*
X283712624Y-90605763D01*
X283712590Y-90605725D01*
X283725559Y-90594048D01*
X283727728Y-90592202D01*
X283768231Y-90559637D01*
X283808364Y-90526436D01*
X283810323Y-90524895D01*
X284017708Y-90369752D01*
X284017891Y-90369996D01*
X284018174Y-90369770D01*
X284018001Y-90369535D01*
X284032053Y-90359174D01*
X284034393Y-90357547D01*
X284077964Y-90329035D01*
X284121064Y-90299964D01*
X284123163Y-90298621D01*
X284344699Y-90164454D01*
X284345005Y-90164270D01*
X284360008Y-90155327D01*
X284362493Y-90153939D01*
X284408566Y-90129852D01*
X284454369Y-90105087D01*
X284456590Y-90103956D01*
X284690146Y-89992055D01*
X284690193Y-89992154D01*
X284690548Y-89991984D01*
X284690502Y-89991886D01*
X284706286Y-89984458D01*
X284708897Y-89983316D01*
X284757171Y-89963813D01*
X284805103Y-89943664D01*
X284807423Y-89942755D01*
X285050799Y-89854173D01*
X285051135Y-89854052D01*
X285067590Y-89848193D01*
X285070298Y-89847313D01*
X285120161Y-89832638D01*
X285169911Y-89817237D01*
X285172310Y-89816558D01*
X285423169Y-89752148D01*
X285423515Y-89752061D01*
X285440462Y-89747836D01*
X285443242Y-89747224D01*
X285494419Y-89737461D01*
X285545319Y-89727013D01*
X285547772Y-89726571D01*
X285803716Y-89686949D01*
X285803735Y-89687073D01*
X285804101Y-89687009D01*
X285804084Y-89686893D01*
X285821349Y-89684343D01*
X285824179Y-89684006D01*
X285875957Y-89679294D01*
X285927742Y-89673851D01*
X285930226Y-89673652D01*
X286188819Y-89659195D01*
X286189175Y-89659176D01*
X286206621Y-89658323D01*
X286209469Y-89658263D01*
X286231971Y-89658420D01*
X286254429Y-89657243D01*
X286256920Y-89657173D01*
X286275427Y-89657108D01*
X286275787Y-89657108D01*
X286279191Y-89657120D01*
X286280000Y-89657100D01*
X290080000Y-89657100D01*
X290080356Y-89657101D01*
G37*
D14*
X152330000Y-40910000D03*
X142830000Y-40910000D03*
D15*
X284463902Y-87984030D03*
X279921889Y-91018847D03*
D16*
X282162673Y-89101278D02*
X282224307Y-89677994D01*
D17*
X283882823Y-84227867D03*
X273877177Y-85992133D03*
D18*
X282191051Y-81946989D03*
X275496456Y-80548243D03*
D19*
X278880000Y-85110000D03*
D20*
X275568949Y-88273011D03*
X277112573Y-89483350D03*
D15*
X20435085Y-89689142D03*
X15129020Y-90987478D03*
D16*
X17890516Y-89951946D02*
X17751184Y-90514962D01*
D17*
X21173732Y-85960764D03*
X11168086Y-84196498D03*
D18*
X20364093Y-83238819D03*
X14551630Y-79634741D03*
D19*
X16170909Y-85078631D03*
D20*
X11977725Y-86918443D03*
X13014297Y-88583741D03*
D15*
X270089911Y-63486590D03*
X274631924Y-60451773D03*
D16*
X272391140Y-62369342D02*
X272329506Y-61792626D01*
D17*
X270670990Y-67242753D03*
X280676636Y-65478487D03*
D18*
X272362762Y-69523631D03*
X279057357Y-70922377D03*
D19*
X275673813Y-66360620D03*
D20*
X278984864Y-63197609D03*
X277441240Y-61987270D03*
D21*
X38591930Y-75038586D03*
D13*
G36*
X29924584Y-74374427D02*
G01*
X30220133Y-72698284D01*
X31896276Y-72993833D01*
X31600727Y-74669976D01*
X29924584Y-74374427D01*
G37*
D21*
X217015649Y-109536874D03*
D13*
G36*
X219355951Y-117908671D02*
G01*
X217679808Y-118204220D01*
X217384259Y-116528077D01*
X219060402Y-116232528D01*
X219355951Y-117908671D01*
G37*
D21*
X198255061Y-112844872D03*
D13*
G36*
X200595363Y-121216669D02*
G01*
X198919220Y-121512218D01*
X198623671Y-119836075D01*
X200299814Y-119540526D01*
X200595363Y-121216669D01*
G37*
D21*
X176694309Y-121773786D03*
D13*
G36*
X182906969Y-127853824D02*
G01*
X181603161Y-128947848D01*
X180509137Y-127644040D01*
X181812945Y-126550016D01*
X182906969Y-127853824D01*
G37*
D21*
X157566378Y-111810975D03*
D13*
G36*
X164038332Y-117614235D02*
G01*
X162783486Y-118764089D01*
X161633632Y-117509243D01*
X162888478Y-116359389D01*
X164038332Y-117614235D01*
G37*
D21*
X125160982Y-101485975D03*
D13*
G36*
X119943874Y-108439089D02*
G01*
X118689028Y-107289235D01*
X119838882Y-106034389D01*
X121093728Y-107184243D01*
X119943874Y-108439089D01*
G37*
D21*
X106033051Y-111348786D03*
D13*
G36*
X101124199Y-118522848D02*
G01*
X99820391Y-117428824D01*
X100914415Y-116125016D01*
X102218223Y-117219040D01*
X101124199Y-118522848D01*
G37*
D21*
X80928408Y-109970609D03*
D13*
G36*
X80264249Y-118637955D02*
G01*
X78588106Y-118342406D01*
X78883655Y-116666263D01*
X80559798Y-116961812D01*
X80264249Y-118637955D01*
G37*
D21*
X62157071Y-106644302D03*
D13*
G36*
X61492912Y-115311648D02*
G01*
X59816769Y-115016099D01*
X60112318Y-113339956D01*
X61788461Y-113635505D01*
X61492912Y-115311648D01*
G37*
D21*
X43396482Y-103336304D03*
D13*
G36*
X42732323Y-112003650D02*
G01*
X41056180Y-111708101D01*
X41351729Y-110031958D01*
X43027872Y-110327507D01*
X42732323Y-112003650D01*
G37*
D21*
X24635897Y-100028304D03*
D13*
G36*
X23971738Y-108695650D02*
G01*
X22295595Y-108400101D01*
X22591144Y-106723958D01*
X24267287Y-107019507D01*
X23971738Y-108695650D01*
G37*
D21*
X28753410Y-69595608D03*
D13*
G36*
X28089251Y-78262954D02*
G01*
X26413108Y-77967405D01*
X26708657Y-76291262D01*
X28384800Y-76586811D01*
X28089251Y-78262954D01*
G37*
D21*
X270548950Y-83970609D03*
D13*
G36*
X272889252Y-92342406D02*
G01*
X271213109Y-92637955D01*
X270917560Y-90961812D01*
X272593703Y-90666263D01*
X272889252Y-92342406D01*
G37*
D21*
X251228827Y-84160292D03*
D13*
G36*
X253569129Y-92532089D02*
G01*
X251892986Y-92827638D01*
X251597437Y-91151495D01*
X253273580Y-90855946D01*
X253569129Y-92532089D01*
G37*
D21*
X231916908Y-84341527D03*
D13*
G36*
X234257210Y-92713324D02*
G01*
X232581067Y-93008873D01*
X232285518Y-91332730D01*
X233961661Y-91037181D01*
X234257210Y-92713324D01*
G37*
D21*
X212604983Y-84522759D03*
D13*
G36*
X214945285Y-92894556D02*
G01*
X213269142Y-93190105D01*
X212973593Y-91513962D01*
X214649736Y-91218413D01*
X214945285Y-92894556D01*
G37*
D21*
X194395732Y-90957521D03*
D13*
G36*
X196736034Y-99329318D02*
G01*
X195059891Y-99624867D01*
X194764342Y-97948724D01*
X196440485Y-97653175D01*
X196736034Y-99329318D01*
G37*
D21*
X175635144Y-94265520D03*
D13*
G36*
X177975446Y-102637317D02*
G01*
X176299303Y-102932866D01*
X176003754Y-101256723D01*
X177679897Y-100961174D01*
X177975446Y-102637317D01*
G37*
D21*
X103537578Y-91372943D03*
D13*
G36*
X102873419Y-100040289D02*
G01*
X101197276Y-99744740D01*
X101492825Y-98068597D01*
X103168968Y-98364146D01*
X102873419Y-100040289D01*
G37*
D21*
X84776991Y-88064945D03*
D13*
G36*
X84112832Y-96732291D02*
G01*
X82436689Y-96436742D01*
X82732238Y-94760599D01*
X84408381Y-95056148D01*
X84112832Y-96732291D01*
G37*
D21*
X66567732Y-81630182D03*
D13*
G36*
X65903573Y-90297528D02*
G01*
X64227430Y-90001979D01*
X64522979Y-88325836D01*
X66199122Y-88621385D01*
X65903573Y-90297528D01*
G37*
D21*
X47255811Y-81448951D03*
D13*
G36*
X46591652Y-90116297D02*
G01*
X44915509Y-89820748D01*
X45211058Y-88144605D01*
X46887201Y-88440154D01*
X46591652Y-90116297D01*
G37*
D21*
X27953410Y-81295609D03*
D13*
G36*
X27289251Y-89962955D02*
G01*
X25613108Y-89667406D01*
X25908657Y-87991263D01*
X27584800Y-88286812D01*
X27289251Y-89962955D01*
G37*
D21*
X8728408Y-80495250D03*
D13*
G36*
X8064249Y-89162596D02*
G01*
X6388106Y-88867047D01*
X6683655Y-87190904D01*
X8359798Y-87486453D01*
X8064249Y-89162596D01*
G37*
D21*
X254536824Y-102920880D03*
D13*
G36*
X256877126Y-111292677D02*
G01*
X255200983Y-111588226D01*
X254905434Y-109912083D01*
X256581577Y-109616534D01*
X256877126Y-111292677D01*
G37*
D21*
X235776237Y-106228878D03*
D13*
G36*
X238116539Y-114600675D02*
G01*
X236440396Y-114896224D01*
X236144847Y-113220081D01*
X237820990Y-112924532D01*
X238116539Y-114600675D01*
G37*
D21*
X263924753Y-46457883D03*
D13*
G36*
X266265055Y-54829680D02*
G01*
X264588912Y-55125229D01*
X264293363Y-53449086D01*
X265969506Y-53153537D01*
X266265055Y-54829680D01*
G37*
D21*
X244612831Y-46639116D03*
D13*
G36*
X246953133Y-55010913D02*
G01*
X245276990Y-55306462D01*
X244981441Y-53630319D01*
X246657584Y-53334770D01*
X246953133Y-55010913D01*
G37*
D21*
X225300909Y-46820349D03*
D13*
G36*
X227641211Y-55192146D02*
G01*
X225965068Y-55487695D01*
X225669519Y-53811552D01*
X227345662Y-53516003D01*
X227641211Y-55192146D01*
G37*
D21*
X205988989Y-47001583D03*
D13*
G36*
X208329291Y-55373380D02*
G01*
X206653148Y-55668929D01*
X206357599Y-53992786D01*
X208033742Y-53697237D01*
X208329291Y-55373380D01*
G37*
D21*
X187779737Y-53436345D03*
D13*
G36*
X190120039Y-61808142D02*
G01*
X188443896Y-62103691D01*
X188148347Y-60427548D01*
X189824490Y-60131999D01*
X190120039Y-61808142D01*
G37*
D21*
X169019147Y-56744345D03*
D13*
G36*
X171359449Y-65116142D02*
G01*
X169683306Y-65411691D01*
X169387757Y-63735548D01*
X171063900Y-63439999D01*
X171359449Y-65116142D01*
G37*
D21*
X110153572Y-53851769D03*
D13*
G36*
X109489413Y-62519115D02*
G01*
X107813270Y-62223566D01*
X108108819Y-60547423D01*
X109784962Y-60842972D01*
X109489413Y-62519115D01*
G37*
D21*
X91392985Y-50543769D03*
D13*
G36*
X90728826Y-59211115D02*
G01*
X89052683Y-58915566D01*
X89348232Y-57239423D01*
X91024375Y-57534972D01*
X90728826Y-59211115D01*
G37*
D21*
X73183730Y-44109009D03*
D13*
G36*
X72519571Y-52776355D02*
G01*
X70843428Y-52480806D01*
X71138977Y-50804663D01*
X72815120Y-51100212D01*
X72519571Y-52776355D01*
G37*
D21*
X53871809Y-43927773D03*
D13*
G36*
X53207650Y-52595119D02*
G01*
X51531507Y-52299570D01*
X51827056Y-50623427D01*
X53503199Y-50918976D01*
X53207650Y-52595119D01*
G37*
D21*
X34559887Y-43746545D03*
D13*
G36*
X33895728Y-52413891D02*
G01*
X32219585Y-52118342D01*
X32515134Y-50442199D01*
X34191277Y-50737748D01*
X33895728Y-52413891D01*
G37*
D21*
X15247966Y-43565308D03*
D13*
G36*
X14583807Y-52232654D02*
G01*
X12907664Y-51937105D01*
X13203213Y-50260962D01*
X14879356Y-50556511D01*
X14583807Y-52232654D01*
G37*
D21*
X279795661Y-73991023D03*
D13*
G36*
X271423864Y-76331325D02*
G01*
X271128315Y-74655182D01*
X272804458Y-74359633D01*
X273100007Y-76035776D01*
X271423864Y-76331325D01*
G37*
D21*
X260416931Y-74234130D03*
D13*
G36*
X252045134Y-76574432D02*
G01*
X251749585Y-74898289D01*
X253425728Y-74602740D01*
X253721277Y-76278883D01*
X252045134Y-76574432D01*
G37*
D21*
X228608907Y-65580937D03*
D13*
G36*
X230949209Y-73952734D02*
G01*
X229273066Y-74248283D01*
X228977517Y-72572140D01*
X230653660Y-72276591D01*
X230949209Y-73952734D01*
G37*
D21*
X209296985Y-65762171D03*
D13*
G36*
X211637287Y-74133968D02*
G01*
X209961144Y-74429517D01*
X209665595Y-72753374D01*
X211341738Y-72457825D01*
X211637287Y-74133968D01*
G37*
D21*
X191087733Y-72196931D03*
D13*
G36*
X193428035Y-80568728D02*
G01*
X191751892Y-80864277D01*
X191456343Y-79188134D01*
X193132486Y-78892585D01*
X193428035Y-80568728D01*
G37*
D21*
X172327143Y-75504931D03*
D13*
G36*
X174667445Y-83876728D02*
G01*
X172991302Y-84172277D01*
X172695753Y-82496134D01*
X174371896Y-82200585D01*
X174667445Y-83876728D01*
G37*
D21*
X106845574Y-72612357D03*
D13*
G36*
X106181415Y-81279703D02*
G01*
X104505272Y-80984154D01*
X104800821Y-79308011D01*
X106476964Y-79603560D01*
X106181415Y-81279703D01*
G37*
D21*
X88084986Y-69304356D03*
D13*
G36*
X87420827Y-77971702D02*
G01*
X85744684Y-77676153D01*
X86040233Y-76000010D01*
X87716376Y-76295559D01*
X87420827Y-77971702D01*
G37*
D21*
X69875732Y-62869597D03*
D13*
G36*
X69211573Y-71536943D02*
G01*
X67535430Y-71241394D01*
X67830979Y-69565251D01*
X69507122Y-69860800D01*
X69211573Y-71536943D01*
G37*
D21*
X50563810Y-62688363D03*
D13*
G36*
X49899651Y-71355709D02*
G01*
X48223508Y-71060160D01*
X48519057Y-69384017D01*
X50195200Y-69679566D01*
X49899651Y-71355709D01*
G37*
D20*
X35634216Y-70004388D03*
X34597644Y-68339090D03*
D19*
X38790828Y-66499278D03*
D18*
X37171549Y-61055388D03*
X42984012Y-64659466D03*
D17*
X33788005Y-65617145D03*
X43793651Y-67381411D03*
D16*
X40510435Y-71372593D02*
X40371103Y-71935609D01*
D15*
X37748939Y-72408125D03*
X43055004Y-71109789D03*
D20*
X22635519Y-62812934D03*
X23672091Y-64478232D03*
D19*
X19478907Y-66318044D03*
D18*
X21098186Y-71761934D03*
X15285723Y-68157856D03*
D17*
X24481730Y-67200177D03*
X14476084Y-65435911D03*
D16*
X17759300Y-61444729D02*
X17898632Y-60881713D01*
D15*
X20520796Y-60409197D03*
X15214731Y-61707533D03*
D20*
X258129318Y-62168501D03*
X259672942Y-63378840D03*
D19*
X256361891Y-66541851D03*
D18*
X259745435Y-71103608D03*
X253050840Y-69704862D03*
D17*
X261364714Y-65659718D03*
X251359068Y-67423984D03*
D16*
X253079218Y-62550573D02*
X253017584Y-61973857D01*
D15*
X255320002Y-60633004D03*
X250777989Y-63667821D03*
X121956686Y-62454425D03*
X116650621Y-63752761D03*
D16*
X119412117Y-62717229D02*
X119272785Y-63280245D01*
D17*
X122695333Y-58726047D03*
X112689687Y-56961781D03*
D18*
X121885694Y-56004102D03*
X116073231Y-52400024D03*
D19*
X117692510Y-57843914D03*
D20*
X113499326Y-59683726D03*
X114535898Y-61349024D03*
D15*
X46363000Y-52349202D03*
X41056935Y-53647538D03*
D16*
X43818431Y-52612006D02*
X43679099Y-53175022D01*
D17*
X47101647Y-48620824D03*
X37096001Y-46856558D03*
D18*
X46292008Y-45898879D03*
X40479545Y-42294801D03*
D19*
X42098824Y-47738691D03*
D20*
X37905640Y-49578503D03*
X38942212Y-51243801D03*
D15*
X277949713Y-50474060D03*
X273407700Y-53508877D03*
D16*
X275648484Y-51591308D02*
X275710118Y-52168024D01*
D17*
X277368634Y-46717897D03*
X267362988Y-48482163D03*
D18*
X275676862Y-44437019D03*
X268982267Y-43038273D03*
D19*
X272365811Y-47600030D03*
D20*
X269054760Y-50763041D03*
X270598384Y-51973380D03*
D15*
X36439008Y-108630963D03*
X31132943Y-109929299D03*
D16*
X33894439Y-108893767D02*
X33755107Y-109456783D01*
D17*
X37177655Y-104902585D03*
X27172009Y-103138319D03*
D18*
X36368016Y-102180640D03*
X30555553Y-98576562D03*
D19*
X32174832Y-104020452D03*
D20*
X27981648Y-105860264D03*
X29018220Y-107525562D03*
D15*
X55199594Y-111938962D03*
X49893529Y-113237298D03*
D16*
X52655025Y-112201766D02*
X52515693Y-112764782D01*
D17*
X55938241Y-108210584D03*
X45932595Y-106446318D03*
D18*
X55128602Y-105488639D03*
X49316139Y-101884561D03*
D19*
X50935418Y-107328451D03*
D20*
X46742234Y-109168263D03*
X47778806Y-110833561D03*
D15*
X73960183Y-115246961D03*
X68654118Y-116545297D03*
D16*
X71415614Y-115509765D02*
X71276282Y-116072781D01*
D17*
X74698830Y-111518583D03*
X64693184Y-109754317D03*
D18*
X73889191Y-108796638D03*
X68076728Y-105192560D03*
D19*
X69696007Y-110636450D03*
D20*
X65502823Y-112476262D03*
X66539395Y-114141560D03*
D15*
X92720771Y-118554958D03*
X87414706Y-119853294D03*
D16*
X90176202Y-118817762D02*
X90036870Y-119380778D01*
D17*
X93459418Y-114826580D03*
X83453772Y-113062314D03*
D18*
X92649779Y-112104635D03*
X86837316Y-108500557D03*
D19*
X88456595Y-113944447D03*
D20*
X84263411Y-115784259D03*
X85299983Y-117449557D03*
D15*
X111964021Y-124673059D03*
X106719666Y-123144418D03*
D16*
X109628958Y-123628369D02*
X109226784Y-124046289D01*
D17*
X114467898Y-121813512D03*
X106684886Y-115282790D03*
D18*
X115127702Y-119051419D03*
X111896000Y-113023965D03*
D19*
X110576392Y-118548151D03*
D20*
X106025082Y-118044883D03*
X106090131Y-120005359D03*
D15*
X130964066Y-114706731D03*
X125719711Y-113178090D03*
D16*
X128629003Y-113662041D02*
X128226829Y-114079961D01*
D17*
X133467943Y-111847184D03*
X125684931Y-105316462D03*
D18*
X134127747Y-109085091D03*
X130896045Y-103057637D03*
D19*
X129576437Y-108581823D03*
D20*
X125025127Y-108078555D03*
X125090176Y-110039031D03*
D15*
X171848811Y-108182392D03*
X169432721Y-113081627D03*
D16*
X170414513Y-110300571D02*
X170756247Y-110769205D01*
D17*
X169467501Y-105219999D03*
X161684489Y-111750721D03*
D18*
X166861944Y-104090586D03*
X160364881Y-106226535D03*
D19*
X165575995Y-108485360D03*
D20*
X164290046Y-112880134D03*
X166232034Y-113156506D03*
D15*
X190849218Y-118247198D03*
X188433128Y-123146433D03*
D16*
X189414920Y-120365377D02*
X189756654Y-120834011D01*
D17*
X188467908Y-115284805D03*
X180684896Y-121815527D03*
D18*
X185862351Y-114155392D03*
X179365288Y-116291341D03*
D19*
X184576402Y-118550166D03*
D20*
X183290453Y-122944940D03*
X185232441Y-123221312D03*
D15*
X212280027Y-116861050D03*
X207738014Y-119895867D03*
D16*
X209978798Y-117978298D02*
X210040432Y-118555014D01*
D17*
X211698948Y-113104887D03*
X201693302Y-114869153D03*
D18*
X210007176Y-110824009D03*
X203312581Y-109425263D03*
D19*
X206696125Y-113987020D03*
D20*
X203385074Y-117150031D03*
X204928698Y-118360370D03*
D15*
X231040611Y-113553052D03*
X226498598Y-116587869D03*
D16*
X228739382Y-114670300D02*
X228801016Y-115247016D01*
D17*
X230459532Y-109796889D03*
X220453886Y-111561155D03*
D18*
X228767760Y-107516011D03*
X222073165Y-106117265D03*
D19*
X225456709Y-110679022D03*
D20*
X222145658Y-113842033D03*
X223689282Y-115052372D03*
D15*
X249801201Y-110245054D03*
X245259188Y-113279871D03*
D16*
X247499972Y-111362302D02*
X247561606Y-111939018D01*
D17*
X249220122Y-106488891D03*
X239214476Y-108253157D03*
D18*
X247528350Y-104208013D03*
X240833755Y-102809267D03*
D19*
X244217299Y-107371024D03*
D20*
X240906248Y-110534035D03*
X242449872Y-111744374D03*
D15*
X268561788Y-106937059D03*
X264019775Y-109971876D03*
D16*
X266260559Y-108054307D02*
X266322193Y-108631023D01*
D17*
X267980709Y-103180896D03*
X257975063Y-104945162D03*
D18*
X266288937Y-100900018D03*
X259594342Y-99501272D03*
D19*
X262977886Y-104063029D03*
D20*
X259666835Y-107226040D03*
X261210459Y-108436379D03*
D15*
X39747005Y-89870376D03*
X34440940Y-91168712D03*
D16*
X37202436Y-90133180D02*
X37063104Y-90696196D01*
D17*
X40485652Y-86141998D03*
X30480006Y-84377732D03*
D18*
X39676013Y-83420053D03*
X33863550Y-79815975D03*
D19*
X35482829Y-85259865D03*
D20*
X31289645Y-87099677D03*
X32326217Y-88764975D03*
D15*
X59058926Y-90051610D03*
X53752861Y-91349946D03*
D16*
X56514357Y-90314414D02*
X56375025Y-90877430D01*
D17*
X59797573Y-86323232D03*
X49791927Y-84558966D03*
D18*
X58987934Y-83601287D03*
X53175471Y-79997209D03*
D19*
X54794750Y-85441099D03*
D20*
X50601566Y-87280911D03*
X51638138Y-88946209D03*
D15*
X78370845Y-90232842D03*
X73064780Y-91531178D03*
D16*
X75826276Y-90495646D02*
X75686944Y-91058662D01*
D17*
X79109492Y-86504464D03*
X69103846Y-84740198D03*
D18*
X78299853Y-83782519D03*
X72487390Y-80178441D03*
D19*
X74106669Y-85622331D03*
D20*
X69913485Y-87462143D03*
X70950057Y-89127441D03*
D15*
X96580103Y-96667604D03*
X91274038Y-97965940D03*
D16*
X94035534Y-96930408D02*
X93896202Y-97493424D01*
D17*
X97318750Y-92939226D03*
X87313104Y-91174960D03*
D18*
X96509111Y-90217281D03*
X90696648Y-86613203D03*
D19*
X92315927Y-92057093D03*
D20*
X88122743Y-93896905D03*
X89159315Y-95562203D03*
D15*
X115340689Y-99975604D03*
X110034624Y-101273940D03*
D16*
X112796120Y-100238408D02*
X112656788Y-100801424D01*
D17*
X116079336Y-96247226D03*
X106073690Y-94482960D03*
D18*
X115269697Y-93525281D03*
X109457234Y-89921203D03*
D19*
X111076513Y-95365093D03*
D20*
X106883329Y-97204905D03*
X107919901Y-98870203D03*
D15*
X189660105Y-98281696D03*
X185118092Y-101316513D03*
D16*
X187358876Y-99398944D02*
X187420510Y-99975660D01*
D17*
X189079026Y-94525533D03*
X179073380Y-96289799D03*
D18*
X187387254Y-92244655D03*
X180692659Y-90845909D03*
D19*
X184076203Y-95407666D03*
D20*
X180765152Y-98570677D03*
X182308776Y-99781016D03*
D15*
X208420696Y-94973697D03*
X203878683Y-98008514D03*
D16*
X206119467Y-96090945D02*
X206181101Y-96667661D01*
D17*
X207839617Y-91217534D03*
X197833971Y-92981800D03*
D18*
X206147845Y-88936656D03*
X199453250Y-87537910D03*
D19*
X202836794Y-92099667D03*
D20*
X199525743Y-95262678D03*
X201069367Y-96473017D03*
D15*
X226629952Y-88538936D03*
X222087939Y-91573753D03*
D16*
X224328723Y-89656184D02*
X224390357Y-90232900D01*
D17*
X226048873Y-84782773D03*
X216043227Y-86547039D03*
D18*
X224357101Y-82501895D03*
X217662506Y-81103149D03*
D19*
X221046050Y-85664906D03*
D20*
X217734999Y-88827917D03*
X219278623Y-90038256D03*
D15*
X245941868Y-88357703D03*
X241399855Y-91392520D03*
D16*
X243640639Y-89474951D02*
X243702273Y-90051667D01*
D17*
X245360789Y-84601540D03*
X235355143Y-86365806D03*
D18*
X243669017Y-82320662D03*
X236974422Y-80921916D03*
D19*
X240357966Y-85483673D03*
D20*
X237046915Y-88646684D03*
X238590539Y-89857023D03*
D15*
X265253789Y-88176471D03*
X260711776Y-91211288D03*
D16*
X262952560Y-89293719D02*
X263014194Y-89870435D01*
D17*
X264672710Y-84420308D03*
X254667064Y-86184574D03*
D18*
X262980938Y-82139430D03*
X256286343Y-80740684D03*
D19*
X259669887Y-85302441D03*
D20*
X256358836Y-88465452D03*
X257902460Y-89675791D03*
D15*
X62366926Y-71291019D03*
X57060861Y-72589355D03*
D16*
X59822357Y-71553823D02*
X59683025Y-72116839D01*
D17*
X63105573Y-67562641D03*
X53099927Y-65798375D03*
D18*
X62295934Y-64840696D03*
X56483471Y-61236618D03*
D19*
X58102750Y-66680508D03*
D20*
X53909566Y-68520320D03*
X54946138Y-70185618D03*
D15*
X81678845Y-71472256D03*
X76372780Y-72770592D03*
D16*
X79134276Y-71735060D02*
X78994944Y-72298076D01*
D17*
X82417492Y-67743878D03*
X72411846Y-65979612D03*
D18*
X81607853Y-65021933D03*
X75795390Y-61417855D03*
D19*
X77414669Y-66861745D03*
D20*
X73221485Y-68701557D03*
X74258057Y-70366855D03*
D15*
X99888100Y-77907015D03*
X94582035Y-79205351D03*
D16*
X97343531Y-78169819D02*
X97204199Y-78732835D01*
D17*
X100626747Y-74178637D03*
X90621101Y-72414371D03*
D18*
X99817108Y-71456692D03*
X94004645Y-67852614D03*
D19*
X95623924Y-73296504D03*
D20*
X91430740Y-75136316D03*
X92467312Y-76801614D03*
D15*
X118648688Y-81215013D03*
X113342623Y-82513349D03*
D16*
X116104119Y-81477817D02*
X115964787Y-82040833D01*
D17*
X119387335Y-77486635D03*
X109381689Y-75722369D03*
D18*
X118577696Y-74764690D03*
X112765233Y-71160612D03*
D19*
X114384512Y-76604502D03*
D20*
X110191328Y-78444314D03*
X111227900Y-80109612D03*
D15*
X186352110Y-79521107D03*
X181810097Y-82555924D03*
D16*
X184050881Y-80638355D02*
X184112515Y-81215071D01*
D17*
X185771031Y-75764944D03*
X175765385Y-77529210D03*
D18*
X184079259Y-73484066D03*
X177384664Y-72085320D03*
D19*
X180768208Y-76647077D03*
D20*
X177457157Y-79810088D03*
X179000781Y-81020427D03*
D15*
X205112697Y-76213113D03*
X200570684Y-79247930D03*
D16*
X202811468Y-77330361D02*
X202873102Y-77907077D01*
D17*
X204531618Y-72456950D03*
X194525972Y-74221216D03*
D18*
X202839846Y-70176072D03*
X196145251Y-68777326D03*
D19*
X199528795Y-73339083D03*
D20*
X196217744Y-76502094D03*
X197761368Y-77712433D03*
D15*
X223321952Y-69778348D03*
X218779939Y-72813165D03*
D16*
X221020723Y-70895596D02*
X221082357Y-71472312D01*
D17*
X222740873Y-66022185D03*
X212735227Y-67786451D03*
D18*
X221049101Y-63741307D03*
X214354506Y-62342561D03*
D19*
X217738050Y-66904318D03*
D20*
X214426999Y-70067329D03*
X215970623Y-71277668D03*
D15*
X242633872Y-69597115D03*
X238091859Y-72631932D03*
D16*
X240332643Y-70714363D02*
X240394277Y-71291079D01*
D17*
X242052793Y-65840952D03*
X232047147Y-67605218D03*
D18*
X240361021Y-63560074D03*
X233666426Y-62161328D03*
D19*
X237049970Y-66723085D03*
D20*
X233738919Y-69886096D03*
X235282543Y-71096435D03*
D15*
X27040357Y-52121869D03*
X21734292Y-53420205D03*
D16*
X24495788Y-52384673D02*
X24356456Y-52947689D01*
D17*
X27779004Y-48393491D03*
X17773358Y-46629225D03*
D18*
X26969365Y-45671546D03*
X21156902Y-42067468D03*
D19*
X22776181Y-47511358D03*
D20*
X18582997Y-49351170D03*
X19619569Y-51016468D03*
D15*
X65674922Y-52530432D03*
X60368857Y-53828768D03*
D16*
X63130353Y-52793236D02*
X62991021Y-53356252D01*
D17*
X66413569Y-48802054D03*
X56407923Y-47037788D03*
D18*
X65603930Y-46080109D03*
X59791467Y-42476031D03*
D19*
X61410746Y-47919921D03*
D20*
X57217562Y-49759733D03*
X58254134Y-51425031D03*
D15*
X84986841Y-52711667D03*
X79680776Y-54010003D03*
D16*
X82442272Y-52974471D02*
X82302940Y-53537487D01*
D17*
X85725488Y-48983289D03*
X75719842Y-47219023D03*
D18*
X84915849Y-46261344D03*
X79103386Y-42657266D03*
D19*
X80722665Y-48101156D03*
D20*
X76529481Y-49940968D03*
X77566053Y-51606266D03*
D15*
X103196097Y-59146428D03*
X97890032Y-60444764D03*
D16*
X100651528Y-59409232D02*
X100512196Y-59972248D01*
D17*
X103934744Y-55418050D03*
X93929098Y-53653784D03*
D18*
X103125105Y-52696105D03*
X97312642Y-49092027D03*
D19*
X98931921Y-54535917D03*
D20*
X94738737Y-56375729D03*
X95775309Y-58041027D03*
D15*
X183044111Y-60760521D03*
X178502098Y-63795338D03*
D16*
X180742882Y-61877769D02*
X180804516Y-62454485D01*
D17*
X182463032Y-57004358D03*
X172457386Y-58768624D03*
D18*
X180771260Y-54723480D03*
X174076665Y-53324734D03*
D19*
X177460209Y-57886491D03*
D20*
X174149158Y-61049502D03*
X175692782Y-62259841D03*
D15*
X201804699Y-57452523D03*
X197262686Y-60487340D03*
D16*
X199503470Y-58569771D02*
X199565104Y-59146487D01*
D17*
X201223620Y-53696360D03*
X191217974Y-55460626D03*
D18*
X199531848Y-51415482D03*
X192837253Y-50016736D03*
D19*
X196220797Y-54578493D03*
D20*
X192909746Y-57741504D03*
X194453370Y-58951843D03*
D15*
X220013951Y-51017762D03*
X215471938Y-54052579D03*
D16*
X217712722Y-52135010D02*
X217774356Y-52711726D01*
D17*
X219432872Y-47261599D03*
X209427226Y-49025865D03*
D18*
X217741100Y-44980721D03*
X211046505Y-43581975D03*
D19*
X214430049Y-48143732D03*
D20*
X211118998Y-51306743D03*
X212662622Y-52517082D03*
D15*
X258637795Y-50655295D03*
X254095782Y-53690112D03*
D16*
X256336566Y-51772543D02*
X256398200Y-52349259D01*
D17*
X258056716Y-46899132D03*
X248051070Y-48663398D03*
D18*
X256364944Y-44618254D03*
X249670349Y-43219508D03*
D19*
X253053893Y-47781265D03*
D20*
X249742842Y-50944276D03*
X251286466Y-52154615D03*
D15*
X239325875Y-50836528D03*
X234783862Y-53871345D03*
D16*
X237024646Y-51953776D02*
X237086280Y-52530492D01*
D17*
X238744796Y-47080365D03*
X228739150Y-48844631D03*
D18*
X237053024Y-44799487D03*
X230358429Y-43400741D03*
D19*
X233741973Y-47962498D03*
D20*
X230430922Y-51125509D03*
X231974546Y-52335848D03*
D22*
X149276181Y-40911358D03*
X145876181Y-40911358D03*
D23*
X287292082Y-74408560D03*
D14*
X125829118Y-81165757D03*
D23*
X7342082Y-129514560D03*
X7382082Y-39424557D03*
D14*
X125829118Y-84165757D03*
X125829118Y-87165758D03*
X125829118Y-90165757D03*
D24*
X264674000Y-60460000D03*
X17080000Y-93660000D03*
X215080000Y-42660000D03*
X217580000Y-61910000D03*
X237330000Y-61660000D03*
X221580000Y-79910000D03*
X241080000Y-79410000D03*
X245080000Y-101660000D03*
X263580000Y-97660000D03*
X114580000Y-115660000D03*
X90080000Y-109410000D03*
X71330000Y-106910000D03*
X52330000Y-103410000D03*
X56080000Y-81160000D03*
X75830000Y-80910000D03*
X94080000Y-87660000D03*
X113080000Y-90910000D03*
X79330000Y-62160000D03*
X59580000Y-61910000D03*
X63080000Y-43160000D03*
X83080000Y-42660000D03*
X101330000Y-49410000D03*
X44080000Y-43410000D03*
X37330000Y-81160000D03*
X26830000Y-68410000D03*
X260330000Y-79910000D03*
X265830000Y-69910000D03*
X162330000Y-101160000D03*
X166580000Y-100660000D03*
X164080000Y-120410000D03*
X161580000Y-120410000D03*
X66330000Y-71160000D03*
X47330000Y-69160000D03*
X84830000Y-75660000D03*
X107330000Y-80910000D03*
X124580000Y-121410000D03*
X170830000Y-95660000D03*
X137580000Y-121160000D03*
X150580000Y-119910000D03*
X150580000Y-116160000D03*
X150580000Y-113660000D03*
X150580000Y-111160000D03*
X178080000Y-52910000D03*
X178080000Y-84910000D03*
X121080000Y-79910000D03*
X172830000Y-103660000D03*
X156080000Y-105910000D03*
X260330000Y-122160000D03*
X281080008Y-93660000D03*
X94830000Y-122160000D03*
X25080000Y-122410000D03*
X30080006Y-59910000D03*
X176580000Y-106910000D03*
X176580000Y-105410000D03*
X174580000Y-65910000D03*
X121080000Y-121410000D03*
X121080000Y-119660000D03*
X148830000Y-114910000D03*
X146330000Y-114910000D03*
X174080000Y-105410000D03*
X174080000Y-106910000D03*
X168829978Y-92160000D03*
X170830000Y-92160000D03*
X123080000Y-121410000D03*
X123080000Y-119660000D03*
X122080000Y-96410000D03*
X120080000Y-96410000D03*
X149330000Y-117410000D03*
X145830000Y-117410000D03*
X148330000Y-112410000D03*
X146830000Y-112410000D03*
X175330000Y-106910000D03*
X175330000Y-105410000D03*
X169330000Y-88910000D03*
X176830000Y-83410000D03*
X170830000Y-88910000D03*
X122080000Y-121410000D03*
X122080000Y-119660000D03*
X124080000Y-77160000D03*
X125580000Y-77160000D03*
M02*
