M48
; DRILL file {KiCad (5.1.5-0-10_14)} date Tuesday, August 24, 2021 at 10:05:48 AM
; FORMAT={-:-/ absolute / metric / decimal}
; #@! TF.CreationDate,2021-08-24T10:05:48-04:00
; #@! TF.GenerationSoftware,Kicad,Pcbnew,(5.1.5-0-10_14)
; #@! TF.FileFunction,Plated,1,2,PTH
FMAT,2
METRIC
T1C0.400
T2C0.500
T3C1.000
T4C1.016
T5C1.092
T6C1.200
T7C1.500
T8C2.500
%
G90
G05
T1
X17.08Y-93.66
X25.08Y-122.41
X26.83Y-68.41
X30.08Y-59.91
X37.33Y-81.16
X44.08Y-43.41
X47.33Y-69.16
X52.33Y-103.41
X56.08Y-81.16
X59.58Y-61.91
X63.08Y-43.16
X66.33Y-71.16
X71.33Y-106.91
X75.83Y-80.91
X79.33Y-62.16
X83.08Y-42.66
X84.83Y-75.66
X90.08Y-109.41
X94.08Y-87.66
X94.83Y-122.16
X101.33Y-49.41
X107.33Y-80.91
X113.08Y-90.91
X114.58Y-115.66
X120.08Y-96.41
X121.08Y-79.91
X121.08Y-119.66
X121.08Y-121.41
X122.08Y-96.41
X122.08Y-119.66
X122.08Y-121.41
X123.08Y-119.66
X123.08Y-121.41
X124.08Y-77.16
X124.58Y-121.41
X125.58Y-77.16
X137.58Y-121.16
X145.83Y-117.41
X146.33Y-114.91
X146.83Y-112.41
X148.33Y-112.41
X148.83Y-114.91
X149.33Y-117.41
X150.58Y-111.16
X150.58Y-113.66
X150.58Y-116.16
X150.58Y-119.91
X156.08Y-105.91
X161.58Y-120.41
X162.33Y-101.16
X164.08Y-120.41
X166.58Y-100.66
X168.83Y-92.16
X169.33Y-88.91
X170.83Y-88.91
X170.83Y-92.16
X170.83Y-95.66
X172.83Y-103.66
X174.08Y-105.41
X174.08Y-106.91
X174.58Y-65.91
X175.33Y-105.41
X175.33Y-106.91
X176.58Y-105.41
X176.58Y-106.91
X176.83Y-83.41
X178.08Y-52.91
X178.08Y-84.91
X215.08Y-42.66
X217.58Y-61.91
X221.58Y-79.91
X237.33Y-61.66
X241.08Y-79.41
X245.08Y-101.66
X260.33Y-79.91
X260.33Y-122.16
X263.58Y-97.66
X264.674Y-60.46
X265.83Y-69.91
X281.08Y-93.66
T2
X6.838Y-91.01
X6.838Y-96.21
X8.88Y-91.01
X8.88Y-96.21
X10.718Y-91.772
X10.718Y-95.448
X11.48Y-93.61
X28.83Y-62.693
X28.83Y-67.31
X28.83Y-120.01
X28.83Y-124.61
X30.03Y-62.71
X30.03Y-67.31
X30.03Y-120.01
X30.03Y-124.61
X31.23Y-62.71
X31.23Y-67.31
X31.23Y-120.01
X31.23Y-124.61
X98.38Y-120.01
X98.38Y-124.61
X99.58Y-120.01
X99.58Y-124.61
X100.78Y-120.01
X100.78Y-124.61
X262.58Y-65.01
X263.254Y-63.384
X263.254Y-66.636
X263.68Y-120.01
X263.68Y-124.61
X264.88Y-62.71
X264.88Y-67.31
X264.88Y-120.01
X264.88Y-124.61
X266.08Y-120.01
X266.08Y-124.61
X266.506Y-63.384
X266.506Y-66.636
X267.18Y-65.01
X283.68Y-93.61
X284.442Y-91.772
X284.442Y-95.448
X286.28Y-91.01
X286.28Y-96.21
X288.322Y-91.01
X288.322Y-96.21
T3
X33.205Y-51.428
X34.56Y-43.747
X65.213Y-89.312
X66.568Y-81.63
X108.799Y-61.533
X110.154Y-53.852
X217.016Y-109.537
X218.37Y-117.218
X194.396Y-90.958
X195.75Y-98.639
X176.694Y-121.774
X181.708Y-127.749
X172.327Y-75.505
X173.682Y-83.186
X119.891Y-107.237
X125.161Y-101.486
X79.574Y-117.652
X80.928Y-109.971
X42.042Y-111.018
X43.396Y-103.336
X169.019Y-56.744
X170.374Y-64.426
X68.521Y-70.551
X69.876Y-62.87
X244.613Y-46.639
X245.967Y-54.321
X212.605Y-84.523
X213.959Y-92.204
X86.731Y-76.986
X88.085Y-69.304
X105.491Y-80.294
X106.846Y-72.612
X270.549Y-83.971
X271.903Y-91.652
X252.735Y-75.589
X260.417Y-74.234
X23.281Y-107.71
X24.636Y-100.028
X7.374Y-88.177
X8.728Y-80.495
X52.517Y-51.609
X53.872Y-43.928
X30.91Y-73.684
X38.592Y-75.039
X83.423Y-95.746
X84.777Y-88.065
X198.255Y-112.845
X199.61Y-120.526
X157.566Y-111.811
X162.836Y-117.562
X101.019Y-117.324
X106.033Y-111.349
X60.803Y-114.326
X62.157Y-106.644
X235.776Y-106.229
X237.131Y-113.91
X187.78Y-53.436
X189.134Y-61.118
X263.925Y-46.458
X265.279Y-54.139
X27.399Y-77.277
X28.753Y-69.596
X191.088Y-72.197
X192.442Y-79.878
X272.114Y-75.345
X279.796Y-73.991
X26.599Y-88.977
X27.953Y-81.296
X71.829Y-51.791
X73.184Y-44.109
X102.183Y-99.054
X103.538Y-91.373
X254.537Y-102.921
X255.891Y-110.602
X205.989Y-47.002
X207.343Y-54.683
X231.917Y-84.342
X233.271Y-92.023
X209.297Y-65.762
X210.651Y-73.444
X13.894Y-51.247
X15.248Y-43.565
X90.039Y-58.225
X91.393Y-50.544
X45.901Y-89.13
X47.256Y-81.449
X175.635Y-94.266
X176.99Y-101.947
X49.209Y-70.37
X50.564Y-62.688
X225.301Y-46.82
X226.655Y-54.502
X251.229Y-84.16
X252.583Y-91.842
X228.609Y-65.581
X229.963Y-73.262
T4
X125.829Y-87.166
X142.83Y-40.91
X125.829Y-90.166
X152.33Y-40.91
X125.829Y-84.166
X125.829Y-81.166
T5
X139.71Y-99.69
X139.71Y-102.23
X139.71Y-104.77
X139.71Y-107.31
X139.71Y-109.85
X139.71Y-112.39
X139.71Y-114.93
X139.71Y-117.47
X139.71Y-120.01
X139.71Y-122.55
X139.71Y-125.09
X139.71Y-127.63
X154.95Y-99.69
X154.95Y-102.23
X154.95Y-104.77
X154.95Y-107.31
X154.95Y-109.85
X154.95Y-112.39
X154.95Y-114.93
X154.95Y-117.47
X154.95Y-120.01
X154.95Y-122.55
X154.95Y-125.09
X154.95Y-127.63
T6
X178.502Y-63.795
X183.044Y-60.761
X207.738Y-119.896
X212.28Y-116.861
X222.088Y-91.574
X226.63Y-88.539
X21.734Y-53.42
X27.04Y-52.122
X97.89Y-60.445
X103.196Y-59.146
X53.753Y-91.35
X59.059Y-90.052
X15.129Y-90.987
X20.435Y-89.689
X125.72Y-113.178
X130.964Y-114.707
X270.09Y-63.487
X274.632Y-60.452
X116.651Y-63.753
X121.957Y-62.454
X185.118Y-101.317
X189.66Y-98.282
X200.571Y-79.248
X205.113Y-76.213
X68.654Y-116.545
X73.96Y-115.247
X34.441Y-91.169
X39.747Y-89.87
X76.373Y-72.771
X81.679Y-71.472
X91.274Y-97.966
X96.58Y-96.668
X215.472Y-54.053
X220.014Y-51.018
X197.263Y-60.487
X201.805Y-57.453
X113.343Y-82.513
X118.649Y-81.215
X241.4Y-91.393
X245.942Y-88.358
X245.259Y-113.28
X249.801Y-110.245
X31.133Y-109.929
X36.439Y-108.631
X60.369Y-53.829
X65.675Y-52.53
X87.415Y-119.853
X92.721Y-118.555
X188.433Y-123.146
X190.849Y-118.247
X226.499Y-116.588
X231.041Y-113.553
X234.784Y-53.871
X239.326Y-50.837
X169.433Y-113.082
X171.849Y-108.182
X203.879Y-98.009
X208.421Y-94.974
X238.092Y-72.632
X242.634Y-69.597
X57.061Y-72.589
X62.367Y-71.291
X15.215Y-61.708
X20.521Y-60.409
X106.72Y-123.144
X111.964Y-124.673
X94.582Y-79.205
X99.888Y-77.907
X110.035Y-101.274
X115.341Y-99.976
X181.81Y-82.556
X186.352Y-79.521
X41.057Y-53.648
X46.363Y-52.349
X250.778Y-63.668
X255.32Y-60.633
X73.065Y-91.531
X78.371Y-90.233
X279.922Y-91.019
X284.464Y-87.984
X264.02Y-109.972
X268.562Y-106.937
X254.096Y-53.69
X258.638Y-50.655
X273.408Y-53.509
X277.95Y-50.474
X260.712Y-91.211
X265.254Y-88.176
X37.749Y-72.408
X43.055Y-71.11
X49.894Y-113.237
X55.2Y-111.939
X79.681Y-54.01
X84.987Y-52.712
X218.78Y-72.813
X223.322Y-69.778
T7
X106.883Y-97.205
X107.92Y-98.87
X177.457Y-79.81
X179.001Y-81.02
X37.906Y-49.579
X38.942Y-51.244
X258.129Y-62.169
X259.673Y-63.379
X69.913Y-87.462
X70.95Y-89.127
X275.569Y-88.273
X277.113Y-89.483
X259.667Y-107.226
X261.21Y-108.436
X249.743Y-50.944
X251.286Y-52.155
X269.055Y-50.763
X270.598Y-51.973
X256.359Y-88.465
X257.902Y-89.676
X34.598Y-68.339
X35.634Y-70.004
X46.742Y-109.168
X47.779Y-110.834
X76.529Y-49.941
X77.566Y-51.606
X214.427Y-70.067
X215.971Y-71.278
X174.149Y-61.05
X175.693Y-62.26
X203.385Y-117.15
X204.929Y-118.36
X217.735Y-88.828
X219.279Y-90.038
X18.583Y-49.351
X19.62Y-51.016
X94.739Y-56.376
X95.775Y-58.041
X50.602Y-87.281
X51.638Y-88.946
X11.978Y-86.918
X13.014Y-88.584
X125.025Y-108.079
X125.09Y-110.039
X277.441Y-61.987
X278.985Y-63.198
X113.499Y-59.684
X114.536Y-61.349
X180.765Y-98.571
X182.309Y-99.781
X196.218Y-76.502
X197.761Y-77.712
X65.503Y-112.476
X66.539Y-114.142
X31.29Y-87.1
X32.326Y-88.765
X73.221Y-68.702
X74.258Y-70.367
X88.123Y-93.897
X89.159Y-95.562
X211.119Y-51.307
X212.663Y-52.517
X192.91Y-57.742
X194.453Y-58.952
X110.191Y-78.444
X111.228Y-80.11
X237.047Y-88.647
X238.591Y-89.857
X240.906Y-110.534
X242.45Y-111.744
X27.982Y-105.86
X29.018Y-107.526
X57.218Y-49.76
X58.254Y-51.425
X84.263Y-115.784
X85.3Y-117.45
X183.29Y-122.945
X185.232Y-123.221
X222.146Y-113.842
X223.689Y-115.052
X230.431Y-51.126
X231.975Y-52.336
X164.29Y-112.88
X166.232Y-113.157
X199.526Y-95.263
X201.069Y-96.473
X233.739Y-69.886
X235.283Y-71.096
X53.91Y-68.52
X54.946Y-70.186
X22.636Y-62.813
X23.672Y-64.478
X106.025Y-118.045
X106.09Y-120.005
X91.431Y-75.136
X92.467Y-76.802
T8
X264.88Y-65.01
T7
G00X112.796Y-100.238
M15
G01X112.657Y-100.801
M16
G05
G00X184.051Y-80.638
M15
G01X184.113Y-81.215
M16
G05
G00X43.818Y-52.612
M15
G01X43.679Y-53.175
M16
G05
G00X253.079Y-62.551
M15
G01X253.018Y-61.974
M16
G05
G00X75.826Y-90.496
M15
G01X75.687Y-91.059
M16
G05
G00X282.163Y-89.101
M15
G01X282.224Y-89.678
M16
G05
G00X266.261Y-108.054
M15
G01X266.322Y-108.631
M16
G05
G00X256.337Y-51.773
M15
G01X256.398Y-52.349
M16
G05
G00X275.648Y-51.591
M15
G01X275.71Y-52.168
M16
G05
G00X262.953Y-89.294
M15
G01X263.014Y-89.87
M16
G05
G00X40.51Y-71.373
M15
G01X40.371Y-71.936
M16
G05
G00X52.655Y-112.202
M15
G01X52.516Y-112.765
M16
G05
G00X82.442Y-52.974
M15
G01X82.303Y-53.537
M16
G05
G00X221.021Y-70.896
M15
G01X221.082Y-71.472
M16
G05
G00X180.743Y-61.878
M15
G01X180.805Y-62.454
M16
G05
G00X209.979Y-117.978
M15
G01X210.04Y-118.555
M16
G05
G00X224.329Y-89.656
M15
G01X224.39Y-90.233
M16
G05
G00X24.496Y-52.385
M15
G01X24.356Y-52.948
M16
G05
G00X100.652Y-59.409
M15
G01X100.512Y-59.972
M16
G05
G00X56.514Y-90.314
M15
G01X56.375Y-90.877
M16
G05
G00X17.891Y-89.952
M15
G01X17.751Y-90.515
M16
G05
G00X128.629Y-113.662
M15
G01X128.227Y-114.08
M16
G05
G00X272.391Y-62.369
M15
G01X272.33Y-61.793
M16
G05
G00X119.412Y-62.717
M15
G01X119.273Y-63.28
M16
G05
G00X187.359Y-99.399
M15
G01X187.421Y-99.976
M16
G05
G00X202.811Y-77.33
M15
G01X202.873Y-77.907
M16
G05
G00X71.416Y-115.51
M15
G01X71.276Y-116.073
M16
G05
G00X37.202Y-90.133
M15
G01X37.063Y-90.696
M16
G05
G00X79.134Y-71.735
M15
G01X78.995Y-72.298
M16
G05
G00X94.036Y-96.93
M15
G01X93.896Y-97.493
M16
G05
G00X217.713Y-52.135
M15
G01X217.774Y-52.712
M16
G05
G00X199.503Y-58.57
M15
G01X199.565Y-59.146
M16
G05
G00X116.104Y-81.478
M15
G01X115.965Y-82.041
M16
G05
G00X243.641Y-89.475
M15
G01X243.702Y-90.052
M16
G05
G00X247.5Y-111.362
M15
G01X247.562Y-111.939
M16
G05
G00X33.894Y-108.894
M15
G01X33.755Y-109.457
M16
G05
G00X63.13Y-52.793
M15
G01X62.991Y-53.356
M16
G05
G00X90.176Y-118.818
M15
G01X90.037Y-119.381
M16
G05
G00X189.415Y-120.365
M15
G01X189.757Y-120.834
M16
G05
G00X228.739Y-114.67
M15
G01X228.801Y-115.247
M16
G05
G00X237.025Y-51.954
M15
G01X237.086Y-52.53
M16
G05
G00X170.415Y-110.301
M15
G01X170.756Y-110.769
M16
G05
G00X206.119Y-96.091
M15
G01X206.181Y-96.668
M16
G05
G00X240.333Y-70.714
M15
G01X240.394Y-71.291
M16
G05
G00X59.822Y-71.554
M15
G01X59.683Y-72.117
M16
G05
G00X17.759Y-61.445
M15
G01X17.899Y-60.882
M16
G05
G00X109.629Y-123.628
M15
G01X109.227Y-124.046
M16
G05
G00X97.344Y-78.17
M15
G01X97.204Y-78.733
M16
G05
T8
G00X31.28Y-65.01
M15
G01X28.78Y-65.01
M16
G05
G00X28.78Y-122.31
M15
G01X31.28Y-122.31
M16
G05
G00X98.33Y-122.31
M15
G01X100.83Y-122.31
M16
G05
G00X263.63Y-122.31
M15
G01X266.13Y-122.31
M16
G05
T0
M30
