M48
; DRILL file {KiCad (5.1.5-0-10_14)} date Friday, August 13, 2021 at 03:04:34 PM
; FORMAT={-:-/ absolute / metric / decimal}
; #@! TF.CreationDate,2021-08-13T15:04:34-04:00
; #@! TF.GenerationSoftware,Kicad,Pcbnew,(5.1.5-0-10_14)
; #@! TF.FileFunction,NonPlated,1,2,NPTH
FMAT,2
METRIC
T1C1.670
T2C3.000
T3C3.980
%
G90
G05
T1
X17.773Y-46.629
X27.779Y-48.393
X220.454Y-111.561
X230.46Y-109.797
X251.359Y-67.424
X261.365Y-65.66
X239.214Y-108.253
X249.22Y-106.489
X201.693Y-114.869
X211.699Y-113.105
X194.526Y-74.221
X204.532Y-72.457
X87.313Y-91.175
X97.319Y-92.939
X112.69Y-56.962
X122.695Y-58.726
X93.929Y-53.654
X103.935Y-55.418
X49.792Y-84.559
X59.798Y-86.323
X175.765Y-77.529
X185.771Y-75.765
X180.685Y-121.816
X188.468Y-115.285
X216.043Y-86.547
X226.049Y-84.783
X30.48Y-84.378
X40.486Y-86.142
X37.096Y-46.857
X47.102Y-48.621
X235.355Y-86.366
X245.361Y-84.602
X212.735Y-67.786
X222.741Y-66.022
X33.788Y-65.617
X43.794Y-67.381
X90.621Y-72.414
X100.627Y-74.179
X197.834Y-92.982
X207.84Y-91.218
X83.454Y-113.062
X93.459Y-114.827
X109.382Y-75.722
X119.387Y-77.487
X27.172Y-103.138
X37.178Y-104.903
X179.073Y-96.29
X189.079Y-94.526
X106.074Y-94.483
X116.079Y-96.247
X75.72Y-47.219
X85.725Y-48.983
X64.693Y-109.754
X74.699Y-111.519
X69.104Y-84.74
X79.109Y-86.504
X254.667Y-86.185
X264.673Y-84.42
X228.739Y-48.845
X238.745Y-47.08
X161.684Y-111.751
X169.468Y-105.22
X248.051Y-48.663
X258.057Y-46.899
X11.168Y-84.196
X21.174Y-85.961
X273.877Y-85.992
X283.883Y-84.228
X209.427Y-49.026
X219.433Y-47.262
X191.218Y-55.461
X201.224Y-53.696
X172.457Y-58.769
X182.463Y-57.004
X257.975Y-104.945
X267.981Y-103.181
X232.047Y-67.605
X242.053Y-65.841
X267.363Y-48.482
X277.369Y-46.718
X270.671Y-67.243
X280.677Y-65.478
X106.685Y-115.283
X114.468Y-121.814
X72.412Y-65.98
X82.417Y-67.744
X14.476Y-65.436
X24.482Y-67.2
X56.408Y-47.038
X66.414Y-48.802
X125.685Y-105.316
X133.468Y-111.847
X53.1Y-65.798
X63.106Y-67.563
X45.933Y-106.446
X55.938Y-108.211
T2
X214.355Y-62.343
X221.049Y-63.741
X37.172Y-61.055
X42.984Y-64.659
X94.005Y-67.853
X99.817Y-71.457
X199.453Y-87.538
X206.148Y-88.937
X86.837Y-108.501
X92.65Y-112.105
X112.765Y-71.161
X118.578Y-74.765
X30.556Y-98.577
X36.368Y-102.181
X180.693Y-90.846
X187.387Y-92.245
X109.457Y-89.921
X115.27Y-93.525
X79.103Y-42.657
X84.916Y-46.261
X68.077Y-105.193
X73.889Y-108.797
X72.487Y-80.178
X78.3Y-83.783
X256.286Y-80.741
X262.981Y-82.139
X230.358Y-43.401
X237.053Y-44.799
X160.365Y-106.227
X166.862Y-104.091
X249.67Y-43.22
X256.365Y-44.618
X14.552Y-79.635
X20.364Y-83.239
X275.496Y-80.548
X282.191Y-81.947
X211.047Y-43.582
X217.741Y-44.981
X192.837Y-50.017
X199.532Y-51.415
X174.077Y-53.325
X180.771Y-54.723
X259.594Y-99.501
X266.289Y-100.9
X233.666Y-62.161
X240.361Y-63.56
X268.982Y-43.038
X275.677Y-44.437
X272.363Y-69.524
X279.057Y-70.922
X111.896Y-113.024
X115.128Y-119.051
X75.795Y-61.418
X81.608Y-65.022
X15.286Y-68.158
X21.098Y-71.762
X59.791Y-42.476
X65.604Y-46.08
X130.896Y-103.058
X134.128Y-109.085
X56.483Y-61.237
X62.296Y-64.841
X49.316Y-101.885
X55.129Y-105.489
X21.157Y-42.067
X26.969Y-45.672
X222.073Y-106.117
X228.768Y-107.516
X253.051Y-69.705
X259.745Y-71.104
X240.834Y-102.809
X247.528Y-104.208
X203.313Y-109.425
X210.007Y-110.824
X196.145Y-68.777
X202.84Y-70.176
X90.697Y-86.613
X96.509Y-90.217
X116.073Y-52.4
X121.886Y-56.004
X97.313Y-49.092
X103.125Y-52.696
X53.175Y-79.997
X58.988Y-83.601
X177.385Y-72.085
X184.079Y-73.484
X179.365Y-116.291
X185.862Y-114.155
X217.663Y-81.103
X224.357Y-82.502
X33.864Y-79.816
X39.676Y-83.42
X40.48Y-42.295
X46.292Y-45.899
X236.974Y-80.922
X243.669Y-82.321
T3
X98.932Y-54.536
X54.795Y-85.441
X180.768Y-76.647
X184.576Y-118.55
X221.046Y-85.665
X35.483Y-85.26
X42.099Y-47.739
X240.358Y-85.484
X217.738Y-66.904
X38.791Y-66.499
X95.624Y-73.297
X202.837Y-92.1
X88.457Y-113.944
X114.385Y-76.605
X32.175Y-104.02
X184.076Y-95.408
X111.077Y-95.365
X80.723Y-48.101
X69.696Y-110.636
X74.107Y-85.622
X259.67Y-85.302
X233.742Y-47.962
X165.576Y-108.485
X253.054Y-47.781
X16.171Y-85.079
X278.88Y-85.11
X214.43Y-48.144
X196.221Y-54.578
X177.46Y-57.886
X262.978Y-104.063
X237.05Y-66.723
X272.366Y-47.6
X275.674Y-66.361
X110.576Y-118.548
X77.415Y-66.862
X19.479Y-66.318
X61.411Y-47.92
X129.576Y-108.582
X58.103Y-66.681
X50.935Y-107.328
X22.776Y-47.511
X225.457Y-110.679
X256.362Y-66.542
X244.217Y-107.371
X206.696Y-113.987
X199.529Y-73.339
X92.316Y-92.057
X117.693Y-57.844
T0
M30
