G04 #@! TF.GenerationSoftware,KiCad,Pcbnew,(5.1.5-0-10_14)*
G04 #@! TF.CreationDate,2021-09-10T09:37:17-04:00*
G04 #@! TF.ProjectId,Laptreus-v3,4c617074-7265-4757-932d-76332e6b6963,rev?*
G04 #@! TF.SameCoordinates,Original*
G04 #@! TF.FileFunction,Profile,NP*
%FSLAX46Y46*%
G04 Gerber Fmt 4.6, Leading zero omitted, Abs format (unit mm)*
G04 Created by KiCad (PCBNEW (5.1.5-0-10_14)) date 2021-09-10 09:37:17*
%MOMM*%
%LPD*%
G04 APERTURE LIST*
%ADD10C,0.100000*%
%ADD11C,0.300000*%
G04 APERTURE END LIST*
D10*
X142080000Y-107660000D02*
G75*
G02X141580000Y-107160000I0J500000D01*
G01*
X153580000Y-107160000D02*
G75*
G02X153080000Y-107660000I-500000J0D01*
G01*
X153580000Y-98910000D02*
G75*
G02X154080000Y-98410000I500000J0D01*
G01*
X141080000Y-98410000D02*
G75*
G02X141580000Y-98910000I0J-500000D01*
G01*
X154080000Y-98410000D02*
X166080000Y-98410000D01*
X153580000Y-107160000D02*
X153580000Y-98910000D01*
X142080000Y-107660000D02*
X153080000Y-107660000D01*
X141580000Y-98910000D02*
X141580000Y-107160000D01*
X129080000Y-98410001D02*
X141080000Y-98410000D01*
X166080000Y-44660000D02*
X129080000Y-44660000D01*
X128080000Y-45661357D02*
X128080000Y-97411357D01*
X167080000Y-97411359D02*
X167080000Y-45660000D01*
X128079999Y-45661357D02*
G75*
G02X129080000Y-44661357I1001357J-1357D01*
G01*
X166080000Y-44660000D02*
G75*
G02X167080000Y-45661360I0J-1000001D01*
G01*
X167080000Y-97411359D02*
G75*
G02X166080000Y-98410000I-1000001J1361D01*
G01*
X129080000Y-98410001D02*
G75*
G02X128080000Y-97411357I0J1000001D01*
G01*
D11*
X288080000Y-37110000D02*
X277880000Y-37110000D01*
X286280000Y-95010000D02*
G75*
G02X284880000Y-93610000I0J1400000D01*
G01*
X8880000Y-92210000D02*
X5080000Y-92210000D01*
X8880000Y-95010000D02*
X5080000Y-95010000D01*
X5080000Y-92210000D02*
X5080000Y-39110000D01*
X5080000Y-95010000D02*
X5080000Y-129710000D01*
X8880000Y-95010000D02*
G75*
G03X10280000Y-93610000I0J1400000D01*
G01*
X10280000Y-93610000D02*
G75*
G03X8880000Y-92210000I-1400000J0D01*
G01*
X290080000Y-92210000D02*
X290080000Y-39110000D01*
X286280000Y-92210000D02*
X290080000Y-92210000D01*
X284880000Y-93610000D02*
G75*
G02X286280000Y-92210000I1400000J0D01*
G01*
X290080000Y-95010000D02*
X286280000Y-95010000D01*
X290080000Y-129710000D02*
X290080000Y-95010000D01*
X5080000Y-39110000D02*
G75*
G02X7080000Y-37110000I2000000J0D01*
G01*
X7080000Y-131710000D02*
G75*
G02X5080000Y-129710000I0J2000000D01*
G01*
X290080000Y-129710000D02*
G75*
G02X288080000Y-131710000I-2000000J0D01*
G01*
X288080000Y-37110000D02*
G75*
G02X290080000Y-39110000I0J-2000000D01*
G01*
X7080000Y-37110000D02*
X277880000Y-37110000D01*
X288080000Y-131710000D02*
X7080000Y-131710000D01*
M02*
