<?xml version="1.0" encoding="UTF-8" standalone="no"?>
<!DOCTYPE svg PUBLIC "-//W3C//DTD SVG 1.1//EN" "http://www.w3.org/Graphics/SVG/1.1/DTD/svg11.dtd">
<svg width="1872px" height="1056px" version="1.1" xmlns="http://www.w3.org/2000/svg" xmlns:xlink="http://www.w3.org/1999/xlink" xml:space="preserve" xmlns:serif="http://www.serif.com/" style="fill-rule:evenodd;clip-rule:evenodd;stroke-linecap:round;stroke-linejoin:round;stroke-miterlimit:2;">
    <g id="_3mm-PCB-Wrapper" serif:id="3mm PCB Wrapper">
        <g id="Bottom">
            <path d="M1109.93,685.726c0,0 -215.211,0 -251.29,0c-1.353,0 -2.651,0.537 -3.608,1.494c-0.957,0.957 -1.494,2.255 -1.494,3.608l0,4.913c0,1.353 -0.538,2.651 -1.495,3.608c-0.956,0.957 -2.254,1.495 -3.607,1.495c-50.985,0 -467.945,0 -518.93,0c-1.353,0 -2.651,-0.538 -3.608,-1.495c-0.956,-0.957 -1.494,-2.255 -1.494,-3.608c0,-1.584 0,-3.329 0,-4.913c0,-1.353 -0.538,-2.651 -1.494,-3.608c-0.957,-0.957 -2.255,-1.495 -3.608,-1.495c-36.079,0 -251.29,0 -251.29,0" style="fill:none;stroke:#00f;stroke-width:0.28px;"/>
            <path d="M96.363,727.301l985.224,-0.001" style="fill:none;stroke:#00f;stroke-width:0.28px;"/>
            <path d="M68.016,685.725l-6.285,0l0,41.575l34.632,0c0,0 0,-25.872 0,-31.181c0,-0.165 -0.066,-0.324 -0.183,-0.441c-0.117,-0.117 -0.276,-0.182 -0.441,-0.182c-3.689,0 -17.099,0 -20.788,0c-0.165,0 -0.324,0.065 -0.44,0.182c-0.117,0.117 -0.183,0.276 -0.183,0.441c0,2.977 0,12.141 0,15.118c0,0.166 0.066,0.324 0.183,0.441c0.116,0.117 0.275,0.183 0.44,0.183c2.136,0 7.314,0 9.449,0c0.166,0 0.324,-0.066 0.441,-0.183c0.117,-0.117 0.183,-0.275 0.183,-0.441c0,-1.048 0,-2.731 0,-3.779c0,-0.345 -0.279,-0.624 -0.624,-0.624c-1.048,0 -2.731,0 -3.779,0c-0.7,0 -1.266,-0.567 -1.266,-1.266c0,-1.049 0,-2.731 0,-3.78c0,-0.335 0.133,-0.657 0.37,-0.895c0.238,-0.237 0.56,-0.371 0.896,-0.371c2.135,0 7.313,0 9.449,0c0.335,0 0.657,0.134 0.895,0.371c0.237,0.238 0.371,0.56 0.371,0.895c0,2.978 0,12.141 0,15.119c0,0.335 -0.134,0.657 -0.371,0.895c-0.238,0.237 -0.56,0.371 -0.895,0.371c-3.689,0 -17.099,0 -20.788,0c-0.336,0 -0.658,-0.134 -0.895,-0.371c-0.238,-0.238 -0.371,-0.56 -0.371,-0.895l0,-31.182Z" style="fill:none;stroke:#000;stroke-width:0.28px;stroke-linecap:butt;"/>
            <path d="M1109.93,685.726l6.285,0l0,41.575l-34.632,0c0,0 0,-25.873 0,-31.181c0,-0.166 0.066,-0.324 0.183,-0.441c0.117,-0.117 0.276,-0.183 0.441,-0.183c3.689,0 17.099,0 20.787,0c0.166,0 0.324,0.066 0.441,0.183c0.117,0.117 0.183,0.275 0.183,0.441c0,2.977 0,12.141 0,15.118c0,0.165 -0.066,0.324 -0.183,0.441c-0.117,0.117 -0.275,0.182 -0.441,0.182c-2.135,0 -7.313,0 -9.448,0c-0.166,0 -0.324,-0.065 -0.441,-0.182c-0.117,-0.117 -0.183,-0.276 -0.183,-0.441c0,-1.049 0,-2.731 0,-3.78c0,-0.344 0.279,-0.623 0.624,-0.623c1.048,0 2.731,0 3.779,0c0.699,0 1.266,-0.567 1.266,-1.267c0,-1.048 0,-2.73 0,-3.779c0,-0.336 -0.133,-0.658 -0.371,-0.895c-0.237,-0.238 -0.559,-0.371 -0.895,-0.371c-2.135,0 -7.313,0 -9.449,0c-0.335,0 -0.658,0.133 -0.895,0.371c-0.237,0.237 -0.371,0.559 -0.371,0.895c0,2.977 0,12.141 0,15.118c0,0.336 0.134,0.658 0.371,0.895c0.237,0.238 0.56,0.371 0.895,0.371c3.689,0 17.099,0 20.788,0c0.336,0 0.658,-0.133 0.895,-0.371c0.237,-0.237 0.371,-0.559 0.371,-0.895l0,-31.181Z" style="fill:none;stroke:#000;stroke-width:0.28px;stroke-linecap:butt;"/>
            <g>
                <circle cx="887.558" cy="712.182" r="9.805" style="fill:none;stroke:#00f;stroke-width:0.28px;stroke-miterlimit:1.5;"/>
            </g>
            <g>
                <circle cx="290.392" cy="712.182" r="9.805" style="fill:none;stroke:#00f;stroke-width:0.28px;stroke-miterlimit:1.5;"/>
            </g>
        </g>
        <g id="Left">
            <path d="M464.089,463.168l6.301,0" style="fill:none;stroke:#00f;stroke-width:0.28px;stroke-linecap:butt;"/>
            <path d="M435.743,504.742" style="fill:none;stroke:#00f;stroke-width:0.28px;stroke-linecap:butt;"/>
            <path d="M435.743,504.742c0,0 0,-25.872 0,-31.181c0,-0.165 0.065,-0.324 0.182,-0.441c0.117,-0.117 0.276,-0.182 0.441,-0.182c3.689,0 17.099,0 20.788,0c0.165,0 0.324,0.065 0.441,0.182c0.116,0.117 0.182,0.276 0.182,0.441c0,2.978 0,12.141 0,15.118c0,0.166 -0.066,0.325 -0.183,0.441c-0.116,0.117 -0.275,0.183 -0.44,0.183c-2.136,0 -7.314,0 -9.449,0c-0.166,0 -0.324,-0.066 -0.441,-0.183c-0.117,-0.116 -0.183,-0.275 -0.183,-0.441c0,-1.048 0,-2.73 0,-3.779c0,-0.344 0.279,-0.624 0.624,-0.624c1.048,0 2.731,0 3.779,0c0.7,0 1.266,-0.567 1.266,-1.266c0,-1.048 0,-2.731 0,-3.779c0,-0.336 -0.133,-0.658 -0.37,-0.896c-0.238,-0.237 -0.56,-0.371 -0.896,-0.371c-2.135,0 -7.313,0 -9.449,0c-0.335,0 -0.657,0.134 -0.895,0.371c-0.237,0.238 -0.371,0.56 -0.371,0.896c0,2.977 0,12.141 0,15.118c0,0.336 0.134,0.658 0.371,0.895c0.238,0.237 0.56,0.371 0.895,0.371c3.689,0 17.099,0 20.788,0c0.336,0 0.658,-0.134 0.895,-0.371c0.238,-0.237 0.371,-0.559 0.371,-0.895c0,-5.309 0,-31.181 0,-31.181" style="fill:none;stroke:#00f;stroke-width:0.28px;stroke-linecap:butt;"/>
            <path d="M435.743,36.081c0,0 -41.841,0 -56.629,0c-1.353,0 -2.651,0.538 -3.608,1.495c-0.957,0.957 -1.494,2.255 -1.494,3.608c0,47.456 0,411.001 0,458.457c0,1.353 0.537,2.651 1.494,3.607c0.957,0.957 2.255,1.495 3.608,1.495c14.788,0 56.629,0 56.629,0" style="fill:none;stroke:#00f;stroke-width:0.28px;stroke-miterlimit:1.5;"/>
            <path d="M464.089,463.168c0,0 -52.818,0 -71.936,0c-3.757,0 -6.803,-3.046 -6.803,-6.803c0,-47.145 0,-324.76 0,-371.906c0,-3.757 3.046,-6.803 6.803,-6.803c6.512,0 16.933,0 27.844,0" style="fill:none;stroke:#00f;stroke-width:0.28px;stroke-miterlimit:1.5;"/>
            <path d="M470.39,77.656l0,-41.575l-34.647,0c0,0 0,25.873 0,31.182c0,0.165 0.065,0.324 0.182,0.441c0.117,0.116 0.276,0.182 0.441,0.182c3.689,0 17.099,0 20.788,0c0.165,0 0.324,-0.066 0.441,-0.182c0.116,-0.117 0.182,-0.276 0.182,-0.441c0,-2.978 0,-12.141 0,-15.119c0,-0.165 -0.066,-0.324 -0.183,-0.441c-0.116,-0.116 -0.275,-0.182 -0.44,-0.182c-2.136,0 -7.314,0 -9.449,0c-0.166,0 -0.324,0.066 -0.441,0.182c-0.117,0.117 -0.183,0.276 -0.183,0.441c0,1.049 0,2.731 0,3.78c0,0.344 0.279,0.624 0.624,0.624c1.048,0 2.731,0 3.779,0c0.7,0 1.266,0.567 1.266,1.266c0,1.048 0,2.731 0,3.779c0,0.336 -0.133,0.658 -0.37,0.896c-0.238,0.237 -0.56,0.37 -0.896,0.37c-2.135,0 -7.313,0 -9.449,0c-0.335,0 -0.657,-0.133 -0.895,-0.37c-0.237,-0.238 -0.371,-0.56 -0.371,-0.896c0,-2.977 0,-12.141 0,-15.118c0,-0.336 0.134,-0.658 0.371,-0.895c0.238,-0.238 0.56,-0.371 0.895,-0.371c3.689,0 17.099,0 20.788,0c0.336,0 0.658,0.133 0.895,0.371c0.238,0.237 0.371,0.559 0.371,0.895c0,5.309 0,31.181 0,31.181" style="fill:none;stroke:#00f;stroke-width:0.28px;stroke-linecap:butt;"/>
        </g>
        <g id="Top-left" serif:id="Top left">
            <path d="M96.363,659.485l249.588,0l205.229,41.244l15.118,0l0,-20.634l-16.837,0l0,-40.441l22.506,0l0,-6.625c0,0 -207.104,0 -242.457,0c-1.353,0 -2.651,-0.538 -3.608,-1.495c-0.956,-0.957 -1.494,-2.254 -1.494,-3.608c0,-1.584 0,-3.329 0,-4.913c0,-1.353 -0.538,-2.651 -1.494,-3.608c-0.957,-0.957 -2.255,-1.494 -3.608,-1.494c-36.079,0 -251.29,0 -251.29,0" style="fill:none;stroke:#00f;stroke-width:0.28px;"/>
            <path d="M68.016,617.911l-6.285,0l0,41.574l34.632,0c0,0 0,-25.872 0,-31.181c0,-0.165 -0.066,-0.324 -0.183,-0.441c-0.117,-0.117 -0.276,-0.182 -0.441,-0.182c-3.689,0 -17.099,0 -20.788,0c-0.165,0 -0.324,0.065 -0.44,0.182c-0.117,0.117 -0.183,0.276 -0.183,0.441c0,2.978 0,12.141 0,15.118c0,0.166 0.066,0.325 0.183,0.441c0.116,0.117 0.275,0.183 0.44,0.183c2.136,0 7.314,0 9.449,0c0.166,0 0.324,-0.066 0.441,-0.183c0.117,-0.116 0.183,-0.275 0.183,-0.441c0,-1.048 0,-2.73 0,-3.779c0,-0.344 -0.279,-0.624 -0.624,-0.624c-1.048,0 -2.731,0 -3.779,0c-0.7,0 -1.266,-0.567 -1.266,-1.266c0,-1.048 0,-2.731 0,-3.779c0,-0.336 0.133,-0.658 0.37,-0.896c0.238,-0.237 0.56,-0.371 0.896,-0.371c2.135,0 7.313,0 9.449,0c0.335,0 0.657,0.134 0.895,0.371c0.237,0.238 0.371,0.56 0.371,0.896c0,2.977 0,12.141 0,15.118c0,0.336 -0.134,0.658 -0.371,0.895c-0.238,0.237 -0.56,0.371 -0.895,0.371c-3.689,0 -17.099,0 -20.788,0c-0.336,0 -0.658,-0.134 -0.895,-0.371c-0.238,-0.237 -0.371,-0.559 -0.371,-0.895l0,-31.181Z" style="fill:none;stroke:#00f;stroke-width:0.28px;stroke-linecap:butt;"/>
            <g>
                <circle cx="517.164" cy="659.485" r="9.805" style="fill:none;stroke:#00f;stroke-width:0.28px;stroke-miterlimit:1.5;"/>
            </g>
        </g>
        <g id="Top-right" serif:id="Top right">
            <path d="M1109.93,617.911c0,0 -215.211,0 -251.29,0c-1.353,0 -2.651,0.537 -3.608,1.494c-0.957,0.957 -1.494,2.255 -1.494,3.608c0,1.584 0,3.329 0,4.913c0,1.354 -0.538,2.651 -1.495,3.608c-0.956,0.957 -2.254,1.495 -3.607,1.495c-35.353,0 -242.457,0 -242.457,0c0,0 0,6.625 0,6.625l22.223,0l0,40.441l-16.552,0l0,20.634l15.116,0l205.399,-41.244l249.418,0.001" style="fill:none;stroke:#00f;stroke-width:0.28px;stroke-miterlimit:1.5;"/>
            <path d="M1109.93,617.911l6.285,0l0,41.574l-34.632,0c0,0 0,-25.872 0,-31.181c0,-0.165 0.066,-0.324 0.183,-0.441c0.117,-0.117 0.276,-0.182 0.441,-0.182c3.689,0 17.099,0 20.787,0c0.166,0 0.324,0.065 0.441,0.182c0.117,0.117 0.183,0.276 0.183,0.441c0,2.978 0,12.141 0,15.118c0,0.166 -0.066,0.325 -0.183,0.441c-0.117,0.117 -0.275,0.183 -0.441,0.183c-2.135,0 -7.313,0 -9.448,0c-0.166,0 -0.324,-0.066 -0.441,-0.183c-0.117,-0.116 -0.183,-0.275 -0.183,-0.441c0,-1.048 0,-2.73 0,-3.779c0,-0.344 0.279,-0.624 0.624,-0.624c1.048,0 2.731,0 3.779,0c0.699,0 1.266,-0.567 1.266,-1.266c0,-1.048 0,-2.731 0,-3.779c0,-0.336 -0.133,-0.658 -0.371,-0.896c-0.237,-0.237 -0.559,-0.371 -0.895,-0.371c-2.135,0 -7.313,0 -9.449,0c-0.335,0 -0.658,0.134 -0.895,0.371c-0.237,0.238 -0.371,0.56 -0.371,0.896c0,2.977 0,12.141 0,15.118c0,0.336 0.134,0.658 0.371,0.895c0.237,0.237 0.56,0.371 0.895,0.371c3.689,0 17.099,0 20.788,0c0.336,0 0.658,-0.134 0.895,-0.371c0.237,-0.237 0.371,-0.559 0.371,-0.895l0,-31.181Z" style="fill:none;stroke:#00f;stroke-width:0.28px;stroke-linecap:butt;"/>
            <g>
                <circle cx="660.786" cy="659.485" r="9.805" style="fill:none;stroke:#00f;stroke-width:0.28px;stroke-miterlimit:1.5;"/>
            </g>
        </g>
        <g id="Right">
            <path d="M385.35,504.743l0,41.575l34.647,0c0,0 0,-25.873 0,-31.181c0,-0.166 -0.065,-0.324 -0.182,-0.441c-0.117,-0.117 -0.276,-0.183 -0.441,-0.183c-3.689,0 -17.099,0 -20.788,0c-0.165,0 -0.324,0.066 -0.441,0.183c-0.117,0.117 -0.182,0.275 -0.182,0.441c0,2.977 0,12.141 0,15.118c0,0.165 0.065,0.324 0.182,0.441c0.117,0.117 0.276,0.182 0.441,0.182c2.136,0 7.314,0 9.449,0c0.166,0 0.324,-0.065 0.441,-0.182c0.117,-0.117 0.183,-0.276 0.183,-0.441c0,-1.049 0,-2.731 0,-3.78c0,-0.344 -0.279,-0.623 -0.624,-0.623c-1.048,0 -2.731,0 -3.779,0c-0.7,0 -1.267,-0.567 -1.267,-1.267c0,-1.048 0,-2.731 0,-3.779c0,-0.336 0.134,-0.658 0.371,-0.895c0.238,-0.238 0.56,-0.371 0.896,-0.371c2.135,0 7.313,0 9.448,0c0.336,0 0.658,0.133 0.896,0.371c0.237,0.237 0.371,0.559 0.371,0.895c0,2.977 0,12.141 0,15.118c0,0.336 -0.134,0.658 -0.371,0.895c-0.238,0.238 -0.56,0.371 -0.896,0.371c-3.689,0 -17.098,0 -20.787,0c-0.336,0 -0.658,-0.133 -0.895,-0.371c-0.238,-0.237 -0.371,-0.559 -0.371,-0.895c0,-5.308 0,-31.181 0,-31.181" style="fill:none;stroke:#00f;stroke-width:0.28px;stroke-linecap:butt;"/>
            <path d="M435.743,504.743c10.911,0 21.332,0 27.843,0c3.758,0 6.804,-3.046 6.804,-6.803c0,-48.844 0,-345.023 0,-374.929c0,-2.088 -1.693,-3.78 -3.78,-3.78l-74.959,0" style="fill:none;stroke:#00f;stroke-width:0.28px;stroke-linecap:butt;"/>
            <path d="M391.651,119.231l-6.301,0" style="fill:none;stroke:#00f;stroke-width:0.28px;stroke-linecap:butt;"/>
            <path d="M419.997,77.656c0,0 0,25.873 0,31.181c0,0.166 -0.065,0.324 -0.182,0.441c-0.117,0.117 -0.276,0.183 -0.441,0.183c-3.689,0 -17.099,0 -20.788,0c-0.165,0 -0.324,-0.066 -0.441,-0.183c-0.117,-0.117 -0.182,-0.275 -0.182,-0.441c0,-2.977 0,-12.141 0,-15.118c0,-0.165 0.065,-0.324 0.182,-0.441c0.117,-0.117 0.276,-0.182 0.441,-0.182c2.136,0 7.314,0 9.449,0c0.166,0 0.324,0.065 0.441,0.182c0.117,0.117 0.183,0.276 0.183,0.441c0,1.049 0,2.731 0,3.78c0,0.344 -0.279,0.623 -0.624,0.623c-1.048,0 -2.731,0 -3.779,0c-0.7,0 -1.267,0.567 -1.267,1.267c0,1.048 0,2.73 0,3.779c0,0.336 0.134,0.658 0.371,0.895c0.238,0.238 0.56,0.371 0.896,0.371c2.135,0 7.313,0 9.448,0c0.336,0 0.658,-0.133 0.896,-0.371c0.237,-0.237 0.371,-0.559 0.371,-0.895c0,-2.977 0,-12.141 0,-15.118c0,-0.336 -0.134,-0.658 -0.371,-0.895c-0.238,-0.238 -0.56,-0.371 -0.896,-0.371c-3.689,0 -17.098,0 -20.787,0c-0.336,0 -0.658,0.133 -0.895,0.371c-0.238,0.237 -0.371,0.559 -0.371,0.895c0,5.308 0,31.181 0,31.181" style="fill:none;stroke:#00f;stroke-width:0.28px;stroke-linecap:butt;"/>
            <path d="M419.997,77.656l61.731,0l0,468.662l-61.731,0" style="fill:none;stroke:#00f;stroke-width:0.28px;stroke-linecap:butt;"/>
        </g>
    </g>
</svg>
