<?xml version="1.0" encoding="UTF-8" standalone="no"?>
<!DOCTYPE svg PUBLIC "-//W3C//DTD SVG 1.1//EN" "http://www.w3.org/Graphics/SVG/1.1/DTD/svg11.dtd">
<svg width="1872px" height="1056px" version="1.1" xmlns="http://www.w3.org/2000/svg" xmlns:xlink="http://www.w3.org/1999/xlink" xml:space="preserve" xmlns:serif="http://www.serif.com/" style="fill-rule:evenodd;clip-rule:evenodd;stroke-linecap:round;stroke-linejoin:round;stroke-miterlimit:2;">
    <g id="_4.5mm-Battery-Holder" serif:id="4.5mm Battery Holder">
        <path d="M636.851,759.546l0,133.861l-94.488,0l0,-196.536l24.567,0l0,-177.185l45.356,0l0,177.185l24.565,0l0,19.244l9.609,0l106.139,-96.167l0,-0.221l139.843,0l0,245.669l-139.843,0l0,-105.85l-115.748,0Z" style="fill:none;stroke:#00f;stroke-width:0.28px;"/>
        <g id="Outside-shape" serif:id="Outside shape">
            <path id="Outside-shape1" serif:id="Outside shape" d="M859.276,476.22c-1.354,0 -2.651,0.538 -3.608,1.495c-0.957,0.957 -1.495,2.255 -1.495,3.608c0,1.584 0,3.329 0,4.913c0,1.353 -0.537,2.651 -1.494,3.608c-0.957,0.957 -2.255,1.495 -3.608,1.495c-50.984,0 -467.945,0 -518.929,0c-1.353,0 -2.651,-0.538 -3.608,-1.495c-0.957,-0.957 -1.495,-2.255 -1.495,-3.608c0,-1.584 0,-3.329 0,-4.913c0,-1.353 -0.537,-2.651 -1.494,-3.608c-0.957,-0.957 -2.255,-1.495 -3.608,-1.495" style="fill:none;stroke:#00f;stroke-width:0.28px;stroke-miterlimit:1.5;"/>
            <path id="Outside-shape2" serif:id="Outside shape" d="M12.661,476.22c-1.353,0 -2.651,0.538 -3.607,1.495c-0.957,0.957 -1.495,2.255 -1.495,3.608c0,47.456 0,411.001 0,458.457c0,1.353 0.538,2.651 1.495,3.607c0.956,0.957 2.254,1.495 3.607,1.495c37.479,0 269.797,0 307.276,0c1.353,0 2.651,-0.538 3.608,-1.495c0.957,-0.956 1.494,-2.254 1.494,-3.607c0,-1.584 0,-3.33 0,-4.914c0,-1.353 0.538,-2.651 1.495,-3.608c0.957,-0.957 2.255,-1.494 3.608,-1.494c50.984,0 467.945,0 518.929,0c1.353,0 2.651,0.537 3.608,1.494c0.957,0.957 1.494,2.255 1.494,3.608c0,1.584 0,3.33 0,4.914c0,1.353 0.538,2.651 1.495,3.607c0.957,0.957 2.254,1.495 3.608,1.495c37.478,0 269.797,0 307.275,0c1.353,0 2.651,-0.538 3.608,-1.495c0.957,-0.956 1.495,-2.254 1.495,-3.607c0,-47.456 0,-411.001 0,-458.457c0,-1.353 -0.538,-2.651 -1.495,-3.608c-0.957,-0.957 -2.255,-1.495 -3.608,-1.495" style="fill:none;stroke:#00f;stroke-width:0.28px;stroke-miterlimit:1.5;"/>
        </g>
        <g id="Screw-Holes-w-o-countersink" serif:id="Screw Holes w/o countersink">
            <g>
                <circle cx="32.126" cy="920.315" r="9.713" style="fill:none;stroke:#00f;stroke-width:0.28px;stroke-miterlimit:1.5;"/>
            </g>
            <g>
                <circle cx="291.024" cy="918.425" r="9.713" style="fill:none;stroke:#00f;stroke-width:0.28px;stroke-miterlimit:1.5;"/>
            </g>
            <g>
                <circle cx="888.189" cy="918.425" r="9.713" style="fill:none;stroke:#00f;stroke-width:0.28px;stroke-miterlimit:1.5;"/>
            </g>
            <g>
                <circle cx="1147.09" cy="920.315" r="9.713" style="fill:none;stroke:#00f;stroke-width:0.28px;stroke-miterlimit:1.5;"/>
            </g>
            <g>
                <circle cx="1147.09" cy="500.787" r="9.713" style="fill:none;stroke:#00f;stroke-width:0.28px;stroke-miterlimit:1.5;"/>
            </g>
            <g>
                <circle cx="661.417" cy="517.795" r="9.713" style="fill:none;stroke:#00f;stroke-width:0.28px;stroke-miterlimit:1.5;"/>
            </g>
            <g>
                <circle cx="517.795" cy="517.795" r="9.713" style="fill:none;stroke:#00f;stroke-width:0.28px;stroke-miterlimit:1.5;"/>
            </g>
            <g>
                <circle cx="32.126" cy="500.787" r="9.713" style="fill:none;stroke:#00f;stroke-width:0.28px;stroke-miterlimit:1.5;"/>
            </g>
        </g>
    </g>
    <g id="_4.5mm-Switch-Support-SMD-diodes" serif:id="4.5mm Switch Support SMD diodes">
        <g id="Laptreus-v1.2" serif:id="Laptreus v1.2">
            <g id="switch">
                <path d="M99.812,66.653l3.034,0.535l0.643,-3.647l51.254,9.037l-0.644,3.648l3.034,0.535l-2.166,12.283l-3.033,-0.535l-3.42,19.392l3.034,0.535l-2.166,12.283l-3.034,-0.535l-0.643,3.647l-51.253,-9.037l0.643,-3.648l-3.034,-0.534l2.166,-12.283l3.034,0.534l3.419,-19.392l-3.033,-0.535l2.165,-12.283Z" style="fill:none;stroke:#00f;stroke-width:0.28px;stroke-linejoin:miter;stroke-miterlimit:1.5;"/>
            </g>
            <g id="switch1" serif:id="switch">
                <path d="M170.717,79.156l3.034,0.535l0.643,-3.648l51.254,9.037l-0.644,3.648l3.034,0.535l-2.166,12.283l-3.033,-0.535l-3.42,19.392l3.034,0.535l-2.166,12.283l-3.034,-0.535l-0.643,3.648l-51.253,-9.037l0.643,-3.648l-3.034,-0.535l2.166,-12.283l3.034,0.535l3.419,-19.392l-3.033,-0.535l2.165,-12.283Z" style="fill:none;stroke:#00f;stroke-width:0.28px;stroke-linejoin:miter;stroke-miterlimit:1.5;"/>
            </g>
            <g id="switch2" serif:id="switch">
                <path d="M245.79,68.022l3.034,0.535l0.643,-3.648l51.253,9.038l-0.643,3.647l3.034,0.535l-2.166,12.283l-3.034,-0.535l-3.419,19.392l3.033,0.535l-2.165,12.283l-3.034,-0.535l-0.643,3.648l-51.254,-9.037l0.644,-3.648l-3.034,-0.535l2.166,-12.283l3.033,0.535l3.42,-19.392l-3.034,-0.535l2.166,-12.283Z" style="fill:none;stroke:#00f;stroke-width:0.28px;stroke-linejoin:miter;stroke-miterlimit:1.5;"/>
            </g>
            <g id="switch3" serif:id="switch">
                <path d="M320.863,56.889l3.033,0.535l0.643,-3.648l51.254,9.038l-0.643,3.647l3.033,0.535l-2.166,12.283l-3.033,-0.535l-3.42,19.393l3.034,0.534l-2.166,12.283l-3.033,-0.534l-0.644,3.647l-51.253,-9.037l0.643,-3.648l-3.033,-0.535l2.165,-12.283l3.034,0.535l3.419,-19.392l-3.033,-0.535l2.166,-12.283Z" style="fill:none;stroke:#00f;stroke-width:0.28px;stroke-linejoin:miter;stroke-miterlimit:1.5;"/>
            </g>
            <g id="switch4" serif:id="switch">
                <path d="M387.6,93.027l3.034,0.535l0.643,-3.648l51.253,9.038l-0.643,3.647l3.034,0.535l-2.166,12.283l-3.034,-0.535l-3.419,19.392l3.033,0.535l-2.165,12.283l-3.034,-0.535l-0.643,3.648l-51.254,-9.037l0.644,-3.648l-3.034,-0.535l2.166,-12.283l3.033,0.535l3.42,-19.392l-3.034,-0.535l2.166,-12.283Z" style="fill:none;stroke:#00f;stroke-width:0.28px;stroke-linejoin:miter;stroke-miterlimit:1.5;"/>
            </g>
            <g id="switch5" serif:id="switch">
                <path d="M458.505,105.529l3.034,0.535l0.643,-3.647l51.253,9.037l-0.643,3.648l3.034,0.535l-2.166,12.283l-3.034,-0.535l-3.419,19.392l3.033,0.535l-2.165,12.283l-3.034,-0.535l-0.643,3.648l-51.254,-9.038l0.644,-3.648l-3.034,-0.534l2.166,-12.283l3.033,0.535l3.42,-19.393l-3.034,-0.535l2.166,-12.283Z" style="fill:none;stroke:#00f;stroke-width:0.28px;stroke-linejoin:miter;stroke-miterlimit:1.5;"/>
            </g>
            <g id="switch6" serif:id="switch">
                <path d="M87.31,137.559l3.033,0.535l0.644,-3.648l51.253,9.037l-0.643,3.648l3.033,0.535l-2.165,12.283l-3.034,-0.535l-3.419,19.392l3.033,0.535l-2.166,12.283l-3.033,-0.535l-0.643,3.648l-51.254,-9.038l0.643,-3.647l-3.033,-0.535l2.166,-12.283l3.033,0.535l3.42,-19.392l-3.034,-0.535l2.166,-12.283Z" style="fill:none;stroke:#00f;stroke-width:0.28px;stroke-linejoin:miter;stroke-miterlimit:1.5;"/>
            </g>
            <g id="switch7" serif:id="switch">
                <path d="M158.215,150.061l3.033,0.535l0.644,-3.648l51.253,9.038l-0.643,3.647l3.033,0.535l-2.165,12.283l-3.034,-0.535l-3.419,19.393l3.033,0.534l-2.166,12.283l-3.033,-0.534l-0.643,3.647l-51.254,-9.037l0.643,-3.648l-3.033,-0.535l2.166,-12.283l3.033,0.535l3.42,-19.392l-3.034,-0.535l2.166,-12.283Z" style="fill:none;stroke:#00f;stroke-width:0.28px;stroke-linejoin:miter;stroke-miterlimit:1.5;"/>
            </g>
            <g id="switch8" serif:id="switch">
                <path d="M233.288,138.927l3.033,0.535l0.643,-3.647l51.254,9.037l-0.643,3.648l3.033,0.535l-2.166,12.282l-3.033,-0.534l-3.42,19.392l3.034,0.535l-2.166,12.283l-3.033,-0.535l-0.644,3.647l-51.253,-9.037l0.643,-3.648l-3.033,-0.535l2.165,-12.282l3.034,0.534l3.419,-19.392l-3.033,-0.535l2.166,-12.283Z" style="fill:none;stroke:#00f;stroke-width:0.28px;stroke-linejoin:miter;stroke-miterlimit:1.5;"/>
            </g>
            <g id="switch9" serif:id="switch">
                <path d="M308.36,127.794l3.034,0.535l0.643,-3.647l51.253,9.037l-0.643,3.648l3.034,0.535l-2.166,12.283l-3.034,-0.535l-3.419,19.392l3.033,0.535l-2.165,12.283l-3.034,-0.535l-0.643,3.647l-51.254,-9.037l0.644,-3.648l-3.034,-0.534l2.166,-12.283l3.033,0.534l3.42,-19.392l-3.034,-0.535l2.166,-12.283Z" style="fill:none;stroke:#00f;stroke-width:0.28px;stroke-linejoin:miter;stroke-miterlimit:1.5;"/>
            </g>
            <g id="switch10" serif:id="switch">
                <path d="M375.098,163.932l3.033,0.535l0.643,-3.647l51.254,9.037l-0.643,3.648l3.033,0.534l-2.166,12.283l-3.033,-0.534l-3.42,19.392l3.034,0.535l-2.166,12.283l-3.033,-0.535l-0.644,3.647l-51.253,-9.037l0.643,-3.648l-3.033,-0.535l2.165,-12.283l3.034,0.535l3.419,-19.392l-3.033,-0.535l2.166,-12.283Z" style="fill:none;stroke:#00f;stroke-width:0.28px;stroke-linejoin:miter;stroke-miterlimit:1.5;"/>
            </g>
            <g id="switch11" serif:id="switch">
                <path d="M446.003,176.435l3.033,0.535l0.643,-3.648l51.254,9.037l-0.643,3.648l3.033,0.535l-2.166,12.283l-3.033,-0.535l-3.42,19.392l3.034,0.535l-2.166,12.283l-3.033,-0.535l-0.644,3.648l-51.253,-9.038l0.643,-3.647l-3.033,-0.535l2.165,-12.283l3.034,0.535l3.419,-19.392l-3.033,-0.535l2.166,-12.283Z" style="fill:none;stroke:#00f;stroke-width:0.28px;stroke-linejoin:miter;stroke-miterlimit:1.5;"/>
            </g>
            <g id="switch12" serif:id="switch">
                <path d="M74.807,208.464l3.034,0.535l0.643,-3.648l51.253,9.038l-0.643,3.647l3.034,0.535l-2.166,12.283l-3.034,-0.535l-3.419,19.392l3.034,0.535l-2.166,12.283l-3.034,-0.535l-0.643,3.648l-51.253,-9.037l0.643,-3.648l-3.034,-0.535l2.166,-12.283l3.034,0.535l3.419,-19.392l-3.033,-0.535l2.165,-12.283Z" style="fill:none;stroke:#00f;stroke-width:0.28px;stroke-linejoin:miter;stroke-miterlimit:1.5;"/>
            </g>
            <g id="switch13" serif:id="switch">
                <path d="M145.712,220.966l3.034,0.535l0.643,-3.647l51.253,9.037l-0.643,3.648l3.034,0.535l-2.166,12.283l-3.034,-0.535l-3.419,19.392l3.034,0.535l-2.166,12.283l-3.034,-0.535l-0.643,3.647l-51.253,-9.037l0.643,-3.648l-3.034,-0.534l2.166,-12.283l3.034,0.534l3.419,-19.392l-3.033,-0.535l2.165,-12.283Z" style="fill:none;stroke:#00f;stroke-width:0.28px;stroke-linejoin:miter;stroke-miterlimit:1.5;"/>
            </g>
            <g id="switch14" serif:id="switch">
                <path d="M220.785,209.833l3.034,0.535l0.643,-3.648l51.253,9.037l-0.643,3.648l3.034,0.535l-2.166,12.283l-3.034,-0.535l-3.419,19.392l3.033,0.535l-2.165,12.283l-3.034,-0.535l-0.643,3.648l-51.254,-9.038l0.644,-3.647l-3.034,-0.535l2.166,-12.283l3.033,0.535l3.42,-19.392l-3.034,-0.535l2.166,-12.283Z" style="fill:none;stroke:#00f;stroke-width:0.28px;stroke-linejoin:miter;stroke-miterlimit:1.5;"/>
            </g>
            <g id="switch15" serif:id="switch">
                <path d="M295.858,198.7l3.033,0.535l0.643,-3.648l51.254,9.037l-0.643,3.648l3.033,0.535l-2.166,12.283l-3.033,-0.535l-3.42,19.392l3.034,0.535l-2.166,12.283l-3.033,-0.535l-0.644,3.648l-51.253,-9.038l0.643,-3.647l-3.033,-0.535l2.165,-12.283l3.034,0.535l3.419,-19.392l-3.033,-0.535l2.166,-12.283Z" style="fill:none;stroke:#00f;stroke-width:0.28px;stroke-linejoin:miter;stroke-miterlimit:1.5;"/>
            </g>
            <g id="switch16" serif:id="switch">
                <path d="M362.595,234.838l3.034,0.534l0.643,-3.647l51.253,9.037l-0.643,3.648l3.034,0.535l-2.166,12.283l-3.034,-0.535l-3.419,19.392l3.033,0.535l-2.165,12.283l-3.034,-0.535l-0.643,3.648l-51.254,-9.038l0.644,-3.647l-3.034,-0.535l2.166,-12.283l3.033,0.535l3.42,-19.393l-3.034,-0.534l2.166,-12.283Z" style="fill:none;stroke:#00f;stroke-width:0.28px;stroke-linejoin:miter;stroke-miterlimit:1.5;"/>
            </g>
            <g id="switch17" serif:id="switch">
                <path d="M433.5,247.34l3.034,0.535l0.643,-3.648l51.253,9.038l-0.643,3.647l3.034,0.535l-2.166,12.283l-3.034,-0.535l-3.419,19.392l3.033,0.535l-2.165,12.283l-3.034,-0.535l-0.643,3.648l-51.254,-9.037l0.644,-3.648l-3.034,-0.535l2.166,-12.283l3.033,0.535l3.42,-19.392l-3.034,-0.535l2.166,-12.283Z" style="fill:none;stroke:#00f;stroke-width:0.28px;stroke-linejoin:miter;stroke-miterlimit:1.5;"/>
            </g>
            <g id="switch18" serif:id="switch">
                <path d="M62.305,279.369l3.033,0.535l0.644,-3.647l51.253,9.037l-0.643,3.648l3.033,0.534l-2.166,12.283l-3.033,-0.535l-3.419,19.393l3.033,0.535l-2.166,12.283l-3.033,-0.535l-0.643,3.647l-51.254,-9.037l0.643,-3.648l-3.033,-0.535l2.166,-12.283l3.033,0.535l3.42,-19.392l-3.034,-0.535l2.166,-12.283Z" style="fill:none;stroke:#00f;stroke-width:0.28px;stroke-linejoin:miter;stroke-miterlimit:1.5;"/>
            </g>
            <g id="switch19" serif:id="switch">
                <path d="M133.186,291.862l3.033,0.535l0.644,-3.648l51.253,9.038l-0.643,3.647l3.033,0.535l-2.165,12.283l-3.034,-0.535l-3.419,19.393l3.033,0.534l-2.166,12.283l-3.033,-0.534l-0.643,3.647l-51.254,-9.037l0.643,-3.648l-3.033,-0.535l2.166,-12.283l3.033,0.535l3.42,-19.392l-3.034,-0.535l2.166,-12.283Z" style="fill:none;stroke:#00f;stroke-width:0.28px;stroke-linejoin:miter;stroke-miterlimit:1.5;"/>
            </g>
            <g id="switch20" serif:id="switch">
                <path d="M204.115,304.374l3.033,0.535l0.644,-3.648l51.253,9.038l-0.643,3.647l3.033,0.535l-2.166,12.283l-3.033,-0.535l-3.419,19.393l3.033,0.534l-2.166,12.283l-3.033,-0.534l-0.643,3.647l-51.254,-9.037l0.643,-3.648l-3.033,-0.535l2.166,-12.283l3.033,0.535l3.42,-19.392l-3.034,-0.535l2.166,-12.283Z" style="fill:none;stroke:#00f;stroke-width:0.28px;stroke-linejoin:miter;stroke-miterlimit:1.5;"/>
            </g>
            <g id="switch21" serif:id="switch">
                <path d="M274.996,316.867l3.033,0.535l0.644,-3.648l51.253,9.038l-0.643,3.647l3.033,0.535l-2.165,12.283l-3.034,-0.535l-3.419,19.393l3.033,0.534l-2.166,12.283l-3.033,-0.535l-0.643,3.648l-51.254,-9.037l0.643,-3.648l-3.033,-0.535l2.166,-12.283l3.033,0.535l3.42,-19.392l-3.034,-0.535l2.166,-12.283Z" style="fill:none;stroke:#00f;stroke-width:0.28px;stroke-linejoin:miter;stroke-miterlimit:1.5;"/>
            </g>
            <g id="switch22" serif:id="switch">
                <path d="M375.007,311.34l2.895,1.054l1.267,-3.481l48.905,17.8l-1.267,3.481l2.895,1.053l-4.266,11.721l-2.895,-1.054l-6.734,18.504l2.894,1.054l-4.266,11.72l-2.894,-1.054l-1.267,3.481l-48.906,-17.8l1.267,-3.481l-2.894,-1.053l4.266,-11.721l2.894,1.054l6.735,-18.504l-2.895,-1.053l4.266,-11.721Z" style="fill:none;stroke:#00f;stroke-width:0.28px;stroke-linejoin:miter;stroke-miterlimit:1.5;"/>
            </g>
            <g id="switch23" serif:id="switch">
                <path d="M468.764,359.294l1.875,2.444l2.939,-2.255l31.682,41.289l-2.939,2.255l1.876,2.444l-9.895,7.593l-1.876,-2.444l-15.622,11.987l1.875,2.444l-9.895,7.593l-1.875,-2.444l-2.938,2.255l-31.683,-41.29l2.939,-2.254l-1.876,-2.444l9.896,-7.593l1.875,2.444l15.622,-11.988l-1.875,-2.443l9.895,-7.593Z" style="fill:none;stroke:#00f;stroke-width:0.28px;stroke-linejoin:miter;stroke-miterlimit:1.5;"/>
            </g>
        </g>
        <g id="Laptreus-v1.21" serif:id="Laptreus v1.2">
            <g id="switch24" serif:id="switch">
                <path d="M1079.38,66.66l-3.034,0.535l-0.643,-3.648l-51.254,9.038l0.644,3.647l-3.034,0.535l2.166,12.283l3.033,-0.535l3.42,19.392l-3.034,0.535l2.166,12.283l3.034,-0.535l0.643,3.648l51.253,-9.037l-0.643,-3.648l3.034,-0.535l-2.166,-12.283l-3.034,0.535l-3.419,-19.392l3.033,-0.535l-2.165,-12.283Z" style="fill:none;stroke:#00f;stroke-width:0.28px;stroke-linejoin:miter;stroke-miterlimit:1.5;"/>
            </g>
            <g id="switch25" serif:id="switch">
                <path d="M1008.48,79.162l-3.034,0.535l-0.643,-3.647l-51.254,9.037l0.644,3.648l-3.034,0.535l2.166,12.283l3.033,-0.535l3.42,19.392l-3.034,0.535l2.166,12.283l3.034,-0.535l0.643,3.647l51.253,-9.037l-0.643,-3.648l3.034,-0.534l-2.166,-12.283l-3.034,0.534l-3.419,-19.392l3.033,-0.535l-2.165,-12.283Z" style="fill:none;stroke:#00f;stroke-width:0.28px;stroke-linejoin:miter;stroke-miterlimit:1.5;"/>
            </g>
            <g id="switch26" serif:id="switch">
                <path d="M933.407,68.029l-3.034,0.535l-0.643,-3.648l-51.253,9.037l0.643,3.648l-3.034,0.535l2.166,12.283l3.034,-0.535l3.419,19.392l-3.033,0.535l2.165,12.283l3.034,-0.535l0.643,3.648l51.254,-9.038l-0.644,-3.647l3.034,-0.535l-2.166,-12.283l-3.033,0.535l-3.42,-19.393l3.034,-0.534l-2.166,-12.283Z" style="fill:none;stroke:#00f;stroke-width:0.28px;stroke-linejoin:miter;stroke-miterlimit:1.5;"/>
            </g>
            <g id="switch27" serif:id="switch">
                <path d="M858.334,56.896l-3.033,0.535l-0.643,-3.648l-51.254,9.037l0.643,3.648l-3.033,0.535l2.166,12.283l3.033,-0.535l3.42,19.392l-3.034,0.535l2.166,12.283l3.033,-0.535l0.644,3.648l51.253,-9.038l-0.643,-3.647l3.033,-0.535l-2.165,-12.283l-3.034,0.535l-3.419,-19.392l3.033,-0.535l-2.166,-12.283Z" style="fill:none;stroke:#00f;stroke-width:0.28px;stroke-linejoin:miter;stroke-miterlimit:1.5;"/>
            </g>
            <g id="switch28" serif:id="switch">
                <path d="M791.597,93.034l-3.034,0.534l-0.643,-3.647l-51.253,9.037l0.643,3.648l-3.034,0.535l2.166,12.283l3.034,-0.535l3.419,19.392l-3.033,0.535l2.165,12.283l3.034,-0.535l0.643,3.648l51.254,-9.038l-0.644,-3.647l3.034,-0.535l-2.166,-12.283l-3.033,0.535l-3.42,-19.393l3.034,-0.534l-2.166,-12.283Z" style="fill:none;stroke:#00f;stroke-width:0.28px;stroke-linejoin:miter;stroke-miterlimit:1.5;"/>
            </g>
            <g id="switch29" serif:id="switch">
                <path d="M720.692,105.536l-3.034,0.535l-0.643,-3.648l-51.253,9.038l0.643,3.647l-3.034,0.535l2.166,12.283l3.034,-0.535l3.419,19.392l-3.033,0.535l2.165,12.283l3.034,-0.535l0.643,3.648l51.254,-9.037l-0.644,-3.648l3.034,-0.535l-2.166,-12.283l-3.033,0.535l-3.42,-19.392l3.034,-0.535l-2.166,-12.283Z" style="fill:none;stroke:#00f;stroke-width:0.28px;stroke-linejoin:miter;stroke-miterlimit:1.5;"/>
            </g>
            <g id="switch30" serif:id="switch">
                <path d="M1091.89,137.565l-3.033,0.535l-0.644,-3.648l-51.253,9.038l0.643,3.648l-3.033,0.534l2.165,12.283l3.034,-0.535l3.419,19.393l-3.033,0.535l2.166,12.282l3.033,-0.534l0.643,3.647l51.254,-9.037l-0.643,-3.648l3.033,-0.535l-2.166,-12.283l-3.033,0.535l-3.42,-19.392l3.034,-0.535l-2.166,-12.283Z" style="fill:none;stroke:#00f;stroke-width:0.28px;stroke-linejoin:miter;stroke-miterlimit:1.5;"/>
            </g>
            <g id="switch31" serif:id="switch">
                <path d="M1020.98,150.068l-3.033,0.535l-0.644,-3.648l-51.253,9.037l0.643,3.648l-3.033,0.535l2.165,12.283l3.034,-0.535l3.419,19.392l-3.033,0.535l2.166,12.283l3.033,-0.535l0.643,3.648l51.254,-9.038l-0.643,-3.647l3.033,-0.535l-2.166,-12.283l-3.033,0.535l-3.42,-19.392l3.034,-0.535l-2.166,-12.283Z" style="fill:none;stroke:#00f;stroke-width:0.28px;stroke-linejoin:miter;stroke-miterlimit:1.5;"/>
            </g>
            <g id="switch32" serif:id="switch">
                <path d="M945.909,138.934l-3.033,0.535l-0.643,-3.648l-51.254,9.038l0.643,3.647l-3.033,0.535l2.166,12.283l3.033,-0.535l3.42,19.392l-3.034,0.535l2.166,12.283l3.033,-0.535l0.644,3.648l51.253,-9.037l-0.643,-3.648l3.033,-0.535l-2.165,-12.283l-3.034,0.535l-3.419,-19.392l3.033,-0.535l-2.166,-12.283Z" style="fill:none;stroke:#00f;stroke-width:0.28px;stroke-linejoin:miter;stroke-miterlimit:1.5;"/>
            </g>
            <g id="switch33" serif:id="switch">
                <path d="M870.837,127.801l-3.034,0.535l-0.643,-3.648l-51.253,9.038l0.643,3.647l-3.034,0.535l2.166,12.283l3.034,-0.535l3.419,19.392l-3.033,0.535l2.165,12.283l3.034,-0.535l0.643,3.648l51.254,-9.037l-0.644,-3.648l3.034,-0.535l-2.166,-12.283l-3.033,0.535l-3.42,-19.392l3.034,-0.535l-2.166,-12.283Z" style="fill:none;stroke:#00f;stroke-width:0.28px;stroke-linejoin:miter;stroke-miterlimit:1.5;"/>
            </g>
            <g id="switch34" serif:id="switch">
                <path d="M804.099,163.939l-3.033,0.535l-0.643,-3.648l-51.254,9.037l0.643,3.648l-3.033,0.535l2.166,12.283l3.033,-0.535l3.42,19.392l-3.034,0.535l2.166,12.283l3.033,-0.535l0.644,3.648l51.253,-9.038l-0.643,-3.647l3.033,-0.535l-2.165,-12.283l-3.034,0.535l-3.419,-19.392l3.033,-0.535l-2.166,-12.283Z" style="fill:none;stroke:#00f;stroke-width:0.28px;stroke-linejoin:miter;stroke-miterlimit:1.5;"/>
            </g>
            <g id="switch35" serif:id="switch">
                <path d="M733.194,176.441l-3.033,0.535l-0.643,-3.647l-51.254,9.037l0.643,3.648l-3.033,0.534l2.166,12.283l3.033,-0.534l3.42,19.392l-3.034,0.535l2.166,12.283l3.033,-0.535l0.644,3.647l51.253,-9.037l-0.643,-3.648l3.033,-0.535l-2.165,-12.283l-3.034,0.535l-3.419,-19.392l3.033,-0.535l-2.166,-12.283Z" style="fill:none;stroke:#00f;stroke-width:0.28px;stroke-linejoin:miter;stroke-miterlimit:1.5;"/>
            </g>
            <g id="switch36" serif:id="switch">
                <path d="M1104.39,208.471l-3.034,0.534l-0.643,-3.647l-51.254,9.037l0.644,3.648l-3.034,0.535l2.166,12.283l3.033,-0.535l3.42,19.392l-3.034,0.535l2.166,12.283l3.034,-0.535l0.643,3.648l51.253,-9.038l-0.643,-3.647l3.034,-0.535l-2.166,-12.283l-3.034,0.535l-3.419,-19.393l3.033,-0.535l-2.165,-12.282Z" style="fill:none;stroke:#00f;stroke-width:0.28px;stroke-linejoin:miter;stroke-miterlimit:1.5;"/>
            </g>
            <g id="switch37" serif:id="switch">
                <path d="M1033.49,220.973l-3.034,0.535l-0.643,-3.648l-51.254,9.038l0.644,3.647l-3.034,0.535l2.166,12.283l3.033,-0.535l3.42,19.392l-3.034,0.535l2.166,12.283l3.034,-0.535l0.643,3.648l51.253,-9.037l-0.643,-3.648l3.034,-0.535l-2.166,-12.283l-3.034,0.535l-3.419,-19.392l3.033,-0.535l-2.165,-12.283Z" style="fill:none;stroke:#00f;stroke-width:0.28px;stroke-linejoin:miter;stroke-miterlimit:1.5;"/>
            </g>
            <g id="switch38" serif:id="switch">
                <path d="M958.412,209.839l-3.034,0.535l-0.643,-3.648l-51.253,9.038l0.643,3.647l-3.034,0.535l2.166,12.283l3.034,-0.535l3.419,19.393l-3.033,0.534l2.165,12.283l3.034,-0.534l0.643,3.647l51.254,-9.037l-0.644,-3.648l3.034,-0.535l-2.166,-12.283l-3.033,0.535l-3.42,-19.392l3.034,-0.535l-2.166,-12.283Z" style="fill:none;stroke:#00f;stroke-width:0.28px;stroke-linejoin:miter;stroke-miterlimit:1.5;"/>
            </g>
            <g id="switch39" serif:id="switch">
                <path d="M883.339,198.706l-3.033,0.535l-0.643,-3.648l-51.254,9.038l0.643,3.648l-3.033,0.534l2.166,12.283l3.033,-0.535l3.42,19.393l-3.034,0.535l2.166,12.283l3.033,-0.535l0.644,3.647l51.253,-9.037l-0.643,-3.648l3.033,-0.535l-2.165,-12.283l-3.034,0.535l-3.419,-19.392l3.033,-0.535l-2.166,-12.283Z" style="fill:none;stroke:#00f;stroke-width:0.28px;stroke-linejoin:miter;stroke-miterlimit:1.5;"/>
            </g>
            <g id="switch40" serif:id="switch">
                <path d="M816.602,234.844l-3.034,0.535l-0.643,-3.648l-51.253,9.038l0.643,3.647l-3.034,0.535l2.166,12.283l3.034,-0.535l3.419,19.393l-3.033,0.534l2.165,12.283l3.034,-0.535l0.643,3.648l51.254,-9.037l-0.644,-3.648l3.034,-0.535l-2.166,-12.283l-3.033,0.535l-3.42,-19.392l3.034,-0.535l-2.166,-12.283Z" style="fill:none;stroke:#00f;stroke-width:0.28px;stroke-linejoin:miter;stroke-miterlimit:1.5;"/>
            </g>
            <g id="switch41" serif:id="switch">
                <path d="M745.697,247.347l-3.034,0.534l-0.643,-3.647l-51.253,9.037l0.643,3.648l-3.034,0.535l2.166,12.283l3.034,-0.535l3.419,19.392l-3.033,0.535l2.165,12.283l3.034,-0.535l0.643,3.648l51.254,-9.038l-0.644,-3.647l3.034,-0.535l-2.166,-12.283l-3.033,0.535l-3.42,-19.393l3.034,-0.534l-2.166,-12.283Z" style="fill:none;stroke:#00f;stroke-width:0.28px;stroke-linejoin:miter;stroke-miterlimit:1.5;"/>
            </g>
            <g id="switch42" serif:id="switch">
                <path d="M1116.89,279.376l-3.033,0.535l-0.644,-3.648l-51.253,9.037l0.643,3.648l-3.033,0.535l2.165,12.283l3.034,-0.535l3.419,19.392l-3.033,0.535l2.166,12.283l3.033,-0.535l0.643,3.648l51.254,-9.038l-0.643,-3.647l3.033,-0.535l-2.166,-12.283l-3.033,0.535l-3.42,-19.392l3.034,-0.535l-2.166,-12.283Z" style="fill:none;stroke:#00f;stroke-width:0.28px;stroke-linejoin:miter;stroke-miterlimit:1.5;"/>
            </g>
            <g id="switch43" serif:id="switch">
                <path d="M1046.01,291.869l-3.033,0.535l-0.644,-3.648l-51.253,9.037l0.643,3.648l-3.033,0.535l2.165,12.283l3.034,-0.535l3.419,19.392l-3.033,0.535l2.166,12.283l3.033,-0.535l0.643,3.648l51.254,-9.038l-0.643,-3.647l3.033,-0.535l-2.166,-12.283l-3.033,0.535l-3.42,-19.392l3.034,-0.535l-2.166,-12.283Z" style="fill:none;stroke:#00f;stroke-width:0.28px;stroke-linejoin:miter;stroke-miterlimit:1.5;"/>
            </g>
            <g id="switch44" serif:id="switch">
                <path d="M975.082,304.381l-3.033,0.535l-0.644,-3.648l-51.253,9.037l0.643,3.648l-3.033,0.535l2.165,12.283l3.034,-0.535l3.419,19.392l-3.033,0.535l2.166,12.283l3.033,-0.535l0.643,3.648l51.254,-9.038l-0.643,-3.647l3.033,-0.535l-2.166,-12.283l-3.033,0.535l-3.42,-19.392l3.034,-0.535l-2.166,-12.283Z" style="fill:none;stroke:#00f;stroke-width:0.28px;stroke-linejoin:miter;stroke-miterlimit:1.5;"/>
            </g>
            <g id="switch45" serif:id="switch">
                <path d="M904.201,316.874l-3.033,0.535l-0.644,-3.648l-51.253,9.037l0.643,3.648l-3.033,0.535l2.165,12.283l3.034,-0.535l3.419,19.392l-3.033,0.535l2.166,12.283l3.033,-0.535l0.643,3.648l51.254,-9.038l-0.643,-3.647l3.033,-0.535l-2.166,-12.283l-3.033,0.535l-3.42,-19.392l3.034,-0.535l-2.166,-12.283Z" style="fill:none;stroke:#00f;stroke-width:0.28px;stroke-linejoin:miter;stroke-miterlimit:1.5;"/>
            </g>
            <g id="switch46" serif:id="switch">
                <path d="M804.19,311.347l-2.895,1.053l-1.267,-3.48l-48.905,17.8l1.267,3.48l-2.895,1.054l4.266,11.72l2.895,-1.053l6.734,18.504l-2.894,1.053l4.266,11.72l2.894,-1.053l1.267,3.48l48.906,-17.8l-1.267,-3.48l2.894,-1.054l-4.266,-11.72l-2.894,1.053l-6.735,-18.503l2.895,-1.054l-4.266,-11.72Z" style="fill:none;stroke:#00f;stroke-width:0.28px;stroke-linejoin:miter;stroke-miterlimit:1.5;"/>
            </g>
            <g id="switch47" serif:id="switch">
                <path d="M710.433,359.3l-1.875,2.444l-2.939,-2.255l-31.682,41.29l2.939,2.255l-1.876,2.443l9.895,7.593l1.876,-2.444l15.622,11.988l-1.875,2.443l9.895,7.593l1.875,-2.444l2.938,2.255l31.683,-41.289l-2.939,-2.255l1.875,-2.444l-9.895,-7.592l-1.875,2.443l-15.622,-11.987l1.875,-2.444l-9.895,-7.593Z" style="fill:none;stroke:#00f;stroke-width:0.28px;stroke-linejoin:miter;stroke-miterlimit:1.5;"/>
            </g>
        </g>
        <path id="Power-switch" serif:id="Power switch" d="M847.073,270.938l2.757,15.633l44.665,-7.875l-2.756,-15.633l-44.666,7.875Z" style="fill:none;stroke:#00f;stroke-width:0.28px;stroke-miterlimit:1;"/>
        <path id="Power-switch1" serif:id="Power switch" d="M329.383,286.438l2.756,-15.632l-44.665,-7.876l-2.757,15.633l44.666,7.875Z" style="fill:none;stroke:#00f;stroke-width:0.28px;stroke-miterlimit:1;"/>
        <rect id="Reset-button-cutout" serif:id="Reset button cutout" x="627.437" y="129.939" width="11.339" height="19.843" style="fill:none;stroke:#00f;stroke-width:0.28px;stroke-miterlimit:1;"/>
        <path id="Feather-and-inlay-cutout" serif:id="Feather and inlay cutout" d="M542.362,244.106l0,-15.896l24.536,0l0.031,-0.009l0,-66.853l-6.236,0.001l0,-12.095l3.08,0l0,-20.069l-3.08,0l0,-12.095l3.08,0l0,-3.704l51.666,0l0,3.704l3.081,0l0,12.095l-3.081,0l0,20.069l3.081,0l0,12.095l-6.234,-0.001l0,66.862l24.564,0l0,15.832c20.614,14.743 34.06,38.882 34.06,66.136c0,27.255 -13.446,51.393 -34.06,66.136l0,48.431l-94.488,0l0,-48.494c-20.565,-14.751 -33.971,-38.859 -33.971,-66.073c0,-27.214 13.406,-51.321 33.971,-66.072Z" style="fill:none;stroke:#00f;stroke-width:0.28px;stroke-miterlimit:1;"/>
        <g id="Daughterboard-screwholes" serif:id="Daughterboard screwholes">
            <circle cx="618.898" cy="38.74" r="3.969" style="fill:none;stroke:#00f;stroke-width:0.28px;stroke-miterlimit:1;"/>
            <circle cx="560.315" cy="38.74" r="3.969" style="fill:none;stroke:#00f;stroke-width:0.28px;stroke-miterlimit:1;"/>
        </g>
        <g id="Outside-shape3" serif:id="Outside shape">
            <path id="Outside-shape4" serif:id="Outside shape" d="M12.661,7.559c-1.353,0 -2.651,0.538 -3.607,1.495c-0.957,0.956 -1.495,2.254 -1.495,3.607c0,47.456 0,411.001 0,458.457c0,1.353 0.538,2.651 1.495,3.608c0.956,0.957 2.254,1.494 3.607,1.494c37.479,0 269.797,0 307.276,0c1.353,0 2.651,-0.537 3.608,-1.494c0.957,-0.957 1.494,-2.255 1.494,-3.608c0,-1.584 0,-3.329 0,-4.913c0,-1.354 0.538,-2.651 1.495,-3.608c0.957,-0.957 2.255,-1.495 3.608,-1.495c50.984,0 467.945,0 518.929,0c1.353,0 2.651,0.538 3.608,1.495c0.957,0.957 1.494,2.254 1.494,3.608c0,1.584 0,3.329 0,4.913c0,1.353 0.538,2.651 1.495,3.608c0.957,0.957 2.254,1.494 3.608,1.494c37.478,0 269.797,0 307.275,0c1.353,0 2.651,-0.537 3.608,-1.494c0.957,-0.957 1.495,-2.255 1.495,-3.608c0,-47.456 0,-411.001 0,-458.457c0,-1.353 -0.538,-2.651 -1.495,-3.607c-0.957,-0.957 -2.255,-1.495 -3.608,-1.495c-37.478,0 -269.797,0 -307.275,0c-1.354,0 -2.651,0.538 -3.608,1.495c-0.957,0.956 -1.495,2.254 -1.495,3.607c0,1.584 0,3.33 0,4.914c0,1.353 -0.537,2.651 -1.494,3.608c-0.957,0.957 -2.255,1.494 -3.608,1.494c-50.984,0 -467.945,0 -518.929,0c-1.353,0 -2.651,-0.537 -3.608,-1.494c-0.957,-0.957 -1.495,-2.255 -1.495,-3.608c0,-1.584 0,-3.33 0,-4.914c0,-1.353 -0.537,-2.651 -1.494,-3.607c-0.957,-0.957 -2.255,-1.495 -3.608,-1.495c-37.479,0 -269.797,0 -307.276,0Z" style="fill:none;stroke:#00f;stroke-width:0.28px;stroke-miterlimit:1.5;"/>
        </g>
        <g id="Screw-Holes-w-o-countersink1" serif:id="Screw Holes w/o countersink">
            <g>
                <circle cx="32.126" cy="451.654" r="9.713" style="fill:none;stroke:#00f;stroke-width:0.28px;stroke-miterlimit:1.5;"/>
            </g>
            <g>
                <circle cx="291.024" cy="449.764" r="9.713" style="fill:none;stroke:#00f;stroke-width:0.28px;stroke-miterlimit:1.5;"/>
            </g>
            <g>
                <circle cx="888.189" cy="449.764" r="9.713" style="fill:none;stroke:#00f;stroke-width:0.28px;stroke-miterlimit:1.5;"/>
            </g>
            <g>
                <circle cx="1147.09" cy="451.654" r="9.713" style="fill:none;stroke:#00f;stroke-width:0.28px;stroke-miterlimit:1.5;"/>
            </g>
            <g>
                <circle cx="1147.09" cy="32.126" r="9.713" style="fill:none;stroke:#00f;stroke-width:0.28px;stroke-miterlimit:1.5;"/>
            </g>
            <g>
                <circle cx="661.417" cy="49.134" r="9.713" style="fill:none;stroke:#00f;stroke-width:0.28px;stroke-miterlimit:1.5;"/>
            </g>
            <g>
                <circle cx="517.795" cy="49.134" r="9.713" style="fill:none;stroke:#00f;stroke-width:0.28px;stroke-miterlimit:1.5;"/>
            </g>
            <g>
                <circle cx="32.126" cy="32.126" r="9.713" style="fill:none;stroke:#00f;stroke-width:0.28px;stroke-miterlimit:1.5;"/>
            </g>
        </g>
    </g>
</svg>
