<?xml version="1.0" encoding="UTF-8" standalone="no"?>
<!DOCTYPE svg PUBLIC "-//W3C//DTD SVG 1.1//EN" "http://www.w3.org/Graphics/SVG/1.1/DTD/svg11.dtd">
<svg width="2268px" height="1117px" version="1.1" xmlns="http://www.w3.org/2000/svg" xmlns:xlink="http://www.w3.org/1999/xlink" xml:space="preserve" xmlns:serif="http://www.serif.com/" style="fill-rule:evenodd;clip-rule:evenodd;stroke-linecap:round;stroke-linejoin:round;stroke-miterlimit:1.5;">
    <g id="_3mm-PCB-Wrapper--also-covers-solder-joints-" serif:id="3mm PCB Wrapper (also covers solder joints)">
        <ellipse cx="661.89" cy="355.784" rx="4.535" ry="4.5" style="fill:none;stroke:#00f;stroke-width:0.28px;"/>
        <ellipse cx="603.78" cy="38.287" rx="4.535" ry="4.5" style="fill:none;stroke:#00f;stroke-width:0.28px;"/>
        <ellipse cx="868.819" cy="62.398" rx="4.535" ry="4.5" style="fill:none;stroke:#00f;stroke-width:0.28px;"/>
        <ellipse cx="32.598" cy="62.398" rx="4.535" ry="4.5" style="fill:none;stroke:#00f;stroke-width:0.28px;"/>
        <ellipse cx="32.598" cy="265.075" rx="4.535" ry="4.5" style="fill:none;stroke:#00f;stroke-width:0.28px;"/>
        <ellipse cx="868.819" cy="265.075" rx="4.535" ry="4.5" style="fill:none;stroke:#00f;stroke-width:0.28px;"/>
        <ellipse cx="239.528" cy="355.818" rx="4.535" ry="4.5" style="fill:none;stroke:#00f;stroke-width:0.28px;"/>
        <ellipse cx="297.638" cy="38.321" rx="4.535" ry="4.5" style="fill:none;stroke:#00f;stroke-width:0.28px;"/>
        <path id="Outside-shape" serif:id="Outside shape" d="M467.718,76.287l0,-15.476l12.414,0l0,-30.331l-16.667,0l0,-4.968l327.968,0c1.353,0 2.651,-0.538 3.608,-1.495c0.957,-0.957 1.494,-2.254 1.494,-3.608c0,-0.376 0,-0.757 0,-1.133c0,-2.818 2.285,-5.103 5.103,-5.103c15.14,0 65.364,0 80.504,0c2.818,0 5.102,2.285 5.102,5.103c0,40.097 0,304.028 0,344.126c0,2.818 -2.284,5.102 -5.102,5.102c-30.784,0 -197.122,0 -227.906,0c-2.818,0 -5.102,-2.284 -5.102,-5.102c0,-1.291 0,-2.678 0,-3.969c0,-1.353 -0.538,-2.651 -1.495,-3.608c-0.956,-0.957 -2.254,-1.494 -3.608,-1.494c-42.955,0 -343.69,0 -386.645,0c-1.353,0 -2.651,0.537 -3.608,1.494c-0.957,0.957 -1.495,2.255 -1.495,3.608c0,1.291 0,2.678 0,3.969c0,2.818 -2.284,5.102 -5.102,5.102c-30.784,0 -197.121,0 -227.905,0c-2.818,0 -5.103,-2.284 -5.103,-5.102c0,-40.098 0,-304.029 0,-344.126c0,-2.818 2.285,-5.103 5.103,-5.103c15.139,0 65.364,0 80.504,0c2.817,0 5.102,2.285 5.102,5.103c0,0.376 0,0.757 0,1.133c0,1.354 0.537,2.651 1.494,3.608c0.957,0.957 2.255,1.495 3.608,1.495l327.969,0l0,4.968l-16.88,0l0,30.331l12.628,0l0,15.476l-11.339,0l-153.921,-30.933l-242.929,0c-1.259,0 -2.28,1.021 -2.28,2.28l0,0.002l-0.555,231.48l323.141,55.372l208.501,0l324.421,-51.023c0,0 0,-209.451 0,-235.276c0,-1.566 -1.269,-2.835 -2.834,-2.835l-242.802,0l-154.049,30.933l-11.337,0Z" style="fill:none;stroke:#00f;stroke-width:0.28px;"/>
    </g>
    <g id="_3mm-PCB-Wrapper--also-covers-solder-joints-1" serif:id="3mm PCB Wrapper (also covers solder joints)">
        <ellipse cx="661.89" cy="710.115" rx="4.535" ry="4.5" style="fill:none;stroke:#00f;stroke-width:0.28px;"/>
        <ellipse cx="603.78" cy="392.617" rx="4.535" ry="4.5" style="fill:none;stroke:#00f;stroke-width:0.28px;"/>
        <ellipse cx="868.819" cy="416.729" rx="4.535" ry="4.5" style="fill:none;stroke:#00f;stroke-width:0.28px;"/>
        <ellipse cx="32.598" cy="416.729" rx="4.535" ry="4.5" style="fill:none;stroke:#00f;stroke-width:0.28px;"/>
        <ellipse cx="32.598" cy="619.406" rx="4.535" ry="4.5" style="fill:none;stroke:#00f;stroke-width:0.28px;"/>
        <ellipse cx="868.819" cy="619.406" rx="4.535" ry="4.5" style="fill:none;stroke:#00f;stroke-width:0.28px;"/>
        <ellipse cx="239.528" cy="710.149" rx="4.535" ry="4.5" style="fill:none;stroke:#00f;stroke-width:0.28px;"/>
        <ellipse cx="297.638" cy="392.651" rx="4.535" ry="4.5" style="fill:none;stroke:#00f;stroke-width:0.28px;"/>
        <path id="Outside-shape1" serif:id="Outside shape" d="M467.718,430.618l0,-15.476l12.414,0l0,-30.331l-16.667,0l0,-4.968l327.968,0c1.353,0 2.651,-0.538 3.608,-1.495c0.957,-0.957 1.494,-2.255 1.494,-3.608c0,-0.377 0,-0.757 0,-1.134c0,-2.818 2.285,-5.102 5.103,-5.102c15.14,0 65.364,0 80.504,0c2.818,0 5.102,2.284 5.102,5.102c0,40.098 0,304.029 0,344.126c0,2.818 -2.284,5.103 -5.102,5.103c-30.784,0 -197.122,0 -227.906,0c-2.818,0 -5.102,-2.285 -5.102,-5.103c0,-1.291 0,-2.677 0,-3.968c0,-1.353 -0.538,-2.651 -1.495,-3.608c-0.956,-0.957 -2.254,-1.495 -3.608,-1.495c-42.955,0 -343.69,0 -386.645,0c-1.353,0 -2.651,0.538 -3.608,1.495c-0.957,0.957 -1.495,2.255 -1.495,3.608c0,1.291 0,2.677 0,3.968c0,2.818 -2.284,5.103 -5.102,5.103c-30.784,0 -197.121,0 -227.905,0c-2.818,0 -5.103,-2.285 -5.103,-5.103c0,-40.097 0,-304.028 0,-344.126c0,-2.818 2.285,-5.102 5.103,-5.102c15.139,0 65.364,0 80.504,0c2.817,0 5.102,2.284 5.102,5.102c0,0.377 0,0.757 0,1.134c0,1.353 0.537,2.651 1.494,3.608c0.957,0.957 2.255,1.495 3.608,1.495l327.969,0l0,4.968l-16.88,0l0,30.331l12.628,0l0,15.476l-11.339,0l-153.921,-30.933l-242.929,0c-1.259,0 -2.28,1.021 -2.28,2.28l0,0.002l-0.555,231.48l323.141,55.372l208.501,0l324.421,-51.024c0,0 0,-209.45 0,-235.275c0,-1.566 -1.269,-2.835 -2.834,-2.835l-242.802,0l-154.049,30.933l-11.337,0Z" style="fill:none;stroke:#00f;stroke-width:0.28px;"/>
    </g>
    <g id="_3mm-PCB-Wrapper--also-covers-solder-joints-2" serif:id="3mm PCB Wrapper (also covers solder joints)">
        <ellipse cx="661.89" cy="1064.44" rx="4.535" ry="4.5" style="fill:none;stroke:#00f;stroke-width:0.28px;"/>
        <ellipse cx="603.78" cy="746.948" rx="4.535" ry="4.5" style="fill:none;stroke:#00f;stroke-width:0.28px;"/>
        <ellipse cx="868.819" cy="771.06" rx="4.535" ry="4.5" style="fill:none;stroke:#00f;stroke-width:0.28px;"/>
        <ellipse cx="32.598" cy="771.06" rx="4.535" ry="4.5" style="fill:none;stroke:#00f;stroke-width:0.28px;"/>
        <ellipse cx="32.598" cy="973.737" rx="4.535" ry="4.5" style="fill:none;stroke:#00f;stroke-width:0.28px;"/>
        <ellipse cx="868.819" cy="973.737" rx="4.535" ry="4.5" style="fill:none;stroke:#00f;stroke-width:0.28px;"/>
        <ellipse cx="239.528" cy="1064.48" rx="4.535" ry="4.5" style="fill:none;stroke:#00f;stroke-width:0.28px;"/>
        <ellipse cx="297.638" cy="746.982" rx="4.535" ry="4.5" style="fill:none;stroke:#00f;stroke-width:0.28px;"/>
        <path id="Outside-shape2" serif:id="Outside shape" d="M467.718,784.948l0,-15.475l12.414,0l0,-30.331l-16.667,0l0,-4.969l327.968,0c1.353,0 2.651,-0.537 3.608,-1.494c0.957,-0.957 1.494,-2.255 1.494,-3.608c0,-0.377 0,-0.757 0,-1.134c0,-2.818 2.285,-5.102 5.103,-5.102c15.14,0 65.364,0 80.504,0c2.818,0 5.102,2.284 5.102,5.102c0,40.097 0,304.029 0,344.126c0,2.818 -2.284,5.102 -5.102,5.102c-30.784,0 -197.122,0 -227.906,0c-2.818,0 -5.102,-2.284 -5.102,-5.102c0,-1.291 0,-2.678 0,-3.969c0,-1.353 -0.538,-2.651 -1.495,-3.607c-0.956,-0.957 -2.254,-1.495 -3.608,-1.495c-42.955,0 -343.69,0 -386.645,0c-1.353,0 -2.651,0.538 -3.608,1.495c-0.957,0.956 -1.495,2.254 -1.495,3.607c0,1.291 0,2.678 0,3.969c0,2.818 -2.284,5.102 -5.102,5.102c-30.784,0 -197.121,0 -227.905,0c-2.818,0 -5.103,-2.284 -5.103,-5.102c0,-40.097 0,-304.029 0,-344.126c0,-2.818 2.285,-5.102 5.103,-5.102c15.139,0 65.364,0 80.504,0c2.817,0 5.102,2.284 5.102,5.102c0,0.377 0,0.757 0,1.134c0,1.353 0.537,2.651 1.494,3.608c0.957,0.957 2.255,1.494 3.608,1.494l327.969,0l0,4.969l-16.88,0l0,30.331l12.628,0l0,15.475l-11.339,0l-153.921,-30.932l-242.929,0c-1.259,0 -2.28,1.021 -2.28,2.28l0,0.002l-0.555,231.479l323.141,55.372l208.501,0l324.421,-51.023c0,0 0,-209.451 0,-235.276c0,-1.565 -1.269,-2.834 -2.834,-2.834l-242.802,0l-154.049,30.932l-11.337,0Z" style="fill:none;stroke:#00f;stroke-width:0.28px;"/>
    </g>
    <g id="_3mm-PCB-Wrapper--also-covers-solder-joints-3" serif:id="3mm PCB Wrapper (also covers solder joints)">
        <ellipse cx="1534.96" cy="355.784" rx="4.535" ry="4.5" style="fill:none;stroke:#00f;stroke-width:0.28px;"/>
        <ellipse cx="1476.85" cy="38.287" rx="4.535" ry="4.5" style="fill:none;stroke:#00f;stroke-width:0.28px;"/>
        <ellipse cx="1741.89" cy="62.398" rx="4.535" ry="4.5" style="fill:none;stroke:#00f;stroke-width:0.28px;"/>
        <ellipse cx="905.669" cy="62.398" rx="4.535" ry="4.5" style="fill:none;stroke:#00f;stroke-width:0.28px;"/>
        <ellipse cx="905.669" cy="265.075" rx="4.535" ry="4.5" style="fill:none;stroke:#00f;stroke-width:0.28px;"/>
        <ellipse cx="1741.89" cy="265.075" rx="4.535" ry="4.5" style="fill:none;stroke:#00f;stroke-width:0.28px;"/>
        <ellipse cx="1112.6" cy="355.818" rx="4.535" ry="4.5" style="fill:none;stroke:#00f;stroke-width:0.28px;"/>
        <ellipse cx="1170.71" cy="38.321" rx="4.535" ry="4.5" style="fill:none;stroke:#00f;stroke-width:0.28px;"/>
        <path id="Outside-shape3" serif:id="Outside shape" d="M1340.79,76.287l0,-15.476l12.414,0l0,-30.331l-16.668,0l0,-4.968l327.969,0c1.353,0 2.651,-0.538 3.608,-1.495c0.957,-0.957 1.494,-2.254 1.494,-3.608c0,-0.376 0,-0.757 0,-1.133c0,-2.818 2.285,-5.103 5.103,-5.103c15.14,0 65.364,0 80.504,0c2.818,0 5.102,2.285 5.102,5.103c0,40.097 0,304.028 0,344.126c0,2.818 -2.284,5.102 -5.102,5.102c-30.784,0 -197.122,0 -227.906,0c-2.818,0 -5.102,-2.284 -5.102,-5.102c0,-1.291 0,-2.678 0,-3.969c0,-1.353 -0.538,-2.651 -1.495,-3.608c-0.957,-0.957 -2.254,-1.494 -3.608,-1.494c-42.955,0 -343.69,0 -386.645,0c-1.354,0 -2.651,0.537 -3.608,1.494c-0.957,0.957 -1.495,2.255 -1.495,3.608c0,1.291 0,2.678 0,3.969c0,2.818 -2.284,5.102 -5.102,5.102c-30.784,0 -197.121,0 -227.906,0c-2.818,0 -5.102,-2.284 -5.102,-5.102c0,-40.098 0,-304.029 0,-344.126c0,-2.818 2.285,-5.103 5.102,-5.103c15.14,0 65.365,0 80.504,0c2.818,0 5.103,2.285 5.103,5.103c0,0.376 0,0.757 0,1.133c0,1.354 0.537,2.651 1.494,3.608c0.957,0.957 2.255,1.495 3.608,1.495l327.969,0l0,4.968l-16.88,0l0,30.331l12.628,0l0,15.476l-11.339,0l-153.921,-30.933l-242.929,0c-1.26,0 -2.28,1.021 -2.28,2.28l0,0.002l-0.555,231.48l323.141,55.372l208.501,0l324.421,-51.023c0,0 0,-209.451 0,-235.276c0,-1.566 -1.269,-2.835 -2.835,-2.835l-242.801,0l-154.049,30.933l-11.337,0Z" style="fill:none;stroke:#00f;stroke-width:0.28px;"/>
    </g>
    <g id="_3mm-PCB-Wrapper--also-covers-solder-joints-4" serif:id="3mm PCB Wrapper (also covers solder joints)">
        <ellipse cx="1534.96" cy="710.115" rx="4.535" ry="4.5" style="fill:none;stroke:#00f;stroke-width:0.28px;"/>
        <ellipse cx="1476.85" cy="392.617" rx="4.535" ry="4.5" style="fill:none;stroke:#00f;stroke-width:0.28px;"/>
        <ellipse cx="1741.89" cy="416.729" rx="4.535" ry="4.5" style="fill:none;stroke:#00f;stroke-width:0.28px;"/>
        <ellipse cx="905.669" cy="416.729" rx="4.535" ry="4.5" style="fill:none;stroke:#00f;stroke-width:0.28px;"/>
        <ellipse cx="905.669" cy="619.406" rx="4.535" ry="4.5" style="fill:none;stroke:#00f;stroke-width:0.28px;"/>
        <ellipse cx="1741.89" cy="619.406" rx="4.535" ry="4.5" style="fill:none;stroke:#00f;stroke-width:0.28px;"/>
        <ellipse cx="1112.6" cy="710.149" rx="4.535" ry="4.5" style="fill:none;stroke:#00f;stroke-width:0.28px;"/>
        <ellipse cx="1170.71" cy="392.651" rx="4.535" ry="4.5" style="fill:none;stroke:#00f;stroke-width:0.28px;"/>
        <path id="Outside-shape4" serif:id="Outside shape" d="M1340.79,430.618l0,-15.476l12.414,0l0,-30.331l-16.668,0l0,-4.968l327.969,0c1.353,0 2.651,-0.538 3.608,-1.495c0.957,-0.957 1.494,-2.255 1.494,-3.608c0,-0.377 0,-0.757 0,-1.134c0,-2.818 2.285,-5.102 5.103,-5.102c15.14,0 65.364,0 80.504,0c2.818,0 5.102,2.284 5.102,5.102c0,40.098 0,304.029 0,344.126c0,2.818 -2.284,5.103 -5.102,5.103c-30.784,0 -197.122,0 -227.906,0c-2.818,0 -5.102,-2.285 -5.102,-5.103c0,-1.291 0,-2.677 0,-3.968c0,-1.353 -0.538,-2.651 -1.495,-3.608c-0.957,-0.957 -2.254,-1.495 -3.608,-1.495c-42.955,0 -343.69,0 -386.645,0c-1.354,0 -2.651,0.538 -3.608,1.495c-0.957,0.957 -1.495,2.255 -1.495,3.608c0,1.291 0,2.677 0,3.968c0,2.818 -2.284,5.103 -5.102,5.103c-30.784,0 -197.121,0 -227.906,0c-2.818,0 -5.102,-2.285 -5.102,-5.103c0,-40.097 0,-304.028 0,-344.126c0,-2.818 2.285,-5.102 5.102,-5.102c15.14,0 65.365,0 80.504,0c2.818,0 5.103,2.284 5.103,5.102c0,0.377 0,0.757 0,1.134c0,1.353 0.537,2.651 1.494,3.608c0.957,0.957 2.255,1.495 3.608,1.495l327.969,0l0,4.968l-16.88,0l0,30.331l12.628,0l0,15.476l-11.339,0l-153.921,-30.933l-242.929,0c-1.26,0 -2.28,1.021 -2.28,2.28l0,0.002l-0.555,231.48l323.141,55.372l208.501,0l324.421,-51.024c0,0 0,-209.45 0,-235.275c0,-1.566 -1.269,-2.835 -2.835,-2.835l-242.801,0l-154.049,30.933l-11.337,0Z" style="fill:none;stroke:#00f;stroke-width:0.28px;"/>
    </g>
    <g id="_3mm-PCB-Wrapper--also-covers-solder-joints-5" serif:id="3mm PCB Wrapper (also covers solder joints)">
        <ellipse cx="1534.96" cy="1064.44" rx="4.535" ry="4.5" style="fill:none;stroke:#00f;stroke-width:0.28px;"/>
        <ellipse cx="1476.85" cy="746.948" rx="4.535" ry="4.5" style="fill:none;stroke:#00f;stroke-width:0.28px;"/>
        <ellipse cx="1741.89" cy="771.06" rx="4.535" ry="4.5" style="fill:none;stroke:#00f;stroke-width:0.28px;"/>
        <ellipse cx="905.669" cy="771.06" rx="4.535" ry="4.5" style="fill:none;stroke:#00f;stroke-width:0.28px;"/>
        <ellipse cx="905.669" cy="973.737" rx="4.535" ry="4.5" style="fill:none;stroke:#00f;stroke-width:0.28px;"/>
        <ellipse cx="1741.89" cy="973.737" rx="4.535" ry="4.5" style="fill:none;stroke:#00f;stroke-width:0.28px;"/>
        <ellipse cx="1112.6" cy="1064.48" rx="4.535" ry="4.5" style="fill:none;stroke:#00f;stroke-width:0.28px;"/>
        <ellipse cx="1170.71" cy="746.982" rx="4.535" ry="4.5" style="fill:none;stroke:#00f;stroke-width:0.28px;"/>
        <path id="Outside-shape5" serif:id="Outside shape" d="M1340.79,784.948l0,-15.475l12.414,0l0,-30.331l-16.668,0l0,-4.969l327.969,0c1.353,0 2.651,-0.537 3.608,-1.494c0.957,-0.957 1.494,-2.255 1.494,-3.608c0,-0.377 0,-0.757 0,-1.134c0,-2.818 2.285,-5.102 5.103,-5.102c15.14,0 65.364,0 80.504,0c2.818,0 5.102,2.284 5.102,5.102c0,40.097 0,304.029 0,344.126c0,2.818 -2.284,5.102 -5.102,5.102c-30.784,0 -197.122,0 -227.906,0c-2.818,0 -5.102,-2.284 -5.102,-5.102c0,-1.291 0,-2.678 0,-3.969c0,-1.353 -0.538,-2.651 -1.495,-3.607c-0.957,-0.957 -2.254,-1.495 -3.608,-1.495c-42.955,0 -343.69,0 -386.645,0c-1.354,0 -2.651,0.538 -3.608,1.495c-0.957,0.956 -1.495,2.254 -1.495,3.607c0,1.291 0,2.678 0,3.969c0,2.818 -2.284,5.102 -5.102,5.102c-30.784,0 -197.121,0 -227.906,0c-2.818,0 -5.102,-2.284 -5.102,-5.102c0,-40.097 0,-304.029 0,-344.126c0,-2.818 2.285,-5.102 5.102,-5.102c15.14,0 65.365,0 80.504,0c2.818,0 5.103,2.284 5.103,5.102c0,0.377 0,0.757 0,1.134c0,1.353 0.537,2.651 1.494,3.608c0.957,0.957 2.255,1.494 3.608,1.494l327.969,0l0,4.969l-16.88,0l0,30.331l12.628,0l0,15.475l-11.339,0l-153.921,-30.932l-242.929,0c-1.26,0 -2.28,1.021 -2.28,2.28l0,0.002l-0.555,231.479l323.141,55.372l208.501,0l324.421,-51.023c0,0 0,-209.451 0,-235.276c0,-1.565 -1.269,-2.834 -2.835,-2.834l-242.801,0l-154.049,30.932l-11.337,0Z" style="fill:none;stroke:#00f;stroke-width:0.28px;"/>
    </g>
    <g id="_3mm-PCB-Wrapper--also-covers-solder-joints-6" serif:id="3mm PCB Wrapper (also covers solder joints)">
        <path d="M2097.43,334.488c0,2.503 2.016,4.536 4.5,4.536c2.483,0 4.499,-2.033 4.499,-4.536c0,-2.503 -2.016,-4.535 -4.499,-4.535c-2.484,0 -4.5,2.032 -4.5,4.535Z" style="fill:none;stroke:#00f;stroke-width:0.28px;"/>
        <path d="M1779.93,392.598c0,2.504 2.016,4.536 4.499,4.536c2.484,0 4.5,-2.032 4.5,-4.536c0,-2.503 -2.016,-4.535 -4.5,-4.535c-2.483,0 -4.499,2.032 -4.499,4.535Z" style="fill:none;stroke:#00f;stroke-width:0.28px;"/>
        <path d="M1804.04,127.559c0,-2.503 2.016,-4.535 4.5,-4.535c2.483,0 4.499,2.032 4.499,4.535c0,2.503 -2.016,4.535 -4.499,4.535c-2.484,0 -4.5,-2.032 -4.5,-4.535Z" style="fill:none;stroke:#00f;stroke-width:0.28px;"/>
        <path d="M1804.04,963.78c0,-2.504 2.016,-4.536 4.5,-4.536c2.483,0 4.499,2.032 4.499,4.536c0,2.503 -2.016,4.535 -4.499,4.535c-2.484,0 -4.5,-2.032 -4.5,-4.535Z" style="fill:none;stroke:#00f;stroke-width:0.28px;"/>
        <path d="M2006.72,963.78c0,-2.504 2.017,-4.536 4.5,-4.536c2.483,0 4.5,2.032 4.5,4.536c0,2.503 -2.017,4.535 -4.5,4.535c-2.483,0 -4.5,-2.032 -4.5,-4.535Z" style="fill:none;stroke:#00f;stroke-width:0.28px;"/>
        <path d="M2006.72,127.559c0,-2.503 2.017,-4.535 4.5,-4.535c2.483,0 4.5,2.032 4.5,4.535c0,2.503 -2.017,4.535 -4.5,4.535c-2.483,0 -4.5,-2.032 -4.5,-4.535Z" style="fill:none;stroke:#00f;stroke-width:0.28px;"/>
        <path d="M2097.46,756.85c0,2.504 2.016,4.536 4.5,4.536c2.483,0 4.499,-2.032 4.499,-4.536c0,-2.503 -2.016,-4.535 -4.499,-4.535c-2.484,0 -4.5,2.032 -4.5,4.535Z" style="fill:none;stroke:#00f;stroke-width:0.28px;"/>
        <path d="M1779.96,698.74c0,2.503 2.016,4.536 4.499,4.536c2.484,0 4.5,-2.033 4.5,-4.536c0,-2.503 -2.016,-4.535 -4.5,-4.535c-2.483,0 -4.499,2.032 -4.499,4.535Z" style="fill:none;stroke:#00f;stroke-width:0.28px;"/>
        <path id="Outside-shape6" serif:id="Outside shape" d="M1822.43,528.66l-15.476,0l0,-12.414l-30.331,0l0,16.667l-4.968,0l0,-327.968c0,-1.353 -0.538,-2.651 -1.495,-3.608c-0.957,-0.957 -2.255,-1.494 -3.608,-1.494c-0.377,0 -0.757,0 -1.134,0c-2.818,0 -5.102,-2.285 -5.102,-5.103c0,-15.14 0,-65.364 0,-80.504c0,-2.818 2.284,-5.102 5.102,-5.102c40.098,0 304.029,0 344.126,0c2.818,0 5.103,2.284 5.103,5.102c0,30.784 0,197.122 0,227.906c0,2.818 -2.285,5.102 -5.103,5.102c-1.291,0 -2.677,0 -3.968,0c-1.353,0 -2.651,0.538 -3.608,1.495c-0.957,0.956 -1.495,2.254 -1.495,3.607c0,42.956 0,343.69 0,386.646c0,1.353 0.538,2.651 1.495,3.608c0.957,0.957 2.255,1.494 3.608,1.494c1.291,0 2.677,0 3.968,0c2.818,0 5.103,2.285 5.103,5.103c0,30.784 0,197.121 0,227.905c0,2.818 -2.285,5.103 -5.103,5.103c-40.097,0 -304.028,0 -344.126,0c-2.818,0 -5.102,-2.285 -5.102,-5.103c0,-15.14 0,-65.364 0,-80.504c0,-2.818 2.284,-5.102 5.102,-5.102c0.377,0 0.757,0 1.134,0c1.353,0 2.651,-0.538 3.608,-1.494c0.957,-0.957 1.495,-2.255 1.495,-3.608l0,-327.969l4.968,0l0,16.88l30.331,0l0,-12.628l15.476,0l0,11.339l-30.933,153.921l0,242.929c0,1.259 1.021,2.28 2.28,2.28l0.002,0l231.48,0.555l55.372,-323.141l0,-208.501l-51.024,-324.421c0,0 -209.45,0 -235.275,0c-1.566,0 -2.835,1.269 -2.835,2.834l0,242.802l30.933,154.049l0,11.337Z" style="fill:none;stroke:#00f;stroke-width:0.28px;"/>
        <g id="Inlays">
            <g id="Impossible-triangle" serif:id="Impossible triangle">
                <circle cx="1543.43" cy="610.865" r="4.535" style="fill:none;stroke:#00f;stroke-width:0.28px;"/>
                <circle cx="1413.04" cy="610.865" r="4.535" style="fill:none;stroke:#00f;stroke-width:0.28px;"/>
                <circle cx="1413.04" cy="480.472" r="4.535" style="fill:none;stroke:#00f;stroke-width:0.28px;"/>
                <circle cx="1543.43" cy="480.472" r="4.535" style="fill:none;stroke:#00f;stroke-width:0.28px;"/>
                <path d="M1433.62,581.211l-0.058,0.034l-8.86,-15.126c-0.279,-0.807 -0.138,-1.039 0.094,-1.51l43.173,-74.87c0.549,-0.816 0.684,-0.951 1.541,-0.852l17.538,0c0.074,0.005 0.148,0.01 0.222,0.015c0.832,0.165 0.961,0.402 1.251,0.836l43.226,74.87c0.273,0.553 0.227,1.175 -0.053,1.667l0.055,0.032l-8.888,15.41c-0.333,0.381 -0.536,0.615 -1.356,0.667l-86.482,-0.299c-0.609,-0.048 -1.118,-0.394 -1.403,-0.874Zm42.671,-51.009l-5.086,-8.81l-33.23,57.301l82.554,0.286l6.805,-11.822l-69.409,-0.044c-1.221,-0.08 -2.047,-1.384 -1.471,-2.551l19.837,-34.36Zm16.21,21.273l10.173,0l-33.23,-57.485l-41.207,71.461l6.783,11.558l34.717,-59.866c0.354,-0.518 0.585,-0.915 1.726,-0.828c0.919,0.21 0.941,0.424 1.218,0.831l19.82,34.329Zm-20.111,-59.186l34.704,60.035c0.538,1.102 -0.179,2.461 -1.473,2.552l-39.647,0l-5.103,8.838l66.457,0.041l-41.262,-71.466l-13.676,0Zm-4.453,59.186l20.636,0l-10.318,-17.871l-10.318,17.871Z" style="fill:none;stroke:#00f;stroke-width:0.28px;stroke-linecap:butt;stroke-miterlimit:1.41421;"/>
                <path d="M1129.07,575.909l-0.048,0.029l-7.418,-12.663c-0.233,-0.676 -0.115,-0.87 0.079,-1.264l36.143,-62.679c0.459,-0.683 0.572,-0.796 1.29,-0.713l14.682,0c0.062,0.004 0.124,0.008 0.186,0.013c0.696,0.138 0.804,0.336 1.047,0.699l36.187,62.679c0.229,0.463 0.19,0.983 -0.044,1.395l0.046,0.027l-7.441,12.901c-0.279,0.319 -0.448,0.515 -1.135,0.558l-72.399,-0.25c-0.51,-0.04 -0.936,-0.33 -1.175,-0.732Zm35.723,-42.703l-4.258,-7.375l-27.819,47.97l69.111,0.24l5.697,-9.897l-58.107,-0.037c-1.022,-0.067 -1.713,-1.159 -1.231,-2.136l16.607,-28.765Zm13.57,17.809l8.516,0l-27.818,-48.124l-34.497,59.824l5.678,9.676l29.064,-50.117c0.296,-0.434 0.49,-0.766 1.445,-0.693c0.769,0.175 0.788,0.355 1.019,0.695l16.593,28.739Zm-16.836,-49.548l29.053,50.259c0.45,0.923 -0.15,2.06 -1.233,2.136l-33.191,0l-4.272,7.399l55.635,0.035l-34.543,-59.829l-11.449,0Zm-3.728,49.548l17.276,0l-8.638,-14.961l-8.638,14.961Z" style="fill:none;stroke:#00f;stroke-width:0.28px;stroke-linecap:butt;stroke-miterlimit:1.41421;"/>
                <rect x="1400.28" y="467.716" width="155.906" height="155.906" style="fill:none;stroke:#00f;stroke-width:0.28px;"/>
                <g id="Inlay-outline" serif:id="Inlay outline">
                    <path d="M1483.93,481.863c32.734,2.929 58.368,30.401 58.368,63.813c0,35.357 -28.706,64.063 -64.063,64.063c-35.357,0 -64.063,-28.706 -64.063,-64.063c0,-33.438 25.674,-60.928 58.369,-63.813l0,-3.524l11.389,0l0,3.524Z" style="fill:none;stroke:#00f;stroke-width:0.28px;"/>
                </g>
            </g>
            <g id="Impossible-triangle1" serif:id="Impossible triangle">
                <path d="M1277.71,581.21l-0.058,0.034l-8.86,-15.126c-0.279,-0.807 -0.138,-1.039 0.094,-1.51l43.173,-74.87c0.549,-0.816 0.684,-0.951 1.541,-0.852l17.538,0c0.074,0.005 0.148,0.01 0.222,0.015c0.832,0.165 0.961,0.402 1.251,0.836l43.226,74.87c0.273,0.553 0.227,1.175 -0.053,1.667l0.055,0.032l-8.888,15.41c-0.333,0.381 -0.536,0.615 -1.356,0.667l-86.482,-0.299c-0.609,-0.048 -1.118,-0.394 -1.403,-0.874Zm42.671,-51.009l-5.086,-8.81l-33.23,57.301l82.554,0.286l6.805,-11.822l-69.409,-0.044c-1.221,-0.08 -2.047,-1.384 -1.471,-2.551l19.837,-34.36Zm16.21,21.273l10.173,0l-33.23,-57.485l-41.207,71.461l6.783,11.558l34.717,-59.866c0.354,-0.518 0.585,-0.915 1.726,-0.828c0.919,0.21 0.941,0.424 1.218,0.831l19.82,34.329Zm-20.111,-59.186l34.704,60.035c0.538,1.102 -0.179,2.461 -1.473,2.552l-39.647,0l-5.103,8.838l66.457,0.041l-41.262,-71.466l-13.676,0Zm-4.453,59.186l20.636,0l-10.318,-17.871l-10.318,17.871Z" style="fill:none;fill-rule:nonzero;stroke:#00f;stroke-width:0.28px;stroke-linecap:butt;stroke-miterlimit:1.41421;"/>
                <g id="Inlay-outline1" serif:id="Inlay outline">
                    <path d="M1328.03,481.863c32.734,2.929 58.368,30.401 58.368,63.813c0,35.357 -28.706,64.063 -64.063,64.063c-35.357,0 -64.063,-28.706 -64.063,-64.063c0,-33.438 25.674,-60.928 58.369,-63.813l0,-3.524l11.389,0l0,3.524Z" style="fill:none;stroke:#00f;stroke-width:0.28px;"/>
                </g>
                <circle cx="1387.53" cy="610.865" r="4.535" style="fill:none;stroke:#00f;stroke-width:0.28px;"/>
                <circle cx="1257.13" cy="610.865" r="4.535" style="fill:none;stroke:#00f;stroke-width:0.28px;"/>
                <circle cx="1257.13" cy="480.472" r="4.535" style="fill:none;stroke:#00f;stroke-width:0.28px;"/>
                <circle cx="1387.53" cy="480.472" r="4.535" style="fill:none;stroke:#00f;stroke-width:0.28px;"/>
                <rect x="1244.38" y="467.716" width="155.906" height="155.906" style="fill:none;stroke:#00f;stroke-width:0.28px;"/>
            </g>
            <g id="Impossible-triangle2" serif:id="Impossible triangle">
                <g id="Inlay-outline2" serif:id="Inlay outline">
                    <path d="M1172.12,481.863c32.734,2.929 58.368,30.401 58.368,63.813c0,35.357 -28.706,64.063 -64.063,64.063c-35.357,0 -64.063,-28.706 -64.063,-64.063c0,-33.438 25.674,-60.928 58.369,-63.813l0,-3.524l11.389,0l0,3.524Z" style="fill:none;stroke:#00f;stroke-width:0.28px;"/>
                </g>
                <g id="Inlay-outline3" serif:id="Inlay outline">
                    <path d="M1171.5,488.666c29.153,2.608 51.982,27.074 51.982,56.831c0,31.489 -25.565,57.054 -57.054,57.054c-31.489,0 -57.054,-25.565 -57.054,-57.054c0,-29.78 22.865,-54.262 51.983,-56.831l0,-3.139l10.143,0l0,3.139Z" style="fill:none;stroke:#00f;stroke-width:0.28px;"/>
                </g>
                <circle cx="1231.62" cy="610.865" r="4.535" style="fill:none;stroke:#00f;stroke-width:0.28px;"/>
                <circle cx="1101.23" cy="610.865" r="4.535" style="fill:none;stroke:#00f;stroke-width:0.28px;"/>
                <circle cx="1101.23" cy="480.472" r="4.535" style="fill:none;stroke:#00f;stroke-width:0.28px;"/>
                <circle cx="1231.62" cy="480.472" r="4.535" style="fill:none;stroke:#00f;stroke-width:0.28px;"/>
                <rect x="1088.47" y="467.716" width="155.906" height="155.906" style="fill:none;stroke:#00f;stroke-width:0.28px;"/>
            </g>
        </g>
        <g id="Inlays1" serif:id="Inlays">
            <g id="Impossible-triangle3" serif:id="Impossible triangle">
                <circle cx="672.4" cy="610.865" r="4.535" style="fill:none;stroke:#00f;stroke-width:0.28px;"/>
                <circle cx="542.005" cy="610.865" r="4.535" style="fill:none;stroke:#00f;stroke-width:0.28px;"/>
                <circle cx="542.005" cy="480.472" r="4.535" style="fill:none;stroke:#00f;stroke-width:0.28px;"/>
                <circle cx="672.4" cy="480.472" r="4.535" style="fill:none;stroke:#00f;stroke-width:0.28px;"/>
                <path d="M562.583,581.211l-0.058,0.034l-8.86,-15.126c-0.279,-0.807 -0.138,-1.039 0.094,-1.51l43.173,-74.87c0.549,-0.816 0.684,-0.951 1.541,-0.852l17.538,0c0.074,0.005 0.148,0.01 0.222,0.015c0.832,0.165 0.961,0.402 1.251,0.836l43.226,74.87c0.273,0.553 0.227,1.175 -0.053,1.667l0.055,0.032l-8.888,15.41c-0.333,0.381 -0.536,0.615 -1.356,0.667l-86.482,-0.299c-0.609,-0.048 -1.118,-0.394 -1.403,-0.874Zm42.671,-51.009l-5.086,-8.81l-33.23,57.301l82.554,0.286l6.805,-11.822l-69.409,-0.044c-1.221,-0.08 -2.047,-1.384 -1.471,-2.551l19.837,-34.36Zm16.21,21.273l10.173,0l-33.23,-57.485l-41.207,71.461l6.783,11.558l34.717,-59.866c0.354,-0.518 0.585,-0.915 1.726,-0.828c0.919,0.21 0.941,0.424 1.218,0.831l19.82,34.329Zm-20.111,-59.186l34.704,60.035c0.538,1.102 -0.179,2.461 -1.473,2.552l-39.647,0l-5.103,8.838l66.457,0.041l-41.262,-71.466l-13.676,0Zm-4.453,59.186l20.636,0l-10.318,-17.871l-10.318,17.871Z" style="fill:none;stroke:#00f;stroke-width:0.28px;stroke-linecap:butt;stroke-miterlimit:1.41421;"/>
                <path d="M258.038,575.909l-0.048,0.029l-7.418,-12.663c-0.233,-0.676 -0.115,-0.87 0.079,-1.264l36.143,-62.679c0.46,-0.683 0.573,-0.796 1.29,-0.713l14.682,0c0.062,0.004 0.124,0.008 0.186,0.013c0.697,0.138 0.805,0.336 1.047,0.699l36.187,62.679c0.229,0.463 0.19,0.983 -0.044,1.395l0.046,0.027l-7.441,12.901c-0.278,0.319 -0.448,0.515 -1.135,0.558l-72.399,-0.25c-0.51,-0.04 -0.936,-0.33 -1.175,-0.732Zm35.723,-42.703l-4.258,-7.375l-27.819,47.97l69.111,0.24l5.697,-9.897l-58.106,-0.037c-1.023,-0.067 -1.714,-1.159 -1.232,-2.136l16.607,-28.765Zm13.57,17.809l8.517,0l-27.819,-48.124l-34.497,59.824l5.678,9.676l29.064,-50.117c0.296,-0.434 0.49,-0.766 1.445,-0.693c0.769,0.175 0.788,0.355 1.02,0.695l16.592,28.739Zm-16.836,-49.548l29.053,50.259c0.45,0.923 -0.15,2.06 -1.233,2.136l-33.191,0l-4.272,7.399l55.635,0.035l-34.543,-59.829l-11.449,0Zm-3.728,49.548l17.276,0l-8.638,-14.961l-8.638,14.961Z" style="fill:none;stroke:#00f;stroke-width:0.28px;stroke-linecap:butt;stroke-miterlimit:1.41421;"/>
                <rect x="529.249" y="467.716" width="155.906" height="155.906" style="fill:none;stroke:#00f;stroke-width:0.28px;"/>
                <g id="Inlay-outline4" serif:id="Inlay outline">
                    <path d="M612.898,481.863c32.735,2.929 58.368,30.401 58.368,63.813c0,35.357 -28.705,64.063 -64.063,64.063c-35.357,0 -64.063,-28.706 -64.063,-64.063c0,-33.438 25.675,-60.928 58.369,-63.813l0,-3.524l11.389,0l0,3.524Z" style="fill:none;stroke:#00f;stroke-width:0.28px;"/>
                </g>
            </g>
            <g id="Impossible-triangle4" serif:id="Impossible triangle">
                <path d="M406.677,581.21l-0.058,0.034l-8.86,-15.126c-0.279,-0.807 -0.138,-1.039 0.094,-1.51l43.173,-74.87c0.549,-0.816 0.684,-0.951 1.541,-0.852l17.538,0c0.074,0.005 0.148,0.01 0.222,0.015c0.832,0.165 0.961,0.402 1.251,0.836l43.226,74.87c0.273,0.553 0.227,1.175 -0.053,1.667l0.055,0.032l-8.888,15.41c-0.333,0.381 -0.536,0.615 -1.356,0.667l-86.482,-0.299c-0.609,-0.048 -1.118,-0.394 -1.403,-0.874Zm42.671,-51.009l-5.086,-8.81l-33.23,57.301l82.554,0.286l6.805,-11.822l-69.409,-0.044c-1.221,-0.08 -2.047,-1.384 -1.471,-2.551l19.837,-34.36Zm16.21,21.273l10.173,0l-33.23,-57.485l-41.207,71.461l6.783,11.558l34.717,-59.866c0.354,-0.518 0.585,-0.915 1.726,-0.828c0.919,0.21 0.941,0.424 1.218,0.831l19.82,34.329Zm-20.111,-59.186l34.704,60.035c0.538,1.102 -0.179,2.461 -1.473,2.552l-39.647,0l-5.103,8.838l66.457,0.041l-41.262,-71.466l-13.676,0Zm-4.453,59.186l20.636,0l-10.318,-17.871l-10.318,17.871Z" style="fill:none;fill-rule:nonzero;stroke:#00f;stroke-width:0.28px;stroke-linecap:butt;stroke-miterlimit:1.41421;"/>
                <g id="Inlay-outline5" serif:id="Inlay outline">
                    <path d="M456.992,481.863c32.735,2.929 58.368,30.401 58.368,63.813c0,35.357 -28.705,64.063 -64.063,64.063c-35.357,0 -64.063,-28.706 -64.063,-64.063c0,-33.438 25.675,-60.928 58.369,-63.813l0,-3.524l11.389,0l0,3.524Z" style="fill:none;stroke:#00f;stroke-width:0.28px;"/>
                </g>
                <circle cx="516.494" cy="610.865" r="4.535" style="fill:none;stroke:#00f;stroke-width:0.28px;"/>
                <circle cx="386.099" cy="610.865" r="4.535" style="fill:none;stroke:#00f;stroke-width:0.28px;"/>
                <circle cx="386.099" cy="480.472" r="4.535" style="fill:none;stroke:#00f;stroke-width:0.28px;"/>
                <circle cx="516.494" cy="480.472" r="4.535" style="fill:none;stroke:#00f;stroke-width:0.28px;"/>
                <rect x="373.343" y="467.716" width="155.906" height="155.906" style="fill:none;stroke:#00f;stroke-width:0.28px;"/>
            </g>
            <g id="Impossible-triangle5" serif:id="Impossible triangle">
                <g id="Inlay-outline6" serif:id="Inlay outline">
                    <path d="M301.086,481.863c32.735,2.929 58.368,30.401 58.368,63.813c0,35.357 -28.705,64.063 -64.063,64.063c-35.357,0 -64.063,-28.706 -64.063,-64.063c0,-33.438 25.675,-60.928 58.369,-63.813l0,-3.524l11.389,0l0,3.524Z" style="fill:none;stroke:#00f;stroke-width:0.28px;"/>
                </g>
                <g id="Inlay-outline7" serif:id="Inlay outline">
                    <path d="M300.463,488.666c29.153,2.608 51.982,27.074 51.982,56.831c0,31.489 -25.565,57.054 -57.054,57.054c-31.489,0 -57.054,-25.565 -57.054,-57.054c0,-29.78 22.866,-54.262 51.983,-56.831l0,-3.139l10.143,0l0,3.139Z" style="fill:none;stroke:#00f;stroke-width:0.28px;"/>
                </g>
                <circle cx="360.588" cy="610.865" r="4.535" style="fill:none;stroke:#00f;stroke-width:0.28px;"/>
                <circle cx="230.193" cy="610.865" r="4.535" style="fill:none;stroke:#00f;stroke-width:0.28px;"/>
                <circle cx="230.193" cy="480.472" r="4.535" style="fill:none;stroke:#00f;stroke-width:0.28px;"/>
                <circle cx="360.588" cy="480.472" r="4.535" style="fill:none;stroke:#00f;stroke-width:0.28px;"/>
                <rect x="217.437" y="467.716" width="155.906" height="155.906" style="fill:none;stroke:#00f;stroke-width:0.28px;"/>
            </g>
        </g>
        <g id="Inlays2" serif:id="Inlays">
            <g id="Impossible-triangle6" serif:id="Impossible triangle">
                <circle cx="1543.43" cy="252.283" r="4.535" style="fill:none;stroke:#00f;stroke-width:0.28px;"/>
                <circle cx="1413.04" cy="252.283" r="4.535" style="fill:none;stroke:#00f;stroke-width:0.28px;"/>
                <circle cx="1413.04" cy="121.89" r="4.535" style="fill:none;stroke:#00f;stroke-width:0.28px;"/>
                <circle cx="1543.43" cy="121.89" r="4.535" style="fill:none;stroke:#00f;stroke-width:0.28px;"/>
                <path d="M1433.62,222.629l-0.058,0.034l-8.86,-15.126c-0.279,-0.807 -0.138,-1.039 0.094,-1.51l43.173,-74.87c0.549,-0.816 0.684,-0.951 1.541,-0.852l17.538,0c0.074,0.005 0.148,0.01 0.222,0.015c0.832,0.165 0.961,0.402 1.251,0.836l43.226,74.87c0.273,0.553 0.227,1.175 -0.053,1.667l0.055,0.032l-8.888,15.41c-0.333,0.381 -0.536,0.615 -1.356,0.667l-86.482,-0.299c-0.609,-0.048 -1.118,-0.394 -1.403,-0.874Zm42.671,-51.009l-5.086,-8.81l-33.23,57.301l82.554,0.286l6.805,-11.822l-69.409,-0.044c-1.221,-0.08 -2.047,-1.384 -1.471,-2.551l19.837,-34.36Zm16.21,21.273l10.173,0l-33.23,-57.485l-41.207,71.461l6.783,11.558l34.717,-59.866c0.354,-0.518 0.585,-0.915 1.726,-0.828c0.919,0.21 0.941,0.424 1.218,0.831l19.82,34.329Zm-20.111,-59.186l34.704,60.035c0.538,1.102 -0.179,2.461 -1.473,2.552l-39.647,0l-5.103,8.838l66.457,0.041l-41.262,-71.466l-13.676,0Zm-4.453,59.186l20.636,0l-10.318,-17.871l-10.318,17.871Z" style="fill:none;stroke:#00f;stroke-width:0.28px;stroke-linecap:butt;stroke-miterlimit:1.41421;"/>
                <path d="M1129.07,217.327l-0.048,0.028l-7.418,-12.663c-0.233,-0.675 -0.115,-0.87 0.079,-1.264l36.143,-62.678c0.459,-0.683 0.572,-0.796 1.29,-0.713l14.682,0c0.062,0.004 0.124,0.008 0.186,0.012c0.696,0.138 0.804,0.337 1.047,0.7l36.187,62.678c0.229,0.463 0.19,0.984 -0.044,1.396l0.046,0.027l-7.441,12.9c-0.279,0.319 -0.448,0.515 -1.135,0.559l-72.399,-0.251c-0.51,-0.04 -0.936,-0.33 -1.175,-0.731Zm35.723,-42.703l-4.258,-7.375l-27.819,47.97l69.111,0.239l5.697,-9.897l-58.107,-0.037c-1.022,-0.067 -1.713,-1.158 -1.231,-2.135l16.607,-28.765Zm13.57,17.809l8.516,0l-27.818,-48.124l-34.497,59.824l5.678,9.676l29.064,-50.118c0.296,-0.433 0.49,-0.766 1.445,-0.693c0.769,0.176 0.788,0.355 1.019,0.696l16.593,28.739Zm-16.836,-49.548l29.053,50.259c0.45,0.922 -0.15,2.06 -1.233,2.136l-33.191,0l-4.272,7.399l55.635,0.034l-34.543,-59.828l-11.449,0Zm-3.728,49.548l17.276,0l-8.638,-14.961l-8.638,14.961Z" style="fill:none;stroke:#00f;stroke-width:0.28px;stroke-linecap:butt;stroke-miterlimit:1.41421;"/>
                <rect x="1400.28" y="109.134" width="155.906" height="155.906" style="fill:none;stroke:#00f;stroke-width:0.28px;"/>
                <g id="Inlay-outline8" serif:id="Inlay outline">
                    <path d="M1483.93,123.281c32.734,2.929 58.368,30.401 58.368,63.813c0,35.357 -28.706,64.063 -64.063,64.063c-35.357,0 -64.063,-28.706 -64.063,-64.063c0,-33.439 25.674,-60.928 58.369,-63.813l0,-3.525l11.389,0l0,3.525Z" style="fill:none;stroke:#00f;stroke-width:0.28px;"/>
                </g>
            </g>
            <g id="Impossible-triangle7" serif:id="Impossible triangle">
                <path d="M1277.71,222.628l-0.058,0.034l-8.86,-15.126c-0.279,-0.807 -0.138,-1.039 0.094,-1.51l43.173,-74.87c0.549,-0.816 0.684,-0.951 1.541,-0.852l17.538,0c0.074,0.005 0.148,0.01 0.222,0.015c0.832,0.165 0.961,0.402 1.251,0.836l43.226,74.87c0.273,0.553 0.227,1.175 -0.053,1.667l0.055,0.032l-8.888,15.41c-0.333,0.381 -0.536,0.615 -1.356,0.667l-86.482,-0.299c-0.609,-0.048 -1.118,-0.394 -1.403,-0.874Zm42.671,-51.009l-5.086,-8.81l-33.23,57.301l82.554,0.286l6.805,-11.822l-69.409,-0.044c-1.221,-0.08 -2.047,-1.384 -1.471,-2.551l19.837,-34.36Zm16.21,21.273l10.173,0l-33.23,-57.485l-41.207,71.461l6.783,11.558l34.717,-59.866c0.354,-0.518 0.585,-0.915 1.726,-0.828c0.919,0.21 0.941,0.424 1.218,0.831l19.82,34.329Zm-20.111,-59.186l34.704,60.035c0.538,1.102 -0.179,2.461 -1.473,2.552l-39.647,0l-5.103,8.838l66.457,0.041l-41.262,-71.466l-13.676,0Zm-4.453,59.186l20.636,0l-10.318,-17.871l-10.318,17.871Z" style="fill:none;fill-rule:nonzero;stroke:#00f;stroke-width:0.28px;stroke-linecap:butt;stroke-miterlimit:1.41421;"/>
                <g id="Inlay-outline9" serif:id="Inlay outline">
                    <path d="M1328.03,123.281c32.734,2.929 58.368,30.401 58.368,63.813c0,35.357 -28.706,64.063 -64.063,64.063c-35.357,0 -64.063,-28.706 -64.063,-64.063c0,-33.439 25.674,-60.928 58.369,-63.813l0,-3.525l11.389,0l0,3.525Z" style="fill:none;stroke:#00f;stroke-width:0.28px;"/>
                </g>
                <circle cx="1387.53" cy="252.283" r="4.535" style="fill:none;stroke:#00f;stroke-width:0.28px;"/>
                <circle cx="1257.13" cy="252.283" r="4.535" style="fill:none;stroke:#00f;stroke-width:0.28px;"/>
                <circle cx="1257.13" cy="121.89" r="4.535" style="fill:none;stroke:#00f;stroke-width:0.28px;"/>
                <circle cx="1387.53" cy="121.89" r="4.535" style="fill:none;stroke:#00f;stroke-width:0.28px;"/>
                <rect x="1244.38" y="109.134" width="155.906" height="155.906" style="fill:none;stroke:#00f;stroke-width:0.28px;"/>
            </g>
            <g id="Impossible-triangle8" serif:id="Impossible triangle">
                <g id="Inlay-outline10" serif:id="Inlay outline">
                    <path d="M1172.12,123.281c32.734,2.929 58.368,30.401 58.368,63.813c0,35.357 -28.706,64.063 -64.063,64.063c-35.357,0 -64.063,-28.706 -64.063,-64.063c0,-33.439 25.674,-60.928 58.369,-63.813l0,-3.525l11.389,0l0,3.525Z" style="fill:none;stroke:#00f;stroke-width:0.28px;"/>
                </g>
                <g id="Inlay-outline11" serif:id="Inlay outline">
                    <path d="M1171.5,130.083c29.153,2.609 51.982,27.075 51.982,56.831c0,31.489 -25.565,57.055 -57.054,57.055c-31.489,0 -57.054,-25.566 -57.054,-57.055c0,-29.78 22.865,-54.261 51.983,-56.831l0,-3.139l10.143,0l0,3.139Z" style="fill:none;stroke:#00f;stroke-width:0.28px;"/>
                </g>
                <circle cx="1231.62" cy="252.283" r="4.535" style="fill:none;stroke:#00f;stroke-width:0.28px;"/>
                <circle cx="1101.23" cy="252.283" r="4.535" style="fill:none;stroke:#00f;stroke-width:0.28px;"/>
                <circle cx="1101.23" cy="121.89" r="4.535" style="fill:none;stroke:#00f;stroke-width:0.28px;"/>
                <circle cx="1231.62" cy="121.89" r="4.535" style="fill:none;stroke:#00f;stroke-width:0.28px;"/>
                <rect x="1088.47" y="109.134" width="155.906" height="155.906" style="fill:none;stroke:#00f;stroke-width:0.28px;"/>
            </g>
        </g>
        <g id="Inlays3" serif:id="Inlays">
            <g id="Impossible-triangle9" serif:id="Impossible triangle">
                <circle cx="672.4" cy="252.283" r="4.535" style="fill:none;stroke:#00f;stroke-width:0.28px;"/>
                <circle cx="542.005" cy="252.283" r="4.535" style="fill:none;stroke:#00f;stroke-width:0.28px;"/>
                <circle cx="542.005" cy="121.89" r="4.535" style="fill:none;stroke:#00f;stroke-width:0.28px;"/>
                <circle cx="672.4" cy="121.89" r="4.535" style="fill:none;stroke:#00f;stroke-width:0.28px;"/>
                <path d="M562.583,222.629l-0.058,0.034l-8.86,-15.126c-0.279,-0.807 -0.138,-1.039 0.094,-1.51l43.173,-74.87c0.549,-0.816 0.684,-0.951 1.541,-0.852l17.538,0c0.074,0.005 0.148,0.01 0.222,0.015c0.832,0.165 0.961,0.402 1.251,0.836l43.226,74.87c0.273,0.553 0.227,1.175 -0.053,1.667l0.055,0.032l-8.888,15.41c-0.333,0.381 -0.536,0.615 -1.356,0.667l-86.482,-0.299c-0.609,-0.048 -1.118,-0.394 -1.403,-0.874Zm42.671,-51.009l-5.086,-8.81l-33.23,57.301l82.554,0.286l6.805,-11.822l-69.409,-0.044c-1.221,-0.08 -2.047,-1.384 -1.471,-2.551l19.837,-34.36Zm16.21,21.273l10.173,0l-33.23,-57.485l-41.207,71.461l6.783,11.558l34.717,-59.866c0.354,-0.518 0.585,-0.915 1.726,-0.828c0.919,0.21 0.941,0.424 1.218,0.831l19.82,34.329Zm-20.111,-59.186l34.704,60.035c0.538,1.102 -0.179,2.461 -1.473,2.552l-39.647,0l-5.103,8.838l66.457,0.041l-41.262,-71.466l-13.676,0Zm-4.453,59.186l20.636,0l-10.318,-17.871l-10.318,17.871Z" style="fill:none;stroke:#00f;stroke-width:0.28px;stroke-linecap:butt;stroke-miterlimit:1.41421;"/>
                <path d="M258.038,217.327l-0.048,0.028l-7.418,-12.663c-0.233,-0.675 -0.115,-0.87 0.079,-1.264l36.143,-62.678c0.46,-0.683 0.573,-0.796 1.29,-0.713l14.682,0c0.062,0.004 0.124,0.008 0.186,0.012c0.697,0.138 0.805,0.337 1.047,0.7l36.187,62.678c0.229,0.463 0.19,0.984 -0.044,1.396l0.046,0.027l-7.441,12.9c-0.278,0.319 -0.448,0.515 -1.135,0.559l-72.399,-0.251c-0.51,-0.04 -0.936,-0.33 -1.175,-0.731Zm35.723,-42.703l-4.258,-7.375l-27.819,47.97l69.111,0.239l5.697,-9.897l-58.106,-0.037c-1.023,-0.067 -1.714,-1.158 -1.232,-2.135l16.607,-28.765Zm13.57,17.809l8.517,0l-27.819,-48.124l-34.497,59.824l5.678,9.676l29.064,-50.118c0.296,-0.433 0.49,-0.766 1.445,-0.693c0.769,0.176 0.788,0.355 1.02,0.696l16.592,28.739Zm-16.836,-49.548l29.053,50.259c0.45,0.922 -0.15,2.06 -1.233,2.136l-33.191,0l-4.272,7.399l55.635,0.034l-34.543,-59.828l-11.449,0Zm-3.728,49.548l17.276,0l-8.638,-14.961l-8.638,14.961Z" style="fill:none;stroke:#00f;stroke-width:0.28px;stroke-linecap:butt;stroke-miterlimit:1.41421;"/>
                <rect x="529.249" y="109.134" width="155.906" height="155.906" style="fill:none;stroke:#00f;stroke-width:0.28px;"/>
                <g id="Inlay-outline12" serif:id="Inlay outline">
                    <path d="M612.898,123.281c32.735,2.929 58.368,30.401 58.368,63.813c0,35.357 -28.705,64.063 -64.063,64.063c-35.357,0 -64.063,-28.706 -64.063,-64.063c0,-33.439 25.675,-60.928 58.369,-63.813l0,-3.525l11.389,0l0,3.525Z" style="fill:none;stroke:#00f;stroke-width:0.28px;"/>
                </g>
            </g>
            <g id="Impossible-triangle10" serif:id="Impossible triangle">
                <path d="M406.677,222.628l-0.058,0.034l-8.86,-15.126c-0.279,-0.807 -0.138,-1.039 0.094,-1.51l43.173,-74.87c0.549,-0.816 0.684,-0.951 1.541,-0.852l17.538,0c0.074,0.005 0.148,0.01 0.222,0.015c0.832,0.165 0.961,0.402 1.251,0.836l43.226,74.87c0.273,0.553 0.227,1.175 -0.053,1.667l0.055,0.032l-8.888,15.41c-0.333,0.381 -0.536,0.615 -1.356,0.667l-86.482,-0.299c-0.609,-0.048 -1.118,-0.394 -1.403,-0.874Zm42.671,-51.009l-5.086,-8.81l-33.23,57.301l82.554,0.286l6.805,-11.822l-69.409,-0.044c-1.221,-0.08 -2.047,-1.384 -1.471,-2.551l19.837,-34.36Zm16.21,21.273l10.173,0l-33.23,-57.485l-41.207,71.461l6.783,11.558l34.717,-59.866c0.354,-0.518 0.585,-0.915 1.726,-0.828c0.919,0.21 0.941,0.424 1.218,0.831l19.82,34.329Zm-20.111,-59.186l34.704,60.035c0.538,1.102 -0.179,2.461 -1.473,2.552l-39.647,0l-5.103,8.838l66.457,0.041l-41.262,-71.466l-13.676,0Zm-4.453,59.186l20.636,0l-10.318,-17.871l-10.318,17.871Z" style="fill:none;fill-rule:nonzero;stroke:#00f;stroke-width:0.28px;stroke-linecap:butt;stroke-miterlimit:1.41421;"/>
                <g id="Inlay-outline13" serif:id="Inlay outline">
                    <path d="M456.992,123.281c32.735,2.929 58.368,30.401 58.368,63.813c0,35.357 -28.705,64.063 -64.063,64.063c-35.357,0 -64.063,-28.706 -64.063,-64.063c0,-33.439 25.675,-60.928 58.369,-63.813l0,-3.525l11.389,0l0,3.525Z" style="fill:none;stroke:#00f;stroke-width:0.28px;"/>
                </g>
                <circle cx="516.494" cy="252.283" r="4.535" style="fill:none;stroke:#00f;stroke-width:0.28px;"/>
                <circle cx="386.099" cy="252.283" r="4.535" style="fill:none;stroke:#00f;stroke-width:0.28px;"/>
                <circle cx="386.099" cy="121.89" r="4.535" style="fill:none;stroke:#00f;stroke-width:0.28px;"/>
                <circle cx="516.494" cy="121.89" r="4.535" style="fill:none;stroke:#00f;stroke-width:0.28px;"/>
                <rect x="373.343" y="109.134" width="155.906" height="155.906" style="fill:none;stroke:#00f;stroke-width:0.28px;"/>
            </g>
            <g id="Impossible-triangle11" serif:id="Impossible triangle">
                <g id="Inlay-outline14" serif:id="Inlay outline">
                    <path d="M301.086,123.281c32.735,2.929 58.368,30.401 58.368,63.813c0,35.357 -28.705,64.063 -64.063,64.063c-35.357,0 -64.063,-28.706 -64.063,-64.063c0,-33.439 25.675,-60.928 58.369,-63.813l0,-3.525l11.389,0l0,3.525Z" style="fill:none;stroke:#00f;stroke-width:0.28px;"/>
                </g>
                <g id="Inlay-outline15" serif:id="Inlay outline">
                    <path d="M300.463,130.083c29.153,2.609 51.982,27.075 51.982,56.831c0,31.489 -25.565,57.055 -57.054,57.055c-31.489,0 -57.054,-25.566 -57.054,-57.055c0,-29.78 22.866,-54.261 51.983,-56.831l0,-3.139l10.143,0l0,3.139Z" style="fill:none;stroke:#00f;stroke-width:0.28px;"/>
                </g>
                <circle cx="360.588" cy="252.283" r="4.535" style="fill:none;stroke:#00f;stroke-width:0.28px;"/>
                <circle cx="230.193" cy="252.283" r="4.535" style="fill:none;stroke:#00f;stroke-width:0.28px;"/>
                <circle cx="230.193" cy="121.89" r="4.535" style="fill:none;stroke:#00f;stroke-width:0.28px;"/>
                <circle cx="360.588" cy="121.89" r="4.535" style="fill:none;stroke:#00f;stroke-width:0.28px;"/>
                <rect x="217.437" y="109.134" width="155.906" height="155.906" style="fill:none;stroke:#00f;stroke-width:0.28px;"/>
            </g>
        </g>
        <g id="Inlays4" serif:id="Inlays">
            <g id="Impossible-triangle12" serif:id="Impossible triangle">
                <circle cx="1543.43" cy="969.448" r="4.535" style="fill:none;stroke:#00f;stroke-width:0.28px;"/>
                <circle cx="1413.04" cy="969.448" r="4.535" style="fill:none;stroke:#00f;stroke-width:0.28px;"/>
                <circle cx="1413.04" cy="839.054" r="4.535" style="fill:none;stroke:#00f;stroke-width:0.28px;"/>
                <circle cx="1543.43" cy="839.054" r="4.535" style="fill:none;stroke:#00f;stroke-width:0.28px;"/>
                <path d="M1433.62,939.794l-0.058,0.034l-8.86,-15.126c-0.279,-0.807 -0.138,-1.039 0.094,-1.51l43.173,-74.87c0.549,-0.816 0.684,-0.951 1.541,-0.852l17.538,0c0.074,0.005 0.148,0.01 0.222,0.015c0.832,0.165 0.961,0.402 1.251,0.836l43.226,74.87c0.273,0.553 0.227,1.175 -0.053,1.667l0.055,0.032l-8.888,15.41c-0.333,0.381 -0.536,0.615 -1.356,0.667l-86.482,-0.299c-0.609,-0.048 -1.118,-0.394 -1.403,-0.874Zm42.671,-51.009l-5.086,-8.81l-33.23,57.301l82.554,0.286l6.805,-11.822l-69.409,-0.044c-1.221,-0.08 -2.047,-1.384 -1.471,-2.551l19.837,-34.36Zm16.21,21.273l10.173,0l-33.23,-57.485l-41.207,71.461l6.783,11.558l34.717,-59.866c0.354,-0.518 0.585,-0.915 1.726,-0.828c0.919,0.21 0.941,0.424 1.218,0.831l19.82,34.329Zm-20.111,-59.186l34.704,60.035c0.538,1.102 -0.179,2.461 -1.473,2.552l-39.647,0l-5.103,8.838l66.457,0.041l-41.262,-71.466l-13.676,0Zm-4.453,59.186l20.636,0l-10.318,-17.871l-10.318,17.871Z" style="fill:none;stroke:#00f;stroke-width:0.28px;stroke-linecap:butt;stroke-miterlimit:1.41421;"/>
                <path d="M1129.07,934.492l-0.048,0.028l-7.418,-12.663c-0.233,-0.676 -0.115,-0.87 0.079,-1.264l36.143,-62.678c0.459,-0.683 0.572,-0.796 1.29,-0.714l14.682,0c0.062,0.005 0.124,0.009 0.186,0.013c0.696,0.138 0.804,0.337 1.047,0.7l36.187,62.678c0.229,0.463 0.19,0.984 -0.044,1.396l0.046,0.026l-7.441,12.901c-0.279,0.319 -0.448,0.515 -1.135,0.559l-72.399,-0.251c-0.51,-0.04 -0.936,-0.33 -1.175,-0.731Zm35.723,-42.703l-4.258,-7.376l-27.819,47.971l69.111,0.239l5.697,-9.897l-58.107,-0.037c-1.022,-0.067 -1.713,-1.158 -1.231,-2.135l16.607,-28.765Zm13.57,17.809l8.516,0l-27.818,-48.125l-34.497,59.825l5.678,9.676l29.064,-50.118c0.296,-0.433 0.49,-0.766 1.445,-0.693c0.769,0.176 0.788,0.355 1.019,0.696l16.593,28.739Zm-16.836,-49.549l29.053,50.259c0.45,0.923 -0.15,2.061 -1.233,2.137l-33.191,0l-4.272,7.399l55.635,0.034l-34.543,-59.829l-11.449,0Zm-3.728,49.549l17.276,0l-8.638,-14.961l-8.638,14.961Z" style="fill:none;stroke:#00f;stroke-width:0.28px;stroke-linecap:butt;stroke-miterlimit:1.41421;"/>
                <rect x="1400.28" y="826.299" width="155.906" height="155.906" style="fill:none;stroke:#00f;stroke-width:0.28px;"/>
                <g id="Inlay-outline16" serif:id="Inlay outline">
                    <path d="M1483.93,840.446c32.734,2.928 58.368,30.401 58.368,63.812c0,35.358 -28.706,64.063 -64.063,64.063c-35.357,0 -64.063,-28.705 -64.063,-64.063c0,-33.438 25.674,-60.927 58.369,-63.812l0,-3.525l11.389,0l0,3.525Z" style="fill:none;stroke:#00f;stroke-width:0.28px;"/>
                </g>
            </g>
            <g id="Impossible-triangle13" serif:id="Impossible triangle">
                <path d="M1277.71,939.793l-0.058,0.034l-8.86,-15.126c-0.279,-0.807 -0.138,-1.039 0.094,-1.51l43.173,-74.87c0.549,-0.816 0.684,-0.951 1.541,-0.852l17.538,0c0.074,0.005 0.148,0.01 0.222,0.015c0.832,0.165 0.961,0.402 1.251,0.836l43.226,74.87c0.273,0.553 0.227,1.175 -0.053,1.667l0.055,0.032l-8.888,15.41c-0.333,0.381 -0.536,0.615 -1.356,0.667l-86.482,-0.299c-0.609,-0.048 -1.118,-0.394 -1.403,-0.874Zm42.671,-51.009l-5.086,-8.81l-33.23,57.301l82.554,0.286l6.805,-11.822l-69.409,-0.044c-1.221,-0.08 -2.047,-1.384 -1.471,-2.551l19.837,-34.36Zm16.21,21.273l10.173,0l-33.23,-57.485l-41.207,71.461l6.783,11.558l34.717,-59.866c0.354,-0.518 0.585,-0.915 1.726,-0.828c0.919,0.21 0.941,0.424 1.218,0.831l19.82,34.329Zm-20.111,-59.186l34.704,60.035c0.538,1.102 -0.179,2.461 -1.473,2.552l-39.647,0l-5.103,8.838l66.457,0.041l-41.262,-71.466l-13.676,0Zm-4.453,59.186l20.636,0l-10.318,-17.871l-10.318,17.871Z" style="fill:none;fill-rule:nonzero;stroke:#00f;stroke-width:0.28px;stroke-linecap:butt;stroke-miterlimit:1.41421;"/>
                <g id="Inlay-outline17" serif:id="Inlay outline">
                    <path d="M1328.03,840.446c32.734,2.928 58.368,30.401 58.368,63.812c0,35.358 -28.706,64.063 -64.063,64.063c-35.357,0 -64.063,-28.705 -64.063,-64.063c0,-33.438 25.674,-60.927 58.369,-63.812l0,-3.525l11.389,0l0,3.525Z" style="fill:none;stroke:#00f;stroke-width:0.28px;"/>
                </g>
                <circle cx="1387.53" cy="969.448" r="4.535" style="fill:none;stroke:#00f;stroke-width:0.28px;"/>
                <circle cx="1257.13" cy="969.448" r="4.535" style="fill:none;stroke:#00f;stroke-width:0.28px;"/>
                <circle cx="1257.13" cy="839.054" r="4.535" style="fill:none;stroke:#00f;stroke-width:0.28px;"/>
                <circle cx="1387.53" cy="839.054" r="4.535" style="fill:none;stroke:#00f;stroke-width:0.28px;"/>
                <rect x="1244.38" y="826.299" width="155.906" height="155.906" style="fill:none;stroke:#00f;stroke-width:0.28px;"/>
            </g>
            <g id="Impossible-triangle14" serif:id="Impossible triangle">
                <g id="Inlay-outline18" serif:id="Inlay outline">
                    <path d="M1172.12,840.446c32.734,2.928 58.368,30.401 58.368,63.812c0,35.358 -28.706,64.063 -64.063,64.063c-35.357,0 -64.063,-28.705 -64.063,-64.063c0,-33.438 25.674,-60.927 58.369,-63.812l0,-3.525l11.389,0l0,3.525Z" style="fill:none;stroke:#00f;stroke-width:0.28px;"/>
                </g>
                <g id="Inlay-outline19" serif:id="Inlay outline">
                    <path d="M1171.5,847.248c29.153,2.608 51.982,27.075 51.982,56.831c0,31.489 -25.565,57.054 -57.054,57.054c-31.489,0 -57.054,-25.565 -57.054,-57.054c0,-29.78 22.865,-54.261 51.983,-56.831l0,-3.139l10.143,0l0,3.139Z" style="fill:none;stroke:#00f;stroke-width:0.28px;"/>
                </g>
                <circle cx="1231.62" cy="969.448" r="4.535" style="fill:none;stroke:#00f;stroke-width:0.28px;"/>
                <circle cx="1101.23" cy="969.448" r="4.535" style="fill:none;stroke:#00f;stroke-width:0.28px;"/>
                <circle cx="1101.23" cy="839.054" r="4.535" style="fill:none;stroke:#00f;stroke-width:0.28px;"/>
                <circle cx="1231.62" cy="839.054" r="4.535" style="fill:none;stroke:#00f;stroke-width:0.28px;"/>
                <rect x="1088.47" y="826.299" width="155.906" height="155.906" style="fill:none;stroke:#00f;stroke-width:0.28px;"/>
            </g>
        </g>
        <g id="Inlays5" serif:id="Inlays">
            <g id="Impossible-triangle15" serif:id="Impossible triangle">
                <circle cx="672.4" cy="969.448" r="4.535" style="fill:none;stroke:#00f;stroke-width:0.28px;"/>
                <circle cx="542.005" cy="969.448" r="4.535" style="fill:none;stroke:#00f;stroke-width:0.28px;"/>
                <circle cx="542.005" cy="839.054" r="4.535" style="fill:none;stroke:#00f;stroke-width:0.28px;"/>
                <circle cx="672.4" cy="839.054" r="4.535" style="fill:none;stroke:#00f;stroke-width:0.28px;"/>
                <path d="M562.583,939.794l-0.058,0.034l-8.86,-15.126c-0.279,-0.807 -0.138,-1.039 0.094,-1.51l43.173,-74.87c0.549,-0.816 0.684,-0.951 1.541,-0.852l17.538,0c0.074,0.005 0.148,0.01 0.222,0.015c0.832,0.165 0.961,0.402 1.251,0.836l43.226,74.87c0.273,0.553 0.227,1.175 -0.053,1.667l0.055,0.032l-8.888,15.41c-0.333,0.381 -0.536,0.615 -1.356,0.667l-86.482,-0.299c-0.609,-0.048 -1.118,-0.394 -1.403,-0.874Zm42.671,-51.009l-5.086,-8.81l-33.23,57.301l82.554,0.286l6.805,-11.822l-69.409,-0.044c-1.221,-0.08 -2.047,-1.384 -1.471,-2.551l19.837,-34.36Zm16.21,21.273l10.173,0l-33.23,-57.485l-41.207,71.461l6.783,11.558l34.717,-59.866c0.354,-0.518 0.585,-0.915 1.726,-0.828c0.919,0.21 0.941,0.424 1.218,0.831l19.82,34.329Zm-20.111,-59.186l34.704,60.035c0.538,1.102 -0.179,2.461 -1.473,2.552l-39.647,0l-5.103,8.838l66.457,0.041l-41.262,-71.466l-13.676,0Zm-4.453,59.186l20.636,0l-10.318,-17.871l-10.318,17.871Z" style="fill:none;stroke:#00f;stroke-width:0.28px;stroke-linecap:butt;stroke-miterlimit:1.41421;"/>
                <path d="M258.038,934.492l-0.048,0.028l-7.418,-12.663c-0.233,-0.676 -0.115,-0.87 0.079,-1.264l36.143,-62.678c0.46,-0.683 0.573,-0.796 1.29,-0.714l14.682,0c0.062,0.005 0.124,0.009 0.186,0.013c0.697,0.138 0.805,0.337 1.047,0.7l36.187,62.678c0.229,0.463 0.19,0.984 -0.044,1.396l0.046,0.026l-7.441,12.901c-0.278,0.319 -0.448,0.515 -1.135,0.559l-72.399,-0.251c-0.51,-0.04 -0.936,-0.33 -1.175,-0.731Zm35.723,-42.703l-4.258,-7.376l-27.819,47.971l69.111,0.239l5.697,-9.897l-58.106,-0.037c-1.023,-0.067 -1.714,-1.158 -1.232,-2.135l16.607,-28.765Zm13.57,17.809l8.517,0l-27.819,-48.125l-34.497,59.825l5.678,9.676l29.064,-50.118c0.296,-0.433 0.49,-0.766 1.445,-0.693c0.769,0.176 0.788,0.355 1.02,0.696l16.592,28.739Zm-16.836,-49.549l29.053,50.259c0.45,0.923 -0.15,2.061 -1.233,2.137l-33.191,0l-4.272,7.399l55.635,0.034l-34.543,-59.829l-11.449,0Zm-3.728,49.549l17.276,0l-8.638,-14.961l-8.638,14.961Z" style="fill:none;stroke:#00f;stroke-width:0.28px;stroke-linecap:butt;stroke-miterlimit:1.41421;"/>
                <rect x="529.249" y="826.299" width="155.906" height="155.906" style="fill:none;stroke:#00f;stroke-width:0.28px;"/>
                <g id="Inlay-outline20" serif:id="Inlay outline">
                    <path d="M612.898,840.446c32.735,2.928 58.368,30.401 58.368,63.812c0,35.358 -28.705,64.063 -64.063,64.063c-35.357,0 -64.063,-28.705 -64.063,-64.063c0,-33.438 25.675,-60.927 58.369,-63.812l0,-3.525l11.389,0l0,3.525Z" style="fill:none;stroke:#00f;stroke-width:0.28px;"/>
                </g>
            </g>
            <g id="Impossible-triangle16" serif:id="Impossible triangle">
                <path d="M406.677,939.793l-0.058,0.034l-8.86,-15.126c-0.279,-0.807 -0.138,-1.039 0.094,-1.51l43.173,-74.87c0.549,-0.816 0.684,-0.951 1.541,-0.852l17.538,0c0.074,0.005 0.148,0.01 0.222,0.015c0.832,0.165 0.961,0.402 1.251,0.836l43.226,74.87c0.273,0.553 0.227,1.175 -0.053,1.667l0.055,0.032l-8.888,15.41c-0.333,0.381 -0.536,0.615 -1.356,0.667l-86.482,-0.299c-0.609,-0.048 -1.118,-0.394 -1.403,-0.874Zm42.671,-51.009l-5.086,-8.81l-33.23,57.301l82.554,0.286l6.805,-11.822l-69.409,-0.044c-1.221,-0.08 -2.047,-1.384 -1.471,-2.551l19.837,-34.36Zm16.21,21.273l10.173,0l-33.23,-57.485l-41.207,71.461l6.783,11.558l34.717,-59.866c0.354,-0.518 0.585,-0.915 1.726,-0.828c0.919,0.21 0.941,0.424 1.218,0.831l19.82,34.329Zm-20.111,-59.186l34.704,60.035c0.538,1.102 -0.179,2.461 -1.473,2.552l-39.647,0l-5.103,8.838l66.457,0.041l-41.262,-71.466l-13.676,0Zm-4.453,59.186l20.636,0l-10.318,-17.871l-10.318,17.871Z" style="fill:none;fill-rule:nonzero;stroke:#00f;stroke-width:0.28px;stroke-linecap:butt;stroke-miterlimit:1.41421;"/>
                <g id="Inlay-outline21" serif:id="Inlay outline">
                    <path d="M456.992,840.446c32.735,2.928 58.368,30.401 58.368,63.812c0,35.358 -28.705,64.063 -64.063,64.063c-35.357,0 -64.063,-28.705 -64.063,-64.063c0,-33.438 25.675,-60.927 58.369,-63.812l0,-3.525l11.389,0l0,3.525Z" style="fill:none;stroke:#00f;stroke-width:0.28px;"/>
                </g>
                <circle cx="516.494" cy="969.448" r="4.535" style="fill:none;stroke:#00f;stroke-width:0.28px;"/>
                <circle cx="386.099" cy="969.448" r="4.535" style="fill:none;stroke:#00f;stroke-width:0.28px;"/>
                <circle cx="386.099" cy="839.054" r="4.535" style="fill:none;stroke:#00f;stroke-width:0.28px;"/>
                <circle cx="516.494" cy="839.054" r="4.535" style="fill:none;stroke:#00f;stroke-width:0.28px;"/>
                <rect x="373.343" y="826.299" width="155.906" height="155.906" style="fill:none;stroke:#00f;stroke-width:0.28px;"/>
            </g>
            <g id="Impossible-triangle17" serif:id="Impossible triangle">
                <g id="Inlay-outline22" serif:id="Inlay outline">
                    <path d="M301.086,840.446c32.735,2.928 58.368,30.401 58.368,63.812c0,35.358 -28.705,64.063 -64.063,64.063c-35.357,0 -64.063,-28.705 -64.063,-64.063c0,-33.438 25.675,-60.927 58.369,-63.812l0,-3.525l11.389,0l0,3.525Z" style="fill:none;stroke:#00f;stroke-width:0.28px;"/>
                </g>
                <g id="Inlay-outline23" serif:id="Inlay outline">
                    <path d="M300.463,847.248c29.153,2.608 51.982,27.075 51.982,56.831c0,31.489 -25.565,57.054 -57.054,57.054c-31.489,0 -57.054,-25.565 -57.054,-57.054c0,-29.78 22.866,-54.261 51.983,-56.831l0,-3.139l10.143,0l0,3.139Z" style="fill:none;stroke:#00f;stroke-width:0.28px;"/>
                </g>
                <circle cx="360.588" cy="969.448" r="4.535" style="fill:none;stroke:#00f;stroke-width:0.28px;"/>
                <circle cx="230.193" cy="969.448" r="4.535" style="fill:none;stroke:#00f;stroke-width:0.28px;"/>
                <circle cx="230.193" cy="839.054" r="4.535" style="fill:none;stroke:#00f;stroke-width:0.28px;"/>
                <circle cx="360.588" cy="839.054" r="4.535" style="fill:none;stroke:#00f;stroke-width:0.28px;"/>
                <rect x="217.437" y="826.299" width="155.906" height="155.906" style="fill:none;stroke:#00f;stroke-width:0.28px;"/>
            </g>
        </g>
        <g id="Inlays6" serif:id="Inlays">
            <g id="Impossible-triangle18" serif:id="Impossible triangle">
                <path d="M1998.14,324.565c0,2.503 2.032,4.536 4.535,4.536c2.503,0 4.536,-2.033 4.536,-4.536c0,-2.503 -2.033,-4.535 -4.536,-4.535c-2.503,0 -4.535,2.032 -4.535,4.535Z" style="fill:none;stroke:#00f;stroke-width:0.28px;"/>
                <path d="M1998.14,454.96c0,2.503 2.032,4.536 4.535,4.536c2.503,0 4.536,-2.033 4.536,-4.536c0,-2.503 -2.033,-4.535 -4.536,-4.535c-2.503,0 -4.535,2.032 -4.535,4.535Z" style="fill:none;stroke:#00f;stroke-width:0.28px;"/>
                <path d="M1867.75,454.96c0,2.503 2.032,4.536 4.535,4.536c2.503,0 4.535,-2.033 4.535,-4.536c0,-2.503 -2.032,-4.535 -4.535,-4.535c-2.503,0 -4.535,2.032 -4.535,4.535Z" style="fill:none;stroke:#00f;stroke-width:0.28px;"/>
                <path d="M1867.75,324.565c0,2.503 2.032,4.536 4.535,4.536c2.503,0 4.535,-2.033 4.535,-4.536c0,-2.503 -2.032,-4.535 -4.535,-4.535c-2.503,0 -4.535,2.032 -4.535,4.535Z" style="fill:none;stroke:#00f;stroke-width:0.28px;"/>
                <path d="M1973.02,434.382l0.034,0.058l-15.126,8.86c-0.807,0.279 -1.039,0.138 -1.51,-0.094l-74.87,-43.173c-0.816,-0.549 -0.951,-0.684 -0.852,-1.541l0,-17.538c0.005,-0.074 0.01,-0.148 0.015,-0.222c0.165,-0.832 0.402,-0.961 0.836,-1.251l74.87,-43.226c0.553,-0.273 1.175,-0.227 1.667,0.053l0.032,-0.055l15.41,8.888c0.381,0.333 0.615,0.536 0.667,1.356l-0.299,86.482c-0.048,0.609 -0.394,1.118 -0.874,1.403Zm-51.009,-42.671l-8.81,5.086l57.301,33.23l0.286,-82.554l-11.822,-6.805l-0.044,69.409c-0.08,1.221 -1.384,2.047 -2.551,1.471l-34.36,-19.837Zm21.273,-16.21l0,-10.173l-57.485,33.23l71.461,41.207l11.558,-6.783l-59.866,-34.717c-0.518,-0.354 -0.915,-0.585 -0.828,-1.726c0.21,-0.919 0.424,-0.941 0.831,-1.218l34.329,-19.82Zm-59.186,20.111l60.035,-34.704c1.102,-0.538 2.461,0.179 2.552,1.473l0,39.647l8.838,5.103l0.041,-66.457l-71.466,41.262l0,13.676Zm59.186,4.453l0,-20.636l-17.871,10.318l17.871,10.318Z" style="fill:none;stroke:#00f;stroke-width:0.28px;stroke-linecap:butt;stroke-miterlimit:1.41421;"/>
                <path d="M1967.72,738.927l0.029,0.049l-12.663,7.417c-0.676,0.234 -0.87,0.115 -1.264,-0.079l-62.679,-36.143c-0.683,-0.459 -0.796,-0.572 -0.713,-1.29l0,-14.682c0.004,-0.062 0.008,-0.124 0.013,-0.186c0.138,-0.696 0.336,-0.804 0.699,-1.047l62.679,-36.187c0.463,-0.229 0.983,-0.19 1.395,0.044l0.027,-0.046l12.901,7.441c0.319,0.279 0.515,0.449 0.558,1.135l-0.25,72.4c-0.04,0.509 -0.33,0.936 -0.732,1.174Zm-42.703,-35.722l-7.375,4.257l47.97,27.819l0.24,-69.111l-9.897,-5.697l-0.037,58.107c-0.067,1.022 -1.159,1.714 -2.136,1.231l-28.765,-16.606Zm17.809,-13.571l0,-8.516l-48.124,27.819l59.824,34.497l9.676,-5.679l-50.117,-29.064c-0.434,-0.296 -0.766,-0.489 -0.693,-1.445c0.176,-0.769 0.355,-0.787 0.695,-1.019l28.739,-16.593Zm-49.548,16.836l50.259,-29.052c0.923,-0.451 2.06,0.149 2.136,1.233l0,33.191l7.399,4.272l0.035,-55.636l-59.829,34.543l0,11.449Zm49.548,3.728l0,-17.275l-14.961,8.637l14.961,8.638Z" style="fill:none;stroke:#00f;stroke-width:0.28px;stroke-linecap:butt;stroke-miterlimit:1.41421;"/>
                <path d="M1859.53,311.81l0,155.906l155.906,0l0,-155.906l-155.906,0Z" style="fill:none;stroke:#00f;stroke-width:0.28px;"/>
                <g id="Inlay-outline24" serif:id="Inlay outline">
                    <path d="M1873.67,384.068c2.929,-32.735 30.401,-58.369 63.813,-58.369c35.357,0 64.063,28.706 64.063,64.063c0,35.357 -28.706,64.063 -64.063,64.063c-33.438,0 -60.928,-25.674 -63.813,-58.368l-3.524,0l0,-11.389l3.524,0Z" style="fill:none;stroke:#00f;stroke-width:0.28px;"/>
                </g>
            </g>
            <g id="Impossible-triangle19" serif:id="Impossible triangle">
                <path d="M1973.02,590.288l0.034,0.058l-15.126,8.86c-0.807,0.279 -1.039,0.138 -1.51,-0.094l-74.87,-43.173c-0.816,-0.549 -0.951,-0.684 -0.852,-1.541l0,-17.538c0.005,-0.074 0.01,-0.148 0.015,-0.222c0.165,-0.832 0.402,-0.961 0.836,-1.251l74.87,-43.226c0.553,-0.273 1.175,-0.227 1.667,0.053l0.032,-0.055l15.41,8.888c0.381,0.333 0.615,0.536 0.667,1.356l-0.299,86.482c-0.048,0.609 -0.394,1.118 -0.874,1.403Zm-51.009,-42.671l-8.81,5.086l57.301,33.23l0.286,-82.554l-11.822,-6.805l-0.044,69.409c-0.08,1.221 -1.384,2.047 -2.551,1.471l-34.36,-19.837Zm21.273,-16.21l0,-10.173l-57.485,33.23l71.461,41.207l11.558,-6.783l-59.866,-34.717c-0.518,-0.354 -0.915,-0.585 -0.828,-1.726c0.21,-0.919 0.424,-0.941 0.831,-1.218l34.329,-19.82Zm-59.186,20.111l60.035,-34.704c1.102,-0.538 2.461,0.179 2.552,1.473l0,39.647l8.838,5.103l0.041,-66.457l-71.466,41.262l0,13.676Zm59.186,4.453l0,-20.636l-17.871,10.318l17.871,10.318Z" style="fill:none;fill-rule:nonzero;stroke:#00f;stroke-width:0.28px;stroke-linecap:butt;stroke-miterlimit:1.41421;"/>
                <g id="Inlay-outline25" serif:id="Inlay outline">
                    <path d="M1873.67,539.974c2.929,-32.735 30.401,-58.369 63.813,-58.369c35.357,0 64.063,28.706 64.063,64.063c0,35.357 -28.706,64.063 -64.063,64.063c-33.438,0 -60.928,-25.674 -63.813,-58.368l-3.524,0l0,-11.389l3.524,0Z" style="fill:none;stroke:#00f;stroke-width:0.28px;"/>
                </g>
                <path d="M1998.14,480.471c0,2.503 2.032,4.536 4.535,4.536c2.503,0 4.536,-2.033 4.536,-4.536c0,-2.503 -2.033,-4.535 -4.536,-4.535c-2.503,0 -4.535,2.032 -4.535,4.535Z" style="fill:none;stroke:#00f;stroke-width:0.28px;"/>
                <path d="M1998.14,610.866c0,2.503 2.032,4.536 4.535,4.536c2.503,0 4.536,-2.033 4.536,-4.536c0,-2.503 -2.033,-4.535 -4.536,-4.535c-2.503,0 -4.535,2.032 -4.535,4.535Z" style="fill:none;stroke:#00f;stroke-width:0.28px;"/>
                <path d="M1867.75,610.866c0,2.503 2.032,4.536 4.535,4.536c2.503,0 4.535,-2.033 4.535,-4.536c0,-2.503 -2.032,-4.535 -4.535,-4.535c-2.503,0 -4.535,2.032 -4.535,4.535Z" style="fill:none;stroke:#00f;stroke-width:0.28px;"/>
                <path d="M1867.75,480.471c0,2.503 2.032,4.536 4.535,4.536c2.503,0 4.535,-2.033 4.535,-4.536c0,-2.503 -2.032,-4.535 -4.535,-4.535c-2.503,0 -4.535,2.032 -4.535,4.535Z" style="fill:none;stroke:#00f;stroke-width:0.28px;"/>
                <path d="M1859.53,467.716l0,155.906l155.906,0l0,-155.906l-155.906,0Z" style="fill:none;stroke:#00f;stroke-width:0.28px;"/>
            </g>
            <g id="Impossible-triangle20" serif:id="Impossible triangle">
                <g id="Inlay-outline26" serif:id="Inlay outline">
                    <path d="M1873.67,695.88c2.929,-32.735 30.401,-58.369 63.813,-58.369c35.357,0 64.063,28.706 64.063,64.063c0,35.357 -28.706,64.063 -64.063,64.063c-33.438,0 -60.928,-25.674 -63.813,-58.368l-3.524,0l0,-11.389l3.524,0Z" style="fill:none;stroke:#00f;stroke-width:0.28px;"/>
                </g>
                <g id="Inlay-outline27" serif:id="Inlay outline">
                    <path d="M1880.48,696.503c2.608,-29.154 27.074,-51.983 56.831,-51.983c31.489,0 57.054,25.565 57.054,57.054c0,31.489 -25.565,57.054 -57.054,57.054c-29.78,0 -54.262,-22.865 -56.831,-51.982l-3.139,0l0,-10.143l3.139,0Z" style="fill:none;stroke:#00f;stroke-width:0.28px;"/>
                </g>
                <path d="M1998.14,636.377c0,2.503 2.032,4.536 4.535,4.536c2.503,0 4.536,-2.033 4.536,-4.536c0,-2.503 -2.033,-4.535 -4.536,-4.535c-2.503,0 -4.535,2.032 -4.535,4.535Z" style="fill:none;stroke:#00f;stroke-width:0.28px;"/>
                <path d="M1998.14,766.772c0,2.503 2.032,4.536 4.535,4.536c2.503,0 4.536,-2.033 4.536,-4.536c0,-2.503 -2.033,-4.535 -4.536,-4.535c-2.503,0 -4.535,2.032 -4.535,4.535Z" style="fill:none;stroke:#00f;stroke-width:0.28px;"/>
                <path d="M1867.75,766.772c0,2.503 2.032,4.536 4.535,4.536c2.503,0 4.535,-2.033 4.535,-4.536c0,-2.503 -2.032,-4.535 -4.535,-4.535c-2.503,0 -4.535,2.032 -4.535,4.535Z" style="fill:none;stroke:#00f;stroke-width:0.28px;"/>
                <path d="M1867.75,636.377c0,2.503 2.032,4.536 4.535,4.536c2.503,0 4.535,-2.033 4.535,-4.536c0,-2.503 -2.032,-4.535 -4.535,-4.535c-2.503,0 -4.535,2.032 -4.535,4.535Z" style="fill:none;stroke:#00f;stroke-width:0.28px;"/>
                <path d="M1859.53,623.622l0,155.906l155.906,0l0,-155.906l-155.906,0Z" style="fill:none;stroke:#00f;stroke-width:0.28px;"/>
            </g>
        </g>
    </g>
</svg>
